<?xml version="1.0" encoding="UTF-8" standalone="no"?>
<svg
   xmlns:dc="http://purl.org/dc/elements/1.1/"
   xmlns:cc="http://creativecommons.org/ns#"
   xmlns:rdf="http://www.w3.org/1999/02/22-rdf-syntax-ns#"
   xmlns:svg="http://www.w3.org/2000/svg"
   xmlns="http://www.w3.org/2000/svg"
   xmlns:xlink="http://www.w3.org/1999/xlink"
   xmlns:sodipodi="http://sodipodi.sourceforge.net/DTD/sodipodi-0.dtd"
   xmlns:inkscape="http://www.inkscape.org/namespaces/inkscape"
   inkscape:version="1.0 (4035a4fb49, 2020-05-01)"
   sodipodi:docname="accessories-character-map.svg"
   id="svg19"
   version="1.1"
   height="64"
   width="64">
  <sodipodi:namedview
     inkscape:current-layer="svg19"
     inkscape:window-maximized="1"
     inkscape:window-y="36"
     inkscape:window-x="0"
     inkscape:cy="38.882945"
     inkscape:cx="-4.2027056"
     inkscape:zoom="4.2150193"
     showgrid="false"
     id="namedview21"
     inkscape:window-height="932"
     inkscape:window-width="1920"
     inkscape:pageshadow="2"
     inkscape:pageopacity="0"
     guidetolerance="10"
     gridtolerance="10"
     objecttolerance="10"
     borderopacity="1"
     bordercolor="#666666"
     pagecolor="#ffffff" />
  <metadata
     id="metadata2">
    <rdf:RDF>
      <cc:Work
         rdf:about="">
        <dc:format>image/svg+xml</dc:format>
        <dc:type
           rdf:resource="http://purl.org/dc/dcmitype/StillImage" />
        <dc:title></dc:title>
      </cc:Work>
    </rdf:RDF>
  </metadata>
  <defs
     id="defs7">
    <filter
       color-interpolation-filters="sRGB"
       height="1.048"
       width="1.048"
       y="-.024"
       x="-.024"
       id="filter2761">
      <feGaussianBlur
         id="feGaussianBlur4"
         stdDeviation="0.14552168" />
    </filter>
    <filter
       color-interpolation-filters="sRGB"
       height="1.048"
       width="1.048"
       y="-.024"
       x="-.024"
       id="filter2761-3675">
      <feGaussianBlur
         id="feGaussianBlur2"
         stdDeviation="0.14552168" />
    </filter>
    <linearGradient
       gradientUnits="userSpaceOnUse"
       gradientTransform="translate(1.8475,-2.1749)"
       y2="32.176"
       y1="32.176"
       x2="-.93244"
       x1="-9.2997"
       id="linearGradient1195">
      <stop
         id="stop5"
         offset="0"
         stop-color="#1478e6" />
      <stop
         id="stop7"
         offset="1"
         stop-color="#3c50e6" />
    </linearGradient>
    <filter
       color-interpolation-filters="sRGB"
       height="1.048"
       width="1.048"
       y="-.024"
       x="-.024"
       id="filter2761-367">
      <feGaussianBlur
         id="feGaussianBlur2-5"
         stdDeviation="0.14552168" />
    </filter>
    <filter
       color-interpolation-filters="sRGB"
       height="1.1199"
       width="1.1201"
       y="-.059946"
       x="-.060054"
       id="filter924">
      <feGaussianBlur
         id="feGaussianBlur5"
         stdDeviation="0.2078715" />
    </filter>
    <filter
       color-interpolation-filters="sRGB"
       height="1.1208"
       width="1.1192"
       y="-.0604"
       x="-.059605"
       id="filter852">
      <feGaussianBlur
         id="feGaussianBlur8"
         stdDeviation="0.23538182" />
    </filter>
    <filter
       color-interpolation-filters="sRGB"
       height="1.048"
       width="1.048"
       y="-.024"
       x="-.024"
       id="filter2761-36">
      <feGaussianBlur
         id="feGaussianBlur2-7"
         stdDeviation="0.14552168" />
    </filter>
    <linearGradient
       gradientUnits="userSpaceOnUse"
       gradientTransform="translate(58.81987,-4.9486)"
       y2="16.321"
       y1="16.321"
       x2="-16.238"
       x1="-22.655"
       id="linearGradient1174">
      <stop
         id="stop5-3"
         offset="0"
         stop-color="#0a82f0" />
      <stop
         id="stop7-5"
         offset="1"
         stop-color="#3250e6" />
    </linearGradient>
    <filter
       inkscape:collect="always"
       style="color-interpolation-filters:sRGB"
       id="filter1052"
       x="-0.048"
       width="1.096"
       y="-0.048"
       height="1.096">
      <feGaussianBlur
         inkscape:collect="always"
         stdDeviation="0.29103594"
         id="feGaussianBlur1054" />
    </filter>
    <linearGradient
       inkscape:collect="always"
       xlink:href="#linearGradient1038"
       id="linearGradient1040"
       x1="37.040939"
       y1="15.874687"
       x2="51.592735"
       y2="1.3228906"
       gradientUnits="userSpaceOnUse"
       gradientTransform="matrix(3.779602,0,0,3.779602,-135.50001,-0.50000009)" />
    <linearGradient
       inkscape:collect="always"
       id="linearGradient1038">
      <stop
         style="stop-color:#f5f5f5;stop-opacity:1"
         offset="0"
         id="stop1034" />
      <stop
         style="stop-color:#fafafa;stop-opacity:1"
         offset="1"
         id="stop1036" />
    </linearGradient>
    <filter
       id="filter2761-3"
       x="-.024"
       y="-.024"
       width="1.048"
       height="1.048"
       color-interpolation-filters="sRGB">
      <feGaussianBlur
         stdDeviation="0.14552168"
         id="feGaussianBlur895" />
    </filter>
  </defs>
  <rect
     transform="scale(3.779602)"
     ry="3.4395156"
     y="1.1906016"
     x="1.1906018"
     height="14.551797"
     width="14.551797"
     id="rect1042"
     style="opacity:0.3;fill:#000000;fill-opacity:1;stroke-width:0.529156;stroke-linecap:round;filter:url(#filter1052)" />
  <rect
     style="fill:url(#linearGradient1040);fill-opacity:1;stroke-width:2;stroke-linecap:round"
     id="rect1032"
     width="55"
     height="55"
     x="4.5"
     y="4.5"
     ry="13" />
  <g
     id="g17"
     stroke-width="15.938"
     fill="#333"
     transform="matrix(.15595 0 0 .15595 16.169 15.732)">
    <path
       id="path13"
       d="m103 61.363c22.958 0 41.635 18.678 41.635 41.635 0 3.313 2.687 6 6 6s6-2.687 6-6c0-29.574-24.061-53.635-53.635-53.635s-53.636 24.061-53.636 53.635 24.061 53.635 53.635 53.635c18.99 0 36.745-10.195 46.336-26.607 1.672-2.861 0.708-6.535-2.153-8.208-2.86-1.67-6.535-0.707-8.208 2.153-7.448 12.745-21.233 20.662-35.976 20.662-22.958 0-41.635-18.678-41.635-41.635s18.679-41.635 41.637-41.635z" />
    <path
       id="path15"
       d="m205.7 95.053c-3.76-50.059-44.326-90.782-94.359-94.727-30.244-2.385-59.829 8.491-81.176 29.839-21.348 21.348-32.224 50.935-29.839 81.176 3.931 49.847 44.483 90.399 94.329 94.329 2.747 0.217 5.484 0.323 8.214 0.323 27.329 0 53.553-10.753 72.962-30.161 2.343-2.344 2.343-6.143 0-8.485s-6.142-2.344-8.485-1e-3c-18.862 18.861-45.012 28.47-71.747 26.361-44.023-3.471-79.838-39.286-83.31-83.31-2.108-26.735 7.5-52.887 26.361-71.747 18.861-18.861 45.008-28.473 71.747-26.361 44.189 3.483 80.016 39.451 83.337 83.662 0.455 6.057 0.321 12.142-0.397 18.086-0.762 6.304-4.578 11.805-10.208 14.713-5.095 2.633-10.819 2.623-15.706-0.026-2.913-1.582-6.556-0.499-8.134 2.415-1.58 2.913-0.499 6.555 2.415 8.134 8.435 4.573 18.251 4.623 26.933 0.139 9.164-4.734 15.375-13.682 16.613-23.935 0.812-6.719 0.963-13.59 0.45-20.424z" />
  </g>
</svg>
