<?xml version="1.0" encoding="UTF-8" standalone="no"?>
<svg
   xmlns:dc="http://purl.org/dc/elements/1.1/"
   xmlns:cc="http://creativecommons.org/ns#"
   xmlns:rdf="http://www.w3.org/1999/02/22-rdf-syntax-ns#"
   xmlns:svg="http://www.w3.org/2000/svg"
   xmlns="http://www.w3.org/2000/svg"
   xmlns:xlink="http://www.w3.org/1999/xlink"
   xmlns:sodipodi="http://sodipodi.sourceforge.net/DTD/sodipodi-0.dtd"
   xmlns:inkscape="http://www.inkscape.org/namespaces/inkscape"
   inkscape:version="1.0 (4035a4fb49, 2020-05-01)"
   sodipodi:docname="access.svg"
   id="svg32"
   version="1.1"
   height="64"
   width="64">
  <sodipodi:namedview
     inkscape:current-layer="svg32"
     inkscape:window-maximized="1"
     inkscape:window-y="36"
     inkscape:window-x="0"
     inkscape:cy="46.891935"
     inkscape:cx="14.081722"
     inkscape:zoom="4.2150193"
     showgrid="false"
     id="namedview34"
     inkscape:window-height="932"
     inkscape:window-width="1920"
     inkscape:pageshadow="2"
     inkscape:pageopacity="0"
     guidetolerance="10"
     gridtolerance="10"
     objecttolerance="10"
     borderopacity="1"
     bordercolor="#666666"
     pagecolor="#ffffff" />
  <metadata
     id="metadata2">
    <rdf:RDF>
      <cc:Work
         rdf:about="">
        <dc:format>image/svg+xml</dc:format>
        <dc:type
           rdf:resource="http://purl.org/dc/dcmitype/StillImage" />
        <dc:title></dc:title>
      </cc:Work>
    </rdf:RDF>
  </metadata>
  <defs
     id="defs20">
    <linearGradient
       gradientUnits="userSpaceOnUse"
       gradientTransform="matrix(2.1429,0,0,2.1429,-826.36,-1107.5)"
       y2="517.8"
       y1="545.8"
       x2="399.57"
       x1="399.57"
       id="b">
      <stop
         id="stop4"
         offset="0"
         stop-color="#3889e9" />
      <stop
         id="stop6"
         offset="1"
         stop-color="#5ea5fb" />
    </linearGradient>
    <filter
       color-interpolation-filters="sRGB"
       height="1.0682"
       width="1.0762"
       y="-.034105"
       x="-.038118"
       id="d">
      <feGaussianBlur
         id="feGaussianBlur9"
         stdDeviation="0.22736867" />
    </filter>
    <filter
       color-interpolation-filters="sRGB"
       height="1.048"
       width="1.048"
       y="-.024"
       x="-.024"
       id="filter2761">
      <feGaussianBlur
         id="feGaussianBlur12"
         stdDeviation="0.14552168" />
    </filter>
    <linearGradient
       gradientUnits="userSpaceOnUse"
       gradientTransform="matrix(3.7796,0,0,3.7796,-0.73656684,-1066.8942)"
       y2="295.6"
       y1="281.24"
       x2="1.3927"
       x1="15.752"
       id="linearGradient2645-3">
      <stop
         id="stop15"
         offset="0"
         stop-color="#0a82f0" />
      <stop
         id="stop17"
         offset="1"
         stop-color="#3250e6" />
    </linearGradient>
    <filter
       color-interpolation-filters="sRGB"
       height="1.048"
       width="1.048"
       y="-.024"
       x="-.024"
       id="filter2761-6">
      <feGaussianBlur
         id="feGaussianBlur2"
         stdDeviation="0.14552168" />
    </filter>
    <linearGradient
       gradientUnits="userSpaceOnUse"
       gradientTransform="matrix(0.90672652,0,0,0.96837183,-384.52955,-478.6488)"
       y2="546.21"
       y1="507.72"
       x2="394.95"
       x1="352.61"
       id="c">
      <stop
         id="stop5"
         offset="0"
         stop-color="#fafdfc" />
      <stop
         id="stop7"
         offset="1"
         stop-color="#c6efff" />
    </linearGradient>
    <linearGradient
       gradientUnits="userSpaceOnUse"
       gradientTransform="translate(-.13126 -280.07)"
       y2="295.6"
       y1="281.24"
       x2="1.3927"
       x1="15.752"
       id="linearGradient2645-3-7">
      <stop
         id="stop10"
         offset="0"
         stop-color="#0a82f0" />
      <stop
         id="stop12"
         offset="1"
         stop-color="#3250e6" />
    </linearGradient>
    <linearGradient
       gradientUnits="userSpaceOnUse"
       gradientTransform="matrix(3.5390681,0,0,3.779602,-76.023959,-9.2650935e-7)"
       y2="8.326"
       y1="8.326"
       x2="14.354"
       x1="2.5804"
       id="linearGradient981">
      <stop
         id="stop15-5"
         offset="0"
         stop-color="#1478f0" />
      <stop
         id="stop17-3"
         offset="1"
         stop-color="#145af0" />
    </linearGradient>
    <clipPath
       id="a">
      <circle
         id="circle2"
         style="paint-order:stroke markers fill"
         stroke-width=".491"
         stroke-opacity=".039"
         fill="#d86eb0"
         r="6.879"
         cy="288.53"
         cx="8.467" />
    </clipPath>
    <filter
       inkscape:collect="always"
       style="color-interpolation-filters:sRGB"
       id="filter1052"
       x="-0.048"
       width="1.096"
       y="-0.048"
       height="1.096">
      <feGaussianBlur
         inkscape:collect="always"
         stdDeviation="0.29103594"
         id="feGaussianBlur1054" />
    </filter>
    <linearGradient
       inkscape:collect="always"
       xlink:href="#linearGradient1038"
       id="linearGradient1040"
       x1="37.040939"
       y1="15.874687"
       x2="51.592735"
       y2="1.3228906"
       gradientUnits="userSpaceOnUse"
       gradientTransform="matrix(3.779602,0,0,3.779602,-135.50001,-0.50000002)" />
    <linearGradient
       inkscape:collect="always"
       id="linearGradient1038">
      <stop
         style="stop-color:#3250e6;stop-opacity:1"
         offset="0"
         id="stop1034" />
      <stop
         style="stop-color:#0a82f0;stop-opacity:1"
         offset="1"
         id="stop1036" />
    </linearGradient>
    <style
       type="text/css"
       id="style904" />
    <style
       type="text/css"
       id="style906" />
    <style
       type="text/css"
       id="style908" />
    <linearGradient
       id="linearGradient1448"
       x1="3.9687"
       x2="3.9687"
       y1="16.404"
       y2="2.6458"
       gradientTransform="matrix(0.91666,0,0,0.91666,23.056117,0.70545)"
       gradientUnits="userSpaceOnUse">
      <stop
         stop-color="#00a0ff"
         offset="0"
         id="stop910" />
      <stop
         stop-color="#37beff"
         offset="1"
         id="stop912" />
    </linearGradient>
    <filter
       id="filter861"
       x="-.027"
       y="-.027"
       width="1.054"
       height="1.054"
       color-interpolation-filters="sRGB">
      <feGaussianBlur
         stdDeviation="0.16371"
         id="feGaussianBlur915" />
    </filter>
  </defs>
  <rect
     transform="scale(3.779602)"
     ry="3.4395156"
     y="1.1906018"
     x="1.1906018"
     height="14.551797"
     width="14.551797"
     id="rect1042"
     style="opacity:0.3;fill:#000000;fill-opacity:1;stroke-width:0.529156;stroke-linecap:round;filter:url(#filter1052)" />
  <rect
     style="fill:url(#linearGradient1040);fill-opacity:1;stroke-width:2;stroke-linecap:round"
     id="rect1032"
     width="55"
     height="55"
     x="4.5"
     y="4.5"
     ry="13" />
  <circle
     id="circle22"
     stroke-width="1.5715"
     fill="url(#b)"
     r="0"
     cy="32.044"
     cx="32.02" />
  <path
     id="path28"
     stroke-width=".73333"
     opacity=".25"
     filter="url(#d)"
     fill-opacity=".85204"
     enable-background="new"
     d="m56.312 0.45712c0 1.0113-0.82843 1.8321-1.8492 1.8321-1.0207 0-1.8492-0.82079-1.8492-1.8321 0-1.0113 0.82843-1.8321 1.8492-1.8321 1.0207 0 1.8492 0.82079 1.8492 1.8321zm4.6153 1.9481c-0.08553 0.013727-0.16634 0.047149-0.23561 0.097499l-6.3166 0.97592-6.2825-0.98938c-0.1624-0.1167-0.39074-0.15165-0.5722-0.065003-0.18147 0.086644-0.30043 0.292-0.30293 0.48742-0.0023 0.19544 0.12372 0.36399 0.30293 0.45493l4.923 1.5473-0.03367 3.5521-1.7371 5.3199c-0.16731 0.24225-0.11631 0.55336 0.13464 0.71486 0.25096 0.16152 0.60685 0.11231 0.77417-0.12996l2.8034-5.7423 2.7504 5.7324c0.14872 0.25126 0.48025 0.33854 0.7405 0.19497 0.26026-0.14357 0.35068-0.46362 0.20196-0.71488l-1.7049-5.3428-0.06731-3.3441 4.9921-1.8065c0.2017-0.13655 0.28932-0.39506 0.20196-0.61739-0.08737-0.22236-0.32746-0.3519-0.57222-0.32496h1.8e-5z"
     transform="matrix(2.1428 0 0 2.1428 -84.515 17.804)" />
  <path
     id="path30"
     stroke-width="1.5714"
     fill="#fff"
     enable-background="new"
     d="m36.149 18.784c0 2.167-1.7752 3.9259-3.9625 3.9259-2.1872 0-3.9625-1.7588-3.9625-3.9259 0-2.167 1.7752-3.9259 3.9625-3.9259 2.1872 0 3.9625 1.7588 3.9625 3.9259zm9.8897 4.1744c-0.18328 0.02941-0.35644 0.10103-0.50487 0.20892l-13.535 2.0912-13.462-2.1201c-0.34799-0.25007-0.83728-0.32496-1.2261-0.13929-0.38886 0.18566-0.64377 0.6257-0.64912 1.0445-0.0049 0.41879 0.26511 0.77996 0.64912 0.97483l10.549 3.3156-0.07215 7.6115-3.7223 11.4c-0.35851 0.5191-0.24923 1.1857 0.28851 1.5318 0.53776 0.34611 1.3004 0.24066 1.6589-0.27848l6.0072-12.305 5.8936 12.283c0.31868 0.5384 1.0291 0.72543 1.5868 0.41778 0.55769-0.30764 0.75144-0.99345 0.43276-1.5319l-3.6533-11.449-0.14423-7.1658 10.697-3.871c0.43221-0.2926 0.61996-0.84654 0.43276-1.323-0.18722-0.47648-0.70169-0.75406-1.2262-0.69633h3.8e-5z" />
  <circle
     id="circle19"
     stroke-width="1.00001"
     fill="#5e4aa6"
     r="0"
     cy="-1243.0057"
     cx="-1391.7646" />
  <g
     transform="matrix(3.779602,0,0,3.779602,-58.696495,-1.8600012)"
     id="g930"
     stroke-width="0.26458"
     fill="#5e4aa6">
    <circle
       id="circle922"
       r="0"
       cy="-328.38"
       cx="-330.35001" />
    <circle
       id="circle924"
       r="0"
       cy="-328.37"
       cx="-330.35001" />
    <circle
       id="circle926"
       r="0"
       cy="-328.37"
       cx="-330.35001" />
    <circle
       id="circle928"
       r="0"
       cy="-336.82999"
       cx="-352.63" />
  </g>
  <g
     transform="matrix(3.779602,0,0,3.779602,-58.696495,-1.8600012)"
     id="g972"
     fill="#5e4aa6">
    <g
       id="g940"
       stroke-width="0.26458">
      <circle
         id="circle932"
         r="0"
         cy="-328.38"
         cx="-330.35001" />
      <circle
         id="circle934"
         r="0"
         cy="-328.37"
         cx="-330.35001" />
      <circle
         id="circle936"
         r="0"
         cy="-328.37"
         cx="-330.35001" />
      <circle
         id="circle938"
         r="0"
         cy="-336.82999"
         cx="-352.63" />
    </g>
    <g
       id="g950"
       stroke-width="0.26458"
       transform="translate(32.665,-10.979)">
      <circle
         id="circle942"
         r="0"
         cy="-328.38"
         cx="-330.35001" />
      <circle
         id="circle944"
         r="0"
         cy="-326.25"
         cx="-312.10999" />
      <circle
         id="circle946"
         r="0"
         cy="-333.07001"
         cx="-306.01999" />
      <circle
         id="circle948"
         r="0"
         cy="-326.01001"
         cx="-308.84" />
    </g>
    <g
       id="g960"
       transform="matrix(0.26458,0,0,0.26458,4.6401e-6,4.6401e-6)">
      <circle
         id="circle952"
         r="0"
         cy="-1237.8"
         cx="-1331.1" />
      <circle
         id="circle954"
         r="0"
         cy="-1229.7"
         cx="-1262.2" />
      <circle
         id="circle956"
         r="0"
         cy="-1255.5"
         cx="-1239.2" />
      <circle
         id="circle958"
         r="0"
         cy="-1228.8"
         cx="-1249.8" />
    </g>
    <g
       id="g970"
       stroke-width="0.26458"
       transform="translate(-21.833,0.89722)">
      <circle
         id="circle962"
         r="0"
         cy="-328.38"
         cx="-330.35001" />
      <circle
         id="circle964"
         r="0"
         cy="-326.25"
         cx="-312.10999" />
      <circle
         id="circle966"
         r="0"
         cy="-333.07001"
         cx="-306.01999" />
      <circle
         id="circle968"
         r="0"
         cy="-326.01001"
         cx="-308.84" />
    </g>
  </g>
</svg>
