<?xml version="1.0" encoding="UTF-8" standalone="no"?>
<svg
   xmlns:dc="http://purl.org/dc/elements/1.1/"
   xmlns:cc="http://creativecommons.org/ns#"
   xmlns:rdf="http://www.w3.org/1999/02/22-rdf-syntax-ns#"
   xmlns:svg="http://www.w3.org/2000/svg"
   xmlns="http://www.w3.org/2000/svg"
   xmlns:xlink="http://www.w3.org/1999/xlink"
   xmlns:sodipodi="http://sodipodi.sourceforge.net/DTD/sodipodi-0.dtd"
   xmlns:inkscape="http://www.inkscape.org/namespaces/inkscape"
   inkscape:version="1.0 (4035a4fb49, 2020-05-01)"
   sodipodi:docname="accessories-screenshot.svg"
   id="svg28"
   viewBox="0 0 16.933 16.933"
   version="1.1"
   height="64"
   width="64">
  <sodipodi:namedview
     inkscape:current-layer="svg28"
     inkscape:window-maximized="1"
     inkscape:window-y="36"
     inkscape:window-x="0"
     inkscape:cy="26.469592"
     inkscape:cx="-0.68938191"
     inkscape:zoom="5.9609375"
     showgrid="false"
     id="namedview30"
     inkscape:window-height="932"
     inkscape:window-width="1920"
     inkscape:pageshadow="2"
     inkscape:pageopacity="0"
     guidetolerance="10"
     gridtolerance="10"
     objecttolerance="10"
     borderopacity="1"
     bordercolor="#666666"
     pagecolor="#ffffff" />
  <defs
     id="defs10">
    <filter
       color-interpolation-filters="sRGB"
       height="1.048"
       width="1.048"
       y="-.024"
       x="-.024"
       id="filter2761">
      <feGaussianBlur
         id="feGaussianBlur2"
         stdDeviation="0.14552168" />
    </filter>
    <linearGradient
       gradientUnits="userSpaceOnUse"
       gradientTransform="matrix(.26458 0 0 .26458 27.829 18.943)"
       y2="14"
       y1="50"
       x2="45.094"
       x1="45.094"
       id="b">
      <stop
         id="stop5"
         offset="0" />
      <stop
         id="stop7"
         offset="1"
         stop-opacity="0" />
    </linearGradient>
    <filter
       color-interpolation-filters="sRGB"
       height="1.048"
       width="1.048"
       y="-.024"
       x="-.024"
       id="filter2761-6">
      <feGaussianBlur
         id="feGaussianBlur2-75"
         stdDeviation="0.14552168" />
    </filter>
    <linearGradient
       gradientUnits="userSpaceOnUse"
       gradientTransform="translate(1.8475,-2.1749)"
       y2="32.176"
       y1="32.176"
       x2="-.93244"
       x1="-9.2997"
       id="linearGradient1195">
      <stop
         id="stop5-35"
         offset="0"
         stop-color="#1478e6" />
      <stop
         id="stop7-6"
         offset="1"
         stop-color="#3c50e6" />
    </linearGradient>
    <filter
       color-interpolation-filters="sRGB"
       height="1.048"
       width="1.048"
       y="-.024"
       x="-.024"
       id="filter2761-367">
      <feGaussianBlur
         id="feGaussianBlur2-5"
         stdDeviation="0.14552168" />
    </filter>
    <filter
       color-interpolation-filters="sRGB"
       height="1.1199"
       width="1.1201"
       y="-.059946"
       x="-.060054"
       id="filter924">
      <feGaussianBlur
         id="feGaussianBlur5"
         stdDeviation="0.2078715" />
    </filter>
    <filter
       color-interpolation-filters="sRGB"
       height="1.1208"
       width="1.1192"
       y="-.0604"
       x="-.059605"
       id="filter852">
      <feGaussianBlur
         id="feGaussianBlur8"
         stdDeviation="0.23538182" />
    </filter>
    <filter
       color-interpolation-filters="sRGB"
       height="1.048"
       width="1.048"
       y="-.024"
       x="-.024"
       id="filter2761-36">
      <feGaussianBlur
         id="feGaussianBlur2-7"
         stdDeviation="0.14552168" />
    </filter>
    <linearGradient
       gradientUnits="userSpaceOnUse"
       gradientTransform="translate(58.81987,-4.9486)"
       y2="16.321"
       y1="16.321"
       x2="-16.238"
       x1="-22.655"
       id="linearGradient1174">
      <stop
         id="stop5-3"
         offset="0"
         stop-color="#0a82f0" />
      <stop
         id="stop7-5"
         offset="1"
         stop-color="#3250e6" />
    </linearGradient>
    <filter
       inkscape:collect="always"
       style="color-interpolation-filters:sRGB"
       id="filter1052"
       x="-0.048"
       width="1.096"
       y="-0.048"
       height="1.096">
      <feGaussianBlur
         inkscape:collect="always"
         stdDeviation="0.29103594"
         id="feGaussianBlur1054" />
    </filter>
    <linearGradient
       inkscape:collect="always"
       xlink:href="#linearGradient1038"
       id="linearGradient1040"
       x1="37.040939"
       y1="15.874687"
       x2="51.592735"
       y2="1.3228906"
       gradientUnits="userSpaceOnUse"
       gradientTransform="translate(-35.850339,-0.13228906)" />
    <linearGradient
       inkscape:collect="always"
       id="linearGradient1038">
      <stop
         style="stop-color:#f5f5f5;stop-opacity:1"
         offset="0"
         id="stop1034" />
      <stop
         style="stop-color:#fafafa;stop-opacity:1"
         offset="1"
         id="stop1036" />
    </linearGradient>
    <filter
       id="filter2761-3"
       x="-.024"
       y="-.024"
       width="1.048"
       height="1.048"
       color-interpolation-filters="sRGB">
      <feGaussianBlur
         stdDeviation="0.14552168"
         id="feGaussianBlur895" />
    </filter>
  </defs>
  <metadata
     id="metadata12">
    <rdf:RDF>
      <cc:Work
         rdf:about="">
        <dc:format>image/svg+xml</dc:format>
        <dc:type
           rdf:resource="http://purl.org/dc/dcmitype/StillImage" />
        <dc:title></dc:title>
      </cc:Work>
    </rdf:RDF>
  </metadata>
  <rect
     ry="3.4395156"
     y="1.1906018"
     x="1.1906018"
     height="14.551797"
     width="14.551797"
     id="rect1042"
     style="opacity:0.3;fill:#000000;fill-opacity:1;stroke-width:0.529156;stroke-linecap:round;filter:url(#filter1052)" />
  <rect
     style="fill:url(#linearGradient1040);fill-opacity:1;stroke-width:0.529156;stroke-linecap:round"
     id="rect1032"
     width="14.551797"
     height="14.551797"
     x="1.1906016"
     y="1.1906016"
     ry="3.4395156" />
  <g
     id="g26"
     fill-rule="evenodd"
     transform="matrix(.72112 0 0 .72112 -17.706 -11.439)">
    <path
       id="path18"
       fill="#ffc771"
       d="m41.805 33.428c-0.054 0.2-0.27 0.316-0.48 0.26l-12.524-3.356c-0.212-0.057-0.34-0.267-0.287-0.465l2.272-8.476c0.053-0.2 0.27-0.316 0.48-0.26l12.523 3.357c0.211 0.057 0.34 0.267 0.286 0.465z" />
    <path
       id="path20"
       fill="#a75dfa"
       d="m43.175 31.797c0 0.207-0.18 0.375-0.397 0.375h-12.965c-0.219 0-0.397-0.17-0.397-0.375v-8.774c0-0.207 0.18-0.375 0.397-0.375h12.966c0.22 0 0.397 0.17 0.397 0.375z" />
    <path
       id="path22"
       fill="#fff9f9"
       d="m39.206 28.865v-3.308a0.397 0.397 0 0 0-0.394-0.396h-4.633v-1.059c0-0.132-0.132-0.397-0.397-0.397-0.264 0-0.397 0.265-0.397 0.397v1.059h-1.058c-0.132 0-0.397 0.132-0.397 0.397 0 0.264 0.265 0.396 0.397 0.396h1.058v3.308c0 0.22 0.18 0.397 0.395 0.397h4.632v1.058c0 0.132 0.133 0.397 0.397 0.397 0.265 0 0.397-0.265 0.397-0.397v-1.058h1.058c0.133 0 0.397-0.133 0.397-0.397 0-0.265-0.264-0.397-0.397-0.397zm-5.027 0v-2.91h4.233v2.91z" />
    <path
       id="path24"
       stroke-width=".26458"
       opacity=".15"
       fill="url(#b)"
       d="m41.279 22.647a15.346 14.023 0 0 1-4.9339 9.5249h6.4325c0.21801 0 0.39687-0.16774 0.39687-0.37464v-8.7756c0-0.20478-0.17753-0.37464-0.39687-0.37464z" />
  </g>
</svg>
