<?xml version="1.0" encoding="UTF-8"?>
<svg width="64" height="64" version="1.1" viewBox="0 0 16.933 16.933" xmlns="http://www.w3.org/2000/svg" xmlns:cc="http://creativecommons.org/ns#" xmlns:dc="http://purl.org/dc/elements/1.1/" xmlns:rdf="http://www.w3.org/1999/02/22-rdf-syntax-ns#">
 <metadata>
  <rdf:RDF>
   <cc:Work rdf:about="">
    <dc:format>image/svg+xml</dc:format>
    <dc:type rdf:resource="http://purl.org/dc/dcmitype/StillImage"/>
    <dc:title/>
   </cc:Work>
  </rdf:RDF>
 </metadata>
 <defs>
  <filter id="filter2761" x="-.024" y="-.024" width="1.048" height="1.048" color-interpolation-filters="sRGB">
   <feGaussianBlur stdDeviation="0.14552168"/>
  </filter>
  <linearGradient id="linearGradient872" x1="1.3941" x2="15.49" y1="15.429" y2="1.1724" gradientTransform="translate(-.00084984 .14045)" gradientUnits="userSpaceOnUse">
   <stop stop-color="#ff3c69" offset="0"/>
   <stop stop-color="#ff462b" offset="1"/>
  </linearGradient>
  <filter id="filter1010" x="-.037091" y="-.034971" width="1.0742" height="1.0699" color-interpolation-filters="sRGB">
   <feGaussianBlur stdDeviation="0.05378021"/>
  </filter>
  <filter id="filter1030" x="-.037049" y="-.035009" width="1.0741" height="1.07" color-interpolation-filters="sRGB">
   <feGaussianBlur stdDeviation="0.024028153"/>
  </filter>
  <filter id="filter1034" x="-.036002" y="-.035998" width="1.072" height="1.072" color-interpolation-filters="sRGB">
   <feGaussianBlur stdDeviation="0.10759511"/>
  </filter>
 </defs>
 <circle cx="-330.35" cy="-328.38" r="0" fill="#5e4aa6" stroke-width=".26458"/>
 <path d="m10.708 1.1905c4.405 0 5.0345 0.67282 5.0345 5.388v3.7761c0 4.7152-0.62954 5.388-5.0345 5.388h-4.4832c-4.405 0-5.0346-0.6728-5.0346-5.388v-3.7761c0-4.7152 0.62954-5.388 5.0346-5.388z" enable-background="new" fill="#141414" filter="url(#filter2761)" opacity=".3"/>
 <path d="m10.708 1.1905c4.405 0 5.0345 0.67282 5.0345 5.388v3.7761c0 4.7152-0.62954 5.388-5.0345 5.388h-4.4832c-4.405 0-5.0346-0.6728-5.0346-5.388v-3.7761c0-4.7152 0.62954-5.388 5.0346-5.388z" enable-background="new" fill="url(#linearGradient872)"/>
 <path d="m8.2738 2.9894c-0.52426-0.016615-1.0542 0.09469-1.5472 0.28112-0.79056 0.30017-1.5137 0.80067-2.0221 1.4764-0.50879 0.67616-0.79207 1.531-0.72656 2.3745 0.04307 0.54649 0.22981 1.0789 0.51831 1.5451 0.2836 0.4587 0.66462 0.85348 1.0981 1.1741-1.08 0.68957-2.2207 1.2789-3.4081 1.7606 1.3053-0.36984 2.5669-0.87974 3.7626-1.5208 0.81835 0.50146 1.7719 0.76887 2.7276 0.8914 2.4084 0.30802 5.0399-0.31543 7.0581-1.6645 0.01093-0.48118 0.0045-0.888 0.0071-1.3497-0.0034-0.32044-0.0037-0.71662-0.0054-1.0298-1.5976 1.707-3.8947 2.8776-6.223 3.0938-0.96154 0.08913-1.959 0.02267-2.8437-0.35657 0.67408-0.3895 1.3233-0.82044 1.9441-1.2904 0.64655-0.49982 1.2737-1.0574 1.6681-1.773 0.19742-0.35806 0.33223-0.75318 0.36949-1.1601 0.036779-0.40695-0.027633-0.82597-0.2098-1.1916-0.15988-0.31474-0.39487-0.58524-0.68418-0.78755-0.28926-0.20153-0.61671-0.34169-0.9622-0.41185-0.17196-0.035893-0.34612-0.05544-0.5209-0.060978zm-0.20205 0.7612c0.10344-9.604e-4 0.20708 0.00485 0.31006 0.018086 0.41145 0.052942 0.81483 0.23616 1.0831 0.55292 0.21716 0.25664 0.33644 0.58938 0.35708 0.925 0.02108 0.33562-0.05233 0.67314-0.18603 0.98183-0.26696 0.61692-0.75934 1.1055-1.2614 1.5523-0.68331 0.59799-1.4047 1.151-2.1595 1.6557-0.35377-0.20909-0.67529-0.47304-0.93222-0.79321-0.32305-0.40155-0.54445-0.88841-0.60771-1.3999-0.09242-0.74614 0.16072-1.5162 0.62734-2.1058 0.46661-0.58956 1.1337-1.0046 1.8515-1.2294 0.29712-0.092539 0.60745-0.15473 0.91778-0.15761z" color="#000000" fill="#fff" stroke-width=".44867"/>
 <g transform="matrix(1.0562 -.21394 .21394 1.0562 -61.696 -292.45)" fill="#828282" opacity=".5">
  <path class="st0" d="m9.1426 284.31c1.7329 0 3.1374 1.4046 3.1374 3.1374 0 1.7329-1.4045 3.1374-3.1374 3.1374s-3.1374-1.4045-3.1374-3.1374 1.4045-3.1374 3.1374-3.1374z" clip-rule="evenodd" fill-rule="evenodd" opacity=".5" stroke-width=".15711"/>
  <rect class="st1" transform="rotate(-29.829)" x="-135.36" y="256.88" width=".64098" height="1.6292" fill="#000" filter="url(#filter1030)" opacity=".25" stroke-width=".1571"/>
  <g clip-rule="evenodd" fill="#000" fill-rule="evenodd" stroke-width=".15711">
   <path class="st2" d="m10.995 291.69 0.88922-0.50902c0.12254-0.0707 0.27965-0.0268 0.35034 0.0943l1.6559 2.8892c0.07069 0.1226 0.02828 0.27965-0.09426 0.35033l-0.88922 0.50904c-0.12254 0.0707-0.27965 0.0283-0.35035-0.0943l-1.6559-2.8892c-0.07069-0.12259-0.02828-0.27966 0.09426-0.35036z" filter="url(#filter1010)" opacity=".25"/>
   <path class="st4" d="m7.361 284.32c1.7187-0.98506 3.9104-0.3912 4.8954 1.3275 0.98505 1.7187 0.39119 3.9104-1.3275 4.8954-1.7187 0.98504-3.9104 0.39118-4.8954-1.3276-0.98505-1.7172-0.38962-3.9088 1.3275-4.8954zm0.30164 0.52473c-1.4281 0.81851-1.923 2.641-1.1029 4.069 0.81852 1.4281 2.6409 1.923 4.0706 1.1044 1.4281-0.81852 1.923-2.6409 1.1029-4.0706-0.82009-1.4281-2.6425-1.9214-4.0706-1.1029z" filter="url(#filter1034)" opacity=".25"/>
  </g>
 </g>
 <path class="st0" d="m8.7296 5.6099c1.8302-0.37071 3.6141 0.81224 3.9847 2.6424 0.37072 1.8302-0.81221 3.6141-2.6424 3.9847-1.8302 0.37072-3.6141-0.81221-3.9847-2.6424-0.37071-1.8302 0.81221-3.6141 2.6424-3.9847z" clip-rule="evenodd" fill="#fff" fill-rule="evenodd" opacity=".5" stroke-width=".1693"/>
 <rect class="st1" transform="rotate(-41.279)" x=".84971" y="16.097" width=".69072" height="1.7556" fill="#757575" stroke-width=".16929"/>
 <g transform="matrix(1.0776 0 0 1.0776 1.7509 -301)" clip-rule="evenodd" fill-rule="evenodd" stroke-width=".15711">
  <path class="st2" d="m9.7555 291.39 0.77047-0.67541c0.10606-0.0936 0.26876-0.0818 0.36209 0.0229l2.1965 2.5029c0.09362 0.10613 0.08323 0.26847-0.02284 0.36207l-0.77046 0.67544c-0.10607 0.0936-0.26847 0.0833-0.36209-0.0229l-2.1965-2.5029c-0.09362-0.10611-0.08324-0.26848 0.02283-0.36209z" fill="#424242"/>
  <path class="st3" d="m11.261 291.16 0.19188 0.21922-1.1517 1.0171-0.19157-0.21767zm0.33771 0.38524-1.1517 1.0171 0.19188 0.21921 1.1517-1.0171z" fill="#757575"/>
  <path class="st4" d="m4.7315 284.89c1.489-1.3067 3.7549-1.1597 5.0615 0.32927 1.3067 1.489 1.1597 3.7549-0.32927 5.0615-1.489 1.3066-3.7549 1.1597-5.0615-0.32928-1.3063-1.4874-1.1578-3.7536 0.32927-5.0615zm0.39981 0.4544c-1.2372 1.0857-1.3604 2.9701-0.27314 4.207 1.0857 1.2372 2.9701 1.3604 4.2088 0.27436 1.2372-1.0857 1.3604-2.9701 0.27282-4.2085-1.0873-1.2368-2.9714-1.3586-4.2085-0.27282z" fill="#616161"/>
 </g>
</svg>
