<?xml version="1.0" encoding="UTF-8" standalone="no"?>
<svg
   xmlns:dc="http://purl.org/dc/elements/1.1/"
   xmlns:cc="http://creativecommons.org/ns#"
   xmlns:rdf="http://www.w3.org/1999/02/22-rdf-syntax-ns#"
   xmlns:svg="http://www.w3.org/2000/svg"
   xmlns="http://www.w3.org/2000/svg"
   xmlns:xlink="http://www.w3.org/1999/xlink"
   xmlns:sodipodi="http://sodipodi.sourceforge.net/DTD/sodipodi-0.dtd"
   xmlns:inkscape="http://www.inkscape.org/namespaces/inkscape"
   inkscape:version="1.0 (4035a4fb49, 2020-05-01)"
   sodipodi:docname="acroread.svg"
   id="svg31"
   version="1.1"
   height="64"
   width="64">
  <sodipodi:namedview
     inkscape:current-layer="svg31"
     inkscape:window-maximized="1"
     inkscape:window-y="36"
     inkscape:window-x="0"
     inkscape:cy="38.552562"
     inkscape:cx="27.735722"
     inkscape:zoom="5.9609375"
     showgrid="false"
     id="namedview33"
     inkscape:window-height="932"
     inkscape:window-width="1920"
     inkscape:pageshadow="2"
     inkscape:pageopacity="0"
     guidetolerance="10"
     gridtolerance="10"
     objecttolerance="10"
     borderopacity="1"
     bordercolor="#666666"
     pagecolor="#ffffff" />
  <metadata
     id="metadata2">
    <rdf:RDF>
      <cc:Work
         rdf:about="">
        <dc:format>image/svg+xml</dc:format>
        <dc:type
           rdf:resource="http://purl.org/dc/dcmitype/StillImage" />
        <dc:title></dc:title>
      </cc:Work>
    </rdf:RDF>
  </metadata>
  <defs
     id="defs17">
    <linearGradient
       gradientUnits="userSpaceOnUse"
       gradientTransform="matrix(-1.1873 0 0 1.1873 518.97 -594.36)"
       y2="27.441"
       y1="2.7988"
       x2="19.289"
       x1="19.289"
       id="a">
      <stop
         id="stop4"
         offset="0"
         stop-color="#197cf1" />
      <stop
         id="stop6"
         offset="1"
         stop-color="#20bcfa" />
    </linearGradient>
    <filter
       color-interpolation-filters="sRGB"
       height="1.048"
       width="1.048"
       y="-.024"
       x="-.024"
       id="filter2761">
      <feGaussianBlur
         id="feGaussianBlur9"
         stdDeviation="0.14552168" />
    </filter>
    <linearGradient
       gradientUnits="userSpaceOnUse"
       gradientTransform="matrix(3.7796 0 0 3.7796 -.0026448 .53066)"
       y2="27.57"
       y1="27.57"
       x2="59.498"
       x1="8.2637"
       id="linearGradient941">
      <stop
         id="stop12"
         offset="0"
         stop-color="#ff3c69" />
      <stop
         id="stop14"
         offset="1"
         stop-color="#ff462b" />
    </linearGradient>
    <filter
       color-interpolation-filters="sRGB"
       height="1.048"
       width="1.048"
       y="-.024"
       x="-.024"
       id="filter2761-6">
      <feGaussianBlur
         id="feGaussianBlur4"
         stdDeviation="0.14552168" />
    </filter>
    <filter
       color-interpolation-filters="sRGB"
       height="1.048"
       width="1.048"
       y="-.024"
       x="-.024"
       id="filter2761-3675">
      <feGaussianBlur
         id="feGaussianBlur2"
         stdDeviation="0.14552168" />
    </filter>
    <linearGradient
       gradientUnits="userSpaceOnUse"
       gradientTransform="translate(1.8475,-2.1749)"
       y2="32.176"
       y1="32.176"
       x2="-.93244"
       x1="-9.2997"
       id="linearGradient1195">
      <stop
         id="stop5"
         offset="0"
         stop-color="#1478e6" />
      <stop
         id="stop7"
         offset="1"
         stop-color="#3c50e6" />
    </linearGradient>
    <filter
       color-interpolation-filters="sRGB"
       height="1.048"
       width="1.048"
       y="-.024"
       x="-.024"
       id="filter2761-367">
      <feGaussianBlur
         id="feGaussianBlur2-5"
         stdDeviation="0.14552168" />
    </filter>
    <filter
       color-interpolation-filters="sRGB"
       height="1.1199"
       width="1.1201"
       y="-.059946"
       x="-.060054"
       id="filter924">
      <feGaussianBlur
         id="feGaussianBlur5"
         stdDeviation="0.2078715" />
    </filter>
    <filter
       color-interpolation-filters="sRGB"
       height="1.1208"
       width="1.1192"
       y="-.0604"
       x="-.059605"
       id="filter852">
      <feGaussianBlur
         id="feGaussianBlur8"
         stdDeviation="0.23538182" />
    </filter>
    <filter
       color-interpolation-filters="sRGB"
       height="1.048"
       width="1.048"
       y="-.024"
       x="-.024"
       id="filter2761-36">
      <feGaussianBlur
         id="feGaussianBlur2-7"
         stdDeviation="0.14552168" />
    </filter>
    <linearGradient
       gradientUnits="userSpaceOnUse"
       gradientTransform="translate(58.81987,-4.9486)"
       y2="16.321"
       y1="16.321"
       x2="-16.238"
       x1="-22.655"
       id="linearGradient1174">
      <stop
         id="stop5-3"
         offset="0"
         stop-color="#0a82f0" />
      <stop
         id="stop7-5"
         offset="1"
         stop-color="#3250e6" />
    </linearGradient>
    <filter
       inkscape:collect="always"
       style="color-interpolation-filters:sRGB"
       id="filter1052"
       x="-0.048"
       width="1.096"
       y="-0.048"
       height="1.096">
      <feGaussianBlur
         inkscape:collect="always"
         stdDeviation="0.29103594"
         id="feGaussianBlur1054" />
    </filter>
    <linearGradient
       inkscape:collect="always"
       xlink:href="#linearGradient1038"
       id="linearGradient1040"
       x1="37.040939"
       y1="15.874687"
       x2="51.592735"
       y2="1.3228906"
       gradientUnits="userSpaceOnUse"
       gradientTransform="matrix(3.779602,0,0,3.779602,-135.50001,-0.50000009)" />
    <linearGradient
       inkscape:collect="always"
       id="linearGradient1038">
      <stop
         style="stop-color:#f5f5f5;stop-opacity:1"
         offset="0"
         id="stop1034" />
      <stop
         style="stop-color:#fafafa;stop-opacity:1"
         offset="1"
         id="stop1036" />
    </linearGradient>
    <filter
       id="filter2761-3"
       x="-.024"
       y="-.024"
       width="1.048"
       height="1.048"
       color-interpolation-filters="sRGB">
      <feGaussianBlur
         stdDeviation="0.14552168"
         id="feGaussianBlur895" />
    </filter>
  </defs>
  <rect
     style="opacity:0.3;fill:#000000;fill-opacity:1;stroke-width:0.529156;stroke-linecap:round;filter:url(#filter1052)"
     id="rect1042"
     width="14.551797"
     height="14.551797"
     x="1.1906018"
     y="1.1906016"
     ry="3.4395156"
     transform="scale(3.779602)" />
  <rect
     ry="13"
     y="4.5"
     x="4.5"
     height="55"
     width="55"
     id="rect1032"
     style="fill:url(#linearGradient1040);fill-opacity:1;stroke-width:2;stroke-linecap:round" />
  <circle
     id="circle19"
     fill="#5e4aa6"
     r="0"
     cy="-1241.1"
     cx="-1248.6" />
  <path
     id="path25"
     stroke-width="1.6958"
     fill="url(#linearGradient941)"
     color="#000000"
     d="m31.272 11.299c-1.9815-0.0628-3.9845 0.35789-5.8478 1.0625-2.988 1.1345-5.7212 3.0262-7.6427 5.5802-1.923 2.5556-2.9937 5.7866-2.7461 8.9747 0.16279 2.0655 0.86859 4.0778 1.959 5.8399 1.0719 1.7337 2.512 3.2258 4.1504 4.4376-4.082 2.6063-8.3934 4.8337-12.881 6.6544 4.9335-1.3978 9.7019-3.3251 14.221-5.748 3.093 1.8953 6.6971 2.906 10.309 3.3691 9.1028 1.1642 19.049-1.1922 26.677-6.2911 0.04131-1.8187 0.01701-3.3563 0.02684-5.1013-0.01285-1.2111-0.01398-2.7085-0.02041-3.8922-6.0383 6.4518-14.72 10.876-23.52 11.693-3.6342 0.33688-7.4042 0.08568-10.748-1.3477 2.5478-1.4722 5.0015-3.1009 7.3479-4.8772 2.4437-1.8891 4.8141-3.9966 6.3048-6.7012 0.74617-1.3533 1.2557-2.8467 1.3965-4.3847 0.13901-1.5381-0.10443-3.1218-0.79296-4.5038-0.60428-1.1896-1.4925-2.212-2.5859-2.9766-1.0933-0.7617-2.3309-1.2915-3.6367-1.5566-0.64994-0.13566-1.3082-0.20954-1.9688-0.23047zm-0.76367 2.877c0.39096-0.0036 0.78268 0.01833 1.1719 0.06836 1.5551 0.2001 3.0797 0.89259 4.0937 2.0898 0.82078 0.97 1.2716 2.2276 1.3496 3.4961 0.07967 1.2685-0.19779 2.5442-0.70312 3.7109-1.009 2.3317-2.87 4.1784-4.7676 5.8671-2.5826 2.2602-5.3092 4.3503-8.1621 6.2579-1.3371-0.79028-2.5523-1.7879-3.5234-2.998-1.221-1.5177-2.0578-3.3578-2.2969-5.2911-0.34931-2.8201 0.60746-5.7306 2.3711-7.9591 1.7636-2.2283 4.2849-3.797 6.9979-4.6466 1.123-0.34976 2.2959-0.58482 3.4688-0.5957z" />
  <circle
     id="circle27"
     fill="#5e4aa6"
     r="0"
     cy="-1241.1"
     cx="-1145.4" />
  <path
     sodipodi:nodetypes="ccccccc"
     id="path29"
     stroke-width="0.79156"
     fill="url(#a)"
     d="m 43.359,4.4995 c 3.914266,-0.085014 6.281213,-0.1083822 9.407779,1.6014723 L 52.8577,24.0057 48.1083,21.2631 43.359,24.0057 V 4.4997 Z" />
</svg>
