<?xml version="1.0" encoding="UTF-8"?>
<svg width="64" height="64" version="1.1" xmlns="http://www.w3.org/2000/svg" xmlns:cc="http://creativecommons.org/ns#" xmlns:dc="http://purl.org/dc/elements/1.1/" xmlns:rdf="http://www.w3.org/1999/02/22-rdf-syntax-ns#" xmlns:xlink="http://www.w3.org/1999/xlink">
 <metadata>
  <rdf:RDF>
   <cc:Work rdf:about="">
    <dc:format>image/svg+xml</dc:format>
    <dc:type rdf:resource="http://purl.org/dc/dcmitype/StillImage"/>
    <dc:title/>
   </cc:Work>
  </rdf:RDF>
 </metadata>
 <defs>
  <linearGradient id="a" x1="19.289" x2="19.289" y1="2.7988" y2="27.441" gradientTransform="matrix(-1.1873 0 0 1.1873 518.97 -594.36)" gradientUnits="userSpaceOnUse">
   <stop stop-color="#197cf1" offset="0"/>
   <stop stop-color="#20bcfa" offset="1"/>
  </linearGradient>
  <filter id="filter2761" x="-.024" y="-.024" width="1.048" height="1.048" color-interpolation-filters="sRGB">
   <feGaussianBlur stdDeviation="0.14552168"/>
  </filter>
  <linearGradient id="linearGradient941" x1="8.2637" x2="59.498" y1="27.57" y2="27.57" gradientTransform="matrix(3.7796 0 0 3.7796 -.0026448 .53066)" gradientUnits="userSpaceOnUse">
   <stop stop-color="#ff3c69" offset="0"/>
   <stop stop-color="#ff462b" offset="1"/>
  </linearGradient>
 </defs>
 <circle cx="-1248.6" cy="-1241.1" r="0" fill="#5e4aa6"/>
 <path transform="matrix(3.7796 0 0 3.7796 .00056722 -.0001887)" d="m10.708 1.1905c4.405 0 5.0345 0.67282 5.0345 5.388v3.7761c0 4.7152-0.62954 5.388-5.0345 5.388h-4.4832c-4.405 0-5.0346-0.6728-5.0346-5.388v-3.7761c0-4.7152 0.62954-5.388 5.0346-5.388z" enable-background="new" fill="#141414" filter="url(#filter2761)" opacity=".3"/>
 <path d="m40.473 4.4994c16.649 0 19.028 2.543 19.028 20.364v14.272c0 17.822-2.3794 20.364-19.028 20.364h-16.945c-16.649 0-19.029-2.5429-19.029-20.364v-14.272c0-17.822 2.3794-20.364 19.029-20.364z" enable-background="new" fill="#fafafa" stroke-width="3.7796"/>
 <path d="m31.272 11.299c-1.9815-0.0628-3.9845 0.35789-5.8478 1.0625-2.988 1.1345-5.7212 3.0262-7.6427 5.5802-1.923 2.5556-2.9937 5.7866-2.7461 8.9747 0.16279 2.0655 0.86859 4.0778 1.959 5.8399 1.0719 1.7337 2.512 3.2258 4.1504 4.4376-4.082 2.6063-8.3934 4.8337-12.881 6.6544 4.9335-1.3978 9.7019-3.3251 14.221-5.748 3.093 1.8953 6.6971 2.906 10.309 3.3691 9.1028 1.1642 19.049-1.1922 26.677-6.2911 0.04131-1.8187 0.01701-3.3563 0.02684-5.1013-0.01285-1.2111-0.01398-2.7085-0.02041-3.8922-6.0383 6.4518-14.72 10.876-23.52 11.693-3.6342 0.33688-7.4042 0.08568-10.748-1.3477 2.5478-1.4722 5.0015-3.1009 7.3479-4.8772 2.4437-1.8891 4.8141-3.9966 6.3048-6.7012 0.74617-1.3533 1.2557-2.8467 1.3965-4.3847 0.13901-1.5381-0.10443-3.1218-0.79296-4.5038-0.60428-1.1896-1.4925-2.212-2.5859-2.9766-1.0933-0.7617-2.3309-1.2915-3.6367-1.5566-0.64994-0.13566-1.3082-0.20954-1.9688-0.23047zm-0.76367 2.877c0.39096-0.0036 0.78268 0.01833 1.1719 0.06836 1.5551 0.2001 3.0797 0.89259 4.0937 2.0898 0.82078 0.97 1.2716 2.2276 1.3496 3.4961 0.07967 1.2685-0.19779 2.5442-0.70312 3.7109-1.009 2.3317-2.87 4.1784-4.7676 5.8671-2.5826 2.2602-5.3092 4.3503-8.1621 6.2579-1.3371-0.79028-2.5523-1.7879-3.5234-2.998-1.221-1.5177-2.0578-3.3578-2.2969-5.2911-0.34931-2.8201 0.60746-5.7306 2.3711-7.9591 1.7636-2.2283 4.2849-3.797 6.9979-4.6466 1.123-0.34976 2.2959-0.58482 3.4688-0.5957z" color="#000000" fill="url(#linearGradient941)" stroke-width="1.6958"/>
 <circle cx="-1145.4" cy="-1241.1" r="0" fill="#5e4aa6"/>
 <path d="m43.359 4.4995c3.7654 0 7.2644 0.49732 9.4987 1.3392v18.167l-4.7494-2.7426-4.7493 2.7426v-19.506z" fill="url(#a)" stroke-width=".79156"/>
</svg>
