<?xml version="1.0" encoding="UTF-8" standalone="no"?>
<svg
   xmlns:dc="http://purl.org/dc/elements/1.1/"
   xmlns:cc="http://creativecommons.org/ns#"
   xmlns:rdf="http://www.w3.org/1999/02/22-rdf-syntax-ns#"
   xmlns:svg="http://www.w3.org/2000/svg"
   xmlns="http://www.w3.org/2000/svg"
   xmlns:xlink="http://www.w3.org/1999/xlink"
   xmlns:sodipodi="http://sodipodi.sourceforge.net/DTD/sodipodi-0.dtd"
   xmlns:inkscape="http://www.inkscape.org/namespaces/inkscape"
   inkscape:version="1.0 (4035a4fb49, 2020-05-01)"
   sodipodi:docname="albert.svg"
   id="svg46"
   viewBox="0 0 16.933 16.933"
   version="1.1"
   height="64"
   width="64">
  <sodipodi:namedview
     inkscape:current-layer="svg46"
     inkscape:window-maximized="1"
     inkscape:window-y="36"
     inkscape:window-x="0"
     inkscape:cy="40.28467"
     inkscape:cx="-22.443934"
     inkscape:zoom="4.2150193"
     showgrid="false"
     id="namedview48"
     inkscape:window-height="932"
     inkscape:window-width="1920"
     inkscape:pageshadow="2"
     inkscape:pageopacity="0"
     guidetolerance="10"
     gridtolerance="10"
     objecttolerance="10"
     borderopacity="1"
     bordercolor="#666666"
     pagecolor="#ffffff" />
  <metadata
     id="metadata2">
    <rdf:RDF>
      <cc:Work
         rdf:about="">
        <dc:format>image/svg+xml</dc:format>
        <dc:type
           rdf:resource="http://purl.org/dc/dcmitype/StillImage" />
        <dc:title></dc:title>
      </cc:Work>
    </rdf:RDF>
  </metadata>
  <defs
     id="defs20">
    <linearGradient
       gradientUnits="userSpaceOnUse"
       gradientTransform="matrix(1.1627 0 0 1.1627 -1.5447 -1.2758)"
       y2="5.9035"
       y1="10.836"
       x2="11.018"
       x1="5.8254"
       id="linearGradient978">
      <stop
         id="stop4"
         offset="0"
         stop-color="#14a03c" />
      <stop
         id="stop6"
         offset="1"
         stop-color="#14dc78" />
    </linearGradient>
    <filter
       color-interpolation-filters="sRGB"
       height="1.048"
       width="1.048"
       y="-.024"
       x="-.024"
       id="filter2761">
      <feGaussianBlur
         id="feGaussianBlur9"
         stdDeviation="0.14552168" />
    </filter>
    <linearGradient
       gradientUnits="userSpaceOnUse"
       gradientTransform="scale(.26458)"
       y2="58.846"
       y1="4.5781"
       x2="31.345"
       x1="31.345"
       id="linearGradient919">
      <stop
         id="stop12"
         offset="0"
         stop-color="#1d2123" />
      <stop
         id="stop14"
         offset="1"
         stop-color="#33393e" />
    </linearGradient>
    <filter
       color-interpolation-filters="sRGB"
       height="1.0945"
       width="1.0582"
       y="-.047245"
       x="-.029079"
       id="filter937">
      <feGaussianBlur
         id="feGaussianBlur17"
         stdDeviation="0.11181732" />
    </filter>
    <filter
       id="filter2761-367"
       x="-.024"
       y="-.024"
       width="1.048"
       height="1.048"
       color-interpolation-filters="sRGB">
      <feGaussianBlur
         stdDeviation="0.14552168"
         id="feGaussianBlur2" />
    </filter>
    <filter
       id="filter924"
       x="-.060054"
       y="-.059946"
       width="1.1201"
       height="1.1199"
       color-interpolation-filters="sRGB">
      <feGaussianBlur
         stdDeviation="0.2078715"
         id="feGaussianBlur5" />
    </filter>
    <filter
       color-interpolation-filters="sRGB"
       height="1.048"
       width="1.048"
       y="-.024"
       x="-.024"
       id="filter2761-36">
      <feGaussianBlur
         id="feGaussianBlur2-7"
         stdDeviation="0.14552168" />
    </filter>
    <linearGradient
       gradientUnits="userSpaceOnUse"
       gradientTransform="translate(58.81987,-4.9486)"
       y2="16.321"
       y1="16.321"
       x2="-16.238"
       x1="-22.655"
       id="linearGradient1174">
      <stop
         id="stop5"
         offset="0"
         stop-color="#0a82f0" />
      <stop
         id="stop7"
         offset="1"
         stop-color="#3250e6" />
    </linearGradient>
    <filter
       inkscape:collect="always"
       style="color-interpolation-filters:sRGB"
       id="filter1052-5"
       x="-0.048"
       width="1.096"
       y="-0.048"
       height="1.096">
      <feGaussianBlur
         inkscape:collect="always"
         stdDeviation="0.29103594"
         id="feGaussianBlur1054-3" />
    </filter>
    <linearGradient
       inkscape:collect="always"
       xlink:href="#linearGradient1038-6"
       id="linearGradient1040-5"
       x1="37.040939"
       y1="15.874687"
       x2="51.592735"
       y2="1.3228906"
       gradientUnits="userSpaceOnUse"
       gradientTransform="translate(-35.850337,-0.13228906)" />
    <linearGradient
       inkscape:collect="always"
       id="linearGradient1038-6">
      <stop
         style="stop-color:#2d2d2d;stop-opacity:1"
         offset="0"
         id="stop1034-2" />
      <stop
         style="stop-color:#191919;stop-opacity:1"
         offset="1"
         id="stop1036-9" />
    </linearGradient>
    <filter
       id="filter2761-3"
       x="-.024"
       y="-.024"
       width="1.048"
       height="1.048"
       color-interpolation-filters="sRGB">
      <feGaussianBlur
         stdDeviation="0.14552168"
         id="feGaussianBlur895" />
    </filter>
    <linearGradient
       id="linearGradient1195"
       x1="-9.2997"
       x2="-.93244"
       y1="32.176"
       y2="32.176"
       gradientTransform="translate(1.8475,-2.1749)"
       gradientUnits="userSpaceOnUse">
      <stop
         stop-color="#1478e6"
         offset="0"
         id="stop898" />
      <stop
         stop-color="#3c50e6"
         offset="1"
         id="stop900" />
    </linearGradient>
  </defs>
  <rect
     style="opacity:0.3;fill:#000000;fill-opacity:1;stroke-width:0.529156;stroke-linecap:round;filter:url(#filter1052-5)"
     id="rect1042-1"
     width="14.551797"
     height="14.551797"
     x="1.1906018"
     y="1.1906018"
     ry="3.4395156" />
  <rect
     ry="3.4395156"
     y="1.1906016"
     x="1.1906016"
     height="14.551797"
     width="14.551797"
     id="rect1032-2"
     style="fill:url(#linearGradient1040-5);fill-opacity:1;stroke-width:0.529156;stroke-linecap:round" />
  <g
     id="g34"
     fill="#5e4aa6">
    <g
       id="g30"
       stroke-width=".26458">
      <circle
         id="circle22"
         r="0"
         cy="-333.89"
         cx="-305.98" />
      <circle
         id="circle24"
         fill-rule="evenodd"
         r="0"
         cy=".93027"
         cx="-15.066" />
      <circle
         id="circle26"
         r="0"
         cy="-338.3"
         cx="-280.67" />
      <circle
         id="circle28"
         fill-rule="evenodd"
         r="0"
         cy="-3.4759"
         cx="10.243" />
    </g>
    <circle
       id="circle32"
       stroke-width=".26458"
       r="0"
       cy="-328.37"
       cx="-330.35" />
  </g>
  <circle
     id="circle40"
     stroke-width=".26458"
     fill="#5e4aa6"
     r="0"
     cy="-328.37"
     cx="-303.05" />
  <path
     id="path42"
     stroke-width="1.1627"
     opacity=".25"
     filter="url(#filter937)"
     d="m7.4988 5.6282c-1.2499-0.00142-2.1633 0.95705-2.7473 2.0735-0.7611 1.4548-1.5641 3.6049-0.01456 3.6049 1.6308 0 2.9858-0.90522 3.9439-1.5893 0.34753 0.63365 0.8534 1.5893 1.5601 1.5893 0.70678 0 1.3511-0.27831 1.6659-0.52609l1.174-1.6351-0.12708-0.14626c-1.4859 0.73624-1.9929 1.2425-2.8278-0.34646l1.054-0.96912 1.5478-1.9159-0.11396-0.14128-2.7849 2.4388c-0.45083-0.93326-1.377-2.4359-2.3312-2.437m-1.0426 1.2055c0.88499 0 1.404 1.3035 1.9248 2.2694-0.76784 0.43663-1.771 0.97516-2.5062 0.82464-0.8715-0.17856-1.0934-1.0902-0.74228-1.775 0.31133-0.64182 0.69329-1.3184 1.3227-1.3184" />
  <path
     id="path44"
     stroke-width="1.1627"
     fill="url(#linearGradient978)"
     d="m7.4988 5.6282c-1.2499-0.00142-2.1633 0.95705-2.7473 2.0735-0.7611 1.4548-1.5641 3.6049-0.01456 3.6049 1.6308 0 2.9858-0.90522 3.9439-1.5893 0.34753 0.63365 0.8534 1.5893 1.5601 1.5893 0.70678 0 1.3511-0.27831 1.6659-0.52609l1.174-1.6351-0.12708-0.14626c-1.4859 0.73624-1.9929 1.2425-2.8278-0.34646l1.054-0.96912 1.5478-1.9159-0.11396-0.14128-2.7849 2.4388c-0.45083-0.93326-1.377-2.4359-2.3312-2.437m-1.0426 1.2055c0.88499 0 1.404 1.3035 1.9248 2.2694-0.76784 0.43663-1.771 0.97516-2.5062 0.82464-0.8715-0.17856-1.0934-1.0902-0.74228-1.775 0.31133-0.64182 0.69329-1.3184 1.3227-1.3184" />
</svg>
