<?xml version="1.0" encoding="UTF-8"?>
<svg width="64" height="64" version="1.1" viewBox="0 0 16.933 16.933" xmlns="http://www.w3.org/2000/svg" xmlns:cc="http://creativecommons.org/ns#" xmlns:dc="http://purl.org/dc/elements/1.1/" xmlns:rdf="http://www.w3.org/1999/02/22-rdf-syntax-ns#" xmlns:xlink="http://www.w3.org/1999/xlink">
 <metadata>
  <rdf:RDF>
   <cc:Work rdf:about="">
    <dc:format>image/svg+xml</dc:format>
    <dc:type rdf:resource="http://purl.org/dc/dcmitype/StillImage"/>
    <dc:title/>
   </cc:Work>
  </rdf:RDF>
 </metadata>
 <defs>
  <linearGradient id="linearGradient978" x1="5.8254" x2="11.018" y1="10.836" y2="5.9035" gradientTransform="matrix(1.1627 0 0 1.1627 -1.5447 -1.2758)" gradientUnits="userSpaceOnUse">
   <stop stop-color="#14a03c" offset="0"/>
   <stop stop-color="#14dc78" offset="1"/>
  </linearGradient>
  <filter id="filter2761" x="-.024" y="-.024" width="1.048" height="1.048" color-interpolation-filters="sRGB">
   <feGaussianBlur stdDeviation="0.14552168"/>
  </filter>
  <linearGradient id="linearGradient919" x1="31.345" x2="31.345" y1="4.5781" y2="58.846" gradientTransform="scale(.26458)" gradientUnits="userSpaceOnUse">
   <stop stop-color="#1d2123" offset="0"/>
   <stop stop-color="#33393e" offset="1"/>
  </linearGradient>
  <filter id="filter937" x="-.029079" y="-.047245" width="1.0582" height="1.0945" color-interpolation-filters="sRGB">
   <feGaussianBlur stdDeviation="0.11181732"/>
  </filter>
 </defs>
 <g fill="#5e4aa6">
  <g stroke-width=".26458">
   <circle cx="-305.98" cy="-333.89" r="0"/>
   <circle cx="-15.066" cy=".93027" r="0" fill-rule="evenodd"/>
   <circle cx="-280.67" cy="-338.3" r="0"/>
   <circle cx="10.243" cy="-3.4759" r="0" fill-rule="evenodd"/>
  </g>
  <circle cx="-330.35" cy="-328.37" r="0" stroke-width=".26458"/>
 </g>
 <path d="m10.708 1.1905c4.405 0 5.0345 0.67282 5.0345 5.388v3.7761c0 4.7152-0.62954 5.388-5.0345 5.388h-4.4832c-4.405 0-5.0346-0.6728-5.0346-5.388v-3.7761c0-4.7152 0.62954-5.388 5.0346-5.388z" enable-background="new" fill="#141414" filter="url(#filter2761)" opacity=".3"/>
 <path d="m10.708 1.1904c4.405 0 5.0344 0.67282 5.0344 5.3879v3.7761c0 4.7153-0.62954 5.3879-5.0344 5.3879h-4.4833c-4.405 0-5.0347-0.6728-5.0347-5.3879v-3.7761c0-4.7153 0.62954-5.3879 5.0347-5.3879z" enable-background="new" fill="url(#linearGradient919)"/>
 <circle cx="-303.05" cy="-328.37" r="0" fill="#5e4aa6" stroke-width=".26458"/>
 <path d="m7.4988 5.6282c-1.2499-0.00142-2.1633 0.95705-2.7473 2.0735-0.7611 1.4548-1.5641 3.6049-0.01456 3.6049 1.6308 0 2.9858-0.90522 3.9439-1.5893 0.34753 0.63365 0.8534 1.5893 1.5601 1.5893 0.70678 0 1.3511-0.27831 1.6659-0.52609l1.174-1.6351-0.12708-0.14626c-1.4859 0.73624-1.9929 1.2425-2.8278-0.34646l1.054-0.96912 1.5478-1.9159-0.11396-0.14128-2.7849 2.4388c-0.45083-0.93326-1.377-2.4359-2.3312-2.437m-1.0426 1.2055c0.88499 0 1.404 1.3035 1.9248 2.2694-0.76784 0.43663-1.771 0.97516-2.5062 0.82464-0.8715-0.17856-1.0934-1.0902-0.74228-1.775 0.31133-0.64182 0.69329-1.3184 1.3227-1.3184" filter="url(#filter937)" opacity=".25" stroke-width="1.1627"/>
 <path d="m7.4988 5.6282c-1.2499-0.00142-2.1633 0.95705-2.7473 2.0735-0.7611 1.4548-1.5641 3.6049-0.01456 3.6049 1.6308 0 2.9858-0.90522 3.9439-1.5893 0.34753 0.63365 0.8534 1.5893 1.5601 1.5893 0.70678 0 1.3511-0.27831 1.6659-0.52609l1.174-1.6351-0.12708-0.14626c-1.4859 0.73624-1.9929 1.2425-2.8278-0.34646l1.054-0.96912 1.5478-1.9159-0.11396-0.14128-2.7849 2.4388c-0.45083-0.93326-1.377-2.4359-2.3312-2.437m-1.0426 1.2055c0.88499 0 1.404 1.3035 1.9248 2.2694-0.76784 0.43663-1.771 0.97516-2.5062 0.82464-0.8715-0.17856-1.0934-1.0902-0.74228-1.775 0.31133-0.64182 0.69329-1.3184 1.3227-1.3184" fill="url(#linearGradient978)" stroke-width="1.1627"/>
</svg>
