<?xml version="1.0" encoding="UTF-8" standalone="no"?>
<svg
   xmlns:dc="http://purl.org/dc/elements/1.1/"
   xmlns:cc="http://creativecommons.org/ns#"
   xmlns:rdf="http://www.w3.org/1999/02/22-rdf-syntax-ns#"
   xmlns:svg="http://www.w3.org/2000/svg"
   xmlns="http://www.w3.org/2000/svg"
   xmlns:xlink="http://www.w3.org/1999/xlink"
   xmlns:sodipodi="http://sodipodi.sourceforge.net/DTD/sodipodi-0.dtd"
   xmlns:inkscape="http://www.inkscape.org/namespaces/inkscape"
   inkscape:version="1.0 (4035a4fb49, 2020-05-01)"
   sodipodi:docname="alienarena.svg"
   id="svg53"
   version="1.1"
   height="64"
   width="64">
  <sodipodi:namedview
     inkscape:current-layer="svg53"
     inkscape:window-maximized="1"
     inkscape:window-y="36"
     inkscape:window-x="0"
     inkscape:cy="36.000965"
     inkscape:cx="18.429539"
     inkscape:zoom="5.9609375"
     showgrid="false"
     id="namedview55"
     inkscape:window-height="932"
     inkscape:window-width="1920"
     inkscape:pageshadow="2"
     inkscape:pageopacity="0"
     guidetolerance="10"
     gridtolerance="10"
     objecttolerance="10"
     borderopacity="1"
     bordercolor="#666666"
     pagecolor="#ffffff" />
  <metadata
     id="metadata2">
    <rdf:RDF>
      <cc:Work
         rdf:about="">
        <dc:format>image/svg+xml</dc:format>
        <dc:type
           rdf:resource="http://purl.org/dc/dcmitype/StillImage" />
        <dc:title></dc:title>
      </cc:Work>
    </rdf:RDF>
  </metadata>
  <defs
     id="defs27">
    <linearGradient
       gradientUnits="userSpaceOnUse"
       gradientTransform="translate(8.5029,9.2229)"
       y2="4.405"
       y1="43.939"
       x2="25.061"
       x1="24.705"
       id="e">
      <stop
         id="stop4"
         offset="0"
         stop-color="#279646" />
      <stop
         id="stop6"
         offset="1"
         stop-color="#76ff68" />
    </linearGradient>
    <linearGradient
       xlink:href="#a"
       gradientUnits="userSpaceOnUse"
       gradientTransform="translate(8.5029,9.2229)"
       y2="24"
       y1="34"
       x2="31"
       x1="31"
       id="d" />
    <linearGradient
       id="a">
      <stop
         id="stop10"
         offset="0"
         stop-color="#272b2d" />
      <stop
         id="stop12"
         offset="1"
         stop-color="#33393e" />
    </linearGradient>
    <linearGradient
       xlink:href="#a"
       gradientUnits="userSpaceOnUse"
       gradientTransform="translate(8.5029,9.2229)"
       y2="24"
       y1="34"
       x2="18"
       x1="18"
       id="c" />
    <filter
       color-interpolation-filters="sRGB"
       height="1.108"
       width="1.135"
       y="-.054"
       x="-.0675"
       id="f">
      <feGaussianBlur
         id="feGaussianBlur16"
         stdDeviation="0.89999995" />
    </filter>
    <filter
       color-interpolation-filters="sRGB"
       height="1.048"
       width="1.048"
       y="-.024"
       x="-.024"
       id="filter2761">
      <feGaussianBlur
         id="feGaussianBlur19"
         stdDeviation="0.14552168" />
    </filter>
    <linearGradient
       gradientUnits="userSpaceOnUse"
       y2="58.846"
       y1="4.5781"
       x2="31.345"
       x1="31.345"
       id="linearGradient919">
      <stop
         id="stop22"
         offset="0"
         stop-color="#1d2123" />
      <stop
         id="stop24"
         offset="1"
         stop-color="#33393e" />
    </linearGradient>
    <linearGradient
       gradientUnits="userSpaceOnUse"
       gradientTransform="matrix(4.3945432,0,0,4.3945432,-78.73684,-4.8220164)"
       y2="5.9035"
       y1="10.836"
       x2="11.018"
       x1="5.8254"
       id="linearGradient978">
      <stop
         id="stop4-6"
         offset="0"
         stop-color="#14a03c" />
      <stop
         id="stop6-7"
         offset="1"
         stop-color="#14dc78" />
    </linearGradient>
    <filter
       color-interpolation-filters="sRGB"
       height="1.048"
       width="1.048"
       y="-.024"
       x="-.024"
       id="filter2761-5">
      <feGaussianBlur
         id="feGaussianBlur9"
         stdDeviation="0.14552168" />
    </filter>
    <linearGradient
       gradientUnits="userSpaceOnUse"
       gradientTransform="scale(.26458)"
       y2="58.846"
       y1="4.5781"
       x2="31.345"
       x1="31.345"
       id="linearGradient919-3">
      <stop
         id="stop12-5"
         offset="0"
         stop-color="#1d2123" />
      <stop
         id="stop14"
         offset="1"
         stop-color="#33393e" />
    </linearGradient>
    <filter
       color-interpolation-filters="sRGB"
       height="1.0945"
       width="1.0582"
       y="-.047245"
       x="-.029079"
       id="filter937">
      <feGaussianBlur
         id="feGaussianBlur17"
         stdDeviation="0.11181732" />
    </filter>
    <filter
       id="filter2761-367"
       x="-.024"
       y="-.024"
       width="1.048"
       height="1.048"
       color-interpolation-filters="sRGB">
      <feGaussianBlur
         stdDeviation="0.14552168"
         id="feGaussianBlur2" />
    </filter>
    <filter
       id="filter924"
       x="-.060054"
       y="-.059946"
       width="1.1201"
       height="1.1199"
       color-interpolation-filters="sRGB">
      <feGaussianBlur
         stdDeviation="0.2078715"
         id="feGaussianBlur5" />
    </filter>
    <filter
       color-interpolation-filters="sRGB"
       height="1.048"
       width="1.048"
       y="-.024"
       x="-.024"
       id="filter2761-36">
      <feGaussianBlur
         id="feGaussianBlur2-7"
         stdDeviation="0.14552168" />
    </filter>
    <linearGradient
       gradientUnits="userSpaceOnUse"
       gradientTransform="translate(58.81987,-4.9486)"
       y2="16.321"
       y1="16.321"
       x2="-16.238"
       x1="-22.655"
       id="linearGradient1174">
      <stop
         id="stop5"
         offset="0"
         stop-color="#0a82f0" />
      <stop
         id="stop7"
         offset="1"
         stop-color="#3250e6" />
    </linearGradient>
    <filter
       inkscape:collect="always"
       style="color-interpolation-filters:sRGB"
       id="filter1052-5"
       x="-0.048"
       width="1.096"
       y="-0.048"
       height="1.096">
      <feGaussianBlur
         inkscape:collect="always"
         stdDeviation="0.29103594"
         id="feGaussianBlur1054-3" />
    </filter>
    <linearGradient
       inkscape:collect="always"
       xlink:href="#linearGradient1038-6"
       id="linearGradient1040-5"
       x1="37.040939"
       y1="15.874687"
       x2="51.592735"
       y2="1.3228906"
       gradientUnits="userSpaceOnUse"
       gradientTransform="matrix(3.779602,0,0,3.779602,-135.5,-0.50000017)" />
    <linearGradient
       inkscape:collect="always"
       id="linearGradient1038-6">
      <stop
         style="stop-color:#2d2d2d;stop-opacity:1"
         offset="0"
         id="stop1034-2" />
      <stop
         style="stop-color:#191919;stop-opacity:1"
         offset="1"
         id="stop1036-9" />
    </linearGradient>
    <filter
       id="filter2761-3"
       x="-.024"
       y="-.024"
       width="1.048"
       height="1.048"
       color-interpolation-filters="sRGB">
      <feGaussianBlur
         stdDeviation="0.14552168"
         id="feGaussianBlur895" />
    </filter>
    <linearGradient
       id="linearGradient1195"
       x1="-9.2997"
       x2="-.93244"
       y1="32.176"
       y2="32.176"
       gradientTransform="translate(1.8475,-2.1749)"
       gradientUnits="userSpaceOnUse">
      <stop
         stop-color="#1478e6"
         offset="0"
         id="stop898" />
      <stop
         stop-color="#3c50e6"
         offset="1"
         id="stop900" />
    </linearGradient>
  </defs>
  <rect
     transform="scale(3.779602)"
     ry="3.4395156"
     y="1.1906018"
     x="1.1906018"
     height="14.551797"
     width="14.551797"
     id="rect1042-1"
     style="opacity:0.3;fill:#000000;fill-opacity:1;stroke-width:0.529156;stroke-linecap:round;filter:url(#filter1052-5)" />
  <rect
     style="fill:url(#linearGradient1040-5);fill-opacity:1;stroke-width:2;stroke-linecap:round"
     id="rect1032-2"
     width="55"
     height="55"
     x="4.5"
     y="4.5"
     ry="13" />
  <circle
     id="circle29"
     fill="#5e4aa6"
     r="0"
     cy="-1241.1"
     cx="-1248.6" />
  <circle
     id="circle35"
     fill="#5e4aa6"
     r="0"
     cy="-1241.1"
     cx="-1145.4" />
  <g
     id="g43"
     opacity=".5"
     filter="url(#f)"
     transform="translate(-.503 -1.222)">
    <path
       id="path37"
       d="m16.503 28.701c0 10.29 8.4961 24.521 16 24.521 7.0642 0 16-14.232 16-24.521 0-10.29-7.1634-15.479-16-15.479s-16 5.1888-16 15.479z" />
    <path
       id="path39"
       d="m36.885 35.605c2.0206-2.0206 4.8396-2.7554 7.4415-2.2055 0.54985 2.6018-0.18496 5.4209-2.2055 7.4414-2.0206 2.0206-4.8396 2.7554-7.4414 2.2055-0.54992-2.6019 0.18495-5.4209 2.2055-7.4414z" />
    <path
       id="path41"
       d="m20.679 33.536c2.6018-0.54222 5.4209 0.18239 7.4414 2.1749 2.0206 1.9925 2.7554 4.7724 2.2055 7.3381-2.6018 0.54222-5.4209-0.18238-7.4415-2.1749-2.0206-1.9926-2.7554-4.7724-2.2055-7.3381z" />
  </g>
  <g
     id="g51"
     transform="translate(-.503 -1.222)">
    <path
       id="path45"
       fill="url(#e)"
       d="m16.503 28.701c0 10.29 8.4961 24.521 16 24.521 7.0642 0 16-14.232 16-24.521 0-10.29-7.1634-15.479-16-15.479s-16 5.1888-16 15.479z" />
    <path
       id="path47"
       fill="url(#d)"
       d="m36.885 35.605c2.0206-2.0206 4.8396-2.7554 7.4415-2.2055 0.54985 2.6018-0.18496 5.4209-2.2055 7.4414-2.0206 2.0206-4.8396 2.7554-7.4414 2.2055-0.54992-2.6019 0.18495-5.4209 2.2055-7.4414z" />
    <path
       id="path49"
       fill="url(#c)"
       d="m20.679 33.536c2.6018-0.54222 5.4209 0.18239 7.4414 2.1749 2.0206 1.9925 2.7554 4.7724 2.2055 7.3381-2.6018 0.54222-5.4209-0.18238-7.4415-2.1749-2.0206-1.9926-2.7554-4.7724-2.2055-7.3381z" />
  </g>
  <g
     transform="matrix(3.779602,0,0,3.779602,-72.898489,-1.7058895e-7)"
     fill="#5e4aa6"
     id="g34">
    <g
       stroke-width="0.26458"
       id="g30">
      <circle
         cx="-305.98001"
         cy="-333.89001"
         r="0"
         id="circle22" />
      <circle
         cx="-15.066"
         cy="0.93027002"
         r="0"
         fill-rule="evenodd"
         id="circle24" />
      <circle
         cx="-280.67001"
         cy="-338.29999"
         r="0"
         id="circle26" />
      <circle
         cx="10.243"
         cy="-3.4758999"
         r="0"
         fill-rule="evenodd"
         id="circle28" />
    </g>
    <circle
       cx="-330.35001"
       cy="-328.37"
       r="0"
       stroke-width="0.26458"
       id="circle32" />
  </g>
  <circle
     cx="-1218.3069"
     cy="-1241.1079"
     r="0"
     fill="#5e4aa6"
     stroke-width="1.00001"
     id="circle40" />
</svg>
