<?xml version="1.0" encoding="UTF-8" standalone="no"?>
<svg
   xmlns:dc="http://purl.org/dc/elements/1.1/"
   xmlns:cc="http://creativecommons.org/ns#"
   xmlns:rdf="http://www.w3.org/1999/02/22-rdf-syntax-ns#"
   xmlns:svg="http://www.w3.org/2000/svg"
   xmlns="http://www.w3.org/2000/svg"
   xmlns:xlink="http://www.w3.org/1999/xlink"
   xmlns:sodipodi="http://sodipodi.sourceforge.net/DTD/sodipodi-0.dtd"
   xmlns:inkscape="http://www.inkscape.org/namespaces/inkscape"
   inkscape:version="1.0 (4035a4fb49, 2020-05-01)"
   sodipodi:docname="amarok.svg"
   id="svg56"
   version="1.1"
   height="64"
   width="64">
  <sodipodi:namedview
     inkscape:current-layer="svg56"
     inkscape:window-maximized="1"
     inkscape:window-y="36"
     inkscape:window-x="0"
     inkscape:cy="33.099132"
     inkscape:cx="57.235852"
     inkscape:zoom="5.9609375"
     showgrid="false"
     id="namedview58"
     inkscape:window-height="932"
     inkscape:window-width="1920"
     inkscape:pageshadow="2"
     inkscape:pageopacity="0"
     guidetolerance="10"
     gridtolerance="10"
     objecttolerance="10"
     borderopacity="1"
     bordercolor="#666666"
     pagecolor="#ffffff" />
  <metadata
     id="metadata2">
    <rdf:RDF>
      <cc:Work
         rdf:about="">
        <dc:format>image/svg+xml</dc:format>
        <dc:type
           rdf:resource="http://purl.org/dc/dcmitype/StillImage" />
        <dc:title></dc:title>
      </cc:Work>
    </rdf:RDF>
  </metadata>
  <defs
     id="defs26">
    <linearGradient
       gradientUnits="userSpaceOnUse"
       gradientTransform="matrix(1.3283992,0,0,1.3283992,-2.121869,-1.0179681)"
       y2="20.72"
       y1="45.381"
       x2="27.974"
       x1="8.0717"
       id="b">
      <stop
         id="stop4"
         offset="0"
         stop-color="#3250e6" />
      <stop
         id="stop6"
         offset="1"
         stop-color="#0a82f0" />
    </linearGradient>
    <linearGradient
       gradientTransform="matrix(1.328395,0,0,1.328395,-2.121799,-1.0180709)"
       gradientUnits="userSpaceOnUse"
       y2="17.991"
       y1="16.621"
       x2="24.839"
       x1="27.04"
       id="d">
      <stop
         id="stop9"
         offset="0"
         stop-color="#fcfcfc" />
      <stop
         id="stop11"
         offset="1"
         stop-color="#c7c7c7" />
    </linearGradient>
    <linearGradient
       gradientTransform="matrix(1.328395,0,0,1.328395,-2.121799,-1.0180709)"
       gradientUnits="userSpaceOnUse"
       y2="22.495"
       y1="23.644"
       x2="19.574"
       x1="3.783"
       id="g">
      <stop
         id="stop14"
         offset="0"
         stop-color="#2980b9" />
      <stop
         id="stop16"
         offset="1"
         stop-color="#34495e" />
    </linearGradient>
    <filter
       color-interpolation-filters="sRGB"
       height="1.048"
       width="1.048"
       y="-.024"
       x="-.024"
       id="filter2761">
      <feGaussianBlur
         id="feGaussianBlur19"
         stdDeviation="0.14552168" />
    </filter>
    <style
       id="style22"
       type="text/css" />
    <style
       id="style24"
       type="text/css" />
    <filter
       color-interpolation-filters="sRGB"
       height="1.048"
       width="1.048"
       y="-.024"
       x="-.024"
       id="filter2761-3675">
      <feGaussianBlur
         id="feGaussianBlur2"
         stdDeviation="0.14552168" />
    </filter>
    <linearGradient
       gradientUnits="userSpaceOnUse"
       gradientTransform="translate(1.8475,-2.1749)"
       y2="32.176"
       y1="32.176"
       x2="-.93244"
       x1="-9.2997"
       id="linearGradient1195">
      <stop
         id="stop5"
         offset="0"
         stop-color="#1478e6" />
      <stop
         id="stop7"
         offset="1"
         stop-color="#3c50e6" />
    </linearGradient>
    <filter
       color-interpolation-filters="sRGB"
       height="1.048"
       width="1.048"
       y="-.024"
       x="-.024"
       id="filter2761-367">
      <feGaussianBlur
         id="feGaussianBlur2-5"
         stdDeviation="0.14552168" />
    </filter>
    <filter
       color-interpolation-filters="sRGB"
       height="1.1199"
       width="1.1201"
       y="-.059946"
       x="-.060054"
       id="filter924">
      <feGaussianBlur
         id="feGaussianBlur5"
         stdDeviation="0.2078715" />
    </filter>
    <filter
       color-interpolation-filters="sRGB"
       height="1.1208"
       width="1.1192"
       y="-.0604"
       x="-.059605"
       id="filter852">
      <feGaussianBlur
         id="feGaussianBlur8"
         stdDeviation="0.23538182" />
    </filter>
    <filter
       color-interpolation-filters="sRGB"
       height="1.048"
       width="1.048"
       y="-.024"
       x="-.024"
       id="filter2761-36">
      <feGaussianBlur
         id="feGaussianBlur2-7"
         stdDeviation="0.14552168" />
    </filter>
    <linearGradient
       gradientUnits="userSpaceOnUse"
       gradientTransform="translate(58.81987,-4.9486)"
       y2="16.321"
       y1="16.321"
       x2="-16.238"
       x1="-22.655"
       id="linearGradient1174">
      <stop
         id="stop5-3"
         offset="0"
         stop-color="#0a82f0" />
      <stop
         id="stop7-5"
         offset="1"
         stop-color="#3250e6" />
    </linearGradient>
    <filter
       inkscape:collect="always"
       style="color-interpolation-filters:sRGB"
       id="filter1052"
       x="-0.048"
       width="1.096"
       y="-0.048"
       height="1.096">
      <feGaussianBlur
         inkscape:collect="always"
         stdDeviation="0.29103594"
         id="feGaussianBlur1054" />
    </filter>
    <linearGradient
       inkscape:collect="always"
       xlink:href="#linearGradient1038"
       id="linearGradient1040"
       x1="37.040939"
       y1="15.874687"
       x2="51.592735"
       y2="1.3228906"
       gradientUnits="userSpaceOnUse"
       gradientTransform="matrix(3.779602,0,0,3.779602,-135.50001,-0.50000009)" />
    <linearGradient
       inkscape:collect="always"
       id="linearGradient1038">
      <stop
         style="stop-color:#f5f5f5;stop-opacity:1"
         offset="0"
         id="stop1034" />
      <stop
         style="stop-color:#fafafa;stop-opacity:1"
         offset="1"
         id="stop1036" />
    </linearGradient>
    <filter
       id="filter2761-3"
       x="-.024"
       y="-.024"
       width="1.048"
       height="1.048"
       color-interpolation-filters="sRGB">
      <feGaussianBlur
         stdDeviation="0.14552168"
         id="feGaussianBlur895" />
    </filter>
  </defs>
  <rect
     transform="scale(3.779602)"
     ry="3.4395156"
     y="1.1906016"
     x="1.1906018"
     height="14.551797"
     width="14.551797"
     id="rect1042"
     style="opacity:0.3;fill:#000000;fill-opacity:1;stroke-width:0.529156;stroke-linecap:round;filter:url(#filter1052)" />
  <rect
     style="fill:url(#linearGradient1040);fill-opacity:1;stroke-width:2;stroke-linecap:round"
     id="rect1032"
     width="55"
     height="55"
     x="4.5"
     y="4.5"
     ry="13" />
  <circle
     id="circle28"
     fill="#5e4aa6"
     r="0"
     cy="-1241.1"
     cx="-1248.6" />
  <circle
     id="circle34"
     fill="#5e4aa6"
     r="0"
     cy="-1241.1"
     cx="-1145.4" />
  <path
     d="M 50.580078 13.927734 C 50.450062 13.928065 50.313386 13.935151 50.169922 13.957031 C 47.879789 14.309054 42.671936 16.247794 41.027344 16.658203 C 39.384077 17.068673 38.614106 17.437243 35.978516 17.1875 C 32.973712 16.903222 31.622463 16.883665 30.832031 16.90625 C 29.648422 16.801308 29.052734 16.542969 29.052734 16.542969 L 29.15625 17.707031 C 28.369835 18.307461 26.784442 19.182982 23.53125 20.066406 C 21.417823 20.301537 19.658938 19.653079 18.601562 20.240234 C 17.545511 20.827389 14.199113 22.296521 12.496094 22.707031 C 10.793076 23.117501 9.5312504 23.887905 8.5097656 24.222656 C 6.8878093 24.751355 11.725372 32.500697 13.824219 33.519531 C 13.824219 33.519531 13.09782 34.275239 12.496094 34.90625 C 11.03616 35.903874 9.8847656 35.970703 9.8847656 35.970703 L 9.9589844 36.771484 C 8.2639193 37.67214 6.5846683 38.090288 6.0253906 38.169922 C 5.9573831 38.179449 5.2624958 38.392494 4.5 38.650391 L 4.5 46.5 C 4.5 53.702 10.298 59.5 17.5 59.5 L 35.957031 59.5 C 36.464163 56.704727 37.237168 52.545378 37.378906 51.070312 C 37.955426 50.2228 38.730469 50.210937 38.730469 50.210938 C 38.730469 50.210938 37.733727 47.387589 37.832031 43.988281 C 37.955572 43.181943 38.165961 42.421845 38.431641 41.699219 L 39.435547 41.699219 C 39.435547 41.699219 39.309732 40.313758 39.876953 38.904297 C 41.743319 36.066816 44.29094 34.170113 45.378906 33.335938 C 46.404469 32.548198 51.129328 31.3406 52.126953 31.105469 C 53.124578 30.870338 54.064621 29.282661 54.123047 28.8125 C 54.181477 28.34234 53.830078 27.462891 53.830078 27.462891 L 51.189453 26.876953 L 47.994141 26.515625 C 47.994141 26.515625 52.381545 20.016887 53.171875 19.263672 C 54.010088 18.465307 54.417969 17.482168 54.417969 16.542969 C 54.417969 15.60377 53.726562 14.339844 53.726562 14.339844 C 53.726562 14.339844 52.93383 13.939124 51.638672 13.988281 C 51.422139 13.996281 51.199427 13.965252 50.958984 13.945312 L 50.955078 13.945312 C 50.834862 13.935313 50.710094 13.927414 50.580078 13.927734 z "
     style="fill:url(#b);fill-rule:evenodd;stroke-width:1.01965"
     id="path36" />
  <path
     id="path38"
     fill="#2c3e50"
     d="m 54.00289,14.922669 c 0,0 -0.415788,-0.373279 -0.871427,-0.415788 -0.456968,-0.04118 -1.412084,0.12487 -1.701674,0.08369 -0.290919,-0.04118 -1.287215,-0.623017 -1.287215,-0.623017 0,0 1.328395,-0.747886 1.785363,-0.830247 0.456968,-0.08369 1.246034,-0.207229 1.246034,-0.207229 0,0 0.332099,0.415787 0.581837,0.996296 0.249739,0.581837 0.249739,0.996296 0.249739,0.996296"
     style="fill-rule:evenodd;stroke-width:1.01965" />
  <path
     id="path40"
     fill="#fcfcfc"
     d="m 52.325127,27.183755 c -0.896667,0.119555 -1.069358,0.01993 -1.069358,0.01993 0,0 0.20723,-0.939175 0.431728,-1.018879 0.224499,-0.0797 0.879398,0.939175 0.63763,0.998953"
     style="fill-rule:evenodd;stroke-width:1.01965" />
  <path
     id="path42"
     fill="#2c3e50"
     d="m 53.545922,18.866674 c 0,0 -2.947709,1.412084 -4.358464,3.611906 -1.412084,2.199822 -2.40838,4.442153 -2.40838,4.442153 0,0 0.996296,0.207229 1.910232,0.539328 0.913936,0.332099 2.574429,0.415788 3.279807,0.290919 0.705378,-0.12487 0.913936,-0.456968 0.20723,-0.747887 -0.705378,-0.290918 -1.744183,-0.498148 -1.785363,-1.121165 -0.04118,-0.623017 1.287214,-4.234923 1.660493,-4.815432 0.373279,-0.581837 1.494445,-2.199822 1.494445,-2.199822"
     style="fill-rule:evenodd;stroke-width:1.01965" />
  <path
     id="path44"
     fill="#34495e"
     d="m 27.684728,26.047977 c 0,0 3.651758,-0.549955 5.042587,-1.381531 4.535141,-2.709925 4.381047,-4.222967 4.381047,-4.222967 0,0 -4.796834,-1.919531 -8.113837,2.037758 -1.388172,1.656508 -1.309797,3.56674 -1.309797,3.56674"
     style="fill-rule:evenodd;stroke-width:1.01965" />
  <path
     style="fill:url(#d);fill-rule:evenodd;stroke-width:1.01965"
     id="path46"
     fill="url(#d)"
     d="m 29.051646,24.407409 c 0,0 3.639803,-0.733274 4.99078,-1.732227 1.34965,-0.997624 1.907576,-1.526326 1.732228,-1.87835 -0.176677,-0.352025 -1.497102,-0.880726 -3.140326,-0.470252 -1.643225,0.410474 -2.817526,1.584775 -3.140326,2.319378 -0.3228,0.733274 -0.6456,1.526325 -0.439699,1.761451" />
  <path
     id="path48"
     fill="#fcfcfc"
     d="m 49.627157,27.776219 c 1.341679,0.154094 1.594074,0.02524 1.594074,0.02524 0,0 -0.308188,-1.20884 -0.642944,-1.311126 -0.334755,-0.102287 -1.311125,1.208839 -0.95113,1.285886"
     style="fill-rule:evenodd;stroke-width:1.01965" />
  <path
     style="fill:url(#g);fill-rule:evenodd;stroke-width:1.01965"
     id="path50"
     fill="url(#g)"
     d="m 14.214803,31.919483 c 1.341679,1.028178 4.729086,1.633926 6.390908,1.392158 3.920094,-0.572538 4.12201,-0.278963 3.176193,-2.780331 -0.682796,-1.805288 -4.649383,-3.653086 -7.306173,-0.996296 l -1.328395,-1.328395 c 0.787738,-1.134449 -0.664198,-3.777955 -1.328395,-3.985185 -0.664198,-0.20723 -3.797881,0.6456 -4.0887998,0.936519 -0.2909185,0.290918 3.1469678,5.734681 4.4846618,6.762859" />
</svg>
