<?xml version="1.0" encoding="UTF-8"?>
<svg width="64" height="64" version="1.1" xmlns="http://www.w3.org/2000/svg" xmlns:cc="http://creativecommons.org/ns#" xmlns:dc="http://purl.org/dc/elements/1.1/" xmlns:rdf="http://www.w3.org/1999/02/22-rdf-syntax-ns#" xmlns:xlink="http://www.w3.org/1999/xlink">
 <metadata>
  <rdf:RDF>
   <cc:Work rdf:about="">
    <dc:format>image/svg+xml</dc:format>
    <dc:type rdf:resource="http://purl.org/dc/dcmitype/StillImage"/>
    <dc:title/>
   </cc:Work>
  </rdf:RDF>
 </metadata>
 <defs>
  <linearGradient id="b" x1="30.207" x2="14" y1="43" y2="10" gradientTransform="matrix(1.5 0 0 1.5 -4.5005 -3.6297)" gradientUnits="userSpaceOnUse">
   <stop stop-color="#cdbee6" offset="0"/>
   <stop stop-color="#fafafa" offset="1"/>
  </linearGradient>
  <filter id="filter2761" x="-.024" y="-.024" width="1.048" height="1.048" color-interpolation-filters="sRGB">
   <feGaussianBlur stdDeviation="0.14552168"/>
  </filter>
  <linearGradient id="linearGradient902" x1="5.4253" x2="63.72" y1="59.421" y2=".16763" gradientUnits="userSpaceOnUse">
   <stop stop-color="#8c14e6" offset="0"/>
   <stop stop-color="#dc28e6" offset="1"/>
  </linearGradient>
 </defs>
 <circle cx="-1248.6" cy="-1241.1" r="0" fill="#5e4aa6"/>
 <path transform="matrix(3.7796 0 0 3.7796 .00058415 -.00017177)" d="m10.708 1.1905c4.405 0 5.0345 0.67282 5.0345 5.388v3.7761c0 4.7152-0.62954 5.388-5.0345 5.388h-4.4832c-4.405 0-5.0346-0.6728-5.0346-5.388v-3.7761c0-4.7152 0.62954-5.388 5.0346-5.388z" enable-background="new" fill="#141414" filter="url(#filter2761)" opacity=".3"/>
 <path d="m40.473 4.4994c16.649 0 19.028 2.543 19.028 20.364v14.272c0 17.822-2.3794 20.364-19.028 20.364h-16.945c-16.649 0-19.029-2.5429-19.029-20.364v-14.272c0-17.822 2.3794-20.364 19.029-20.364z" enable-background="new" fill="url(#linearGradient902)" stroke-width="3.7796"/>
 <circle cx="-1145.4" cy="-1241.1" r="0" fill="#5e4aa6"/>
 <path d="m36.184 9.8703s-4.7957 3.2895-5.124 5.1563c0 0-10.146-3.2072-19.061 5.3438h4.5s-11.795 7.3711-12 12c0.20508-0.12891 2.168-1.1526 3-1.5 0 0-3.0583 10.565-2.54 17.851 1.5552 10.903 6.6473 10.778 23.318 10.778 0.32951 0 3.666-0.03541 3.9925-0.04687 0.37603-1.2876 2.1169-7.9232-1.084-12.056-2.7553-3.5649-7.5632-13.236-1.1865-16.526 0 0 4.0301 5.6562 8.7627 6.2051 0 0 0.55244 4.8485 6.2725 1.7695 1.5266-0.81822 2.0942-3.5251 0.55371-5.7217l-1.2129-1.7549s-4.016-9.6444-6.876-12.498c0 0-1.5-4.5 0-7.5 0 0-1.6994 1.2619-2.25 2.25 0 0 0.38276-3.2049 0.93458-3.75z" fill="url(#b)"/>
</svg>
