<?xml version="1.0" encoding="UTF-8"?>
<svg width="64" height="64" version="1.1" viewBox="0 0 16.933 16.933" xmlns="http://www.w3.org/2000/svg" xmlns:cc="http://creativecommons.org/ns#" xmlns:dc="http://purl.org/dc/elements/1.1/" xmlns:rdf="http://www.w3.org/1999/02/22-rdf-syntax-ns#">
 <metadata>
  <rdf:RDF>
   <cc:Work rdf:about="">
    <dc:format>image/svg+xml</dc:format>
    <dc:type rdf:resource="http://purl.org/dc/dcmitype/StillImage"/>
    <dc:title/>
   </cc:Work>
  </rdf:RDF>
 </metadata>
 <defs>
  <linearGradient id="b" x1="399.57" x2="399.57" y1="545.8" y2="517.8" gradientTransform="matrix(.56696 0 0 .56696 -218.64 -293.02)" gradientUnits="userSpaceOnUse">
   <stop stop-color="#3889e9" offset="0"/>
   <stop stop-color="#5ea5fb" offset="1"/>
  </linearGradient>
  <filter id="filter2761" x="-.024" y="-.024" width="1.048" height="1.048" color-interpolation-filters="sRGB">
   <feGaussianBlur stdDeviation="0.14552168"/>
  </filter>
  <linearGradient id="linearGradient2645-3" x1="15.752" x2="1.3927" y1="281.24" y2="295.6" gradientTransform="translate(-.1321 -279.92)" gradientUnits="userSpaceOnUse">
   <stop stop-color="#0a82f0" offset="0"/>
   <stop stop-color="#3250e6" offset="1"/>
  </linearGradient>
  <filter id="filter904" x="-.033069" y="-.0395" width="1.0661" height="1.079" color-interpolation-filters="sRGB">
   <feGaussianBlur stdDeviation="0.9423975"/>
  </filter>
 </defs>
 <circle cx="8.4718" cy="8.4781" r="0" fill="url(#b)" stroke-width=".41578"/>
 <path d="m10.708 1.1905c4.405 0 5.0345 0.67282 5.0345 5.388v3.7761c0 4.7152-0.62954 5.388-5.0345 5.388h-4.4832c-4.405 0-5.0346-0.6728-5.0346-5.388v-3.7761c0-4.7152 0.62954-5.388 5.0346-5.388z" enable-background="new" fill="#141414" filter="url(#filter2761)" opacity=".3"/>
 <path d="m10.708 1.1904c4.405 0 5.0344 0.67282 5.0344 5.3879v3.7761c0 4.7153-0.62954 5.3879-5.0344 5.3879h-4.4833c-4.405 0-5.0347-0.6728-5.0347-5.3879v-3.7761c0-4.7153 0.62954-5.3879 5.0347-5.3879z" enable-background="new" fill="url(#linearGradient2645-3)"/>
 <g transform="matrix(.10596 0 0 .10596 21.43 9.7454)" filter="url(#filter904)" opacity=".25">
  <path d="m-122.34-40.699-34.197 57.259 29.917-16.821 4.2793-2.4039zm0 0 34.197 57.259-29.917-16.821-4.2793-2.4039z" opacity=".988" stroke-width=".73055" style="font-feature-settings:normal;font-variant-caps:normal;font-variant-ligatures:normal;font-variant-numeric:normal;paint-order:stroke fill markers"/>
 </g>
 <g transform="matrix(.10596 0 0 .10596 21.43 9.7454)" fill="#fff">
  <path d="m-122.34-40.699-34.197 57.259 29.917-16.821 4.2793-2.4039zm0 0 34.197 57.259-29.917-16.821-4.2793-2.4039z" opacity=".988" stroke-width=".73055" style="font-feature-settings:normal;font-variant-caps:normal;font-variant-ligatures:normal;font-variant-numeric:normal;paint-order:stroke fill markers"/>
 </g>
</svg>
