<?xml version="1.0" encoding="UTF-8"?>
<svg width="64" height="64" version="1.1" viewBox="0 0 16.933 16.933" xmlns="http://www.w3.org/2000/svg" xmlns:cc="http://creativecommons.org/ns#" xmlns:dc="http://purl.org/dc/elements/1.1/" xmlns:rdf="http://www.w3.org/1999/02/22-rdf-syntax-ns#" xmlns:xlink="http://www.w3.org/1999/xlink">
 <metadata>
  <rdf:RDF>
   <cc:Work rdf:about="">
    <dc:format>image/svg+xml</dc:format>
    <dc:type rdf:resource="http://purl.org/dc/dcmitype/StillImage"/>
    <dc:title/>
   </cc:Work>
  </rdf:RDF>
 </metadata>
 <defs>
  <linearGradient id="a" x1="6.576" x2="6.576" y1="1.58" y2="15.33" gradientTransform="matrix(1.2632 0 0 1.2626 .39523 -1.2862)" gradientUnits="userSpaceOnUse">
   <stop stop-color="#f10166" offset="0"/>
   <stop stop-color="#fc3d4a" offset="1"/>
  </linearGradient>
  <filter id="filter2761" x="-.024" y="-.024" width="1.048" height="1.048" color-interpolation-filters="sRGB">
   <feGaussianBlur stdDeviation="0.14552168"/>
  </filter>
  <linearGradient id="linearGradient903" x1="8.8935" x2="8.8935" y1="14.453" y2="2.1245" gradientUnits="userSpaceOnUse">
   <stop stop-color="#fad31c" offset="0"/>
   <stop stop-color="#faed1c" offset="1"/>
  </linearGradient>
 </defs>
 <circle cx="-330.35" cy="-328.37" r="0" fill="#5e4aa6" stroke-width=".26458"/>
 <path d="m10.708 1.1905c4.405 0 5.0345 0.67282 5.0345 5.388v3.7761c0 4.7152-0.62954 5.388-5.0345 5.388h-4.4832c-4.405 0-5.0346-0.6728-5.0346-5.388v-3.7761c0-4.7152 0.62954-5.388 5.0346-5.388z" enable-background="new" fill="#141414" filter="url(#filter2761)" opacity=".3"/>
 <path d="m10.708 1.1904c4.405 0 5.0344 0.67282 5.0344 5.3879v3.7761c0 4.7153-0.62954 5.3879-5.0344 5.3879h-4.4833c-4.405 0-5.0347-0.6728-5.0347-5.3879v-3.7761c0-4.7153 0.62954-5.3879 5.0347-5.3879z" enable-background="new" fill="url(#linearGradient903)"/>
 <circle cx="-303.05" cy="-328.37" r="0" fill="#5e4aa6" stroke-width=".26458"/>
 <path d="m9.3841 1.1906c-1.3754 1.3218-6.2298 6.1447-6.8744 6.8361-0.0065293 0.042842-0.012731 0.085734-0.018603 0.12867 0.17812-0.1452 0.4545-0.36747 0.73999-0.62631 0.14906-0.13509 0.33347-0.29544 0.40927-0.35604 0.0758-0.0606 0.21737-0.18159 0.31212-0.26871 0.26275-0.24368 0.88548-0.7957 1.0686-0.94721 0.08843-0.075755 0.43703-0.38105 0.77307-0.67901 0.33602-0.29923 0.77076-0.68163 0.96529-0.84954 0.19455-0.16919 0.5977-0.53566 0.89709-0.81595 0.57603-0.54039 2.3572-2.1186 2.5543-2.2649 0.06442-0.046715 0.125-0.079633 0.13384-0.070795 0.01895 0.018939-1.2828 2.059-1.6794 2.6701-1.0587 1.6353-2.1153 3.2721-3.1698 4.9102l-1.5916 2.4664-1.5968 2.4747c-0.18949 0.29166-0.36011 0.5525-0.47128 0.73431 0.69432 1.2112 2.9302 1.1735 3.3036 1.1896 0.33103 0.01328 0.6918 0.0217 1.0872 0.0217h4.4033c0.40964-4.2143 1.8617-9.1504 4.0663-13.758 0.0053-0.011173 0.0097-0.016294 0.01498-0.026871-0.73307-0.6227-1.962-0.76789-4.0012-0.76789z" fill="url(#a)" stroke-width=".94899"/>
</svg>
