<?xml version="1.0" encoding="UTF-8" standalone="no"?>
<svg
   xmlns:dc="http://purl.org/dc/elements/1.1/"
   xmlns:cc="http://creativecommons.org/ns#"
   xmlns:rdf="http://www.w3.org/1999/02/22-rdf-syntax-ns#"
   xmlns:svg="http://www.w3.org/2000/svg"
   xmlns="http://www.w3.org/2000/svg"
   xmlns:xlink="http://www.w3.org/1999/xlink"
   xmlns:sodipodi="http://sodipodi.sourceforge.net/DTD/sodipodi-0.dtd"
   xmlns:inkscape="http://www.inkscape.org/namespaces/inkscape"
   inkscape:version="1.0 (4035a4fb49, 2020-05-01)"
   sodipodi:docname="applications-utilities.svg"
   id="svg39"
   viewBox="0 0 16.933 16.933"
   version="1.1"
   height="64"
   width="64">
  <sodipodi:namedview
     inkscape:current-layer="svg39"
     inkscape:window-maximized="1"
     inkscape:window-y="36"
     inkscape:window-x="0"
     inkscape:cy="22.105048"
     inkscape:cx="-18.811128"
     inkscape:zoom="5.9609375"
     showgrid="false"
     id="namedview41"
     inkscape:window-height="932"
     inkscape:window-width="1920"
     inkscape:pageshadow="2"
     inkscape:pageopacity="0"
     guidetolerance="10"
     gridtolerance="10"
     objecttolerance="10"
     borderopacity="1"
     bordercolor="#666666"
     pagecolor="#ffffff" />
  <metadata
     id="metadata2">
    <rdf:RDF>
      <cc:Work
         rdf:about="">
        <dc:format>image/svg+xml</dc:format>
        <dc:type
           rdf:resource="http://purl.org/dc/dcmitype/StillImage" />
        <dc:title></dc:title>
      </cc:Work>
    </rdf:RDF>
  </metadata>
  <defs
     id="defs19">
    <style
       id="style4"
       type="text/css" />
    <linearGradient
       gradientUnits="userSpaceOnUse"
       gradientTransform="matrix(.56696 0 0 .56696 -218.64 -293.02)"
       y2="517.8"
       y1="545.8"
       x2="399.57"
       x1="399.57"
       id="b">
      <stop
         id="stop6"
         offset="0"
         stop-color="#3889e9" />
      <stop
         id="stop8"
         offset="1"
         stop-color="#5ea5fb" />
    </linearGradient>
    <filter
       color-interpolation-filters="sRGB"
       height="1.048"
       width="1.048"
       y="-.024"
       x="-.024"
       id="filter2761">
      <feGaussianBlur
         id="feGaussianBlur11"
         stdDeviation="0.14552168" />
    </filter>
    <linearGradient
       gradientUnits="userSpaceOnUse"
       gradientTransform="translate(-.13195 -279.92)"
       y2="295.6"
       y1="281.24"
       x2="1.3927"
       x1="15.752"
       id="linearGradient2645-3">
      <stop
         id="stop14"
         offset="0"
         stop-color="#2ecc85" />
      <stop
         id="stop16"
         offset="1"
         stop-color="#16a085" />
    </linearGradient>
    <linearGradient
       gradientUnits="userSpaceOnUse"
       gradientTransform="matrix(4.8356,0,0,4.8356,-8.9393,-1363.8)"
       y2="282.02"
       y1="292.57"
       x2="15.11"
       x1="4.3858"
       id="linearGradient865">
      <stop
         id="stop4"
         offset="0"
         stop-color="#fff" />
      <stop
         id="stop6-6"
         offset="1"
         stop-color="#b4f0e6" />
    </linearGradient>
    <filter
       color-interpolation-filters="sRGB"
       height="1.048"
       width="1.048"
       y="-.024"
       x="-.024"
       id="filter2761-7">
      <feGaussianBlur
         id="feGaussianBlur14"
         stdDeviation="0.14552168" />
    </filter>
    <linearGradient
       gradientUnits="userSpaceOnUse"
       gradientTransform="translate(-.1321 -279.92)"
       y2="295.6"
       y1="281.24"
       x2="1.3927"
       x1="15.752"
       id="linearGradient2645-3-5">
      <stop
         id="stop17"
         offset="0"
         stop-color="#2ecc85" />
      <stop
         id="stop19"
         offset="1"
         stop-color="#16a085" />
    </linearGradient>
    <linearGradient
       id="linearGradient927"
       inkscape:collect="always">
      <stop
         id="stop923"
         offset="0"
         style="stop-color:#14a082;stop-opacity:1" />
      <stop
         id="stop925"
         offset="1"
         style="stop-color:#2dcd82;stop-opacity:1" />
    </linearGradient>
    <filter
       color-interpolation-filters="sRGB"
       height="1.048"
       width="1.048"
       y="-.024"
       x="-.024"
       id="filter2761-67">
      <feGaussianBlur
         id="feGaussianBlur4"
         stdDeviation="0.14552168" />
    </filter>
    <linearGradient
       gradientUnits="userSpaceOnUse"
       gradientTransform="translate(-0.59046978,-1.1664834)"
       y2="1.1724"
       y1="15.429"
       x2="15.49"
       x1="1.3941"
       id="linearGradient872">
      <stop
         id="stop7"
         offset="0"
         stop-color="#ff3c69" />
      <stop
         id="stop9-5"
         offset="1"
         stop-color="#ff462b" />
    </linearGradient>
    <filter
       color-interpolation-filters="sRGB"
       height="1.0699"
       width="1.0742"
       y="-.034971"
       x="-.037091"
       id="filter1010">
      <feGaussianBlur
         id="feGaussianBlur12"
         stdDeviation="0.05378021" />
    </filter>
    <filter
       color-interpolation-filters="sRGB"
       height="1.07"
       width="1.0741"
       y="-.035009"
       x="-.037049"
       id="filter1030">
      <feGaussianBlur
         id="feGaussianBlur15"
         stdDeviation="0.024028153" />
    </filter>
    <filter
       color-interpolation-filters="sRGB"
       height="1.072"
       width="1.072"
       y="-.035998"
       x="-.036002"
       id="filter1034">
      <feGaussianBlur
         id="feGaussianBlur18"
         stdDeviation="0.10759511" />
    </filter>
    <filter
       color-interpolation-filters="sRGB"
       height="1.048"
       width="1.048"
       y="-.024"
       x="-.024"
       id="filter2761-6">
      <feGaussianBlur
         id="feGaussianBlur4-7"
         stdDeviation="0.14552168" />
    </filter>
    <filter
       color-interpolation-filters="sRGB"
       height="1.048"
       width="1.048"
       y="-.024"
       x="-.024"
       id="filter2761-3675">
      <feGaussianBlur
         id="feGaussianBlur2"
         stdDeviation="0.14552168" />
    </filter>
    <linearGradient
       gradientUnits="userSpaceOnUse"
       gradientTransform="translate(1.8475,-2.1749)"
       y2="32.176"
       y1="32.176"
       x2="-.93244"
       x1="-9.2997"
       id="linearGradient1195">
      <stop
         id="stop5"
         offset="0"
         stop-color="#1478e6" />
      <stop
         id="stop7-53"
         offset="1"
         stop-color="#3c50e6" />
    </linearGradient>
    <filter
       color-interpolation-filters="sRGB"
       height="1.048"
       width="1.048"
       y="-.024"
       x="-.024"
       id="filter2761-367">
      <feGaussianBlur
         id="feGaussianBlur2-5"
         stdDeviation="0.14552168" />
    </filter>
    <filter
       color-interpolation-filters="sRGB"
       height="1.1199"
       width="1.1201"
       y="-.059946"
       x="-.060054"
       id="filter924">
      <feGaussianBlur
         id="feGaussianBlur5"
         stdDeviation="0.2078715" />
    </filter>
    <filter
       color-interpolation-filters="sRGB"
       height="1.1208"
       width="1.1192"
       y="-.0604"
       x="-.059605"
       id="filter852">
      <feGaussianBlur
         id="feGaussianBlur8"
         stdDeviation="0.23538182" />
    </filter>
    <filter
       color-interpolation-filters="sRGB"
       height="1.048"
       width="1.048"
       y="-.024"
       x="-.024"
       id="filter2761-36">
      <feGaussianBlur
         id="feGaussianBlur2-7"
         stdDeviation="0.14552168" />
    </filter>
    <linearGradient
       gradientUnits="userSpaceOnUse"
       gradientTransform="translate(58.81987,-4.9486)"
       y2="16.321"
       y1="16.321"
       x2="-16.238"
       x1="-22.655"
       id="linearGradient1174">
      <stop
         id="stop5-3"
         offset="0"
         stop-color="#0a82f0" />
      <stop
         id="stop7-5"
         offset="1"
         stop-color="#3250e6" />
    </linearGradient>
    <filter
       inkscape:collect="always"
       style="color-interpolation-filters:sRGB"
       id="filter1052"
       x="-0.048"
       width="1.096"
       y="-0.048"
       height="1.096">
      <feGaussianBlur
         inkscape:collect="always"
         stdDeviation="0.29103594"
         id="feGaussianBlur1054" />
    </filter>
    <filter
       id="filter2761-3"
       x="-.024"
       y="-.024"
       width="1.048"
       height="1.048"
       color-interpolation-filters="sRGB">
      <feGaussianBlur
         stdDeviation="0.14552168"
         id="feGaussianBlur895" />
    </filter>
    <linearGradient
       gradientTransform="translate(27.407127)"
       gradientUnits="userSpaceOnUse"
       y2="1.1906018"
       x2="-11.664725"
       y1="15.742399"
       x1="-26.216522"
       id="linearGradient929"
       xlink:href="#linearGradient927"
       inkscape:collect="always" />
    <linearGradient
       y2="517.8"
       x2="399.57"
       y1="545.8"
       x1="399.57"
       gradientTransform="matrix(0.56696,0,0,0.56696,-238.77718,-293.02)"
       gradientUnits="userSpaceOnUse"
       id="linearGradient983"
       xlink:href="#b"
       inkscape:collect="always" />
  </defs>
  <rect
     style="opacity:0.3;fill:#000000;fill-opacity:1;stroke-width:0.529156;stroke-linecap:round;filter:url(#filter1052)"
     id="rect1042"
     width="14.551797"
     height="14.551797"
     x="1.1906018"
     y="1.1906018"
     ry="3.4395156" />
  <rect
     ry="3.4395156"
     y="1.1906016"
     x="1.1906016"
     height="14.551797"
     width="14.551797"
     id="rect921"
     style="fill:url(#linearGradient929);fill-opacity:1;stroke-width:0.559152;stroke-linecap:round" />
  <circle
     id="circle21"
     stroke-width=".26458"
     fill="#5e4aa6"
     r="0"
     cy="-376.59"
     cx="-189.46" />
  <circle
     id="circle23"
     stroke-width=".26458"
     fill="#5e4aa6"
     r="0"
     cy="-358.51"
     cx="-230.43" />
  <circle
     id="circle25"
     stroke-width=".41578"
     fill="url(#b)"
     r="0"
     cy="8.4781"
     cx="8.4719" />
  <g
     id="g37"
     fill="#fff"
     transform="matrix(.0086367 0 0 .0086367 3.8107 4.0445)">
    <path
       id="path31"
       p-id="3100"
       d="m152.77 11.47 213.05 206.38-37.094 36.932 159.44 158.55-76.955 73.782-159.44-158.55-38.477 36.932-213.05-206.38z" />
    <path
       id="path33"
       p-id="3101"
       d="m1077.9 217.85h-105.75l-42.707 42.463-31.644 31.4-33.027 32.539-87.855-23.265-23.428-87.204 66.054-65.078 42.789-42.951v-105.18h-8.1347a244.04 244.04 0 0 0-178.96 68.332 234.77 234.77 0 0 0-68.738 147.65 250.71 250.71 0 0 0 10.982 95.664v2.7658a34.166 34.166 0 0 1-9.599 36.932c-17.896 16.269-525.1 497.52-525.1 497.52-42.626 35.549-38.477 102.5 0 142.11 39.86 38.233 105.75 40.674 142.93 0 0 0 478.32-504.35 498.98-524.85a33.678 33.678 0 0 1 30.18-11.145c5.5316 1.3829 10.982 4.0674 16.269 5.4503a242.17 242.17 0 0 0 87.936 9.599 237.29 237.29 0 0 0 148.46-68.332 231.68 231.68 0 0 0 68.738-177.66 14.805 14.805 0 0 0 1.6269-6.7518zm-898.89 725.78a33.352 33.352 0 0 1-48.076 0 32.539 32.539 0 0 1 0-47.832 33.352 33.352 0 0 1 48.076 0 35.467 35.467 0 0 1 0 47.832z" />
    <path
       id="path35"
       p-id="3102"
       d="m981.62 785.08-233.63-217.28s-130.64 34.166-221.35 185.88c5.5316 1.3829 241.93 239.16 241.93 239.16a109.98 109.98 0 0 0 152.61 0l60.441-58.733a102.82 102.82 0 0 0 0-149.03zm-127.47 166.68a29.366 29.366 0 0 1-38.477 0l-195.23-189.95-1.3829-1.3829a25.543 25.543 0 0 1 1.3829-35.549 29.366 29.366 0 0 1 38.477 0l196.54 189.95a28.797 28.797 0 0 1-1.3016 36.932zm86.635-83.381a29.366 29.366 0 0 1-38.477 0l-196.94-189.95-1.3829-1.3829a25.543 25.543 0 0 1 1.3829-35.549 29.366 29.366 0 0 1 38.477 0l196.54 189.95a24.404 24.404 0 0 1 0 37.013z" />
  </g>
  <circle
     cx="-250.56717"
     cy="-358.51001"
     r="0"
     fill="#5e4aa6"
     stroke-width="0.26458"
     id="circle24" />
  <circle
     cx="-11.66538"
     cy="8.4780998"
     r="0"
     fill="url(#b)"
     stroke-width="0.41578"
     id="circle26"
     style="fill:url(#linearGradient983)" />
  <circle
     id="circle23-3"
     stroke-width="0.26458"
     fill="#5e4aa6"
     r="0"
     cy="-328.38"
     cx="-372.53558" />
</svg>
