<?xml version="1.0" encoding="UTF-8"?>
<svg width="64" height="64" version="1.1" viewBox="0 0 16.933 16.933" xmlns="http://www.w3.org/2000/svg" xmlns:cc="http://creativecommons.org/ns#" xmlns:dc="http://purl.org/dc/elements/1.1/" xmlns:rdf="http://www.w3.org/1999/02/22-rdf-syntax-ns#">
 <metadata>
  <rdf:RDF>
   <cc:Work rdf:about="">
    <dc:format>image/svg+xml</dc:format>
    <dc:type rdf:resource="http://purl.org/dc/dcmitype/StillImage"/>
    <dc:title/>
   </cc:Work>
  </rdf:RDF>
 </metadata>
 <defs>
  <style type="text/css"/>
  <linearGradient id="b" x1="399.57" x2="399.57" y1="545.8" y2="517.8" gradientTransform="matrix(.56696 0 0 .56696 -218.64 -293.02)" gradientUnits="userSpaceOnUse">
   <stop stop-color="#3889e9" offset="0"/>
   <stop stop-color="#5ea5fb" offset="1"/>
  </linearGradient>
  <filter id="filter2761" x="-.024" y="-.024" width="1.048" height="1.048" color-interpolation-filters="sRGB">
   <feGaussianBlur stdDeviation="0.14552168"/>
  </filter>
  <linearGradient id="linearGradient2645-3" x1="15.752" x2="1.3927" y1="281.24" y2="295.6" gradientTransform="translate(-.13195 -279.92)" gradientUnits="userSpaceOnUse">
   <stop stop-color="#2ecc85" offset="0"/>
   <stop stop-color="#16a085" offset="1"/>
  </linearGradient>
 </defs>
 <circle cx="-189.46" cy="-376.59" r="0" fill="#5e4aa6" stroke-width=".26458"/>
 <circle cx="-230.43" cy="-358.51" r="0" fill="#5e4aa6" stroke-width=".26458"/>
 <circle cx="8.4719" cy="8.4781" r="0" fill="url(#b)" stroke-width=".41578"/>
 <path d="m10.708 1.1905c4.405 0 5.0345 0.67282 5.0345 5.388v3.7761c0 4.7152-0.62954 5.388-5.0345 5.388h-4.4832c-4.405 0-5.0346-0.6728-5.0346-5.388v-3.7761c0-4.7152 0.62954-5.388 5.0346-5.388z" enable-background="new" fill="#141414" filter="url(#filter2761)" opacity=".3"/>
 <path d="m10.708 1.1904c4.405 0 5.0344 0.67282 5.0344 5.3879v3.7761c0 4.7153-0.62954 5.3879-5.0344 5.3879h-4.4833c-4.405 0-5.0347-0.6728-5.0347-5.3879v-3.7761c0-4.7153 0.62954-5.3879 5.0347-5.3879z" enable-background="new" fill="url(#linearGradient2645-3)"/>
 <g transform="matrix(.0086367 0 0 .0086367 3.8107 4.0445)" fill="#fff">
  <path d="m152.77 11.47 213.05 206.38-37.094 36.932 159.44 158.55-76.955 73.782-159.44-158.55-38.477 36.932-213.05-206.38z" p-id="3100"/>
  <path d="m1077.9 217.85h-105.75l-42.707 42.463-31.644 31.4-33.027 32.539-87.855-23.265-23.428-87.204 66.054-65.078 42.789-42.951v-105.18h-8.1347a244.04 244.04 0 0 0-178.96 68.332 234.77 234.77 0 0 0-68.738 147.65 250.71 250.71 0 0 0 10.982 95.664v2.7658a34.166 34.166 0 0 1-9.599 36.932c-17.896 16.269-525.1 497.52-525.1 497.52-42.626 35.549-38.477 102.5 0 142.11 39.86 38.233 105.75 40.674 142.93 0 0 0 478.32-504.35 498.98-524.85a33.678 33.678 0 0 1 30.18-11.145c5.5316 1.3829 10.982 4.0674 16.269 5.4503a242.17 242.17 0 0 0 87.936 9.599 237.29 237.29 0 0 0 148.46-68.332 231.68 231.68 0 0 0 68.738-177.66 14.805 14.805 0 0 0 1.6269-6.7518zm-898.89 725.78a33.352 33.352 0 0 1-48.076 0 32.539 32.539 0 0 1 0-47.832 33.352 33.352 0 0 1 48.076 0 35.467 35.467 0 0 1 0 47.832z" p-id="3101"/>
  <path d="m981.62 785.08-233.63-217.28s-130.64 34.166-221.35 185.88c5.5316 1.3829 241.93 239.16 241.93 239.16a109.98 109.98 0 0 0 152.61 0l60.441-58.733a102.82 102.82 0 0 0 0-149.03zm-127.47 166.68a29.366 29.366 0 0 1-38.477 0l-195.23-189.95-1.3829-1.3829a25.543 25.543 0 0 1 1.3829-35.549 29.366 29.366 0 0 1 38.477 0l196.54 189.95a28.797 28.797 0 0 1-1.3016 36.932zm86.635-83.381a29.366 29.366 0 0 1-38.477 0l-196.94-189.95-1.3829-1.3829a25.543 25.543 0 0 1 1.3829-35.549 29.366 29.366 0 0 1 38.477 0l196.54 189.95a24.404 24.404 0 0 1 0 37.013z" p-id="3102"/>
 </g>
</svg>
