<?xml version="1.0" encoding="UTF-8"?>
<svg width="64" height="64" version="1.1" viewBox="0 0 16.933 16.933" xmlns="http://www.w3.org/2000/svg" xmlns:cc="http://creativecommons.org/ns#" xmlns:dc="http://purl.org/dc/elements/1.1/" xmlns:rdf="http://www.w3.org/1999/02/22-rdf-syntax-ns#">
 <metadata>
  <rdf:RDF>
   <cc:Work rdf:about="">
    <dc:format>image/svg+xml</dc:format>
    <dc:type rdf:resource="http://purl.org/dc/dcmitype/StillImage"/>
    <dc:title/>
   </cc:Work>
  </rdf:RDF>
 </metadata>
 <defs>
  <linearGradient id="b" x1="399.57" x2="399.57" y1="545.8" y2="517.8" gradientTransform="matrix(.56696 0 0 .56696 -218.64 -293.02)" gradientUnits="userSpaceOnUse">
   <stop stop-color="#3889e9" offset="0"/>
   <stop stop-color="#5ea5fb" offset="1"/>
  </linearGradient>
  <filter id="filter2761" x="-.024" y="-.024" width="1.048" height="1.048" color-interpolation-filters="sRGB">
   <feGaussianBlur stdDeviation="0.14552168"/>
  </filter>
  <linearGradient id="linearGradient2645-3" x1="15.752" x2="1.3927" y1="281.24" y2="295.6" gradientTransform="translate(-.13195 -279.92)" gradientUnits="userSpaceOnUse">
   <stop stop-color="#0a82f0" offset="0"/>
   <stop stop-color="#3250e6" offset="1"/>
  </linearGradient>
  <filter id="filter916" x="-.026493" y="-.056149" width="1.053" height="1.1123" color-interpolation-filters="sRGB">
   <feGaussianBlur stdDeviation="0.093465"/>
  </filter>
 </defs>
 <circle cx="-330.38" cy="-328.44" r="0" fill="#5e4aa6" stroke-width=".26458"/>
 <g transform="translate(-.02725 -.05735)" fill="#5e4aa6" stroke-width=".26458">
  <circle cx="-299.02" cy="-338.77" r="0"/>
  <circle cx="-8.1062" cy="-3.9487" r="0" fill-rule="evenodd"/>
  <circle cx="-278.25" cy="-357.69" r="0"/>
  <circle cx="12.663" cy="-22.859" r="0" fill-rule="evenodd"/>
 </g>
 <circle cx="8.4719" cy="8.4781" r="0" fill="url(#b)" stroke-width=".41578"/>
 <path d="m10.708 1.1905c4.405 0 5.0345 0.67282 5.0345 5.388v3.7761c0 4.7152-0.62954 5.388-5.0345 5.388h-4.4832c-4.405 0-5.0346-0.6728-5.0346-5.388v-3.7761c0-4.7152 0.62954-5.388 5.0346-5.388z" enable-background="new" fill="#141414" filter="url(#filter2761)" opacity=".3"/>
 <path d="m10.708 1.1904c4.405 0 5.0344 0.67282 5.0344 5.3879v3.7761c0 4.7153-0.62954 5.3879-5.0344 5.3879h-4.4833c-4.405 0-5.0347-0.6728-5.0347-5.3879v-3.7761c0-4.7153 0.62954-5.3879 5.0347-5.3879z" enable-background="new" fill="url(#linearGradient2645-3)"/>
 <g transform="matrix(1.1079 0 0 1.1079 -.91354 -311.2)" filter="url(#filter916)" opacity=".25" stroke-opacity=".255" stroke-width=".899">
  <path d="m4.235 290.53 0.65-3.175h1.502c0.65 0.04 0.974 0.353 0.974 0.902 0 0.94-0.771 1.487-1.461 1.45h-0.732l-0.163 0.824h-0.772m1.098-1.411 0.203-1.176h0.528c0.285 0 0.487 0.118 0.487 0.353-0.041 0.666-0.365 0.784-0.73 0.823" fill-rule="evenodd"/>
  <path d="m7.119 289.71 0.65-3.174h0.771l-0.162 0.822h0.731c0.65 0.04 0.894 0.353 0.812 0.745l-0.284 1.607h-0.813l0.285-1.45c0.04-0.196 0.04-0.314-0.245-0.314h-0.608l-0.366 1.763h-0.77"/>
  <path d="m9.572 290.53 0.65-3.175h1.504c0.65 0.04 0.974 0.353 0.974 0.902 0 0.94-0.772 1.487-1.463 1.45h-0.731l-0.162 0.824m0.325-1.411 0.203-1.176h0.528c0.284 0 0.487 0.118 0.487 0.353-0.04 0.666-0.365 0.784-0.732 0.823" fill-rule="evenodd"/>
 </g>
 <g transform="matrix(1.1079 0 0 1.1079 -.91354 -311.2)" fill="#fff" stroke-opacity=".255" stroke-width=".899">
  <path d="m4.235 290.53 0.65-3.175h1.502c0.65 0.04 0.974 0.353 0.974 0.902 0 0.94-0.771 1.487-1.461 1.45h-0.732l-0.163 0.824h-0.772m1.098-1.411 0.203-1.176h0.528c0.285 0 0.487 0.118 0.487 0.353-0.041 0.666-0.365 0.784-0.73 0.823" fill-rule="evenodd"/>
  <path d="m7.119 289.71 0.65-3.174h0.771l-0.162 0.822h0.731c0.65 0.04 0.894 0.353 0.812 0.745l-0.284 1.607h-0.813l0.285-1.45c0.04-0.196 0.04-0.314-0.245-0.314h-0.608l-0.366 1.763h-0.77"/>
  <path d="m9.572 290.53 0.65-3.175h1.504c0.65 0.04 0.974 0.353 0.974 0.902 0 0.94-0.772 1.487-1.463 1.45h-0.731l-0.162 0.824m0.325-1.411 0.203-1.176h0.528c0.284 0 0.487 0.118 0.487 0.353-0.04 0.666-0.365 0.784-0.732 0.823" fill-rule="evenodd"/>
 </g>
</svg>
