<?xml version="1.0" encoding="UTF-8" standalone="no"?>
<svg
   xmlns:dc="http://purl.org/dc/elements/1.1/"
   xmlns:cc="http://creativecommons.org/ns#"
   xmlns:rdf="http://www.w3.org/1999/02/22-rdf-syntax-ns#"
   xmlns:svg="http://www.w3.org/2000/svg"
   xmlns="http://www.w3.org/2000/svg"
   xmlns:xlink="http://www.w3.org/1999/xlink"
   xmlns:sodipodi="http://sodipodi.sourceforge.net/DTD/sodipodi-0.dtd"
   xmlns:inkscape="http://www.inkscape.org/namespaces/inkscape"
   inkscape:version="1.0 (4035a4fb49, 2020-05-01)"
   sodipodi:docname="atom.svg"
   id="svg27"
   viewBox="0 0 64 64"
   version="1.1"
   height="64"
   width="64">
  <sodipodi:namedview
     inkscape:current-layer="svg27"
     inkscape:window-maximized="1"
     inkscape:window-y="36"
     inkscape:window-x="0"
     inkscape:cy="43.117443"
     inkscape:cx="25.379553"
     inkscape:zoom="5.9609375"
     showgrid="false"
     id="namedview29"
     inkscape:window-height="932"
     inkscape:window-width="1920"
     inkscape:pageshadow="2"
     inkscape:pageopacity="0"
     guidetolerance="10"
     gridtolerance="10"
     objecttolerance="10"
     borderopacity="1"
     bordercolor="#666666"
     pagecolor="#ffffff" />
  <metadata
     id="metadata2">
    <rdf:RDF>
      <cc:Work
         rdf:about="">
        <dc:format>image/svg+xml</dc:format>
        <dc:type
           rdf:resource="http://purl.org/dc/dcmitype/StillImage" />
        <dc:title>Template icons dark</dc:title>
      </cc:Work>
    </rdf:RDF>
  </metadata>
  <title
     id="title4">Template icons dark</title>
  <defs
     id="defs17">
    <filter
       color-interpolation-filters="sRGB"
       height="1.048"
       width="1.048"
       y="-.024"
       x="-.024"
       id="filter2761">
      <feGaussianBlur
         id="feGaussianBlur6"
         stdDeviation="0.14552168" />
    </filter>
    <linearGradient
       gradientUnits="userSpaceOnUse"
       gradientTransform="matrix(3.7796 0 0 3.7796 -.49932 -1058)"
       y2="295.6"
       y1="281.24"
       x2="1.3927"
       x1="15.752"
       id="linearGradient2645-3">
      <stop
         id="stop9"
         offset="0"
         stop-color="#dc28e6" />
      <stop
         id="stop11"
         offset="1"
         stop-color="#8c14e6" />
    </linearGradient>
    <filter
       color-interpolation-filters="sRGB"
       height="1.1258"
       width="1.1147"
       y="-.06289"
       x="-.057364"
       id="filter902">
      <feGaussianBlur
         id="feGaussianBlur14"
         stdDeviation="1.0465562" />
    </filter>
    <filter
       color-interpolation-filters="sRGB"
       height="1.048"
       width="1.048"
       y="-.024"
       x="-.024"
       id="filter2761-3">
      <feGaussianBlur
         id="feGaussianBlur4"
         stdDeviation="0.14552168" />
    </filter>
    <filter
       color-interpolation-filters="sRGB"
       height="1.1141"
       width="1.1265"
       y="-.057071"
       x="-.063245"
       id="filter1375">
      <feGaussianBlur
         id="feGaussianBlur12"
         stdDeviation="1.0578643" />
    </filter>
    <linearGradient
       id="linearGradient927"
       inkscape:collect="always">
      <stop
         id="stop923"
         offset="0"
         style="stop-color:#8c14e6;stop-opacity:1" />
      <stop
         id="stop925"
         offset="1"
         style="stop-color:#dc28e6;stop-opacity:1" />
    </linearGradient>
    <filter
       color-interpolation-filters="sRGB"
       height="1.048"
       width="1.048"
       y="-.024"
       x="-.024"
       id="filter2761-7">
      <feGaussianBlur
         id="feGaussianBlur4-6"
         stdDeviation="0.14552168" />
    </filter>
    <linearGradient
       gradientUnits="userSpaceOnUse"
       gradientTransform="translate(-0.59046978,-1.1664834)"
       y2="1.1724"
       y1="15.429"
       x2="15.49"
       x1="1.3941"
       id="linearGradient872">
      <stop
         id="stop7-7"
         offset="0"
         stop-color="#ff3c69" />
      <stop
         id="stop9-5"
         offset="1"
         stop-color="#ff462b" />
    </linearGradient>
    <filter
       color-interpolation-filters="sRGB"
       height="1.0699"
       width="1.0742"
       y="-.034971"
       x="-.037091"
       id="filter1010">
      <feGaussianBlur
         id="feGaussianBlur12-3"
         stdDeviation="0.05378021" />
    </filter>
    <filter
       color-interpolation-filters="sRGB"
       height="1.07"
       width="1.0741"
       y="-.035009"
       x="-.037049"
       id="filter1030">
      <feGaussianBlur
         id="feGaussianBlur15"
         stdDeviation="0.024028153" />
    </filter>
    <filter
       color-interpolation-filters="sRGB"
       height="1.072"
       width="1.072"
       y="-.035998"
       x="-.036002"
       id="filter1034">
      <feGaussianBlur
         id="feGaussianBlur18"
         stdDeviation="0.10759511" />
    </filter>
    <filter
       color-interpolation-filters="sRGB"
       height="1.048"
       width="1.048"
       y="-.024"
       x="-.024"
       id="filter2761-6">
      <feGaussianBlur
         id="feGaussianBlur4-7"
         stdDeviation="0.14552168" />
    </filter>
    <filter
       color-interpolation-filters="sRGB"
       height="1.048"
       width="1.048"
       y="-.024"
       x="-.024"
       id="filter2761-3675">
      <feGaussianBlur
         id="feGaussianBlur2"
         stdDeviation="0.14552168" />
    </filter>
    <linearGradient
       gradientUnits="userSpaceOnUse"
       gradientTransform="translate(1.8475,-2.1749)"
       y2="32.176"
       y1="32.176"
       x2="-.93244"
       x1="-9.2997"
       id="linearGradient1195">
      <stop
         id="stop5"
         offset="0"
         stop-color="#1478e6" />
      <stop
         id="stop7-53"
         offset="1"
         stop-color="#3c50e6" />
    </linearGradient>
    <filter
       color-interpolation-filters="sRGB"
       height="1.048"
       width="1.048"
       y="-.024"
       x="-.024"
       id="filter2761-367">
      <feGaussianBlur
         id="feGaussianBlur2-5"
         stdDeviation="0.14552168" />
    </filter>
    <filter
       color-interpolation-filters="sRGB"
       height="1.1199"
       width="1.1201"
       y="-.059946"
       x="-.060054"
       id="filter924">
      <feGaussianBlur
         id="feGaussianBlur5"
         stdDeviation="0.2078715" />
    </filter>
    <filter
       color-interpolation-filters="sRGB"
       height="1.1208"
       width="1.1192"
       y="-.0604"
       x="-.059605"
       id="filter852">
      <feGaussianBlur
         id="feGaussianBlur8"
         stdDeviation="0.23538182" />
    </filter>
    <filter
       color-interpolation-filters="sRGB"
       height="1.048"
       width="1.048"
       y="-.024"
       x="-.024"
       id="filter2761-36">
      <feGaussianBlur
         id="feGaussianBlur2-7"
         stdDeviation="0.14552168" />
    </filter>
    <linearGradient
       gradientUnits="userSpaceOnUse"
       gradientTransform="translate(58.81987,-4.9486)"
       y2="16.321"
       y1="16.321"
       x2="-16.238"
       x1="-22.655"
       id="linearGradient1174">
      <stop
         id="stop5-3"
         offset="0"
         stop-color="#0a82f0" />
      <stop
         id="stop7-5"
         offset="1"
         stop-color="#3250e6" />
    </linearGradient>
    <filter
       inkscape:collect="always"
       style="color-interpolation-filters:sRGB"
       id="filter1052"
       x="-0.048"
       width="1.096"
       y="-0.048"
       height="1.096">
      <feGaussianBlur
         inkscape:collect="always"
         stdDeviation="0.29103594"
         id="feGaussianBlur1054" />
    </filter>
    <filter
       id="filter2761-3-5"
       x="-.024"
       y="-.024"
       width="1.048"
       height="1.048"
       color-interpolation-filters="sRGB">
      <feGaussianBlur
         stdDeviation="0.14552168"
         id="feGaussianBlur895" />
    </filter>
    <linearGradient
       gradientTransform="matrix(3.779602,0,0,3.779602,103.58803,-1.7058895e-7)"
       gradientUnits="userSpaceOnUse"
       y2="1.1906018"
       x2="-11.664725"
       y1="15.742399"
       x1="-26.216522"
       id="linearGradient929"
       xlink:href="#linearGradient927"
       inkscape:collect="always" />
  </defs>
  <rect
     style="opacity:0.3;fill:#000000;fill-opacity:1;stroke-width:0.529156;stroke-linecap:round;filter:url(#filter1052)"
     id="rect1042"
     width="14.551797"
     height="14.551797"
     x="1.1906018"
     y="1.1906018"
     ry="3.4395156"
     transform="scale(3.779602)" />
  <rect
     ry="13"
     y="4.5"
     x="4.5"
     height="55"
     width="55"
     id="rect921"
     style="fill:url(#linearGradient929);fill-opacity:1;stroke-width:2.11337;stroke-linecap:round" />
  <path
     id="path23"
     stroke-width=".29"
     stroke="#fff"
     opacity=".3"
     filter="url(#filter902)"
     d="m39.448 51.9c-3.323-0.552-7.638-4.356-11.577-10.205-1.653-2.455-3.344-5.485-4.448-7.971-0.221-0.5-0.302-0.62-0.37-0.548-0.133 0.143-1.095 2.235-1.602 3.484-0.852 2.103-1.453 4.107-1.797 5.997-0.22 1.211-0.24 3.558-0.035 4.285 0.476 1.689 1.509 2.39 3.12 2.12 1.16-0.194 2.566-0.83 4.057-1.835 0.662-0.447 0.837-0.532 1.093-0.533 0.391-3e-3 0.684 0.21 0.82 0.598 0.091 0.257 0.091 0.332-2e-3 0.577-0.09 0.236-0.244 0.375-0.943 0.85-0.966 0.654-2.617 1.498-3.462 1.768-2.214 0.708-3.937 0.449-5.15-0.776-1.115-1.124-1.595-2.941-1.447-5.477 0.193-3.3 1.643-7.804 3.935-12.22l0.575-1.106-0.434-1.175c-0.416-1.124-1.237-3.73-1.237-3.924 0-0.142-0.252-0.113-1.354 0.158-2.525 0.621-4.402 1.412-5.747 2.422-2.645 1.985-1.945 4.224 2.02 6.454 0.63 0.355 0.776 0.546 0.776 1.019 0 0.247-0.046 0.348-0.248 0.55-0.433 0.434-0.837 0.343-2.175-0.486-1.936-1.2-3.16-2.567-3.59-4.008-0.158-0.526-0.158-1.586 0-2.116 0.228-0.771 0.613-1.384 1.307-2.083 1.557-1.566 4.14-2.768 7.68-3.576 0.721-0.165 0.888-0.227 0.86-0.319-0.018-0.062-0.1-0.475-0.182-0.916-0.482-2.583-0.496-5.544-0.036-7.186 0.53-1.894 1.492-3.021 3.024-3.547 0.625-0.215 1.877-0.18 2.736 0.074 0.863 0.257 1.934 0.785 2.881 1.42 1.13 0.756 1.462 1.073 1.51 1.439 0.11 0.84-0.758 1.293-1.467 0.765-2.22-1.654-3.806-2.283-5.077-2.015-0.923 0.195-1.628 1.144-1.985 2.67-0.141 0.607-0.16 0.895-0.161 2.404-1e-3 1.712 0.024 1.988 0.336 3.784l0.157 0.902 0.37-0.045c1.701-0.205 3.167-0.348 4.07-0.397l1.073-0.057 0.167-0.215c1.812-2.33 4.447-5.05 6.443-6.651 3.823-3.068 7.102-4.133 9.357-3.04 1.274 0.617 2.08 1.878 2.392 3.745 0.204 1.22 0.043 4.106-0.274 4.919-0.11 0.28-0.462 0.483-0.84 0.483-0.239 0-0.364-0.048-0.548-0.212-0.218-0.195-0.238-0.25-0.236-0.639 0-0.234 0.062-0.901 0.136-1.483 0.216-1.692 0.068-3.255-0.394-4.16-0.224-0.44-0.682-0.908-1.079-1.103-0.297-0.147-0.45-0.17-1.145-0.167-0.731 3e-3 -0.874 0.027-1.595 0.273-2.23 0.76-4.787 2.59-7.53 5.388a53.143 53.143 0 0 0-1.75 1.885l-0.794 0.912 0.69 0.016c9.67 0.23 17.82 2.45 21.662 5.902 0.864 0.777 1.61 1.934 1.826 2.837 0.11 0.457 0.112 1.346 4e-3 1.821-0.397 1.756-2.327 3.481-5.14 4.596-0.445 0.177-0.539 0.19-0.779 0.119a0.877 0.877 0 0 1-0.649-0.846c0-0.464 0.224-0.686 1.027-1.023 1.748-0.733 3.103-1.76 3.617-2.742 0.179-0.342 0.206-0.474 0.206-1.013 0-0.56-0.024-0.666-0.245-1.095-0.312-0.604-1.342-1.637-2.197-2.203-4.2-2.778-12.114-4.581-20.105-4.582h-1.318l-0.497 0.675c-0.743 1.01-2.355 3.464-2.997 4.561l-0.566 0.969 0.39 0.892c3.9 8.951 9.955 16.51 14.42 18 0.972 0.325 1.706 0.34 2.3 0.05 1.112-0.544 1.694-1.955 1.783-4.323 0.15-3.952-1.274-9.414-3.928-15.074-0.275-0.587-0.44-1.035-0.44-1.194 0-0.478 0.393-0.855 0.886-0.848 0.437 5e-3 0.63 0.181 0.963 0.88 2.152 4.501 3.587 9.011 4.123 12.959 0.18 1.327 0.18 4.029 2e-3 4.994-0.286 1.545-0.796 2.657-1.577 3.44-0.95 0.955-2.185 1.32-3.644 1.077zm-15.44-24.031c0.272-0.441 0.802-1.252 1.178-1.802s0.683-1.022 0.683-1.05c0-0.093-3.447 0.256-3.551 0.36-0.063 0.063 0.144 0.831 0.603 2.243 0.334 1.026 0.424 1.235 0.5 1.152 0.05-0.055 0.314-0.462 0.587-0.903zm7.355 6.544c-1.096-0.391-1.736-1.306-1.722-2.458 8e-3 -0.604 0.145-1.018 0.498-1.498 0.894-1.218 2.72-1.357 3.82-0.29 1.262 1.225 0.889 3.412-0.709 4.143-0.55 0.251-1.349 0.295-1.887 0.103z" />
  <path
     id="path25"
     stroke-width=".29"
     stroke="#fff"
     fill="#fff"
     d="m39.448 51.9c-3.323-0.552-7.638-4.356-11.577-10.205-1.653-2.455-3.344-5.485-4.448-7.971-0.221-0.5-0.302-0.62-0.37-0.548-0.133 0.143-1.095 2.235-1.602 3.484-0.852 2.103-1.453 4.107-1.797 5.997-0.22 1.211-0.24 3.558-0.035 4.285 0.476 1.689 1.509 2.39 3.12 2.12 1.16-0.194 2.566-0.83 4.057-1.835 0.662-0.447 0.837-0.532 1.093-0.533 0.391-3e-3 0.684 0.21 0.82 0.598 0.091 0.257 0.091 0.332-2e-3 0.577-0.09 0.236-0.244 0.375-0.943 0.85-0.966 0.654-2.617 1.498-3.462 1.768-2.214 0.708-3.937 0.449-5.15-0.776-1.115-1.124-1.595-2.941-1.447-5.477 0.193-3.3 1.643-7.804 3.935-12.22l0.575-1.106-0.434-1.175c-0.416-1.124-1.237-3.73-1.237-3.924 0-0.142-0.252-0.113-1.354 0.158-2.525 0.621-4.402 1.412-5.747 2.422-2.645 1.985-1.945 4.224 2.02 6.454 0.63 0.355 0.776 0.546 0.776 1.019 0 0.247-0.046 0.348-0.248 0.55-0.433 0.434-0.837 0.343-2.175-0.486-1.936-1.2-3.16-2.567-3.59-4.008-0.158-0.526-0.158-1.586 0-2.116 0.228-0.771 0.613-1.384 1.307-2.083 1.557-1.566 4.14-2.768 7.68-3.576 0.721-0.165 0.888-0.227 0.86-0.319-0.018-0.062-0.1-0.475-0.182-0.916-0.482-2.583-0.496-5.544-0.036-7.186 0.53-1.894 1.492-3.021 3.024-3.547 0.625-0.215 1.877-0.18 2.736 0.074 0.863 0.257 1.934 0.785 2.881 1.42 1.13 0.756 1.462 1.073 1.51 1.439 0.11 0.84-0.758 1.293-1.467 0.765-2.22-1.654-3.806-2.283-5.077-2.015-0.923 0.195-1.628 1.144-1.985 2.67-0.141 0.607-0.16 0.895-0.161 2.404-1e-3 1.712 0.024 1.988 0.336 3.784l0.157 0.902 0.37-0.045c1.701-0.205 3.167-0.348 4.07-0.397l1.073-0.057 0.167-0.215c1.812-2.33 4.447-5.05 6.443-6.651 3.823-3.068 7.102-4.133 9.357-3.04 1.274 0.617 2.08 1.878 2.392 3.745 0.204 1.22 0.043 4.106-0.274 4.919-0.11 0.28-0.462 0.483-0.84 0.483-0.239 0-0.364-0.048-0.548-0.212-0.218-0.195-0.238-0.25-0.236-0.639 0-0.234 0.062-0.901 0.136-1.483 0.216-1.692 0.068-3.255-0.394-4.16-0.224-0.44-0.682-0.908-1.079-1.103-0.297-0.147-0.45-0.17-1.145-0.167-0.731 3e-3 -0.874 0.027-1.595 0.273-2.23 0.76-4.787 2.59-7.53 5.388a53.143 53.143 0 0 0-1.75 1.885l-0.794 0.912 0.69 0.016c9.67 0.23 17.82 2.45 21.662 5.902 0.864 0.777 1.61 1.934 1.826 2.837 0.11 0.457 0.112 1.346 4e-3 1.821-0.397 1.756-2.327 3.481-5.14 4.596-0.445 0.177-0.539 0.19-0.779 0.119a0.877 0.877 0 0 1-0.649-0.846c0-0.464 0.224-0.686 1.027-1.023 1.748-0.733 3.103-1.76 3.617-2.742 0.179-0.342 0.206-0.474 0.206-1.013 0-0.56-0.024-0.666-0.245-1.095-0.312-0.604-1.342-1.637-2.197-2.203-4.2-2.778-12.114-4.581-20.105-4.582h-1.318l-0.497 0.675c-0.743 1.01-2.355 3.464-2.997 4.561l-0.566 0.969 0.39 0.892c3.9 8.951 9.955 16.51 14.42 18 0.972 0.325 1.706 0.34 2.3 0.05 1.112-0.544 1.694-1.955 1.783-4.323 0.15-3.952-1.274-9.414-3.928-15.074-0.275-0.587-0.44-1.035-0.44-1.194 0-0.478 0.393-0.855 0.886-0.848 0.437 5e-3 0.63 0.181 0.963 0.88 2.152 4.501 3.587 9.011 4.123 12.959 0.18 1.327 0.18 4.029 2e-3 4.994-0.286 1.545-0.796 2.657-1.577 3.44-0.95 0.955-2.185 1.32-3.644 1.077zm-15.44-24.031c0.272-0.441 0.802-1.252 1.178-1.802s0.683-1.022 0.683-1.05c0-0.093-3.447 0.256-3.551 0.36-0.063 0.063 0.144 0.831 0.603 2.243 0.334 1.026 0.424 1.235 0.5 1.152 0.05-0.055 0.314-0.462 0.587-0.903zm7.355 6.544c-1.096-0.391-1.736-1.306-1.722-2.458 8e-3 -0.604 0.145-1.018 0.498-1.498 0.894-1.218 2.72-1.357 3.82-0.29 1.262 1.225 0.889 3.412-0.709 4.143-0.55 0.251-1.349 0.295-1.887 0.103z" />
  <circle
     id="circle23"
     stroke-width="1.00001"
     fill="#5e4aa6"
     r="0"
     cy="-1241.1458"
     cx="-1397.1421" />
</svg>
