<?xml version="1.0" encoding="UTF-8"?>
<svg width="64" height="64" version="1.1" viewBox="0 0 16.933 16.933" xmlns="http://www.w3.org/2000/svg" xmlns:cc="http://creativecommons.org/ns#" xmlns:dc="http://purl.org/dc/elements/1.1/" xmlns:rdf="http://www.w3.org/1999/02/22-rdf-syntax-ns#">
 <metadata>
  <rdf:RDF>
   <cc:Work rdf:about="">
    <dc:format>image/svg+xml</dc:format>
    <dc:type rdf:resource="http://purl.org/dc/dcmitype/StillImage"/>
    <dc:title/>
   </cc:Work>
  </rdf:RDF>
 </metadata>
 <defs>
  <filter id="b" x="-.062744" y="-.057486" width="1.1255" height="1.115" color-interpolation-filters="sRGB">
   <feGaussianBlur stdDeviation="1.1017537"/>
  </filter>
  <filter id="filter2761-3" x="-.024" y="-.024" width="1.048" height="1.048" color-interpolation-filters="sRGB">
   <feGaussianBlur stdDeviation="0.14552168"/>
  </filter>
 </defs>
 <path d="m10.708 1.1905c4.405 0 5.0345 0.67282 5.0345 5.388v3.7761c0 4.7152-0.62954 5.388-5.0345 5.388h-4.4832c-4.405 0-5.0346-0.6728-5.0346-5.388v-3.7761c0-4.7152 0.62954-5.388 5.0346-5.388z" enable-background="new" fill="#141414" filter="url(#filter2761-3)" opacity=".3"/>
 <path d="m10.708 1.1905c4.405 0 5.0345 0.67282 5.0345 5.388v3.7761c0 4.7152-0.62954 5.388-5.0345 5.388h-4.4832c-4.405 0-5.0346-0.6728-5.0346-5.388v-3.7761c0-4.7152 0.62954-5.388 5.0346-5.388z" enable-background="new" fill="#fafafa"/>
 <g transform="matrix(.22601 0 0 .22601 1.2342 .99217)" fill-rule="evenodd" stroke-width=".056845">
  <path d="m32.102 10.071-21.007 11.695-0.02286-0.01143v0.02515l-0.06173 0.0343 0.06173 0.03429-0.14404 22.311 21.074 11.91v-0.0503l21.069-11.908-0.14176-22.251 0.07774-0.04115-0.07774-0.04344v-0.06859l-0.06173 0.0343z" filter="url(#b)" opacity=".15" stroke-width=".056845"/>
  <path d="m31.997 54.95 21.074-11.91-0.14345-22.405-20.93 11.469z" fill="#28bff8"/>
  <path d="m32.002 54.997-21.074-11.91 0.14345-22.405 20.93 11.469z" fill="#00a7e5"/>
  <path d="M 11.011,20.743 32.102,9 53.006,20.748 31.989,32.263 Z" fill="#5fd0f9"/>
 </g>
</svg>
