<?xml version="1.0" encoding="UTF-8"?>
<svg width="64" height="64" version="1.1" viewBox="0 0 16.933 16.933" xmlns="http://www.w3.org/2000/svg" xmlns:cc="http://creativecommons.org/ns#" xmlns:dc="http://purl.org/dc/elements/1.1/" xmlns:rdf="http://www.w3.org/1999/02/22-rdf-syntax-ns#" xmlns:xlink="http://www.w3.org/1999/xlink">
 <metadata>
  <rdf:RDF>
   <cc:Work rdf:about="">
    <dc:format>image/svg+xml</dc:format>
    <dc:type rdf:resource="http://purl.org/dc/dcmitype/StillImage"/>
    <dc:title/>
   </cc:Work>
  </rdf:RDF>
 </metadata>
 <defs>
  <filter id="filter2761" x="-.024" y="-.024" width="1.048" height="1.048" color-interpolation-filters="sRGB">
   <feGaussianBlur stdDeviation="0.14552168"/>
  </filter>
  <filter id="filter924" x="-.060054" y="-.059946" width="1.1201" height="1.1199" color-interpolation-filters="sRGB">
   <feGaussianBlur stdDeviation="0.2078715"/>
  </filter>
  <linearGradient id="linearGradient957" x1="15.752" x2="1.3927" y1="281.24" y2="295.6" gradientTransform="translate(-.13211 -279.93)" gradientUnits="userSpaceOnUse">
   <stop stop-color="#ffdc32" offset="0"/>
   <stop stop-color="#ff7832" offset="1"/>
  </linearGradient>
  <linearGradient id="linearGradient1003" x1="6.3668" x2="8.0365" y1="8.0342" y2="6.3645" gradientUnits="userSpaceOnUse">
   <stop stop-color="#ffc85a" offset="0"/>
   <stop stop-color="#ffe4a7" offset="1"/>
  </linearGradient>
  <filter id="filter1017" x="-.036" y="-.036" width="1.072" height="1.072" color-interpolation-filters="sRGB">
   <feGaussianBlur stdDeviation="0.12699576"/>
  </filter>
 </defs>
 <circle cx="-330.35" cy="-328.38" r="0" fill="#5e4aa6" stroke-width=".26458"/>
 <path d="m10.708 1.1905c4.405 0 5.0345 0.67282 5.0345 5.388v3.7761c0 4.7152-0.62954 5.388-5.0345 5.388h-4.4832c-4.405 0-5.0346-0.6728-5.0346-5.388v-3.7761c0-4.7152 0.62954-5.388 5.0346-5.388z" enable-background="new" fill="#141414" filter="url(#filter2761)" opacity=".3"/>
 <g transform="matrix(1.3181 0 0 1.3181 -2.6299 -2.4991)" fill="#285ae6" filter="url(#filter924)">
  <path d="m11.198 11.399a4.1537 4.1537 0 0 1-2.7795 1.067 4.1537 4.1537 0 0 1-4.1537-4.1537 4.1537 4.1537 0 0 1 4.1537-4.1537 4.1537 4.1537 0 0 1 2.7795 1.0671"/>
  <circle cx="8.4188" cy="8.3271" r="4.1537" opacity=".2"/>
 </g>
 <path d="m10.708 1.1905c4.405 0 5.0345 0.67282 5.0345 5.388v3.7761c0 4.7152-0.62954 5.388-5.0345 5.388h-4.4832c-4.405 0-5.0346-0.6728-5.0346-5.388v-3.7761c0-4.7152 0.62954-5.388 5.0346-5.388z" enable-background="new" fill="url(#linearGradient957)"/>
 <path d="m3.7968 4.1916v0.31749h9.5248v-0.31749zm0 0.95248v0.31749h9.5248v-0.31749zm0 0.95248v0.31749h9.5248v-0.31749zm0 0.95248v0.31749h9.5248v-0.31749zm0 0.95248v0.31749h9.5248v-0.31749zm0 0.95248v0.31749h9.5248v-0.31749zm0 0.95248v0.31749h9.5248v-0.31749zm0 0.95248v0.31749h9.5248v-0.31749zm0 0.95248v0.31749h9.5248v-0.31749zm0 0.95248v0.31749h9.5248v-0.31749z" enable-background="new" fill="#fff" image-rendering="optimizeSpeed" opacity=".2" stroke-width=".26458"/>
 <g transform="translate(3.5875)">
  <path d="m9.0935 4.7109-5.3079 5.3079-1.004 2.1517c-3.1e-5 5.4e-5 -1e-3 0.0016-1e-3 0.0016l-0.4687 1.0051h5.29e-4l3.1583-1.4738 0.31575-0.31625 4.9918-4.9912-1.6846-1.6851z" filter="url(#filter1017)" opacity=".15" stroke-width=".07754"/>
  <g transform="matrix(-1 0 0 1 15.011 .27387)" stroke-width=".077541">
   <path d="m9.5941 11.226 3.1589 1.4742-1.4742-3.1589-0.31589-0.31589-1.6847 1.6847z" fill="#fee1c2"/>
   <path d="m12.284 11.695 0.46891 1.0053-1.0053-0.46891s-0.09941-0.05854-0.04724-0.11071 0.20919 0.0014 0.20919 0.0014-0.10437-0.15888 3.6e-4 -0.26361 0.26361-3.6e-4 0.26361-3.6e-4 -0.05245-0.15815 2e-4 -0.2108 0.11024 0.04772 0.11024 0.04772z" color="#000000" fill="#5d5d5d"/>
   <path d="m11.279 9.5412c-0.2106-0.2106-0.57913 0.36853-0.26324 0.68443-0.52648-0.52648-1.2636 0.21059-0.73707 0.73707-0.31589-0.31589-0.89502 0.052648-0.68443 0.26324l-5.3076-5.3076 1.6847-1.6847z" fill="url(#linearGradient1003)"/>
  </g>
  <path d="m9.0399 4.5077 1.1984 1.1984-5.4073 5.4037c0.31172-0.5074-0.35023-1.0957-0.83559-0.61029 0.31589-0.31589-0.05243-0.89478-0.26303-0.68418z" fill="#fff" opacity=".15" stroke-width=".077541"/>
  <path d="m9.04 4.5077 0.4899 0.4899-5.407 5.4033c-0.043238 0.02649-0.086256 0.05732-0.12764 0.0987 0.31591-0.31591-0.052429-0.89478-0.26303-0.68418z" fill="#fff" opacity=".15" stroke-width=".07754"/>
 </g>
</svg>
