<?xml version="1.0" encoding="UTF-8"?>
<svg width="64" height="64" version="1.1" viewBox="0 0 16.933 16.933" xmlns="http://www.w3.org/2000/svg" xmlns:cc="http://creativecommons.org/ns#" xmlns:dc="http://purl.org/dc/elements/1.1/" xmlns:rdf="http://www.w3.org/1999/02/22-rdf-syntax-ns#" xmlns:xlink="http://www.w3.org/1999/xlink">
 <metadata>
  <rdf:RDF>
   <cc:Work rdf:about="">
    <dc:format>image/svg+xml</dc:format>
    <dc:type rdf:resource="http://purl.org/dc/dcmitype/StillImage"/>
    <dc:title/>
   </cc:Work>
  </rdf:RDF>
 </metadata>
 <defs>
  <filter id="filter2761" x="-.024" y="-.024" width="1.048" height="1.048" color-interpolation-filters="sRGB">
   <feGaussianBlur stdDeviation="0.14552168"/>
  </filter>
  <linearGradient id="linearGradient924" x1="15.883" x2="1.295" y1="295.62" y2="281.24" gradientTransform="translate(-.13211 -279.93)" gradientUnits="userSpaceOnUse">
   <stop stop-color="#643cfa" offset="0"/>
   <stop stop-color="#4487fa" offset=".063027"/>
   <stop stop-color="#32b4fa" offset=".22386"/>
   <stop stop-color="#6b8fd8" offset=".41324"/>
   <stop stop-color="#ad65b1" offset=".53233"/>
   <stop stop-color="#f03c8c" offset=".657"/>
   <stop stop-color="#f65466" offset=".79853"/>
   <stop stop-color="#ff7832" offset="1"/>
  </linearGradient>
  <filter id="filter975" x="-.036" y="-.036" width="1.072" height="1.072" color-interpolation-filters="sRGB">
   <feGaussianBlur stdDeviation="0.13827"/>
  </filter>
  <linearGradient id="linearGradient985" x1="13.004" x2="8.5774" y1="12.944" y2="8.5178" gradientUnits="userSpaceOnUse">
   <stop stop-color="#438afa" offset="0"/>
   <stop stop-color="#39b0f6" offset=".19311"/>
   <stop stop-color="#f3467b" offset=".68595"/>
   <stop stop-color="#fc6c44" offset="1"/>
  </linearGradient>
 </defs>
 <path d="m10.708 1.1905c4.405 0 5.0345 0.67282 5.0345 5.388v3.7761c0 4.7152-0.62954 5.388-5.0345 5.388h-4.4832c-4.405 0-5.0346-0.6728-5.0346-5.388v-3.7761c0-4.7152 0.62954-5.388 5.0346-5.388z" enable-background="new" fill="#141414" filter="url(#filter2761)" opacity=".3"/>
 <path d="m10.708 1.1905c4.405 0 5.0345 0.67282 5.0345 5.388v3.7761c0 4.7152-0.62954 5.388-5.0345 5.388h-4.4832c-4.405 0-5.0346-0.6728-5.0346-5.388v-3.7761c0-4.7152 0.62954-5.388 5.0346-5.388z" enable-background="new" fill="url(#linearGradient924)"/>
 <g transform="translate(-.10062 -.20379)" color="#000000" style="paint-order:fill markers stroke">
  <path d="m10.737 6.128a4.609 4.609 0 0 0-0.15 5e-3c-0.01-1e-3 -0.017-5e-3 -0.026-5e-3h-4.244a0.184 0.184 0 0 0-0.184 0.184v4.317a4.609 4.609 0 0 0-5e-3 0.108 4.609 4.609 0 0 0 4.609 4.609 4.609 4.609 0 0 0 4.609-4.61 4.609 4.609 0 0 0-4.61-4.608z" fill-opacity=".152" filter="url(#filter975)" overflow="visible" style="isolation:auto;mix-blend-mode:normal"/>
  <path d="m10.737 6.328a4.41 4.41 0 0 0-0.144 5e-3c-8e-3 -1e-3 -0.015-5e-3 -0.024-5e-3h-4.062a0.176 0.176 0 0 0-0.176 0.175v4.13a4.41 4.41 0 0 0-5e-3 0.104 4.41 4.41 0 0 0 4.41 4.41 4.41 4.41 0 0 0 4.41-4.41 4.41 4.41 0 0 0-4.41-4.41z" fill="#fff" overflow="visible" style="isolation:auto;mix-blend-mode:normal"/>
  <path d="m13.004 10.737a2.267 2.267 0 0 1-2.268 2.268 2.267 2.267 0 0 1-2.267-2.268 2.267 2.267 0 0 1 2.268-2.267 2.267 2.267 0 0 1 2.267 2.267z" fill="url(#linearGradient985)" overflow="visible" style="isolation:auto;mix-blend-mode:normal"/>
  <path d="m10.648 9.855v0.794h-0.794v0.265h0.794l0.017 0.793h0.248v-0.793h0.793l0.017-0.265h-0.81v-0.794z" fill="#fff" overflow="visible" style="isolation:auto;mix-blend-mode:normal"/>
 </g>
</svg>
