<?xml version="1.0" encoding="UTF-8" standalone="no"?>
<svg
   xmlns:dc="http://purl.org/dc/elements/1.1/"
   xmlns:cc="http://creativecommons.org/ns#"
   xmlns:rdf="http://www.w3.org/1999/02/22-rdf-syntax-ns#"
   xmlns:svg="http://www.w3.org/2000/svg"
   xmlns="http://www.w3.org/2000/svg"
   xmlns:sodipodi="http://sodipodi.sourceforge.net/DTD/sodipodi-0.dtd"
   xmlns:inkscape="http://www.inkscape.org/namespaces/inkscape"
   inkscape:version="1.0 (4035a4fb49, 2020-05-01)"
   sodipodi:docname="colorgrab.svg"
   id="svg52"
   viewBox="0 0 16.933 16.933"
   version="1.1"
   height="64"
   width="64">
  <sodipodi:namedview
     inkscape:current-layer="svg52"
     inkscape:window-maximized="1"
     inkscape:window-y="0"
     inkscape:window-x="0"
     inkscape:cy="45.087163"
     inkscape:cx="-26.882319"
     inkscape:zoom="4.5078057"
     showgrid="false"
     id="namedview54"
     inkscape:window-height="985"
     inkscape:window-width="1920"
     inkscape:pageshadow="2"
     inkscape:pageopacity="0"
     guidetolerance="10"
     gridtolerance="10"
     objecttolerance="10"
     borderopacity="1"
     bordercolor="#666666"
     pagecolor="#ffffff" />
  <metadata
     id="metadata2">
    <rdf:RDF>
      <cc:Work
         rdf:about="">
        <dc:format>image/svg+xml</dc:format>
        <dc:type
           rdf:resource="http://purl.org/dc/dcmitype/StillImage" />
        <dc:title></dc:title>
      </cc:Work>
    </rdf:RDF>
  </metadata>
  <defs
     id="defs36">
    <filter
       color-interpolation-filters="sRGB"
       height="1.048"
       width="1.048"
       y="-.024"
       x="-.024"
       id="filter2761">
      <feGaussianBlur
         id="feGaussianBlur4"
         stdDeviation="0.14552168" />
    </filter>
    <linearGradient
       gradientUnits="userSpaceOnUse"
       gradientTransform="translate(0.31389339,-286.16626)"
       y2="281.24"
       y1="295.62"
       x2="1.295"
       x1="15.883"
       id="linearGradient924">
      <stop
         id="stop7"
         offset="0"
         stop-color="#643cfa" />
      <stop
         id="stop9"
         offset=".063027"
         stop-color="#4487fa" />
      <stop
         id="stop11"
         offset=".22386"
         stop-color="#32b4fa" />
      <stop
         id="stop13"
         offset=".41324"
         stop-color="#6b8fd8" />
      <stop
         id="stop15"
         offset=".53233"
         stop-color="#ad65b1" />
      <stop
         id="stop17"
         offset=".657"
         stop-color="#f03c8c" />
      <stop
         id="stop19"
         offset=".79853"
         stop-color="#f65466" />
      <stop
         id="stop21"
         offset="1"
         stop-color="#ff7832" />
    </linearGradient>
    <filter
       color-interpolation-filters="sRGB"
       height="1.072"
       width="1.072"
       y="-.036"
       x="-.036"
       id="filter975">
      <feGaussianBlur
         id="feGaussianBlur24"
         stdDeviation="0.13827" />
    </filter>
    <linearGradient
       gradientUnits="userSpaceOnUse"
       y2="8.5178"
       y1="12.944"
       x2="8.5774"
       x1="13.004"
       id="linearGradient985">
      <stop
         id="stop27"
         offset="0"
         stop-color="#438afa" />
      <stop
         id="stop29"
         offset=".19311"
         stop-color="#39b0f6" />
      <stop
         id="stop31"
         offset=".68595"
         stop-color="#f3467b" />
      <stop
         id="stop33"
         offset="1"
         stop-color="#fc6c44" />
    </linearGradient>
    <clipPath
       id="a">
      <path
         d="m188.97 44c72.649 0 83.031 10.357 83.031 82.938v58.125c0 72.581-10.383 82.938-83.031 82.938h-73.938c-72.649 0-83.031-10.357-83.031-82.938v-58.125c0-72.581 10.383-82.938 83.031-82.938z"
         fill="#8c59d9"
         id="path2" />
    </clipPath>
    <linearGradient
       gradientUnits="userSpaceOnUse"
       gradientTransform="matrix(1.0799,0,0,1.0799,-1.0542446,-1.1859248)"
       y2="15.61"
       y1="7.6728"
       x2="11.377"
       x1="11.377"
       id="linearGradient1065">
      <stop
         id="stop882"
         offset="0"
         stop-color="#fff" />
      <stop
         id="stop884"
         offset="1"
         stop-color="#dff1ed" />
    </linearGradient>
    <linearGradient
       gradientUnits="userSpaceOnUse"
       gradientTransform="translate(3.4151554,3.2400752)"
       y2="10.583"
       y1="16.404"
       x2="11.641"
       x1="11.641"
       id="linearGradient903">
      <stop
         id="stop887"
         offset="0"
         stop-color="#030707" />
      <stop
         id="stop889"
         offset="1"
         stop-color="#283e48" />
    </linearGradient>
    <radialGradient
       gradientUnits="userSpaceOnUse"
       gradientTransform="matrix(1.3274,-6.5371e-8,7.7171e-8,0.99996,-2.772,14.55139)"
       r="7.4085"
       cy="1.0583"
       cx="8.4665"
       id="radialGradient949-3">
      <stop
         id="stop892"
         offset="0"
         stop-color="#53eb47" />
      <stop
         id="stop894"
         offset="1"
         stop-opacity="0"
         stop-color="#72cb6b" />
    </radialGradient>
    <radialGradient
       gradientUnits="userSpaceOnUse"
       gradientTransform="matrix(6.5371e-8,1.7918,-0.99996,1.0417e-7,2.1166,-6.96891)"
       r="7.4085"
       cy="1.0583"
       cx="8.4665"
       id="radialGradient959-6">
      <stop
         id="stop897"
         offset="0"
         stop-color="#ffdb29" />
      <stop
         id="stop899"
         offset="1"
         stop-opacity="0"
         stop-color="#f9da3e" />
    </radialGradient>
    <radialGradient
       gradientUnits="userSpaceOnUse"
       gradientTransform="matrix(-0.68685,-0.77843,1.2142,-1.0714,16.353,3.29369)"
       r="7.4085"
       cy="-3.8191e-5"
       cx="1.852"
       id="radialGradient907-7">
      <stop
         id="stop902"
         offset="0"
         stop-color="#ff29b0" />
      <stop
         id="stop904"
         offset="1"
         stop-opacity="0"
         stop-color="#d462aa" />
    </radialGradient>
    <radialGradient
       gradientUnits="userSpaceOnUse"
       gradientTransform="matrix(-2.1991,8.1711e-8,-1.2786e-7,-1.2499,27.086,2.11659)"
       r="7.4085"
       cy="1.0583"
       cx="8.4665"
       id="radialGradient901-5">
      <stop
         id="stop907"
         offset="0"
         stop-color="#ff5c9e" />
      <stop
         id="stop909"
         offset="1"
         stop-opacity="0"
         stop-color="#f566a0" />
    </radialGradient>
    <radialGradient
       gradientUnits="userSpaceOnUse"
       gradientTransform="matrix(0.83599,0.80811,-1.0357,1.0714,0.30362,13.05539)"
       r="7.4085"
       cy="-3.8191e-5"
       cx="1.852"
       id="radialGradient979-3">
      <stop
         id="stop912"
         offset="0"
         stop-color="#dcff00" />
      <stop
         id="stop914"
         offset="1"
         stop-opacity="0"
         stop-color="#c4dc2b" />
    </radialGradient>
    <radialGradient
       gradientUnits="userSpaceOnUse"
       gradientTransform="matrix(0.60515,-0.53792,0.85711,0.96425,13.696,15.81239)"
       r="7.4085"
       cy="-3.8191e-5"
       cx="1.852"
       id="radialGradient969-5">
      <stop
         id="stop917"
         offset="0"
         stop-color="#18bdd3" />
      <stop
         id="stop919"
         offset="1"
         stop-opacity="0"
         stop-color="#2da8b8" />
    </radialGradient>
    <radialGradient
       gradientUnits="userSpaceOnUse"
       gradientTransform="matrix(-0.81195,0.72497,-0.89283,-0.99996,3.6204,0.24467)"
       r="7.4085"
       cy="-3.8191e-5"
       cx="1.852"
       id="radialGradient989-6">
      <stop
         id="stop922"
         offset="0"
         stop-color="#ff8100" />
      <stop
         id="stop924"
         offset="1"
         stop-opacity="0"
         stop-color="#f69429" />
    </radialGradient>
    <radialGradient
       gradientUnits="userSpaceOnUse"
       gradientTransform="matrix(7.2362e-6,-1.3214,1.1071,6.0712e-6,14.703,19.38939)"
       r="7.4085"
       cy="1.0583"
       cx="8.4665"
       id="radialGradient917-2">
      <stop
         id="stop927"
         offset="0"
         stop-color="#34d7f4" />
      <stop
         id="stop929"
         offset="1"
         stop-opacity="0"
         stop-color="#56c7d9" />
    </radialGradient>
    <filter
       id="filter2761-3"
       x="-.024"
       y="-.024"
       width="1.048"
       height="1.048"
       color-interpolation-filters="sRGB">
      <feGaussianBlur
         stdDeviation="0.14552168"
         id="feGaussianBlur891" />
    </filter>
    <linearGradient
       id="linearGradient924-6"
       x1="15.223"
       x2="1.9546"
       y1="281.77"
       y2="295.04"
       gradientTransform="translate(-29.393429,-284.80418)"
       gradientUnits="userSpaceOnUse">
      <stop
         stop-color="#643cfa"
         offset="0"
         id="stop894-3" />
      <stop
         stop-color="#32b4fa"
         offset=".35028"
         id="stop896" />
      <stop
         stop-color="#f03c8c"
         offset=".71294"
         id="stop898" />
      <stop
         stop-color="#ff7832"
         offset="1"
         id="stop900" />
    </linearGradient>
    <linearGradient
       id="linearGradient4756"
       x1="-11.629"
       x2="-5.4248"
       y1="7.1071"
       y2="7.1071"
       gradientUnits="userSpaceOnUse">
      <stop
         stop-color="#e6e6fa"
         offset="0"
         id="stop903" />
      <stop
         stop-color="#c8b4fa"
         offset="1"
         id="stop905" />
    </linearGradient>
    <filter
       id="filter866"
       x="-.070253"
       y="-.052359"
       width="1.1405"
       height="1.1047"
       color-interpolation-filters="sRGB">
      <feGaussianBlur
         stdDeviation="0.18306885"
         id="feGaussianBlur908" />
    </filter>
    <filter
       color-interpolation-filters="sRGB"
       height="1.048"
       width="1.048"
       y="-.024"
       x="-.024"
       id="filter2761-7">
      <feGaussianBlur
         id="feGaussianBlur2"
         stdDeviation="0.14552168" />
    </filter>
    <linearGradient
       gradientUnits="userSpaceOnUse"
       gradientTransform="translate(58.81987,-4.9486)"
       y2="16.321"
       y1="16.321"
       x2="-16.238"
       x1="-22.655"
       id="linearGradient1174">
      <stop
         id="stop5"
         offset="0"
         stop-color="#0a82f0" />
      <stop
         id="stop7-5"
         offset="1"
         stop-color="#3250e6" />
    </linearGradient>
    <filter
       inkscape:collect="always"
       style="color-interpolation-filters:sRGB"
       id="filter1052"
       x="-0.048"
       width="1.096"
       y="-0.048"
       height="1.096">
      <feGaussianBlur
         inkscape:collect="always"
         stdDeviation="0.29103594"
         id="feGaussianBlur1054" />
    </filter>
    <filter
       id="filter2761-3-3"
       x="-.024"
       y="-.024"
       width="1.048"
       height="1.048"
       color-interpolation-filters="sRGB">
      <feGaussianBlur
         stdDeviation="0.14552168"
         id="feGaussianBlur895" />
    </filter>
    <linearGradient
       id="linearGradient1195"
       x1="-9.2997"
       x2="-.93244"
       y1="32.176"
       y2="32.176"
       gradientTransform="translate(1.8475,-2.1749)"
       gradientUnits="userSpaceOnUse">
      <stop
         stop-color="#1478e6"
         offset="0"
         id="stop898-5" />
      <stop
         stop-color="#3c50e6"
         offset="1"
         id="stop900-6" />
    </linearGradient>
  </defs>
  <rect
     ry="3.4395156"
     y="1.1906018"
     x="1.1906018"
     height="14.551797"
     width="14.551797"
     id="rect1042"
     style="opacity:0.3;fill:#000000;fill-opacity:1;stroke-width:0.529156;stroke-linecap:round;filter:url(#filter1052)" />
  <g
     transform="matrix(0.98210806,0,0,0.98210806,0.151433,0.41130862)"
     id="g1077">
    <path
       d="m 15.875,4.23349 c 0,-1.9058 -1.5342,-3.44 -3.44,-3.44 H 4.4982 c -1.9058,0 -3.44,1.5342 -3.44,3.44 v 7.9368 c 0,1.9058 1.5342,3.44 3.44,3.44 h 7.9368 c 1.9058,0 3.44,-1.5342 3.44,-3.44 z"
       fill="#ffffff"
       id="path934" />
    <path
       style="fill:url(#radialGradient989-6)"
       d="m 1.0581,12.17039 c 0,1.9058 1.5342,3.44 3.44,3.44 h 7.9368 c 1.9058,0 3.44,-1.5342 3.44,-3.44 v -7.9368 c 0,-1.9058 -1.5342,-3.44 -3.44,-3.44 H 4.4981 c -1.9058,0 -3.44,1.5342 -3.44,3.44 z"
       fill="url(#radialGradient989-6)"
       id="path948" />
    <path
       style="fill:url(#radialGradient969-5)"
       d="m 15.875,4.23349 c 0,-1.9058 -1.5342,-3.44 -3.44,-3.44 H 4.4982 c -1.9058,0 -3.44,1.5342 -3.44,3.44 v 7.9368 c 0,1.9058 1.5342,3.44 3.44,3.44 h 7.9368 c 1.9058,0 3.44,-1.5342 3.44,-3.44 z"
       fill="url(#radialGradient969-5)"
       id="path950" />
    <path
       style="fill:url(#radialGradient979-3)"
       d="m 12.435,15.61039 c 1.9058,0 3.44,-1.5342 3.44,-3.44 v -7.9368 c 0,-1.9058 -1.5342,-3.44 -3.44,-3.44 H 4.4982 c -1.9058,0 -3.44,1.5342 -3.44,3.44 v 7.9368 c 0,1.9058 1.5342,3.44 3.44,3.44 z"
       fill="url(#radialGradient979-3)"
       id="path952" />
    <path
       style="fill:url(#radialGradient901-5)"
       d="m 4.4981,0.79349 c -1.9058,0 -3.44,1.5342 -3.44,3.44 v 7.9368 c 0,1.9058 1.5342,3.44 3.44,3.44 h 7.9368 c 1.9058,0 3.44,-1.5342 3.44,-3.44 v -7.9368 c 0,-1.9058 -1.5342,-3.44 -3.44,-3.44 z"
       fill="url(#radialGradient901-5)"
       id="path954" />
    <path
       style="fill:url(#radialGradient907-7)"
       d="m 4.4981,0.79349 c -1.9058,0 -3.44,1.5342 -3.44,3.44 v 7.9368 c 0,1.9058 1.5342,3.44 3.44,3.44 h 7.9368 c 1.9058,0 3.44,-1.5342 3.44,-3.44 v -7.9368 c 0,-1.9058 -1.5342,-3.44 -3.44,-3.44 z"
       fill="url(#radialGradient907-7)"
       id="path956" />
    <path
       style="fill:url(#radialGradient959-6)"
       d="m 1.0581,12.17039 c 0,1.9058 1.5342,3.44 3.44,3.44 h 7.9368 c 1.9058,0 3.44,-1.5342 3.44,-3.44 v -7.9368 c 0,-1.9058 -1.5342,-3.44 -3.44,-3.44 H 4.4981 c -1.9058,0 -3.44,1.5342 -3.44,3.44 z"
       fill="url(#radialGradient959-6)"
       id="path958" />
    <path
       style="fill:url(#radialGradient949-3)"
       d="m 12.435,15.61039 c 1.9058,0 3.44,-1.5342 3.44,-3.44 v -7.9368 c 0,-1.9058 -1.5342,-3.44 -3.44,-3.44 H 4.4982 c -1.9058,0 -3.44,1.5342 -3.44,3.44 v 7.9368 c 0,1.9058 1.5342,3.44 3.44,3.44 z"
       fill="url(#radialGradient949-3)"
       id="path960" />
    <path
       style="fill:url(#radialGradient917-2)"
       d="m 15.875,4.23349 c 0,-1.9058 -1.5342,-3.44 -3.44,-3.44 H 4.4982 c -1.9058,0 -3.44,1.5342 -3.44,3.44 v 7.9368 c 0,1.9058 1.5342,3.44 3.44,3.44 h 7.9368 c 1.9058,0 3.44,-1.5342 3.44,-3.44 z"
       fill="url(#radialGradient917-2)"
       id="path962" />
  </g>
  <g
     id="g50"
     style="paint-order:fill markers stroke"
     color="#000000"
     transform="translate(-.10062 -.20379)">
    <path
       id="path42"
       style="isolation:auto;mix-blend-mode:normal"
       overflow="visible"
       filter="url(#filter975)"
       fill-opacity=".152"
       d="m10.737 6.128a4.609 4.609 0 0 0-0.15 5e-3c-0.01-1e-3 -0.017-5e-3 -0.026-5e-3h-4.244a0.184 0.184 0 0 0-0.184 0.184v4.317a4.609 4.609 0 0 0-5e-3 0.108 4.609 4.609 0 0 0 4.609 4.609 4.609 4.609 0 0 0 4.609-4.61 4.609 4.609 0 0 0-4.61-4.608z" />
    <path
       id="path44"
       style="isolation:auto;mix-blend-mode:normal"
       overflow="visible"
       fill="#fff"
       d="m10.737 6.328a4.41 4.41 0 0 0-0.144 5e-3c-8e-3 -1e-3 -0.015-5e-3 -0.024-5e-3h-4.062a0.176 0.176 0 0 0-0.176 0.175v4.13a4.41 4.41 0 0 0-5e-3 0.104 4.41 4.41 0 0 0 4.41 4.41 4.41 4.41 0 0 0 4.41-4.41 4.41 4.41 0 0 0-4.41-4.41z" />
    <path
       id="path46"
       style="isolation:auto;mix-blend-mode:normal"
       overflow="visible"
       fill="url(#linearGradient985)"
       d="m13.004 10.737a2.267 2.267 0 0 1-2.268 2.268 2.267 2.267 0 0 1-2.267-2.268 2.267 2.267 0 0 1 2.268-2.267 2.267 2.267 0 0 1 2.267 2.267z" />
    <path
       id="path48"
       style="isolation:auto;mix-blend-mode:normal"
       overflow="visible"
       fill="#fff"
       d="m10.648 9.855v0.794h-0.794v0.265h0.794l0.017 0.793h0.248v-0.793h0.793l0.017-0.265h-0.81v-0.794z" />
  </g>
</svg>
