<?xml version="1.0" encoding="UTF-8"?>
<svg width="64" height="64" version="1.1" viewBox="0 0 16.933 16.933" xmlns="http://www.w3.org/2000/svg" xmlns:cc="http://creativecommons.org/ns#" xmlns:dc="http://purl.org/dc/elements/1.1/" xmlns:rdf="http://www.w3.org/1999/02/22-rdf-syntax-ns#">
 <metadata>
  <rdf:RDF>
   <cc:Work rdf:about="">
    <dc:format>image/svg+xml</dc:format>
    <dc:type rdf:resource="http://purl.org/dc/dcmitype/StillImage"/>
    <dc:title/>
   </cc:Work>
  </rdf:RDF>
 </metadata>
 <defs>
  <filter id="b" x="-.050625" y="-.073636" width="1.1012" height="1.1473" color-interpolation-filters="sRGB">
   <feGaussianBlur stdDeviation="0.17859023"/>
  </filter>
  <style type="text/css"/>
  <filter id="filter2761-3" x="-.024" y="-.024" width="1.048" height="1.048" color-interpolation-filters="sRGB">
   <feGaussianBlur stdDeviation="0.14552168"/>
  </filter>
  <linearGradient id="linearGradient2645-3-6" x1="15.752" x2="1.3927" y1="281.24" y2="295.6" gradientTransform="translate(-.13221 -279.93)" gradientUnits="userSpaceOnUse">
   <stop stop-color="#0a82f0" offset="0"/>
   <stop stop-color="#3250e6" offset="1"/>
  </linearGradient>
  <style type="text/css"/>
 </defs>
 <circle cx="-330.35" cy="-328.38" r="0" fill="#5e4aa6" stroke-width=".26458"/>
 <circle cx="-39.434" cy="6.44" r="0" fill="#5e4aa6" fill-rule="evenodd" stroke-width=".26458"/>
 <path d="m10.708 1.1905c4.405 0 5.0345 0.67282 5.0345 5.388v3.7761c0 4.7152-0.62954 5.388-5.0345 5.388h-4.4832c-4.405 0-5.0346-0.6728-5.0346-5.388v-3.7761c0-4.7152 0.62954-5.388 5.0346-5.388z" enable-background="new" fill="#141414" filter="url(#filter2761-3)" opacity=".3"/>
 <path d="m10.708 1.1905c4.405 0 5.0345 0.67282 5.0345 5.388v3.7761c0 4.7152-0.62954 5.388-5.0345 5.388h-4.4832c-4.405 0-5.0346-0.6728-5.0346-5.388v-3.7761c0-4.7152 0.62954-5.388 5.0346-5.388z" enable-background="new" fill="url(#linearGradient2645-3-6)"/>
 <g transform="translate(-.24523 -.25226)">
  <path d="m5.3711 6.4822a1.5875 1.5875 0 0 0-1.5875 1.5875 1.5875 1.5875 0 0 0 0.06459 0.44492 1.1906 1.1906 0 0 0-0.85832 1.1426 1.1906 1.1906 0 0 0 1.1906 1.1906h4.1671a0.99218 0.99218 0 0 0 0.99218-0.99218 0.99218 0.99218 0 0 0-0.86661-0.98286 1.1906 1.1906 0 0 0 0.07286-0.40618 1.1906 1.1906 0 0 0-1.1906-1.1906 1.1906 1.1906 0 0 0-0.5431 0.13229 1.5875 1.5875 0 0 0-1.4412-0.92603z" color="#bebebe" fill="#fff" opacity=".5" stroke-width=".39687"/>
  <path d="m10.83 5.8083a2.1166 2.1166 0 0 0-1.9218 1.2345 1.5875 1.5875 0 0 0-0.72397-0.17621 1.5875 1.5875 0 0 0-1.5875 1.5875 1.5875 1.5875 0 0 0 0.09663 0.54156 1.3229 1.3229 0 0 0-1.1549 1.3105 1.3229 1.3229 0 0 0 1.3229 1.3229h5.5561a1.5875 1.5875 0 0 0 1.5875-1.5875 1.5875 1.5875 0 0 0-1.1446-1.5234 2.1166 2.1166 0 0 0 0.0863-0.59323 2.1166 2.1166 0 0 0-2.1166-2.1166z" color="#bebebe" filter="url(#b)" opacity=".15" stroke-width=".52916"/>
  <path d="m10.927 5.5562a2.1166 2.1166 0 0 0-1.9218 1.2345 1.5875 1.5875 0 0 0-0.72397-0.17622 1.5875 1.5875 0 0 0-1.5875 1.5875 1.5875 1.5875 0 0 0 0.09663 0.54157 1.3229 1.3229 0 0 0-1.1549 1.3105 1.3229 1.3229 0 0 0 1.3229 1.3229h5.5562a1.5875 1.5875 0 0 0 1.5875-1.5875 1.5875 1.5875 0 0 0-1.1446-1.5234 2.1166 2.1166 0 0 0 0.0863-0.59324 2.1166 2.1166 0 0 0-2.1166-2.1166z" color="#bebebe" fill="#fff" stroke-width=".52916"/>
 </g>
</svg>
