<?xml version="1.0" encoding="UTF-8" standalone="no"?>
<svg
   xmlns:dc="http://purl.org/dc/elements/1.1/"
   xmlns:cc="http://creativecommons.org/ns#"
   xmlns:rdf="http://www.w3.org/1999/02/22-rdf-syntax-ns#"
   xmlns:svg="http://www.w3.org/2000/svg"
   xmlns="http://www.w3.org/2000/svg"
   xmlns:xlink="http://www.w3.org/1999/xlink"
   xmlns:sodipodi="http://sodipodi.sourceforge.net/DTD/sodipodi-0.dtd"
   xmlns:inkscape="http://www.inkscape.org/namespaces/inkscape"
   inkscape:version="1.0 (4035a4fb49, 2020-05-01)"
   sodipodi:docname="evolution-tasks.svg"
   id="svg73"
   viewBox="0 0 16.933 16.933"
   version="1.1"
   height="64"
   width="64">
  <sodipodi:namedview
     inkscape:current-layer="svg73"
     inkscape:window-maximized="1"
     inkscape:window-y="36"
     inkscape:window-x="0"
     inkscape:cy="38.314945"
     inkscape:cx="12.06173"
     inkscape:zoom="4.2150193"
     showgrid="false"
     id="namedview75"
     inkscape:window-height="932"
     inkscape:window-width="1920"
     inkscape:pageshadow="2"
     inkscape:pageopacity="0"
     guidetolerance="10"
     gridtolerance="10"
     objecttolerance="10"
     borderopacity="1"
     bordercolor="#666666"
     pagecolor="#ffffff" />
  <metadata
     id="metadata2">
    <rdf:RDF>
      <cc:Work
         rdf:about="">
        <dc:format>image/svg+xml</dc:format>
        <dc:type
           rdf:resource="http://purl.org/dc/dcmitype/StillImage" />
        <dc:title></dc:title>
      </cc:Work>
    </rdf:RDF>
  </metadata>
  <defs
     id="defs17">
    <filter
       color-interpolation-filters="sRGB"
       height="1.048"
       width="1.048"
       y="-.024"
       x="-.024"
       id="filter2761">
      <feGaussianBlur
         id="feGaussianBlur4"
         stdDeviation="0.14552168" />
    </filter>
    <linearGradient
       gradientUnits="userSpaceOnUse"
       y2="-23.812"
       y1="-33.072"
       x2="-76.144"
       x1="-81.49"
       id="linearGradient888">
      <stop
         id="stop7"
         offset="0"
         stop-color="#f89f39" />
      <stop
         id="stop9"
         offset="1"
         stop-color="#ff5f1c" />
    </linearGradient>
    <filter
       color-interpolation-filters="sRGB"
       height="1.124"
       width="1.1163"
       y="-.061988"
       x="-.058135"
       id="filter967">
      <feGaussianBlur
         id="feGaussianBlur12"
         stdDeviation="0.24586246" />
    </filter>
    <linearGradient
       xlink:href="#linearGradient888"
       gradientUnits="userSpaceOnUse"
       y2="-23.812"
       y1="-33.072"
       x2="-76.144"
       x1="-81.49"
       id="linearGradient953" />
    <linearGradient
       xlink:href="#linearGradient888"
       gradientUnits="userSpaceOnUse"
       gradientTransform="matrix(1.0922 0 0 1.0922 92.937 39.1)"
       y2="-23.812"
       y1="-33.072"
       x2="-76.144"
       x1="-81.49"
       id="linearGradient955" />
    <linearGradient
       gradientUnits="userSpaceOnUse"
       gradientTransform="matrix(111.11,0,0,-111.11,81.336,300.34)"
       y2=".36463"
       y1="-.37132"
       x2="1.0033"
       x1=".0066905"
       id="b">
      <stop
         id="stop4"
         offset="0"
         stop-color="#0a82f0" />
      <stop
         id="stop6"
         offset="1"
         stop-color="#3250e6" />
    </linearGradient>
    <linearGradient
       gradientUnits="userSpaceOnUse"
       gradientTransform="matrix(51.842,0,0,-51.842,110.89,304.34)"
       x2="1"
       id="a">
      <stop
         id="stop9-7"
         offset="0"
         stop-color="#ff501e" />
      <stop
         id="stop11"
         offset="1"
         stop-color="#ff3c28" />
    </linearGradient>
    <filter
       color-interpolation-filters="sRGB"
       height="1.048"
       width="1.048"
       y="-.024"
       x="-.024"
       id="filter2761-5">
      <feGaussianBlur
         id="feGaussianBlur14"
         stdDeviation="0.14552168" />
    </filter>
    <filter
       color-interpolation-filters="sRGB"
       height="1.115"
       width="1.1255"
       y="-.057486"
       x="-.062744"
       id="b-6">
      <feGaussianBlur
         id="feGaussianBlur4-35"
         stdDeviation="1.1017537" />
    </filter>
    <filter
       color-interpolation-filters="sRGB"
       height="1.048"
       width="1.048"
       y="-.024"
       x="-.024"
       id="filter2761-3">
      <feGaussianBlur
         id="feGaussianBlur7"
         stdDeviation="0.14552168" />
    </filter>
    <filter
       color-interpolation-filters="sRGB"
       height="1.048"
       width="1.048"
       y="-.024"
       x="-.024"
       id="filter2761-7">
      <feGaussianBlur
         id="feGaussianBlur2"
         stdDeviation="0.14552168" />
    </filter>
    <filter
       color-interpolation-filters="sRGB"
       height="1.048"
       width="1.048"
       y="-.024"
       x="-.024"
       id="filter2761-36753">
      <feGaussianBlur
         id="feGaussianBlur4-3"
         stdDeviation="0.14552168" />
    </filter>
    <filter
       color-interpolation-filters="sRGB"
       height="1.048"
       width="1.048"
       y="-.024"
       x="-.024"
       id="filter2761-3675">
      <feGaussianBlur
         id="feGaussianBlur2-56"
         stdDeviation="0.14552168" />
    </filter>
    <linearGradient
       gradientUnits="userSpaceOnUse"
       gradientTransform="translate(1.8475,-2.1749)"
       y2="32.176"
       y1="32.176"
       x2="-.93244"
       x1="-9.2997"
       id="linearGradient1195">
      <stop
         id="stop5"
         offset="0"
         stop-color="#1478e6" />
      <stop
         id="stop7-6"
         offset="1"
         stop-color="#3c50e6" />
    </linearGradient>
    <filter
       color-interpolation-filters="sRGB"
       height="1.048"
       width="1.048"
       y="-.024"
       x="-.024"
       id="filter2761-367">
      <feGaussianBlur
         id="feGaussianBlur2-5"
         stdDeviation="0.14552168" />
    </filter>
    <filter
       color-interpolation-filters="sRGB"
       height="1.1199"
       width="1.1201"
       y="-.059946"
       x="-.060054"
       id="filter924">
      <feGaussianBlur
         id="feGaussianBlur5"
         stdDeviation="0.2078715" />
    </filter>
    <filter
       color-interpolation-filters="sRGB"
       height="1.1208"
       width="1.1192"
       y="-.0604"
       x="-.059605"
       id="filter852">
      <feGaussianBlur
         id="feGaussianBlur8"
         stdDeviation="0.23538182" />
    </filter>
    <filter
       color-interpolation-filters="sRGB"
       height="1.048"
       width="1.048"
       y="-.024"
       x="-.024"
       id="filter2761-36">
      <feGaussianBlur
         id="feGaussianBlur2-7"
         stdDeviation="0.14552168" />
    </filter>
    <linearGradient
       gradientUnits="userSpaceOnUse"
       gradientTransform="translate(58.81987,-4.9486)"
       y2="16.321"
       y1="16.321"
       x2="-16.238"
       x1="-22.655"
       id="linearGradient1174">
      <stop
         id="stop5-3"
         offset="0"
         stop-color="#0a82f0" />
      <stop
         id="stop7-5"
         offset="1"
         stop-color="#3250e6" />
    </linearGradient>
    <filter
       inkscape:collect="always"
       style="color-interpolation-filters:sRGB"
       id="filter1052"
       x="-0.048"
       width="1.096"
       y="-0.048"
       height="1.096">
      <feGaussianBlur
         inkscape:collect="always"
         stdDeviation="0.29103594"
         id="feGaussianBlur1054" />
    </filter>
    <linearGradient
       inkscape:collect="always"
       xlink:href="#linearGradient1038"
       id="linearGradient1040"
       x1="37.040939"
       y1="15.874687"
       x2="51.592735"
       y2="1.3228906"
       gradientUnits="userSpaceOnUse"
       gradientTransform="translate(-35.850337,-0.13228921)" />
    <linearGradient
       inkscape:collect="always"
       id="linearGradient1038">
      <stop
         style="stop-color:#f5f5f5;stop-opacity:1"
         offset="0"
         id="stop1034" />
      <stop
         style="stop-color:#fafafa;stop-opacity:1"
         offset="1"
         id="stop1036" />
    </linearGradient>
    <filter
       id="filter2761-3-6"
       x="-.024"
       y="-.024"
       width="1.048"
       height="1.048"
       color-interpolation-filters="sRGB">
      <feGaussianBlur
         stdDeviation="0.14552168"
         id="feGaussianBlur895" />
    </filter>
  </defs>
  <rect
     ry="3.4395156"
     y="1.1906018"
     x="1.1906018"
     height="14.551797"
     width="14.551797"
     id="rect1042"
     style="opacity:0.3;fill:#000000;fill-opacity:1;stroke-width:0.529156;stroke-linecap:round;filter:url(#filter1052)" />
  <rect
     style="fill:url(#linearGradient1040);fill-opacity:1;stroke-width:0.529156;stroke-linecap:round"
     id="rect1032"
     width="14.551797"
     height="14.551797"
     x="1.1906016"
     y="1.1906016"
     ry="3.4395156" />
  <circle
     id="circle19"
     stroke-width=".26458"
     fill="#5e4aa6"
     r="0"
     cy="-328.38"
     cx="-330.35" />
  <circle
     id="circle21"
     stroke-width=".26458"
     fill-rule="evenodd"
     fill="#5e4aa6"
     r="0"
     cy="6.44"
     cx="-39.434" />
  <g
     id="g47"
     filter="url(#filter967)"
     transform="matrix(1.0922 0 0 1.0922 69.954 33.898)">
    <g
       id="g31"
       transform="translate(17.699,5.8148)">
      <path
         id="path27"
         fill="#fcc105"
         d="m-74.346-32.808a0.92602 0.92602 0 0 0-0.06563 0.0021 0.92602 0.92602 0 0 0-0.09198 0.01137 0.92602 0.92602 0 0 0-0.08992 0.02015 0.92602 0.92602 0 0 0-0.08785 0.02945 0.92602 0.92602 0 0 0-0.08475 0.03772 0.92602 0.92602 0 0 0-0.0801 0.04599 0.92602 0.92602 0 0 0-0.07545 0.05374 0.92602 0.92602 0 0 0-0.06925 0.06149 0.92602 0.92602 0 0 0-0.06356 0.0677 0.92602 0.92602 0 0 0-0.05581 0.07338 0.92602 0.92602 0 0 0-0.04858 0.07906 0.92602 0.92602 0 0 0-0.04031 0.0832 0.92602 0.92602 0 0 0-0.03152 0.08681 0.92602 0.92602 0 0 0-0.02274 0.08992 0.92602 0.92602 0 0 0-0.01395 0.09146 0.92602 0.92602 0 0 0-0.0047 0.0925v6.6145a0.92602 0.92602 0 0 0 0.0021 0.06563 0.92602 0.92602 0 0 0 0.01137 0.09198 0.92602 0.92602 0 0 0 0.02015 0.08992 0.92602 0.92602 0 0 0 0.02946 0.08785 0.92602 0.92602 0 0 0 0.03772 0.08475 0.92602 0.92602 0 0 0 0.04599 0.0801 0.92602 0.92602 0 0 0 0.05374 0.07545 0.92602 0.92602 0 0 0 0.06149 0.06924 0.92602 0.92602 0 0 0 0.0677 0.06356 0.92602 0.92602 0 0 0 0.07338 0.05581 0.92602 0.92602 0 0 0 0.07906 0.04857 0.92602 0.92602 0 0 0 0.0832 0.04031 0.92602 0.92602 0 0 0 0.08681 0.03152 0.92602 0.92602 0 0 0 0.08992 0.02274 0.92602 0.92602 0 0 0 0.09146 0.01395 0.92602 0.92602 0 0 0 0.0925 0.0047h4.4978a0.92602 0.92602 0 0 0 0.06563-0.0021 0.92602 0.92602 0 0 0 0.09198-0.01137 0.92602 0.92602 0 0 0 0.08992-0.02015 0.92602 0.92602 0 0 0 0.08785-0.02945 0.92602 0.92602 0 0 0 0.08475-0.03772 0.92602 0.92602 0 0 0 0.0801-0.04599 0.92602 0.92602 0 0 0 0.07545-0.05374 0.92602 0.92602 0 0 0 0.06976-0.06098 0.92602 0.92602 0 0 0 0.06304-0.06821 0.92602 0.92602 0 0 0 0.05581-0.07338 0.92602 0.92602 0 0 0 0.04858-0.07906 0.92602 0.92602 0 0 0 0.04031-0.0832 0.92602 0.92602 0 0 0 0.03152-0.08681 0.92602 0.92602 0 0 0 0.02274-0.08992 0.92602 0.92602 0 0 0 0.01395-0.09146 0.92602 0.92602 0 0 0 0.0047-0.0925v-6.6145a0.92602 0.92602 0 0 0-0.0021-0.06563 0.92602 0.92602 0 0 0-0.01137-0.09198 0.92602 0.92602 0 0 0-0.02015-0.08992 0.92602 0.92602 0 0 0-0.02946-0.08785 0.92602 0.92602 0 0 0-0.03772-0.08475 0.92602 0.92602 0 0 0-0.04599-0.0801 0.92602 0.92602 0 0 0-0.05374-0.07545 0.92602 0.92602 0 0 0-0.06098-0.06925 0.92602 0.92602 0 0 0-0.06821-0.06356 0.92602 0.92602 0 0 0-0.07338-0.05581 0.92602 0.92602 0 0 0-0.07906-0.04858 0.92602 0.92602 0 0 0-0.0832-0.04031 0.92602 0.92602 0 0 0-0.08681-0.03152 0.92602 0.92602 0 0 0-0.08992-0.02274 0.92602 0.92602 0 0 0-0.09146-0.01395 0.92602 0.92602 0 0 0-0.0925-0.0047z" />
      <path
         id="path29"
         fill="#fff"
         d="m-72.098-30.036a1.4616 1.4616 0 0 0-1.4614 1.4614 1.4616 1.4616 0 0 0 1.4614 1.4614 1.4616 1.4616 0 0 0 1.4614-1.4614 1.4616 1.4616 0 0 0-1.4614-1.4614zm0.78185 0.72036 0.24701 0.24701-1.2345 1.235-0.82319-0.82319 0.24649-0.24701 0.5767 0.57618z" />
    </g>
    <g
       id="g45"
       transform="translate(21.043,4.7624)">
      <path
         id="path33"
         fill="url(#linearGradient953)"
         d="m-81.49-32.808a0.92602 0.92602 0 0 0-0.06563 0.0021 0.92602 0.92602 0 0 0-0.09198 0.01137 0.92602 0.92602 0 0 0-0.08992 0.02015 0.92602 0.92602 0 0 0-0.08785 0.02945 0.92602 0.92602 0 0 0-0.08475 0.03772 0.92602 0.92602 0 0 0-0.0801 0.04599 0.92602 0.92602 0 0 0-0.07545 0.05374 0.92602 0.92602 0 0 0-0.06925 0.06149 0.92602 0.92602 0 0 0-0.06356 0.0677 0.92602 0.92602 0 0 0-0.05581 0.07338 0.92602 0.92602 0 0 0-0.04858 0.07906 0.92602 0.92602 0 0 0-0.04031 0.0832 0.92602 0.92602 0 0 0-0.03152 0.08681 0.92602 0.92602 0 0 0-0.02274 0.08992 0.92602 0.92602 0 0 0-0.01395 0.09146 0.92602 0.92602 0 0 0-0.0047 0.0925v6.6145a0.92602 0.92602 0 0 0 0.0021 0.06563 0.92602 0.92602 0 0 0 0.01137 0.09198 0.92602 0.92602 0 0 0 0.02015 0.08992 0.92602 0.92602 0 0 0 0.02946 0.08785 0.92602 0.92602 0 0 0 0.03772 0.08475 0.92602 0.92602 0 0 0 0.04599 0.0801 0.92602 0.92602 0 0 0 0.05374 0.07545 0.92602 0.92602 0 0 0 0.06149 0.06924 0.92602 0.92602 0 0 0 0.0677 0.06356 0.92602 0.92602 0 0 0 0.07338 0.05581 0.92602 0.92602 0 0 0 0.07906 0.04857 0.92602 0.92602 0 0 0 0.0832 0.04031 0.92602 0.92602 0 0 0 0.08681 0.03152 0.92602 0.92602 0 0 0 0.08992 0.02274 0.92602 0.92602 0 0 0 0.09146 0.01395 0.92602 0.92602 0 0 0 0.0925 0.0047h4.4978a0.92602 0.92602 0 0 0 0.06563-0.0021 0.92602 0.92602 0 0 0 0.09198-0.01137 0.92602 0.92602 0 0 0 0.08992-0.02015 0.92602 0.92602 0 0 0 0.08785-0.02945 0.92602 0.92602 0 0 0 0.08475-0.03772 0.92602 0.92602 0 0 0 0.0801-0.04599 0.92602 0.92602 0 0 0 0.07545-0.05374 0.92602 0.92602 0 0 0 0.06976-0.06098 0.92602 0.92602 0 0 0 0.06304-0.06821 0.92602 0.92602 0 0 0 0.05581-0.07338 0.92602 0.92602 0 0 0 0.04858-0.07906 0.92602 0.92602 0 0 0 0.04031-0.0832 0.92602 0.92602 0 0 0 0.03152-0.08681 0.92602 0.92602 0 0 0 0.02274-0.08992 0.92602 0.92602 0 0 0 0.01395-0.09146 0.92602 0.92602 0 0 0 0.0047-0.0925v-6.6145a0.92602 0.92602 0 0 0-0.0021-0.06563 0.92602 0.92602 0 0 0-0.01137-0.09198 0.92602 0.92602 0 0 0-0.02015-0.08992 0.92602 0.92602 0 0 0-0.02946-0.08785 0.92602 0.92602 0 0 0-0.03772-0.08475 0.92602 0.92602 0 0 0-0.04599-0.0801 0.92602 0.92602 0 0 0-0.05374-0.07545 0.92602 0.92602 0 0 0-0.06098-0.06925 0.92602 0.92602 0 0 0-0.06821-0.06356 0.92602 0.92602 0 0 0-0.07338-0.05581 0.92602 0.92602 0 0 0-0.07906-0.04858 0.92602 0.92602 0 0 0-0.0832-0.04031 0.92602 0.92602 0 0 0-0.08681-0.03152 0.92602 0.92602 0 0 0-0.08992-0.02274 0.92602 0.92602 0 0 0-0.09146-0.01395 0.92602 0.92602 0 0 0-0.0925-0.0047z" />
      <g
         id="g43"
         fill="#fff"
         transform="translate(.0010063 .094556)">
        <rect
           id="rect35"
           height=".4911"
           width="3.9522"
           y="-30.891"
           x="-81.218" />
        <rect
           id="rect37"
           height=".4911"
           width="3.9522"
           y="-29.573"
           x="-81.218" />
        <rect
           id="rect39"
           height=".4911"
           width="3.9522"
           y="-28.256"
           x="-81.218" />
        <rect
           id="rect41"
           height=".4911"
           width="3.9522"
           y="-26.938"
           x="-81.218" />
      </g>
    </g>
  </g>
  <path
     id="path49"
     stroke-width="1.0922"
     fill="#fcc105"
     d="m8.0843 4.4165a1.0114 1.0114 0 0 0-0.071681 0.00229 1.0114 1.0114 0 0 0-0.10046 0.012418 1.0114 1.0114 0 0 0-0.098211 0.022008 1.0114 1.0114 0 0 0-0.09595 0.032165 1.0114 1.0114 0 0 0-0.092564 0.041198 1.0114 1.0114 0 0 0-0.087485 0.05023 1.0114 1.0114 0 0 0-0.082406 0.058695 1.0114 1.0114 0 0 0-0.075635 0.067159 1.0114 1.0114 0 0 0-0.06942 0.073942 1.0114 1.0114 0 0 0-0.060956 0.080146 1.0114 1.0114 0 0 0-0.053059 0.086349 1.0114 1.0114 0 0 0-0.044027 0.090871 1.0114 1.0114 0 0 0-0.034426 0.094814 1.0114 1.0114 0 0 0-0.024837 0.098211 1.0114 1.0114 0 0 0-0.015236 0.099893 1.0114 1.0114 0 0 0-0.00513 0.10103v7.2244a1.0114 1.0114 0 0 0 0.00229 0.07168 1.0114 1.0114 0 0 0 0.012418 0.10046 1.0114 1.0114 0 0 0 0.022008 0.09821 1.0114 1.0114 0 0 0 0.032176 0.09595 1.0114 1.0114 0 0 0 0.041198 0.09256 1.0114 1.0114 0 0 0 0.05023 0.08748 1.0114 1.0114 0 0 0 0.058695 0.08241 1.0114 1.0114 0 0 0 0.067159 0.07562 1.0114 1.0114 0 0 0 0.073942 0.06942 1.0114 1.0114 0 0 0 0.080146 0.06096 1.0114 1.0114 0 0 0 0.086349 0.05305 1.0114 1.0114 0 0 0 0.090871 0.04403 1.0114 1.0114 0 0 0 0.094814 0.03443 1.0114 1.0114 0 0 0 0.098211 0.02484 1.0114 1.0114 0 0 0 0.099893 0.01524 1.0114 1.0114 0 0 0 0.10103 0.0051h4.9125a1.0114 1.0114 0 0 0 0.07168-0.0023 1.0114 1.0114 0 0 0 0.10046-0.01242 1.0114 1.0114 0 0 0 0.09821-0.02201 1.0114 1.0114 0 0 0 0.09595-0.03217 1.0114 1.0114 0 0 0 0.09256-0.0412 1.0114 1.0114 0 0 0 0.08749-0.05023 1.0114 1.0114 0 0 0 0.08241-0.05869 1.0114 1.0114 0 0 0 0.07619-0.0666 1.0114 1.0114 0 0 0 0.06885-0.0745 1.0114 1.0114 0 0 0 0.06096-0.08015 1.0114 1.0114 0 0 0 0.05306-0.08635 1.0114 1.0114 0 0 0 0.04403-0.09087 1.0114 1.0114 0 0 0 0.03443-0.09481 1.0114 1.0114 0 0 0 0.02484-0.09821 1.0114 1.0114 0 0 0 0.01524-0.09989 1.0114 1.0114 0 0 0 0.0051-0.10103v-7.2243a1.0114 1.0114 0 0 0-0.0023-0.071681 1.0114 1.0114 0 0 0-0.01242-0.10046 1.0114 1.0114 0 0 0-0.02201-0.098211 1.0114 1.0114 0 0 0-0.03218-0.09595 1.0114 1.0114 0 0 0-0.0412-0.092564 1.0114 1.0114 0 0 0-0.05023-0.087485 1.0114 1.0114 0 0 0-0.0587-0.082406 1.0114 1.0114 0 0 0-0.0666-0.075635 1.0114 1.0114 0 0 0-0.0745-0.06942 1.0114 1.0114 0 0 0-0.08015-0.060956 1.0114 1.0114 0 0 0-0.08635-0.053059 1.0114 1.0114 0 0 0-0.09087-0.044027 1.0114 1.0114 0 0 0-0.09481-0.034426 1.0114 1.0114 0 0 0-0.09821-0.024837 1.0114 1.0114 0 0 0-0.09989-0.015236 1.0114 1.0114 0 0 0-0.10103-0.00513z" />
  <g
     id="g59"
     fill="#fff"
     transform="matrix(1.0922 0 0 1.0922 97.089 40.352)">
    <rect
       id="rect51"
       height=".4911"
       width="3.9522"
       y="-30.891"
       x="-81.218" />
    <rect
       id="rect53"
       height=".4911"
       width="3.9522"
       y="-29.573"
       x="-81.218" />
    <rect
       id="rect55"
       height=".4911"
       width="3.9522"
       y="-28.256"
       x="-81.218" />
    <rect
       id="rect57"
       height=".4911"
       width="3.9522"
       y="-26.938"
       x="-81.218" />
  </g>
  <path
     id="path61"
     stroke-width="1.0922"
     fill="url(#linearGradient955)"
     d="m3.9339 3.267a1.0114 1.0114 0 0 0-0.071681 0.00229 1.0114 1.0114 0 0 0-0.10046 0.012418 1.0114 1.0114 0 0 0-0.098211 0.022008 1.0114 1.0114 0 0 0-0.09595 0.032165 1.0114 1.0114 0 0 0-0.092564 0.041198 1.0114 1.0114 0 0 0-0.087485 0.05023 1.0114 1.0114 0 0 0-0.082407 0.058695 1.0114 1.0114 0 0 0-0.075635 0.067159 1.0114 1.0114 0 0 0-0.06942 0.073942 1.0114 1.0114 0 0 0-0.060956 0.080146 1.0114 1.0114 0 0 0-0.053059 0.086349 1.0114 1.0114 0 0 0-0.044027 0.090871 1.0114 1.0114 0 0 0-0.034426 0.094814 1.0114 1.0114 0 0 0-0.024837 0.098211 1.0114 1.0114 0 0 0-0.015236 0.099893 1.0114 1.0114 0 0 0-0.00513 0.10103v7.2244a1.0114 1.0114 0 0 0 0.00229 0.07168 1.0114 1.0114 0 0 0 0.012418 0.10046 1.0114 1.0114 0 0 0 0.022008 0.09821 1.0114 1.0114 0 0 0 0.032176 0.09595 1.0114 1.0114 0 0 0 0.041198 0.09256 1.0114 1.0114 0 0 0 0.05023 0.08749 1.0114 1.0114 0 0 0 0.058695 0.08241 1.0114 1.0114 0 0 0 0.067159 0.07562 1.0114 1.0114 0 0 0 0.073942 0.06942 1.0114 1.0114 0 0 0 0.080146 0.06096 1.0114 1.0114 0 0 0 0.086349 0.05305 1.0114 1.0114 0 0 0 0.090871 0.04403 1.0114 1.0114 0 0 0 0.094814 0.03443 1.0114 1.0114 0 0 0 0.098211 0.02484 1.0114 1.0114 0 0 0 0.099893 0.01524 1.0114 1.0114 0 0 0 0.10103 0.0051h4.9125a1.0114 1.0114 0 0 0 0.071681-0.0023 1.0114 1.0114 0 0 0 0.10046-0.01242 1.0114 1.0114 0 0 0 0.098211-0.02201 1.0114 1.0114 0 0 0 0.09595-0.03216 1.0114 1.0114 0 0 0 0.092564-0.0412 1.0114 1.0114 0 0 0 0.087485-0.05023 1.0114 1.0114 0 0 0 0.082406-0.0587 1.0114 1.0114 0 0 0 0.076192-0.0666 1.0114 1.0114 0 0 0 0.068852-0.0745 1.0114 1.0114 0 0 0 0.060956-0.08015 1.0114 1.0114 0 0 0 0.053059-0.08635 1.0114 1.0114 0 0 0 0.044027-0.09087 1.0114 1.0114 0 0 0 0.034426-0.09481 1.0114 1.0114 0 0 0 0.024837-0.09821 1.0114 1.0114 0 0 0 0.015236-0.09989 1.0114 1.0114 0 0 0 0.00513-0.10103v-7.2243a1.0114 1.0114 0 0 0-0.00229-0.071681 1.0114 1.0114 0 0 0-0.012418-0.10046 1.0114 1.0114 0 0 0-0.022008-0.098211 1.0114 1.0114 0 0 0-0.032176-0.09595 1.0114 1.0114 0 0 0-0.041198-0.092564 1.0114 1.0114 0 0 0-0.05023-0.087485 1.0114 1.0114 0 0 0-0.058695-0.082407 1.0114 1.0114 0 0 0-0.066602-0.075635 1.0114 1.0114 0 0 0-0.074499-0.06942 1.0114 1.0114 0 0 0-0.080146-0.060956 1.0114 1.0114 0 0 0-0.086349-0.053059 1.0114 1.0114 0 0 0-0.090871-0.044027 1.0114 1.0114 0 0 0-0.094814-0.034426 1.0114 1.0114 0 0 0-0.098211-0.024837 1.0114 1.0114 0 0 0-0.099893-0.015236 1.0114 1.0114 0 0 0-0.10103-0.00513z" />
  <g
     id="g71"
     fill="#fff"
     transform="matrix(1.0922 0 0 1.0922 92.938 39.203)">
    <rect
       id="rect63"
       height=".4911"
       width="3.9522"
       y="-30.891"
       x="-81.218" />
    <rect
       id="rect65"
       height=".4911"
       width="3.9522"
       y="-29.573"
       x="-81.218" />
    <rect
       id="rect67"
       height=".4911"
       width="3.9522"
       y="-28.256"
       x="-81.218" />
    <rect
       id="rect69"
       height=".4911"
       width="3.9522"
       y="-26.938"
       x="-81.218" />
  </g>
</svg>
