<?xml version="1.0" encoding="UTF-8"?>
<svg width="64" height="64" version="1.1" viewBox="0 0 16.933 16.933" xmlns="http://www.w3.org/2000/svg" xmlns:cc="http://creativecommons.org/ns#" xmlns:dc="http://purl.org/dc/elements/1.1/" xmlns:rdf="http://www.w3.org/1999/02/22-rdf-syntax-ns#" xmlns:xlink="http://www.w3.org/1999/xlink">
 <metadata>
  <rdf:RDF>
   <cc:Work rdf:about="">
    <dc:format>image/svg+xml</dc:format>
    <dc:type rdf:resource="http://purl.org/dc/dcmitype/StillImage"/>
    <dc:title/>
   </cc:Work>
  </rdf:RDF>
 </metadata>
 <defs>
  <filter id="filter2761" x="-.024" y="-.024" width="1.048" height="1.048" color-interpolation-filters="sRGB">
   <feGaussianBlur stdDeviation="0.14552168"/>
  </filter>
  <linearGradient id="linearGradient888" x1="-81.49" x2="-76.144" y1="-33.072" y2="-23.812" gradientUnits="userSpaceOnUse">
   <stop stop-color="#f89f39" offset="0"/>
   <stop stop-color="#ff5f1c" offset="1"/>
  </linearGradient>
  <filter id="filter967" x="-.058135" y="-.061988" width="1.1163" height="1.124" color-interpolation-filters="sRGB">
   <feGaussianBlur stdDeviation="0.24586246"/>
  </filter>
  <linearGradient id="linearGradient953" x1="-81.49" x2="-76.144" y1="-33.072" y2="-23.812" gradientUnits="userSpaceOnUse" xlink:href="#linearGradient888"/>
  <linearGradient id="linearGradient955" x1="-81.49" x2="-76.144" y1="-33.072" y2="-23.812" gradientTransform="matrix(1.0922 0 0 1.0922 92.937 39.1)" gradientUnits="userSpaceOnUse" xlink:href="#linearGradient888"/>
 </defs>
 <circle cx="-330.35" cy="-328.38" r="0" fill="#5e4aa6" stroke-width=".26458"/>
 <circle cx="-39.434" cy="6.44" r="0" fill="#5e4aa6" fill-rule="evenodd" stroke-width=".26458"/>
 <path d="m10.708 1.1905c4.405 0 5.0345 0.67282 5.0345 5.388v3.7761c0 4.7152-0.62954 5.388-5.0345 5.388h-4.4832c-4.405 0-5.0346-0.6728-5.0346-5.388v-3.7761c0-4.7152 0.62954-5.388 5.0346-5.388z" enable-background="new" fill="#141414" filter="url(#filter2761)" opacity=".3"/>
 <path d="m10.708 1.1905c4.405 0 5.0345 0.67282 5.0345 5.388v3.7761c0 4.7152-0.62954 5.388-5.0345 5.388h-4.4832c-4.405 0-5.0346-0.6728-5.0346-5.388v-3.7761c0-4.7152 0.62954-5.388 5.0346-5.388z" enable-background="new" fill="#fafafa"/>
 <g transform="matrix(1.0922 0 0 1.0922 69.954 33.898)" filter="url(#filter967)">
  <g transform="translate(17.699,5.8148)">
   <path d="m-74.346-32.808a0.92602 0.92602 0 0 0-0.06563 0.0021 0.92602 0.92602 0 0 0-0.09198 0.01137 0.92602 0.92602 0 0 0-0.08992 0.02015 0.92602 0.92602 0 0 0-0.08785 0.02945 0.92602 0.92602 0 0 0-0.08475 0.03772 0.92602 0.92602 0 0 0-0.0801 0.04599 0.92602 0.92602 0 0 0-0.07545 0.05374 0.92602 0.92602 0 0 0-0.06925 0.06149 0.92602 0.92602 0 0 0-0.06356 0.0677 0.92602 0.92602 0 0 0-0.05581 0.07338 0.92602 0.92602 0 0 0-0.04858 0.07906 0.92602 0.92602 0 0 0-0.04031 0.0832 0.92602 0.92602 0 0 0-0.03152 0.08681 0.92602 0.92602 0 0 0-0.02274 0.08992 0.92602 0.92602 0 0 0-0.01395 0.09146 0.92602 0.92602 0 0 0-0.0047 0.0925v6.6145a0.92602 0.92602 0 0 0 0.0021 0.06563 0.92602 0.92602 0 0 0 0.01137 0.09198 0.92602 0.92602 0 0 0 0.02015 0.08992 0.92602 0.92602 0 0 0 0.02946 0.08785 0.92602 0.92602 0 0 0 0.03772 0.08475 0.92602 0.92602 0 0 0 0.04599 0.0801 0.92602 0.92602 0 0 0 0.05374 0.07545 0.92602 0.92602 0 0 0 0.06149 0.06924 0.92602 0.92602 0 0 0 0.0677 0.06356 0.92602 0.92602 0 0 0 0.07338 0.05581 0.92602 0.92602 0 0 0 0.07906 0.04857 0.92602 0.92602 0 0 0 0.0832 0.04031 0.92602 0.92602 0 0 0 0.08681 0.03152 0.92602 0.92602 0 0 0 0.08992 0.02274 0.92602 0.92602 0 0 0 0.09146 0.01395 0.92602 0.92602 0 0 0 0.0925 0.0047h4.4978a0.92602 0.92602 0 0 0 0.06563-0.0021 0.92602 0.92602 0 0 0 0.09198-0.01137 0.92602 0.92602 0 0 0 0.08992-0.02015 0.92602 0.92602 0 0 0 0.08785-0.02945 0.92602 0.92602 0 0 0 0.08475-0.03772 0.92602 0.92602 0 0 0 0.0801-0.04599 0.92602 0.92602 0 0 0 0.07545-0.05374 0.92602 0.92602 0 0 0 0.06976-0.06098 0.92602 0.92602 0 0 0 0.06304-0.06821 0.92602 0.92602 0 0 0 0.05581-0.07338 0.92602 0.92602 0 0 0 0.04858-0.07906 0.92602 0.92602 0 0 0 0.04031-0.0832 0.92602 0.92602 0 0 0 0.03152-0.08681 0.92602 0.92602 0 0 0 0.02274-0.08992 0.92602 0.92602 0 0 0 0.01395-0.09146 0.92602 0.92602 0 0 0 0.0047-0.0925v-6.6145a0.92602 0.92602 0 0 0-0.0021-0.06563 0.92602 0.92602 0 0 0-0.01137-0.09198 0.92602 0.92602 0 0 0-0.02015-0.08992 0.92602 0.92602 0 0 0-0.02946-0.08785 0.92602 0.92602 0 0 0-0.03772-0.08475 0.92602 0.92602 0 0 0-0.04599-0.0801 0.92602 0.92602 0 0 0-0.05374-0.07545 0.92602 0.92602 0 0 0-0.06098-0.06925 0.92602 0.92602 0 0 0-0.06821-0.06356 0.92602 0.92602 0 0 0-0.07338-0.05581 0.92602 0.92602 0 0 0-0.07906-0.04858 0.92602 0.92602 0 0 0-0.0832-0.04031 0.92602 0.92602 0 0 0-0.08681-0.03152 0.92602 0.92602 0 0 0-0.08992-0.02274 0.92602 0.92602 0 0 0-0.09146-0.01395 0.92602 0.92602 0 0 0-0.0925-0.0047z" fill="#fcc105"/>
   <path d="m-72.098-30.036a1.4616 1.4616 0 0 0-1.4614 1.4614 1.4616 1.4616 0 0 0 1.4614 1.4614 1.4616 1.4616 0 0 0 1.4614-1.4614 1.4616 1.4616 0 0 0-1.4614-1.4614zm0.78185 0.72036 0.24701 0.24701-1.2345 1.235-0.82319-0.82319 0.24649-0.24701 0.5767 0.57618z" fill="#fff"/>
  </g>
  <g transform="translate(21.043,4.7624)">
   <path d="m-81.49-32.808a0.92602 0.92602 0 0 0-0.06563 0.0021 0.92602 0.92602 0 0 0-0.09198 0.01137 0.92602 0.92602 0 0 0-0.08992 0.02015 0.92602 0.92602 0 0 0-0.08785 0.02945 0.92602 0.92602 0 0 0-0.08475 0.03772 0.92602 0.92602 0 0 0-0.0801 0.04599 0.92602 0.92602 0 0 0-0.07545 0.05374 0.92602 0.92602 0 0 0-0.06925 0.06149 0.92602 0.92602 0 0 0-0.06356 0.0677 0.92602 0.92602 0 0 0-0.05581 0.07338 0.92602 0.92602 0 0 0-0.04858 0.07906 0.92602 0.92602 0 0 0-0.04031 0.0832 0.92602 0.92602 0 0 0-0.03152 0.08681 0.92602 0.92602 0 0 0-0.02274 0.08992 0.92602 0.92602 0 0 0-0.01395 0.09146 0.92602 0.92602 0 0 0-0.0047 0.0925v6.6145a0.92602 0.92602 0 0 0 0.0021 0.06563 0.92602 0.92602 0 0 0 0.01137 0.09198 0.92602 0.92602 0 0 0 0.02015 0.08992 0.92602 0.92602 0 0 0 0.02946 0.08785 0.92602 0.92602 0 0 0 0.03772 0.08475 0.92602 0.92602 0 0 0 0.04599 0.0801 0.92602 0.92602 0 0 0 0.05374 0.07545 0.92602 0.92602 0 0 0 0.06149 0.06924 0.92602 0.92602 0 0 0 0.0677 0.06356 0.92602 0.92602 0 0 0 0.07338 0.05581 0.92602 0.92602 0 0 0 0.07906 0.04857 0.92602 0.92602 0 0 0 0.0832 0.04031 0.92602 0.92602 0 0 0 0.08681 0.03152 0.92602 0.92602 0 0 0 0.08992 0.02274 0.92602 0.92602 0 0 0 0.09146 0.01395 0.92602 0.92602 0 0 0 0.0925 0.0047h4.4978a0.92602 0.92602 0 0 0 0.06563-0.0021 0.92602 0.92602 0 0 0 0.09198-0.01137 0.92602 0.92602 0 0 0 0.08992-0.02015 0.92602 0.92602 0 0 0 0.08785-0.02945 0.92602 0.92602 0 0 0 0.08475-0.03772 0.92602 0.92602 0 0 0 0.0801-0.04599 0.92602 0.92602 0 0 0 0.07545-0.05374 0.92602 0.92602 0 0 0 0.06976-0.06098 0.92602 0.92602 0 0 0 0.06304-0.06821 0.92602 0.92602 0 0 0 0.05581-0.07338 0.92602 0.92602 0 0 0 0.04858-0.07906 0.92602 0.92602 0 0 0 0.04031-0.0832 0.92602 0.92602 0 0 0 0.03152-0.08681 0.92602 0.92602 0 0 0 0.02274-0.08992 0.92602 0.92602 0 0 0 0.01395-0.09146 0.92602 0.92602 0 0 0 0.0047-0.0925v-6.6145a0.92602 0.92602 0 0 0-0.0021-0.06563 0.92602 0.92602 0 0 0-0.01137-0.09198 0.92602 0.92602 0 0 0-0.02015-0.08992 0.92602 0.92602 0 0 0-0.02946-0.08785 0.92602 0.92602 0 0 0-0.03772-0.08475 0.92602 0.92602 0 0 0-0.04599-0.0801 0.92602 0.92602 0 0 0-0.05374-0.07545 0.92602 0.92602 0 0 0-0.06098-0.06925 0.92602 0.92602 0 0 0-0.06821-0.06356 0.92602 0.92602 0 0 0-0.07338-0.05581 0.92602 0.92602 0 0 0-0.07906-0.04858 0.92602 0.92602 0 0 0-0.0832-0.04031 0.92602 0.92602 0 0 0-0.08681-0.03152 0.92602 0.92602 0 0 0-0.08992-0.02274 0.92602 0.92602 0 0 0-0.09146-0.01395 0.92602 0.92602 0 0 0-0.0925-0.0047z" fill="url(#linearGradient953)"/>
   <g transform="translate(.0010063 .094556)" fill="#fff">
    <rect x="-81.218" y="-30.891" width="3.9522" height=".4911"/>
    <rect x="-81.218" y="-29.573" width="3.9522" height=".4911"/>
    <rect x="-81.218" y="-28.256" width="3.9522" height=".4911"/>
    <rect x="-81.218" y="-26.938" width="3.9522" height=".4911"/>
   </g>
  </g>
 </g>
 <path d="m8.0843 4.4165a1.0114 1.0114 0 0 0-0.071681 0.00229 1.0114 1.0114 0 0 0-0.10046 0.012418 1.0114 1.0114 0 0 0-0.098211 0.022008 1.0114 1.0114 0 0 0-0.09595 0.032165 1.0114 1.0114 0 0 0-0.092564 0.041198 1.0114 1.0114 0 0 0-0.087485 0.05023 1.0114 1.0114 0 0 0-0.082406 0.058695 1.0114 1.0114 0 0 0-0.075635 0.067159 1.0114 1.0114 0 0 0-0.06942 0.073942 1.0114 1.0114 0 0 0-0.060956 0.080146 1.0114 1.0114 0 0 0-0.053059 0.086349 1.0114 1.0114 0 0 0-0.044027 0.090871 1.0114 1.0114 0 0 0-0.034426 0.094814 1.0114 1.0114 0 0 0-0.024837 0.098211 1.0114 1.0114 0 0 0-0.015236 0.099893 1.0114 1.0114 0 0 0-0.00513 0.10103v7.2244a1.0114 1.0114 0 0 0 0.00229 0.07168 1.0114 1.0114 0 0 0 0.012418 0.10046 1.0114 1.0114 0 0 0 0.022008 0.09821 1.0114 1.0114 0 0 0 0.032176 0.09595 1.0114 1.0114 0 0 0 0.041198 0.09256 1.0114 1.0114 0 0 0 0.05023 0.08748 1.0114 1.0114 0 0 0 0.058695 0.08241 1.0114 1.0114 0 0 0 0.067159 0.07562 1.0114 1.0114 0 0 0 0.073942 0.06942 1.0114 1.0114 0 0 0 0.080146 0.06096 1.0114 1.0114 0 0 0 0.086349 0.05305 1.0114 1.0114 0 0 0 0.090871 0.04403 1.0114 1.0114 0 0 0 0.094814 0.03443 1.0114 1.0114 0 0 0 0.098211 0.02484 1.0114 1.0114 0 0 0 0.099893 0.01524 1.0114 1.0114 0 0 0 0.10103 0.0051h4.9125a1.0114 1.0114 0 0 0 0.07168-0.0023 1.0114 1.0114 0 0 0 0.10046-0.01242 1.0114 1.0114 0 0 0 0.09821-0.02201 1.0114 1.0114 0 0 0 0.09595-0.03217 1.0114 1.0114 0 0 0 0.09256-0.0412 1.0114 1.0114 0 0 0 0.08749-0.05023 1.0114 1.0114 0 0 0 0.08241-0.05869 1.0114 1.0114 0 0 0 0.07619-0.0666 1.0114 1.0114 0 0 0 0.06885-0.0745 1.0114 1.0114 0 0 0 0.06096-0.08015 1.0114 1.0114 0 0 0 0.05306-0.08635 1.0114 1.0114 0 0 0 0.04403-0.09087 1.0114 1.0114 0 0 0 0.03443-0.09481 1.0114 1.0114 0 0 0 0.02484-0.09821 1.0114 1.0114 0 0 0 0.01524-0.09989 1.0114 1.0114 0 0 0 0.0051-0.10103v-7.2243a1.0114 1.0114 0 0 0-0.0023-0.071681 1.0114 1.0114 0 0 0-0.01242-0.10046 1.0114 1.0114 0 0 0-0.02201-0.098211 1.0114 1.0114 0 0 0-0.03218-0.09595 1.0114 1.0114 0 0 0-0.0412-0.092564 1.0114 1.0114 0 0 0-0.05023-0.087485 1.0114 1.0114 0 0 0-0.0587-0.082406 1.0114 1.0114 0 0 0-0.0666-0.075635 1.0114 1.0114 0 0 0-0.0745-0.06942 1.0114 1.0114 0 0 0-0.08015-0.060956 1.0114 1.0114 0 0 0-0.08635-0.053059 1.0114 1.0114 0 0 0-0.09087-0.044027 1.0114 1.0114 0 0 0-0.09481-0.034426 1.0114 1.0114 0 0 0-0.09821-0.024837 1.0114 1.0114 0 0 0-0.09989-0.015236 1.0114 1.0114 0 0 0-0.10103-0.00513z" fill="#fcc105" stroke-width="1.0922"/>
 <g transform="matrix(1.0922 0 0 1.0922 97.089 40.352)" fill="#fff">
  <rect x="-81.218" y="-30.891" width="3.9522" height=".4911"/>
  <rect x="-81.218" y="-29.573" width="3.9522" height=".4911"/>
  <rect x="-81.218" y="-28.256" width="3.9522" height=".4911"/>
  <rect x="-81.218" y="-26.938" width="3.9522" height=".4911"/>
 </g>
 <path d="m3.9339 3.267a1.0114 1.0114 0 0 0-0.071681 0.00229 1.0114 1.0114 0 0 0-0.10046 0.012418 1.0114 1.0114 0 0 0-0.098211 0.022008 1.0114 1.0114 0 0 0-0.09595 0.032165 1.0114 1.0114 0 0 0-0.092564 0.041198 1.0114 1.0114 0 0 0-0.087485 0.05023 1.0114 1.0114 0 0 0-0.082407 0.058695 1.0114 1.0114 0 0 0-0.075635 0.067159 1.0114 1.0114 0 0 0-0.06942 0.073942 1.0114 1.0114 0 0 0-0.060956 0.080146 1.0114 1.0114 0 0 0-0.053059 0.086349 1.0114 1.0114 0 0 0-0.044027 0.090871 1.0114 1.0114 0 0 0-0.034426 0.094814 1.0114 1.0114 0 0 0-0.024837 0.098211 1.0114 1.0114 0 0 0-0.015236 0.099893 1.0114 1.0114 0 0 0-0.00513 0.10103v7.2244a1.0114 1.0114 0 0 0 0.00229 0.07168 1.0114 1.0114 0 0 0 0.012418 0.10046 1.0114 1.0114 0 0 0 0.022008 0.09821 1.0114 1.0114 0 0 0 0.032176 0.09595 1.0114 1.0114 0 0 0 0.041198 0.09256 1.0114 1.0114 0 0 0 0.05023 0.08749 1.0114 1.0114 0 0 0 0.058695 0.08241 1.0114 1.0114 0 0 0 0.067159 0.07562 1.0114 1.0114 0 0 0 0.073942 0.06942 1.0114 1.0114 0 0 0 0.080146 0.06096 1.0114 1.0114 0 0 0 0.086349 0.05305 1.0114 1.0114 0 0 0 0.090871 0.04403 1.0114 1.0114 0 0 0 0.094814 0.03443 1.0114 1.0114 0 0 0 0.098211 0.02484 1.0114 1.0114 0 0 0 0.099893 0.01524 1.0114 1.0114 0 0 0 0.10103 0.0051h4.9125a1.0114 1.0114 0 0 0 0.071681-0.0023 1.0114 1.0114 0 0 0 0.10046-0.01242 1.0114 1.0114 0 0 0 0.098211-0.02201 1.0114 1.0114 0 0 0 0.09595-0.03216 1.0114 1.0114 0 0 0 0.092564-0.0412 1.0114 1.0114 0 0 0 0.087485-0.05023 1.0114 1.0114 0 0 0 0.082406-0.0587 1.0114 1.0114 0 0 0 0.076192-0.0666 1.0114 1.0114 0 0 0 0.068852-0.0745 1.0114 1.0114 0 0 0 0.060956-0.08015 1.0114 1.0114 0 0 0 0.053059-0.08635 1.0114 1.0114 0 0 0 0.044027-0.09087 1.0114 1.0114 0 0 0 0.034426-0.09481 1.0114 1.0114 0 0 0 0.024837-0.09821 1.0114 1.0114 0 0 0 0.015236-0.09989 1.0114 1.0114 0 0 0 0.00513-0.10103v-7.2243a1.0114 1.0114 0 0 0-0.00229-0.071681 1.0114 1.0114 0 0 0-0.012418-0.10046 1.0114 1.0114 0 0 0-0.022008-0.098211 1.0114 1.0114 0 0 0-0.032176-0.09595 1.0114 1.0114 0 0 0-0.041198-0.092564 1.0114 1.0114 0 0 0-0.05023-0.087485 1.0114 1.0114 0 0 0-0.058695-0.082407 1.0114 1.0114 0 0 0-0.066602-0.075635 1.0114 1.0114 0 0 0-0.074499-0.06942 1.0114 1.0114 0 0 0-0.080146-0.060956 1.0114 1.0114 0 0 0-0.086349-0.053059 1.0114 1.0114 0 0 0-0.090871-0.044027 1.0114 1.0114 0 0 0-0.094814-0.034426 1.0114 1.0114 0 0 0-0.098211-0.024837 1.0114 1.0114 0 0 0-0.099893-0.015236 1.0114 1.0114 0 0 0-0.10103-0.00513z" fill="url(#linearGradient955)" stroke-width="1.0922"/>
 <g transform="matrix(1.0922 0 0 1.0922 92.938 39.203)" fill="#fff">
  <rect x="-81.218" y="-30.891" width="3.9522" height=".4911"/>
  <rect x="-81.218" y="-29.573" width="3.9522" height=".4911"/>
  <rect x="-81.218" y="-28.256" width="3.9522" height=".4911"/>
  <rect x="-81.218" y="-26.938" width="3.9522" height=".4911"/>
 </g>
</svg>
