<?xml version="1.0" encoding="UTF-8" standalone="no"?>
<svg
   xmlns:dc="http://purl.org/dc/elements/1.1/"
   xmlns:cc="http://creativecommons.org/ns#"
   xmlns:rdf="http://www.w3.org/1999/02/22-rdf-syntax-ns#"
   xmlns:svg="http://www.w3.org/2000/svg"
   xmlns="http://www.w3.org/2000/svg"
   xmlns:xlink="http://www.w3.org/1999/xlink"
   xmlns:sodipodi="http://sodipodi.sourceforge.net/DTD/sodipodi-0.dtd"
   xmlns:inkscape="http://www.inkscape.org/namespaces/inkscape"
   inkscape:version="1.0 (4035a4fb49, 2020-05-01)"
   sodipodi:docname="firefox.svg"
   id="svg211"
   viewBox="0 0 16.933 16.933"
   version="1.1"
   height="64"
   width="64">
  <sodipodi:namedview
     inkscape:current-layer="svg211"
     inkscape:window-maximized="1"
     inkscape:window-y="0"
     inkscape:window-x="0"
     inkscape:cy="35.108826"
     inkscape:cx="2.0227201"
     inkscape:zoom="6.375"
     showgrid="false"
     id="namedview213"
     inkscape:window-height="985"
     inkscape:window-width="1920"
     inkscape:pageshadow="2"
     inkscape:pageopacity="0"
     guidetolerance="10"
     gridtolerance="10"
     objecttolerance="10"
     borderopacity="1"
     bordercolor="#666666"
     pagecolor="#ffffff" />
  <defs
     id="defs149">
    <filter
       color-interpolation-filters="sRGB"
       height="1.048"
       width="1.048"
       y="-.024"
       x="-.024"
       id="filter2761">
      <feGaussianBlur
         id="feGaussianBlur2"
         stdDeviation="0.14552168" />
    </filter>
    <filter
       color-interpolation-filters="sRGB"
       height="1.1199"
       width="1.1201"
       y="-.059946"
       x="-.060054"
       id="filter924">
      <feGaussianBlur
         id="feGaussianBlur5"
         stdDeviation="0.2078715" />
    </filter>
    <linearGradient
       gradientUnits="userSpaceOnUse"
       gradientTransform="translate(-0.63144762,-282.645)"
       y2="295.6"
       y1="281.24"
       x2="1.3927"
       x1="15.752"
       id="linearGradient2645-5">
      <stop
         id="stop8"
         offset="0"
         stop-color="#ffdc32" />
      <stop
         id="stop10"
         offset="1"
         stop-color="#ff7832" />
    </linearGradient>
    <linearGradient
       gradientUnits="userSpaceOnUse"
       gradientTransform="matrix(.20505 0 0 .20505 .30193 .47639)"
       y2="74.468"
       y1="12.393"
       x2="6.447"
       x1="70.786"
       id="a-3">
      <stop
         id="stop13"
         offset=".048"
         stop-color="#fff44f" />
      <stop
         id="stop15"
         offset=".111"
         stop-color="#ffe847" />
      <stop
         id="stop17"
         offset=".225"
         stop-color="#ffc830" />
      <stop
         id="stop19"
         offset=".368"
         stop-color="#ff980e" />
      <stop
         id="stop21"
         offset=".401"
         stop-color="#ff8b16" />
      <stop
         id="stop23"
         offset=".462"
         stop-color="#ff672a" />
      <stop
         id="stop25"
         offset=".534"
         stop-color="#ff3647" />
      <stop
         id="stop27"
         offset=".705"
         stop-color="#e31587" />
    </linearGradient>
    <radialGradient
       gradientUnits="userSpaceOnUse"
       gradientTransform="matrix(.20505 0 0 .20505 1635.6 1748.4)"
       r="80.797"
       cy="-8515.1"
       cx="-7907.2"
       id="b-1">
      <stop
         id="stop30"
         offset=".129"
         stop-color="#ffbd4f" />
      <stop
         id="stop32"
         offset=".186"
         stop-color="#ffac31" />
      <stop
         id="stop34"
         offset=".247"
         stop-color="#ff9d17" />
      <stop
         id="stop36"
         offset=".283"
         stop-color="#ff980e" />
      <stop
         id="stop38"
         offset=".403"
         stop-color="#ff563b" />
      <stop
         id="stop40"
         offset=".467"
         stop-color="#ff3750" />
      <stop
         id="stop42"
         offset=".71"
         stop-color="#f5156c" />
      <stop
         id="stop44"
         offset=".782"
         stop-color="#eb0878" />
      <stop
         id="stop46"
         offset=".86"
         stop-color="#e50080" />
    </radialGradient>
    <radialGradient
       gradientUnits="userSpaceOnUse"
       gradientTransform="matrix(.20505 0 0 .20505 1635.6 1748.4)"
       r="80.797"
       cy="-8482.1"
       cx="-7936.7"
       id="c-6">
      <stop
         id="stop49"
         offset=".3"
         stop-color="#960e18" />
      <stop
         id="stop51"
         offset=".351"
         stop-opacity=".74"
         stop-color="#b11927" />
      <stop
         id="stop53"
         offset=".435"
         stop-opacity=".343"
         stop-color="#db293d" />
      <stop
         id="stop55"
         offset=".497"
         stop-opacity=".094"
         stop-color="#f5334b" />
      <stop
         id="stop57"
         offset=".53"
         stop-opacity="0"
         stop-color="#ff3750" />
    </radialGradient>
    <radialGradient
       gradientUnits="userSpaceOnUse"
       gradientTransform="matrix(.20505 0 0 .20505 1635.6 1748.4)"
       r="58.534"
       cy="-8533.5"
       cx="-7927"
       id="d-0">
      <stop
         id="stop60"
         offset=".132"
         stop-color="#fff44f" />
      <stop
         id="stop62"
         offset=".252"
         stop-color="#ffdc3e" />
      <stop
         id="stop64"
         offset=".506"
         stop-color="#ff9d12" />
      <stop
         id="stop66"
         offset=".526"
         stop-color="#ff980e" />
    </radialGradient>
    <radialGradient
       gradientUnits="userSpaceOnUse"
       gradientTransform="matrix(.20505 0 0 .20505 1635.6 1748.4)"
       r="27.676"
       cy="-8518.4"
       cx="-7937.7"
       id="g-9">
      <stop
         id="stop69"
         offset="0"
         stop-color="#ffe226" />
      <stop
         id="stop71"
         offset=".121"
         stop-color="#ffdb27" />
      <stop
         id="stop73"
         offset=".295"
         stop-color="#ffc82a" />
      <stop
         id="stop75"
         offset=".502"
         stop-color="#ffa930" />
      <stop
         id="stop77"
         offset=".732"
         stop-color="#ff7e37" />
      <stop
         id="stop79"
         offset=".792"
         stop-color="#ff7139" />
    </radialGradient>
    <radialGradient
       gradientUnits="userSpaceOnUse"
       gradientTransform="matrix(.20505 0 0 .20505 1635.6 1748.4)"
       r="118.08"
       cy="-8536"
       cx="-7916"
       id="h-97">
      <stop
         id="stop82"
         offset=".113"
         stop-color="#fff44f" />
      <stop
         id="stop84"
         offset=".456"
         stop-color="#ff980e" />
      <stop
         id="stop86"
         offset=".622"
         stop-color="#ff5634" />
      <stop
         id="stop88"
         offset=".716"
         stop-color="#ff3647" />
      <stop
         id="stop90"
         offset=".904"
         stop-color="#e31587" />
    </radialGradient>
    <radialGradient
       gradientUnits="userSpaceOnUse"
       gradientTransform="matrix(.021531 .20403 -.1339 .014149 -960.17 1737.4)"
       r="86.499"
       cy="-8522.9"
       cx="-7927.2"
       id="i-2">
      <stop
         id="stop93"
         offset="0"
         stop-color="#fff44f" />
      <stop
         id="stop95"
         offset=".06"
         stop-color="#ffe847" />
      <stop
         id="stop97"
         offset=".168"
         stop-color="#ffc830" />
      <stop
         id="stop99"
         offset=".304"
         stop-color="#ff980e" />
      <stop
         id="stop101"
         offset=".356"
         stop-color="#ff8b16" />
      <stop
         id="stop103"
         offset=".455"
         stop-color="#ff672a" />
      <stop
         id="stop105"
         offset=".57"
         stop-color="#ff3647" />
      <stop
         id="stop107"
         offset=".737"
         stop-color="#e31587" />
    </radialGradient>
    <radialGradient
       gradientUnits="userSpaceOnUse"
       gradientTransform="matrix(.20505 0 0 .20505 1635.6 1748.4)"
       r="73.72"
       cy="-8508.2"
       cx="-7938.4"
       id="j-9">
      <stop
         id="stop110"
         offset=".137"
         stop-color="#fff44f" />
      <stop
         id="stop112"
         offset=".48"
         stop-color="#ff980e" />
      <stop
         id="stop114"
         offset=".592"
         stop-color="#ff5634" />
      <stop
         id="stop116"
         offset=".655"
         stop-color="#ff3647" />
      <stop
         id="stop118"
         offset=".904"
         stop-color="#e31587" />
    </radialGradient>
    <radialGradient
       gradientUnits="userSpaceOnUse"
       gradientTransform="matrix(.20505 0 0 .20505 1635.6 1748.4)"
       r="80.686"
       cy="-8503.9"
       cx="-7918.9"
       id="k-3-4">
      <stop
         id="stop121"
         offset=".094"
         stop-color="#fff44f" />
      <stop
         id="stop123"
         offset=".231"
         stop-color="#ffe141" />
      <stop
         id="stop125"
         offset=".509"
         stop-color="#ffaf1e" />
      <stop
         id="stop127"
         offset=".626"
         stop-color="#ff980e" />
    </radialGradient>
    <linearGradient
       gradientUnits="userSpaceOnUse"
       gradientTransform="translate(-7.05e-5)"
       y2="4.0901"
       y1="13.003"
       x2="12.104"
       x1="6.8421"
       id="linearGradient3634">
      <stop
         id="stop130"
         offset="0"
         stop-color="#0014f0" />
      <stop
         id="stop132"
         offset=".55304"
         stop-color="#a032ff" />
      <stop
         id="stop134"
         offset="1"
         stop-color="#b432ff" />
    </linearGradient>
    <linearGradient
       gradientUnits="userSpaceOnUse"
       gradientTransform="matrix(.20505 0 0 .20505 .30193 .47639)"
       y2="66.806"
       y1="12.061"
       x2="15.267"
       x1="70.013"
       id="l-5-6">
      <stop
         id="stop137"
         offset=".167"
         stop-opacity=".8"
         stop-color="#fff44f" />
      <stop
         id="stop139"
         offset=".266"
         stop-opacity=".634"
         stop-color="#fff44f" />
      <stop
         id="stop141"
         offset=".489"
         stop-opacity=".217"
         stop-color="#fff44f" />
      <stop
         id="stop143"
         offset=".6"
         stop-opacity="0"
         stop-color="#fff44f" />
    </linearGradient>
    <filter
       color-interpolation-filters="sRGB"
       height="1.1181"
       width="1.122"
       y="-.059042"
       x="-.060989"
       id="filter1021">
      <feGaussianBlur
         id="feGaussianBlur146"
         stdDeviation="0.40340133" />
    </filter>
    <filter
       color-interpolation-filters="sRGB"
       height="1.048"
       width="1.048"
       y="-.024"
       x="-.024"
       id="filter2761-36">
      <feGaussianBlur
         id="feGaussianBlur2-7"
         stdDeviation="0.14552168" />
    </filter>
    <linearGradient
       gradientUnits="userSpaceOnUse"
       gradientTransform="translate(58.81987,-4.9486)"
       y2="16.321"
       y1="16.321"
       x2="-16.238"
       x1="-22.655"
       id="linearGradient1174">
      <stop
         id="stop5"
         offset="0"
         stop-color="#0a82f0" />
      <stop
         id="stop7"
         offset="1"
         stop-color="#3250e6" />
    </linearGradient>
    <filter
       inkscape:collect="always"
       style="color-interpolation-filters:sRGB"
       id="filter1052"
       x="-0.048"
       width="1.096"
       y="-0.048"
       height="1.096">
      <feGaussianBlur
         inkscape:collect="always"
         stdDeviation="0.29103594"
         id="feGaussianBlur1054" />
    </filter>
    <linearGradient
       inkscape:collect="always"
       xlink:href="#linearGradient1038"
       id="linearGradient1040"
       x1="37.040939"
       y1="15.874687"
       x2="51.592735"
       y2="1.3228906"
       gradientUnits="userSpaceOnUse"
       gradientTransform="translate(-35.850338,-0.1322889)" />
    <linearGradient
       inkscape:collect="always"
       id="linearGradient1038">
      <stop
         style="stop-color:#ff7832;stop-opacity:1"
         offset="0"
         id="stop1034" />
      <stop
         style="stop-color:#ffdc32;stop-opacity:1"
         offset="1"
         id="stop1036" />
    </linearGradient>
    <filter
       id="filter2761-3"
       x="-.024"
       y="-.024"
       width="1.048"
       height="1.048"
       color-interpolation-filters="sRGB">
      <feGaussianBlur
         stdDeviation="0.14552168"
         id="feGaussianBlur895" />
    </filter>
    <linearGradient
       id="linearGradient1195"
       x1="-9.2997"
       x2="-.93244"
       y1="32.176"
       y2="32.176"
       gradientTransform="translate(1.8475,-2.1749)"
       gradientUnits="userSpaceOnUse">
      <stop
         stop-color="#1478e6"
         offset="0"
         id="stop898" />
      <stop
         stop-color="#3c50e6"
         offset="1"
         id="stop900" />
    </linearGradient>
  </defs>
  <metadata
     id="metadata151">
    <rdf:RDF>
      <cc:Work
         rdf:about="">
        <dc:format>image/svg+xml</dc:format>
        <dc:type
           rdf:resource="http://purl.org/dc/dcmitype/StillImage" />
        <dc:title></dc:title>
      </cc:Work>
    </rdf:RDF>
  </metadata>
  <rect
     ry="3.4395156"
     y="1.1906016"
     x="1.1906018"
     height="14.551797"
     width="14.551797"
     id="rect1042"
     style="opacity:0.3;fill:#000000;fill-opacity:1;stroke-width:0.529156;stroke-linecap:round;filter:url(#filter1052)" />
  <rect
     style="fill:url(#linearGradient1040);fill-opacity:1;stroke-width:0.529156;stroke-linecap:round"
     id="rect1032"
     width="14.551797"
     height="14.551797"
     x="1.1906016"
     y="1.1906017"
     ry="3.4395156" />
  <g
     id="g185"
     stroke-width=".20505"
     filter="url(#filter1021)"
     fill="#ff7832"
     transform="matrix(.69344 0 0 .69344 2.5691 2.3135)">
    <path
       id="path163"
       d="m15.869 5.9767c-0.34531-0.83088-1.0457-1.7279-1.5943-2.0116a8.2567 8.2567 0 0 1 0.80483 2.4123l0.0015 0.013363c-0.8986-2.2402-2.4224-3.1435-3.6668-5.1103-0.06295-0.099451-0.12591-0.1991-0.18721-0.3043-0.03506-0.060038-0.06316-0.11422-0.08756-0.16404a1.4462 1.4462 0 0 1-0.11852-0.31476 0.020505 0.020505 0 0 0-0.01804-0.020529 0.028297 0.028297 0 0 0-0.01497 0c-0.0011 0-0.0027 0.001937-0.0039 0.001937-0.0013 4.0671e-4 -0.0039 0.001937-0.0057 0.002905l0.0031-0.00581c-1.9962 1.1688-2.6735 3.3325-2.7358 4.4148a3.9754 3.9754 0 0 0-2.1871 0.84298 2.376 2.376 0 0 0-0.20505-0.15543 3.6844 3.6844 0 0 1-0.022351-1.9425 5.8861 5.8861 0 0 0-1.913 1.4785h-0.003689c-0.31506-0.3983-0.29291-1.7148-0.27487-1.9897a1.4206 1.4206 0 0 0-0.26534 0.14087 5.7877 5.7877 0 0 0-0.77674 0.66541 6.94 6.94 0 0 0-0.74291 0.89137v9.684e-4 -9.684e-4a6.712 6.712 0 0 0-1.0663 2.4079l-0.010663 0.052485c-0.014969 0.069916-0.068898 0.42015-0.078125 0.49623 0 0.00581-0.001231 0.011524-0.001846 0.01743a7.5741 7.5741 0 0 0-0.12898 1.0956v0.040962a7.9477 7.9477 0 0 0 15.779 1.3439c0.01332-0.10253 0.0242-0.20403 0.03609-0.30758a8.1729 8.1729 0 0 0-0.5155-3.9922zm-9.1598 6.2209c0.037114 0.01782 0.071974 0.03709 0.11011 0.05413l0.00554 0.0039q-0.057826-0.02769-0.11565-0.05762zm1.8205-4.7934m6.5519-1.0117v-0.00775l0.0015 0.00872z" />
    <path
       id="path165"
       d="m15.869 5.9767c-0.34531-0.83088-1.0457-1.7279-1.5943-2.0116a8.2567 8.2567 0 0 1 0.80483 2.4123v0.00775l0.0015 0.00872a7.1974 7.1974 0 0 1-0.2473 5.3638c-0.91085 1.9543-3.1156 3.9575-6.5666 3.8602-3.7289-0.10561-7.0129-2.8726-7.6268-6.4967-0.11176-0.57149 0-0.86123 0.056185-1.3257a5.9211 5.9211 0 0 0-0.12779 1.0967v0.040962a7.9477 7.9477 0 0 0 15.779 1.3439c0.01333-0.10253 0.0242-0.20403 0.03609-0.30758a8.1729 8.1729 0 0 0-0.5155-3.9922z" />
    <path
       id="path167"
       d="m15.869 5.9767c-0.34531-0.83088-1.0457-1.7279-1.5943-2.0116a8.2567 8.2567 0 0 1 0.80483 2.4123v0.00775l0.0015 0.00872a7.1974 7.1974 0 0 1-0.2473 5.3638c-0.91085 1.9543-3.1156 3.9575-6.5666 3.8602-3.7289-0.10561-7.0129-2.8726-7.6268-6.4967-0.11176-0.57149 0-0.86123 0.056185-1.3257a5.9211 5.9211 0 0 0-0.12779 1.0967v0.040962a7.9477 7.9477 0 0 0 15.779 1.3439c0.01333-0.10253 0.0242-0.20403 0.03609-0.30758a8.1729 8.1729 0 0 0-0.5155-3.9922z" />
    <path
       id="path169"
       d="m12.007 6.9063c0.01723 0.012105 0.03321 0.024209 0.04942 0.036314a4.3266 4.3266 0 0 0-0.7382-0.96272c-2.4701-2.4705-0.64736-5.3567-0.33998-5.5033l0.0031-0.004842c-1.9962 1.1688-2.6735 3.3325-2.7358 4.4149 0.092685-0.00678 0.18455-0.014138 0.27928-0.014138a4.0109 4.0109 0 0 1 3.4822 2.0336z" />
    <path
       id="path171"
       d="m5.6877 5.4634c0.064387 0.040962 0.1175 0.076694 0.16404 0.10888a3.6844 3.6844 0 0 1-0.022351-1.9425 5.8861 5.8861 0 0 0-1.913 1.4785c0.038756-9.684e-4 1.1916-0.021691 1.7712 0.35516z" />
    <path
       id="path173"
       d="m0.64109 9.1142c0.61332 3.6241 3.8978 6.3912 7.6268 6.4967 3.451 0.0976 5.6558-1.9057 6.5666-3.8602a7.1974 7.1974 0 0 0 0.2473-5.3638v-0.00775c0-0.00581-0.0013-0.00968 0-0.00775l0.0015 0.013363c0.28195 1.8408-0.65433 3.6241-2.118 4.8301l-0.0046 0.01026c-2.8519 2.3226-5.5811 1.4013-6.1336 1.0253q-0.057826-0.02769-0.11565-0.05762c-1.6628-0.79478-2.3497-2.3097-2.2025-3.609a2.0409 2.0409 0 0 1-1.8826-1.1842 2.9975 2.9975 0 0 1 2.9218-0.1173 3.9576 3.9576 0 0 0 2.9839 0.1173c-0.00308-0.06459-1.3862-0.61516-1.9255-1.1462-0.2881-0.284-0.42487-0.42077-0.54606-0.52351a2.376 2.376 0 0 0-0.20505-0.15543c-0.047163-0.03215-0.10027-0.06701-0.16404-0.10888-0.57969-0.37689-1.7325-0.35617-1.7706-0.35515h-0.00369c-0.31494-0.39896-0.29279-1.7154-0.27475-1.9904a1.4206 1.4206 0 0 0-0.26534 0.14087 5.7877 5.7877 0 0 0-0.77674 0.6654 6.94 6.94 0 0 0-0.74599 0.88932v9.684e-4 -9.684e-4a6.712 6.712 0 0 0-1.0663 2.4079c-0.003896 0.016172-0.28626 1.2506-0.14703 1.8908z" />
    <path
       id="path175"
       d="m11.318 5.9864a4.3266 4.3266 0 0 1 0.7382 0.96375c0.04367 0.033021 0.08448 0.065848 0.11914 0.097601 1.8018 1.6609 0.85774 4.0088 0.78741 4.176 1.4637-1.2059 2.3991-2.9893 2.118-4.8301-0.89896-2.2413-2.4227-3.1445-3.6672-5.1114-0.06295-0.099451-0.12591-0.1991-0.18721-0.3043-0.03506-0.060038-0.06316-0.11422-0.08756-0.16404a1.4462 1.4462 0 0 1-0.11852-0.31476 0.020505 0.020505 0 0 0-0.01804-0.020529 0.028297 0.028297 0 0 0-0.01497 0c-0.0011 0-0.0027 0.001937-0.0039 0.001937-0.0013 4.0671e-4 -0.0039 0.001937-0.0057 0.002905-0.30736 0.14579-2.1301 3.0319 0.3404 5.5024z" />
    <path
       id="path177"
       d="m12.174 7.0419c-0.03466-0.031762-0.07545-0.06459-0.11914-0.097611-0.0162-0.012105-0.0322-0.024209-0.04941-0.036314a2.7437 2.7437 0 0 0-1.9162-0.46527c2.8585 1.4292 2.0916 6.3509-1.8699 6.1652a3.5341 3.5341 0 0 1-1.0341-0.1995q-0.11668-0.04367-0.23336-0.09558c-0.044907-0.02053-0.089813-0.04096-0.13411-0.06401l0.00554 0.0039c0.55242 0.37709 3.2809 1.2984 6.1336-1.0253l0.0046-0.01026c0.07116-0.16609 1.0152-2.5145-0.78741-4.1749z" />
    <path
       id="path179"
       d="m4.9472 9.6468s0.36684-1.3671 2.6268-1.3671c0.24422 0 0.94325-0.6818 0.95576-0.87947a3.9576 3.9576 0 0 1-2.9839-0.11729 2.9975 2.9975 0 0 0-2.9218 0.11729 2.0409 2.0409 0 0 0 1.8826 1.1842c-0.14723 1.2994 0.53971 2.8143 2.2025 3.609 0.037114 0.01782 0.071974 0.03709 0.11011 0.05413-0.97049-0.50135-1.7719-1.4495-1.8719-2.6007z" />
    <path
       id="path181"
       d="m8.5247 4.8735c-0.09433 0-0.18688 0.00756-0.27956 0.013952a3.9754 3.9754 0 0 0-2.1869 0.84283c0.12119 0.10252 0.2576 0.23947 0.54569 0.52347 0.53929 0.53129 1.9228 1.0821 1.9259 1.1467-0.01393 0.19813-0.71192 0.879-0.956 0.879-2.2599 0-2.6267 1.3673-2.6267 1.3673 0.10007 1.1512 0.90199 2.0992 1.8717 2.6008 0.04429 0.02295 0.08945 0.04374 0.13436 0.06408 0.07778 0.03447 0.15527 0.06635 0.23306 0.0956a3.5341 3.5341 0 0 0 1.0345 0.19947c3.9611 0.18578 4.728-4.7364 1.8696-6.1649a2.7437 2.7437 0 0 1 1.9161 0.46508 4.0109 4.0109 0 0 0-3.4819-2.0334z" />
    <path
       id="path183"
       d="m15.869 5.9767c-0.34531-0.83088-1.0457-1.7279-1.5943-2.0116a8.2567 8.2567 0 0 1 0.80483 2.4123l0.0015 0.013363c-0.8986-2.2402-2.4224-3.1435-3.6668-5.1103-0.06295-0.099451-0.12591-0.1991-0.18721-0.3043-0.03506-0.060038-0.06316-0.11422-0.08756-0.16404a1.4462 1.4462 0 0 1-0.11852-0.31476 0.020505 0.020505 0 0 0-0.01804-0.020529 0.028297 0.028297 0 0 0-0.01497 0c-0.0011 0-0.0027 0.001937-0.0039 0.001937-0.0013 4.0671e-4 -0.0039 0.001937-0.0057 0.002905l0.0031-0.00581c-1.9962 1.1688-2.6735 3.3325-2.7358 4.4148 0.092685-0.00678 0.18455-0.014138 0.27928-0.014138a4.0109 4.0109 0 0 1 3.4822 2.0336 2.7437 2.7437 0 0 0-1.9162-0.46527c2.8585 1.4292 2.0916 6.3509-1.8699 6.1652a3.5341 3.5341 0 0 1-1.0342-0.19859q-0.11668-0.04367-0.23336-0.09558c-0.044907-0.02053-0.089813-0.04096-0.13411-0.06401l0.00554 0.0039q-0.057826-0.02769-0.11565-0.05762c0.037114 0.01782 0.071974 0.03709 0.11011 0.05413-0.97049-0.50158-1.7719-1.4498-1.8719-2.6009 0 0 0.36684-1.3671 2.6268-1.3671 0.24422 0 0.94325-0.6818 0.95576-0.87947-0.00308-0.06459-1.3862-0.61516-1.9255-1.1462-0.2881-0.284-0.42487-0.42077-0.54606-0.52351a2.376 2.376 0 0 0-0.20505-0.15543 3.6844 3.6844 0 0 1-0.022351-1.9425 5.8861 5.8861 0 0 0-1.913 1.4785h-0.003689c-0.31497-0.39957-0.29282-1.716-0.27477-1.9909a1.4206 1.4206 0 0 0-0.26534 0.14087 5.7877 5.7877 0 0 0-0.77674 0.66541 6.94 6.94 0 0 0-0.74291 0.89137v9.683e-4 -9.683e-4a6.712 6.712 0 0 0-1.0663 2.4079l-0.010663 0.052485c-0.014969 0.069916-0.082022 0.42507-0.091659 0.50136a9.2467 9.2467 0 0 0-0.11729 1.1079v0.040962a7.9477 7.9477 0 0 0 15.779 1.3439c0.01333-0.10253 0.0242-0.20403 0.03609-0.30758a8.1729 8.1729 0 0 0-0.5155-3.9922zm-0.78844 0.40826 0.0015 0.00872z" />
  </g>
  <g
     id="g209"
     stroke-width=".20505"
     transform="matrix(.69344 0 0 .69344 2.5691 2.3135)">
    <path
       id="path187"
       fill="url(#a-3)"
       d="m15.869 5.9767c-0.34531-0.83088-1.0457-1.7279-1.5943-2.0116a8.2567 8.2567 0 0 1 0.80483 2.4123l0.0015 0.013363c-0.8986-2.2402-2.4224-3.1435-3.6668-5.1103-0.06295-0.099451-0.12591-0.1991-0.18721-0.3043-0.03506-0.060038-0.06316-0.11422-0.08756-0.16404a1.4462 1.4462 0 0 1-0.11852-0.31476 0.020505 0.020505 0 0 0-0.01804-0.020529 0.028297 0.028297 0 0 0-0.01497 0c-0.0011 0-0.0027 0.001937-0.0039 0.001937-0.0013 4.0671e-4 -0.0039 0.001937-0.0057 0.002905l0.0031-0.00581c-1.9962 1.1688-2.6735 3.3325-2.7358 4.4148a3.9754 3.9754 0 0 0-2.1871 0.84298 2.376 2.376 0 0 0-0.20505-0.15543 3.6844 3.6844 0 0 1-0.022351-1.9425 5.8861 5.8861 0 0 0-1.913 1.4785h-0.003689c-0.31506-0.3983-0.29291-1.7148-0.27487-1.9897a1.4206 1.4206 0 0 0-0.26534 0.14087 5.7877 5.7877 0 0 0-0.77674 0.66541 6.94 6.94 0 0 0-0.74291 0.89137v9.684e-4 -9.684e-4a6.712 6.712 0 0 0-1.0663 2.4079l-0.010663 0.052485c-0.014969 0.069916-0.068898 0.42015-0.078125 0.49623 0 0.00581-0.001231 0.011524-0.001846 0.01743a7.5741 7.5741 0 0 0-0.12898 1.0956v0.040962a7.9477 7.9477 0 0 0 15.779 1.3439c0.01332-0.10253 0.0242-0.20403 0.03609-0.30758a8.1729 8.1729 0 0 0-0.5155-3.9922zm-9.1598 6.2209c0.037114 0.01782 0.071974 0.03709 0.11011 0.05413l0.00554 0.0039q-0.057826-0.02769-0.11565-0.05762zm1.8205-4.7934m6.5519-1.0117v-0.00775l0.0015 0.00872z" />
    <path
       id="path189"
       fill="url(#b-1)"
       d="m15.869 5.9767c-0.34531-0.83088-1.0457-1.7279-1.5943-2.0116a8.2567 8.2567 0 0 1 0.80483 2.4123v0.00775l0.0015 0.00872a7.1974 7.1974 0 0 1-0.2473 5.3638c-0.91085 1.9543-3.1156 3.9575-6.5666 3.8602-3.7289-0.10561-7.0129-2.8726-7.6268-6.4967-0.11176-0.57149 0-0.86123 0.056185-1.3257a5.9211 5.9211 0 0 0-0.12779 1.0967v0.040962a7.9477 7.9477 0 0 0 15.779 1.3439c0.01333-0.10253 0.0242-0.20403 0.03609-0.30758a8.1729 8.1729 0 0 0-0.5155-3.9922z" />
    <path
       id="path191"
       fill="url(#c-6)"
       d="m15.869 5.9767c-0.34531-0.83088-1.0457-1.7279-1.5943-2.0116a8.2567 8.2567 0 0 1 0.80483 2.4123v0.00775l0.0015 0.00872a7.1974 7.1974 0 0 1-0.2473 5.3638c-0.91085 1.9543-3.1156 3.9575-6.5666 3.8602-3.7289-0.10561-7.0129-2.8726-7.6268-6.4967-0.11176-0.57149 0-0.86123 0.056185-1.3257a5.9211 5.9211 0 0 0-0.12779 1.0967v0.040962a7.9477 7.9477 0 0 0 15.779 1.3439c0.01333-0.10253 0.0242-0.20403 0.03609-0.30758a8.1729 8.1729 0 0 0-0.5155-3.9922z" />
    <path
       id="path193"
       fill="url(#d-0)"
       d="m12.007 6.9063c0.01723 0.012105 0.03321 0.024209 0.04942 0.036314a4.3266 4.3266 0 0 0-0.7382-0.96272c-2.4701-2.4705-0.64736-5.3567-0.33998-5.5033l0.0031-0.004842c-1.9962 1.1688-2.6735 3.3325-2.7358 4.4149 0.092685-0.00678 0.18455-0.014138 0.27928-0.014138a4.0109 4.0109 0 0 1 3.4822 2.0336z" />
    <path
       id="path195"
       fill="url(#g-9)"
       d="m5.6877 5.4634c0.064387 0.040962 0.1175 0.076694 0.16404 0.10888a3.6844 3.6844 0 0 1-0.022351-1.9425 5.8861 5.8861 0 0 0-1.913 1.4785c0.038756-9.684e-4 1.1916-0.021691 1.7712 0.35516z" />
    <path
       id="path197"
       fill="url(#h-97)"
       d="m0.64109 9.1142c0.61332 3.6241 3.8978 6.3912 7.6268 6.4967 3.451 0.0976 5.6558-1.9057 6.5666-3.8602a7.1974 7.1974 0 0 0 0.2473-5.3638v-0.00775c0-0.00581-0.0013-0.00968 0-0.00775l0.0015 0.013363c0.28195 1.8408-0.65433 3.6241-2.118 4.8301l-0.0046 0.01026c-2.8519 2.3226-5.5811 1.4013-6.1336 1.0253q-0.057826-0.02769-0.11565-0.05762c-1.6628-0.79478-2.3497-2.3097-2.2025-3.609a2.0409 2.0409 0 0 1-1.8826-1.1842 2.9975 2.9975 0 0 1 2.9218-0.1173 3.9576 3.9576 0 0 0 2.9839 0.1173c-0.00308-0.06459-1.3862-0.61516-1.9255-1.1462-0.2881-0.284-0.42487-0.42077-0.54606-0.52351a2.376 2.376 0 0 0-0.20505-0.15543c-0.047163-0.03215-0.10027-0.06701-0.16404-0.10888-0.57969-0.37689-1.7325-0.35617-1.7706-0.35515h-0.00369c-0.31494-0.39896-0.29279-1.7154-0.27475-1.9904a1.4206 1.4206 0 0 0-0.26534 0.14087 5.7877 5.7877 0 0 0-0.77674 0.6654 6.94 6.94 0 0 0-0.74599 0.88932v9.684e-4 -9.684e-4a6.712 6.712 0 0 0-1.0663 2.4079c-0.003896 0.016172-0.28626 1.2506-0.14703 1.8908z" />
    <path
       id="path199"
       fill="url(#i-2)"
       d="m11.318 5.9864a4.3266 4.3266 0 0 1 0.7382 0.96375c0.04367 0.033021 0.08448 0.065848 0.11914 0.097601 1.8018 1.6609 0.85774 4.0088 0.78741 4.176 1.4637-1.2059 2.3991-2.9893 2.118-4.8301-0.89896-2.2413-2.4227-3.1445-3.6672-5.1114-0.06295-0.099451-0.12591-0.1991-0.18721-0.3043-0.03506-0.060038-0.06316-0.11422-0.08756-0.16404a1.4462 1.4462 0 0 1-0.11852-0.31476 0.020505 0.020505 0 0 0-0.01804-0.020529 0.028297 0.028297 0 0 0-0.01497 0c-0.0011 0-0.0027 0.001937-0.0039 0.001937-0.0013 4.0671e-4 -0.0039 0.001937-0.0057 0.002905-0.30736 0.14579-2.1301 3.0319 0.3404 5.5024z" />
    <path
       id="path201"
       fill="url(#j-9)"
       d="m12.174 7.0419c-0.03466-0.031762-0.07545-0.06459-0.11914-0.097611-0.0162-0.012105-0.0322-0.024209-0.04941-0.036314a2.7437 2.7437 0 0 0-1.9162-0.46527c2.8585 1.4292 2.0916 6.3509-1.8699 6.1652a3.5341 3.5341 0 0 1-1.0341-0.1995q-0.11668-0.04367-0.23336-0.09558c-0.044907-0.02053-0.089813-0.04096-0.13411-0.06401l0.00554 0.0039c0.55242 0.37709 3.2809 1.2984 6.1336-1.0253l0.0046-0.01026c0.07116-0.16609 1.0152-2.5145-0.78741-4.1749z" />
    <path
       id="path203"
       fill="url(#k-3-4)"
       d="m4.9472 9.6468s0.36684-1.3671 2.6268-1.3671c0.24422 0 0.94325-0.6818 0.95576-0.87947a3.9576 3.9576 0 0 1-2.9839-0.11729 2.9975 2.9975 0 0 0-2.9218 0.11729 2.0409 2.0409 0 0 0 1.8826 1.1842c-0.14723 1.2994 0.53971 2.8143 2.2025 3.609 0.037114 0.01782 0.071974 0.03709 0.11011 0.05413-0.97049-0.50135-1.7719-1.4495-1.8719-2.6007z" />
    <path
       id="path205"
       fill="url(#linearGradient3634)"
       d="m8.5247 4.8735c-0.09433 0-0.18688 0.00756-0.27956 0.013952a3.9754 3.9754 0 0 0-2.1869 0.84283c0.12119 0.10252 0.2576 0.23947 0.54569 0.52347 0.53929 0.53129 1.9228 1.0821 1.9259 1.1467-0.01393 0.19813-0.71192 0.879-0.956 0.879-2.2599 0-2.6267 1.3673-2.6267 1.3673 0.10007 1.1512 0.90199 2.0992 1.8717 2.6008 0.04429 0.02295 0.08945 0.04374 0.13436 0.06408 0.07778 0.03447 0.15527 0.06635 0.23306 0.0956a3.5341 3.5341 0 0 0 1.0345 0.19947c3.9611 0.18578 4.728-4.7364 1.8696-6.1649a2.7437 2.7437 0 0 1 1.9161 0.46508 4.0109 4.0109 0 0 0-3.4819-2.0334z" />
    <path
       id="path207"
       fill="url(#l-5-6)"
       d="m15.869 5.9767c-0.34531-0.83088-1.0457-1.7279-1.5943-2.0116a8.2567 8.2567 0 0 1 0.80483 2.4123l0.0015 0.013363c-0.8986-2.2402-2.4224-3.1435-3.6668-5.1103-0.06295-0.099451-0.12591-0.1991-0.18721-0.3043-0.03506-0.060038-0.06316-0.11422-0.08756-0.16404a1.4462 1.4462 0 0 1-0.11852-0.31476 0.020505 0.020505 0 0 0-0.01804-0.020529 0.028297 0.028297 0 0 0-0.01497 0c-0.0011 0-0.0027 0.001937-0.0039 0.001937-0.0013 4.0671e-4 -0.0039 0.001937-0.0057 0.002905l0.0031-0.00581c-1.9962 1.1688-2.6735 3.3325-2.7358 4.4148 0.092685-0.00678 0.18455-0.014138 0.27928-0.014138a4.0109 4.0109 0 0 1 3.4822 2.0336 2.7437 2.7437 0 0 0-1.9162-0.46527c2.8585 1.4292 2.0916 6.3509-1.8699 6.1652a3.5341 3.5341 0 0 1-1.0342-0.19859q-0.11668-0.04367-0.23336-0.09558c-0.044907-0.02053-0.089813-0.04096-0.13411-0.06401l0.00554 0.0039q-0.057826-0.02769-0.11565-0.05762c0.037114 0.01782 0.071974 0.03709 0.11011 0.05413-0.97049-0.50158-1.7719-1.4498-1.8719-2.6009 0 0 0.36684-1.3671 2.6268-1.3671 0.24422 0 0.94325-0.6818 0.95576-0.87947-0.00308-0.06459-1.3862-0.61516-1.9255-1.1462-0.2881-0.284-0.42487-0.42077-0.54606-0.52351a2.376 2.376 0 0 0-0.20505-0.15543 3.6844 3.6844 0 0 1-0.022351-1.9425 5.8861 5.8861 0 0 0-1.913 1.4785h-0.003689c-0.31497-0.39957-0.29282-1.716-0.27477-1.9909a1.4206 1.4206 0 0 0-0.26534 0.14087 5.7877 5.7877 0 0 0-0.77674 0.66541 6.94 6.94 0 0 0-0.74291 0.89137v9.683e-4 -9.683e-4a6.712 6.712 0 0 0-1.0663 2.4079l-0.010663 0.052485c-0.014969 0.069916-0.082022 0.42507-0.091659 0.50136a9.2467 9.2467 0 0 0-0.11729 1.1079v0.040962a7.9477 7.9477 0 0 0 15.779 1.3439c0.01333-0.10253 0.0242-0.20403 0.03609-0.30758a8.1729 8.1729 0 0 0-0.5155-3.9922zm-0.78844 0.40826 0.0015 0.00872z" />
  </g>
</svg>
