<?xml version="1.0" encoding="UTF-8"?>
<svg width="64" height="64" version="1.1" xmlns="http://www.w3.org/2000/svg" xmlns:cc="http://creativecommons.org/ns#" xmlns:dc="http://purl.org/dc/elements/1.1/" xmlns:rdf="http://www.w3.org/1999/02/22-rdf-syntax-ns#">
 <metadata>
  <rdf:RDF>
   <cc:Work rdf:about="">
    <dc:format>image/svg+xml</dc:format>
    <dc:type rdf:resource="http://purl.org/dc/dcmitype/StillImage"/>
    <dc:title/>
   </cc:Work>
  </rdf:RDF>
 </metadata>
 <defs>
  <filter id="filter2761" x="-.024" y="-.024" width="1.048" height="1.048" color-interpolation-filters="sRGB">
   <feGaussianBlur stdDeviation="0.14552168"/>
  </filter>
  <linearGradient id="linearGradient872" x1="1.3941" x2="15.49" y1="15.429" y2="1.1724" gradientTransform="matrix(3.7796 0 0 3.7796 -.0032124 .53085)" gradientUnits="userSpaceOnUse">
   <stop stop-color="#ff3c69" offset="0"/>
   <stop stop-color="#ff462b" offset="1"/>
  </linearGradient>
  <filter id="filter883" x="-.041989" y="-.031506" width="1.084" height="1.063" color-interpolation-filters="sRGB">
   <feGaussianBlur stdDeviation="0.44518451"/>
  </filter>
 </defs>
 <path transform="matrix(3.7796 0 0 3.7796 -.0032124 .53085)" d="m10.709 1.05c4.405 0 5.0345 0.67282 5.0345 5.388v3.7761c0 4.7152-0.62954 5.388-5.0345 5.388h-4.4832c-4.405 0-5.0346-0.6728-5.0346-5.388v-3.7761c0-4.7152 0.62954-5.388 5.0346-5.388z" enable-background="new" fill="#141414" filter="url(#filter2761)" opacity=".3"/>
 <path d="m40.473 4.4994c16.649 0 19.028 2.543 19.028 20.364v14.272c0 17.822-2.3794 20.364-19.028 20.364h-16.945c-16.649 0-19.029-2.5429-19.029-20.364v-14.272c0-17.822 2.3794-20.364 19.029-20.364z" enable-background="new" fill="url(#linearGradient872)" stroke-width="3.7796"/>
 <path d="m44.723 15.089v6.8241c-6.3887 0.12156-8.2205 7.3046-8.2205 7.3046h5.3894v5.6538h-7.7965c-4.4947 14.786-14.818 14.079-14.818 14.079v-6.8241s6.5597 1.2975 9.9082-11.739c4.1852-16.299 15.537-15.333 15.537-15.333" filter="url(#filter883)" opacity=".25" stroke-width=".95648"/>
 <path d="m44.723 15.089v6.8241c-6.3887 0.12156-8.2205 7.3046-8.2205 7.3046h5.3894v5.6538h-7.7965c-4.4947 14.786-14.818 14.079-14.818 14.079v-6.8241s6.5597 1.2975 9.9082-11.739c4.1852-16.299 15.537-15.333 15.537-15.333" fill="#fff" stroke-width=".95648"/>
</svg>
