<?xml version="1.0" encoding="UTF-8"?>
<svg width="64" height="64" version="1.1" viewBox="0 0 16.933 16.933" xmlns="http://www.w3.org/2000/svg" xmlns:cc="http://creativecommons.org/ns#" xmlns:dc="http://purl.org/dc/elements/1.1/" xmlns:rdf="http://www.w3.org/1999/02/22-rdf-syntax-ns#" xmlns:xlink="http://www.w3.org/1999/xlink">
 <metadata>
  <rdf:RDF>
   <cc:Work rdf:about="">
    <dc:format>image/svg+xml</dc:format>
    <dc:type rdf:resource="http://purl.org/dc/dcmitype/StillImage"/>
    <dc:title/>
   </cc:Work>
  </rdf:RDF>
 </metadata>
 <defs>
  <filter id="filter2761" x="-.024" y="-.024" width="1.048" height="1.048" color-interpolation-filters="sRGB">
   <feGaussianBlur stdDeviation="0.14552168"/>
  </filter>
  <filter id="filter924" x="-.060054" y="-.059946" width="1.1201" height="1.1199" color-interpolation-filters="sRGB">
   <feGaussianBlur stdDeviation="0.2078715"/>
  </filter>
  <linearGradient id="linearGradient2645-37" x1="15.752" x2="1.3927" y1="281.24" y2="295.6" gradientTransform="translate(-.13196 -279.93)" gradientUnits="userSpaceOnUse">
   <stop stop-color="#ffdc32" offset="0"/>
   <stop stop-color="#ff7832" offset="1"/>
  </linearGradient>
 </defs>
 <circle cx="-241.13" cy="-354.85" r="0" fill="#5e4aa6" stroke-width=".26458"/>
 <circle cx="-357.9" cy="-328.38" r="0" fill="#5e4aa6" stroke-width=".26458"/>
 <path d="m10.708 1.1905c4.405 0 5.0345 0.67282 5.0345 5.388v3.7761c0 4.7152-0.62954 5.388-5.0345 5.388h-4.4832c-4.405 0-5.0346-0.6728-5.0346-5.388v-3.7761c0-4.7152 0.62954-5.388 5.0346-5.388z" enable-background="new" fill="#141414" filter="url(#filter2761)" opacity=".3"/>
 <g transform="matrix(1.3181 0 0 1.3181 -2.6297 -2.4991)" fill="#285ae6" filter="url(#filter924)">
  <path d="m11.198 11.399a4.1537 4.1537 0 0 1-2.7795 1.067 4.1537 4.1537 0 0 1-4.1537-4.1537 4.1537 4.1537 0 0 1 4.1537-4.1537 4.1537 4.1537 0 0 1 2.7795 1.0671"/>
  <circle cx="8.4188" cy="8.3271" r="4.1537" opacity=".2"/>
 </g>
 <path d="m10.708 1.1905c4.405 0 5.0345 0.67282 5.0345 5.388v3.7761c0 4.7152-0.62954 5.388-5.0345 5.388h-4.4832c-4.405 0-5.0346-0.6728-5.0346-5.388v-3.7761c0-4.7152 0.62954-5.388 5.0346-5.388z" enable-background="new" fill="url(#linearGradient2645-37)"/>
 <g transform="translate(-.18104 -.005135)" aria-label="S">
  <path d="m10.898 4.8621v1.018q-0.59427-0.28421-1.1214-0.42374-0.52709-0.13952-1.018-0.13952-0.85264 0-1.3177 0.33072-0.45991 0.33072-0.45991 0.94049 0 0.51159 0.30488 0.77513 0.31005 0.25838 1.1679 0.41857l0.63044 0.12919q1.1679 0.2222 1.7208 0.78547 0.55809 0.55809 0.55809 1.4986 0 1.1214-0.75446 1.7001-0.74929 0.57876-2.2014 0.57876-0.54776 0-1.1679-0.12402-0.61494-0.12402-1.2764-0.3669v-1.0748q0.63561 0.35656 1.2454 0.53742t1.1989 0.18086q0.89398 0 1.3797-0.35139 0.48575-0.35139 0.48575-1.0025 0-0.56843-0.35139-0.88882-0.34623-0.32039-1.142-0.48058l-0.63561-0.12402q-1.1679-0.23254-1.6898-0.72862t-0.52192-1.3797q0-1.0232 0.71829-1.6123 0.72346-0.5891 1.9895-0.5891 0.54259 0 1.1059 0.098183 0.56326 0.098183 1.1524 0.29455z" fill="#fff" stroke-width=".26458"/>
 </g>
</svg>
