<?xml version="1.0" encoding="UTF-8"?>
<svg width="64" height="64" version="1.1" viewBox="0 0 16.933 16.933" xmlns="http://www.w3.org/2000/svg" xmlns:cc="http://creativecommons.org/ns#" xmlns:dc="http://purl.org/dc/elements/1.1/" xmlns:rdf="http://www.w3.org/1999/02/22-rdf-syntax-ns#">
 <metadata>
  <rdf:RDF>
   <cc:Work rdf:about="">
    <dc:format>image/svg+xml</dc:format>
    <dc:type rdf:resource="http://purl.org/dc/dcmitype/StillImage"/>
    <dc:title/>
   </cc:Work>
  </rdf:RDF>
 </metadata>
 <defs>
  <filter id="filter2761" x="-.024" y="-.024" width="1.048" height="1.048" color-interpolation-filters="sRGB">
   <feGaussianBlur stdDeviation="0.14552168"/>
  </filter>
  <filter id="filter924" x="-.060054" y="-.059946" width="1.1201" height="1.1199" color-interpolation-filters="sRGB">
   <feGaussianBlur stdDeviation="0.2078715"/>
  </filter>
 </defs>
 <path d="m10.708 1.1905c4.405 0 5.0345 0.67282 5.0345 5.388v3.7761c0 4.7152-0.62954 5.388-5.0345 5.388h-4.4832c-4.405 0-5.0346-0.6728-5.0346-5.388v-3.7761c0-4.7152 0.62954-5.388 5.0346-5.388z" enable-background="new" fill="#141414" filter="url(#filter2761)" opacity=".3"/>
 <g transform="matrix(1.3181 0 0 1.3181 -2.6299 -2.4991)" fill="#285ae6" filter="url(#filter924)">
  <path d="m11.198 11.399a4.1537 4.1537 0 0 1-2.7795 1.067 4.1537 4.1537 0 0 1-4.1537-4.1537 4.1537 4.1537 0 0 1 4.1537-4.1537 4.1537 4.1537 0 0 1 2.7795 1.0671"/>
  <circle cx="8.4188" cy="8.3271" r="4.1537" opacity=".2"/>
 </g>
 <path d="m10.708 1.1905c4.405 0 5.0345 0.67282 5.0345 5.388v3.7761c0 4.7152-0.62954 5.388-5.0345 5.388h-4.4832c-4.405 0-5.0346-0.6728-5.0346-5.388v-3.7761c0-4.7152 0.62954-5.388 5.0346-5.388z" enable-background="new" fill="#fafafa"/>
 <g transform="translate(-2.0179 -279.91)" fill="#d35f5f" stroke-width=".26458">
  <path d="m7.9256 285.99c-0.08275 0-0.15368 0.0296-0.21279 0.0887-0.05826 0.0583-0.08784 0.1292-0.08784 0.21196 0 0.0828 0.02957 0.1537 0.08784 0.21197l0.91956 0.91956-0.91871 0.91871c-0.05911 0.0591-0.08864 0.13003-0.08949 0.21279 8.47e-4 0.0827 0.0304 0.1537 0.08867 0.21197 0.05911 0.0583 0.13002 0.0878 0.21193 0.0887 0.0836 0 0.15454-0.0296 0.21364-0.0887l1.0217-1.0226c0.21448-0.21364 0.21448-0.42815 0-0.64262l-1.0226-1.0226c-0.05855-0.0585-0.12918-0.0878-0.21193-0.0878z" style="paint-order:stroke markers fill"/>
  <rect x="7.0448" y="290.23" width="6.8792" height=".52917" rx=".26458" style="paint-order:stroke markers fill"/>
 </g>
</svg>
