<?xml version="1.0" encoding="UTF-8"?>
<svg width="64" height="64" version="1.1" viewBox="0 0 16.933 16.933" xmlns="http://www.w3.org/2000/svg" xmlns:cc="http://creativecommons.org/ns#" xmlns:dc="http://purl.org/dc/elements/1.1/" xmlns:rdf="http://www.w3.org/1999/02/22-rdf-syntax-ns#">
 <metadata>
  <rdf:RDF>
   <cc:Work rdf:about="">
    <dc:format>image/svg+xml</dc:format>
    <dc:type rdf:resource="http://purl.org/dc/dcmitype/StillImage"/>
    <dc:title/>
   </cc:Work>
  </rdf:RDF>
 </metadata>
 <defs>
  <style type="text/css"/>
  <style type="text/css"/>
  <style type="text/css"/>
  <style type="text/css"/>
  <filter id="filter2761-3" x="-.024" y="-.024" width="1.048" height="1.048" color-interpolation-filters="sRGB">
   <feGaussianBlur stdDeviation="0.14552168"/>
  </filter>
  <linearGradient id="linearGradient2645-3-6" x1="15.752" x2="1.3927" y1="281.24" y2="295.6" gradientTransform="translate(-.13206 -279.93)" gradientUnits="userSpaceOnUse">
   <stop stop-color="#0a82f0" offset="0"/>
   <stop stop-color="#3250e6" offset="1"/>
  </linearGradient>
  <style type="text/css"/>
 </defs>
 <g fill="#5e4aa6" stroke-width=".26458">
  <g transform="translate(117.78 -27.581)">
   <circle cx="-330.35" cy="-328.38" r="0"/>
   <circle cx="-299.17" cy="-337.27" r="0"/>
   <circle cx="-299.81" cy="-339.42" r="0"/>
   <circle cx="-302.25" cy="-338.13" r="0"/>
   <circle cx="-301.89" cy="-335.91" r="0"/>
   <circle cx="-304.76" cy="-351.05" r="0"/>
   <circle cx="-304.83" cy="-349.54" r="0"/>
   <circle cx="-359.94" cy="-336.91" r="0"/>
  </g>
  <circle cx="-330.35" cy="-328.38" r="0"/>
  <circle cx="-39.434" cy="6.44" r="0" fill-rule="evenodd"/>
 </g>
 <path d="m10.708 1.1905c4.405 0 5.0345 0.67282 5.0345 5.388v3.7761c0 4.7152-0.62954 5.388-5.0345 5.388h-4.4832c-4.405 0-5.0346-0.6728-5.0346-5.388v-3.7761c0-4.7152 0.62954-5.388 5.0346-5.388z" enable-background="new" fill="#141414" filter="url(#filter2761-3)" opacity=".3"/>
 <path d="m10.708 1.1905c4.405 0 5.0345 0.67282 5.0345 5.388v3.7761c0 4.7152-0.62954 5.388-5.0345 5.388h-4.4832c-4.405 0-5.0346-0.6728-5.0346-5.388v-3.7761c0-4.7152 0.62954-5.388 5.0346-5.388z" enable-background="new" fill="url(#linearGradient2645-3-6)"/>
 <path d="m5.6422 13.233v-8.0414h5.6487v8.0414zm1.3942-8.7067v-0.82694h2.8607v0.82694zm0.78197 2.5807-0.29328 2.2774h0.85249l-0.43347 1.9749 1.6673-2.2775h-0.77947l0.80039-1.9748z" fill="#e6f0f5" stroke-width=".0093102" p-id="7231"/>
</svg>
