<?xml version="1.0" encoding="UTF-8" standalone="no"?>
<svg
   xmlns:dc="http://purl.org/dc/elements/1.1/"
   xmlns:cc="http://creativecommons.org/ns#"
   xmlns:rdf="http://www.w3.org/1999/02/22-rdf-syntax-ns#"
   xmlns:svg="http://www.w3.org/2000/svg"
   xmlns="http://www.w3.org/2000/svg"
   xmlns:xlink="http://www.w3.org/1999/xlink"
   xmlns:sodipodi="http://sodipodi.sourceforge.net/DTD/sodipodi-0.dtd"
   xmlns:inkscape="http://www.inkscape.org/namespaces/inkscape"
   inkscape:version="1.0 (4035a4fb49, 2020-05-01)"
   sodipodi:docname="gnome-music.svg"
   id="svg38"
   viewBox="0 0 16.933 16.933"
   version="1.1"
   height="64"
   width="64">
  <sodipodi:namedview
     inkscape:current-layer="svg38"
     inkscape:window-maximized="1"
     inkscape:window-y="36"
     inkscape:window-x="0"
     inkscape:cy="43.805339"
     inkscape:cx="17.02653"
     inkscape:zoom="5.9609375"
     showgrid="false"
     id="namedview40"
     inkscape:window-height="932"
     inkscape:window-width="1920"
     inkscape:pageshadow="2"
     inkscape:pageopacity="0"
     guidetolerance="10"
     gridtolerance="10"
     objecttolerance="10"
     borderopacity="1"
     bordercolor="#666666"
     pagecolor="#ffffff" />
  <metadata
     id="metadata2">
    <rdf:RDF>
      <cc:Work
         rdf:about="">
        <dc:format>image/svg+xml</dc:format>
        <dc:type
           rdf:resource="http://purl.org/dc/dcmitype/StillImage" />
        <dc:title></dc:title>
      </cc:Work>
    </rdf:RDF>
  </metadata>
  <defs
     id="defs10">
    <filter
       color-interpolation-filters="sRGB"
       height="1.048"
       width="1.048"
       y="-.024"
       x="-.024"
       id="filter2761">
      <feGaussianBlur
         id="feGaussianBlur4"
         stdDeviation="0.14552168" />
    </filter>
    <filter
       color-interpolation-filters="sRGB"
       height="1.1219"
       width="1.1181"
       y="-.060963"
       x="-.059067"
       id="filter855">
      <feGaussianBlur
         id="feGaussianBlur7"
         stdDeviation="0.2154143" />
    </filter>
    <filter
       color-interpolation-filters="sRGB"
       height="1.048"
       width="1.048"
       y="-.024"
       x="-.024"
       id="filter2761-7">
      <feGaussianBlur
         id="feGaussianBlur4-5"
         stdDeviation="0.14552168" />
    </filter>
    <filter
       color-interpolation-filters="sRGB"
       height="1.1199"
       width="1.1201"
       y="-.059946"
       x="-.060054"
       id="filter924">
      <feGaussianBlur
         id="feGaussianBlur7-3"
         stdDeviation="0.2078715" />
    </filter>
    <filter
       color-interpolation-filters="sRGB"
       height="1.048"
       width="1.048"
       y="-.024"
       x="-.024"
       id="filter2761-367">
      <feGaussianBlur
         id="feGaussianBlur2"
         stdDeviation="0.14552168" />
    </filter>
    <filter
       color-interpolation-filters="sRGB"
       height="1.1199"
       width="1.1201"
       y="-.059946"
       x="-.060054"
       id="filter924-5">
      <feGaussianBlur
         id="feGaussianBlur5"
         stdDeviation="0.2078715" />
    </filter>
    <filter
       color-interpolation-filters="sRGB"
       height="1.048"
       width="1.048"
       y="-.024"
       x="-.024"
       id="filter2761-36">
      <feGaussianBlur
         id="feGaussianBlur2-7"
         stdDeviation="0.14552168" />
    </filter>
    <linearGradient
       gradientUnits="userSpaceOnUse"
       gradientTransform="translate(58.81987,-4.9486)"
       y2="16.321"
       y1="16.321"
       x2="-16.238"
       x1="-22.655"
       id="linearGradient1174">
      <stop
         id="stop5"
         offset="0"
         stop-color="#0a82f0" />
      <stop
         id="stop7"
         offset="1"
         stop-color="#3250e6" />
    </linearGradient>
    <filter
       inkscape:collect="always"
       style="color-interpolation-filters:sRGB"
       id="filter1052"
       x="-0.048"
       width="1.096"
       y="-0.048"
       height="1.096">
      <feGaussianBlur
         inkscape:collect="always"
         stdDeviation="0.29103594"
         id="feGaussianBlur1054" />
    </filter>
    <linearGradient
       inkscape:collect="always"
       xlink:href="#linearGradient1038"
       id="linearGradient1040"
       x1="37.040939"
       y1="15.874687"
       x2="51.592735"
       y2="1.3228906"
       gradientUnits="userSpaceOnUse"
       gradientTransform="translate(-35.850339,-0.13228906)" />
    <linearGradient
       inkscape:collect="always"
       id="linearGradient1038">
      <stop
         style="stop-color:#f5f5f5;stop-opacity:1"
         offset="0"
         id="stop1034" />
      <stop
         style="stop-color:#fafafa;stop-opacity:1"
         offset="1"
         id="stop1036" />
    </linearGradient>
    <filter
       id="filter2761-3"
       x="-.024"
       y="-.024"
       width="1.048"
       height="1.048"
       color-interpolation-filters="sRGB">
      <feGaussianBlur
         stdDeviation="0.14552168"
         id="feGaussianBlur895" />
    </filter>
    <linearGradient
       id="linearGradient1195"
       x1="-9.2997"
       x2="-.93244"
       y1="32.176"
       y2="32.176"
       gradientTransform="translate(1.8475,-2.1749)"
       gradientUnits="userSpaceOnUse">
      <stop
         stop-color="#1478e6"
         offset="0"
         id="stop898" />
      <stop
         stop-color="#3c50e6"
         offset="1"
         id="stop900" />
    </linearGradient>
  </defs>
  <rect
     style="opacity:0.3;fill:#000000;fill-opacity:1;stroke-width:0.529156;stroke-linecap:round;filter:url(#filter1052)"
     id="rect1042"
     width="14.551797"
     height="14.551797"
     x="1.1906018"
     y="1.1906018"
     ry="3.4395156" />
  <rect
     ry="3.4395156"
     y="1.1906016"
     x="1.1906016"
     height="14.551797"
     width="14.551797"
     id="rect1032"
     style="fill:url(#linearGradient1040);fill-opacity:1;stroke-width:0.529156;stroke-linecap:round" />
  <g
     transform="matrix(1.4186,0,0,1.4186,-7.9577498,-422.11955)"
     filter="url(#filter855)"
     id="g24">
    <g
       stroke-width="0.57432"
       id="g20">
      <path
         d="m 11.15,307.77 c 2.6769,-0.34724 5.3572,-3.7582 4.7049,-5.4512 -0.37742,-1.607 -5.0847,-4.1763 -6.9323,-2.4509 -2.5258,2.2658 -0.64776,8.1044 2.2273,7.9022 z"
         fill="#389cf4"
         id="path16" />
      <path
         d="m 7.5629,305.39 c 1.6391,2.1446 5.9332,2.7604 7.0734,1.349 1.2029,-1.1303 1.0744,-6.4916 -1.3436,-7.229 -3.2251,-1.0545 -7.3425,3.4912 -5.7298,5.88 z"
         fill="#dc28eb"
         opacity="0.8"
         id="path18" />
    </g>
    <path
       d="m 10.303,303.89 c 0,0.76057 0.01435,1.026 -0.47356,1.026 -0.48791,0 -0.87538,0.15785 -0.87538,0.60271 0,0.44485 0.45921,0.66011 0.74621,0.66011 0.28701,0 0.85385,-0.2009 0.85385,-0.80362 v -2.7265 l 2.4395,-0.56683 v 2.088 c 0,0 0.0287,0.25114 -0.29418,0.25114 -0.32287,0 -1.0332,-0.0933 -1.0332,0.58838 0,0.68162 0.68882,0.63858 0.79644,0.63858 0.10763,0 0.80362,-0.11479 0.80362,-0.92559 v -3.8316 l -2.9776,0.57402 z"
       fill="#ffffff"
       stroke-width="0.16674"
       id="path22" />
  </g>
  <g
     transform="matrix(1.4186,0,0,1.4186,-7.9577498,-422.11955)"
     id="g34">
    <g
       stroke-width="0.57432"
       id="g30">
      <path
         d="m 11.15,307.77 c 2.6769,-0.34724 5.3572,-3.7582 4.7049,-5.4512 -0.37742,-1.607 -5.0847,-4.1763 -6.9323,-2.4509 -2.5258,2.2658 -0.64776,8.1044 2.2273,7.9022 z"
         fill="#389cf4"
         id="path26" />
      <path
         d="m 7.5629,305.39 c 1.6391,2.1446 5.9332,2.7604 7.0734,1.349 1.2029,-1.1303 1.0744,-6.4916 -1.3436,-7.229 -3.2251,-1.0545 -7.3425,3.4912 -5.7298,5.88 z"
         fill="#dc28eb"
         opacity="0.8"
         id="path28" />
    </g>
    <path
       d="m 10.303,303.89 c 0,0.76057 0.01435,1.026 -0.47356,1.026 -0.48791,0 -0.87538,0.15785 -0.87538,0.60271 0,0.44485 0.45921,0.66011 0.74621,0.66011 0.28701,0 0.85385,-0.2009 0.85385,-0.80362 v -2.7265 l 2.4395,-0.56683 v 2.088 c 0,0 0.0287,0.25114 -0.29418,0.25114 -0.32287,0 -1.0332,-0.0933 -1.0332,0.58838 0,0.68162 0.68882,0.63858 0.79644,0.63858 0.10763,0 0.80362,-0.11479 0.80362,-0.92559 v -3.8316 l -2.9776,0.57402 z"
       fill="#ffffff"
       stroke-width="0.16674"
       id="path32" />
  </g>
</svg>
