<?xml version="1.0" encoding="UTF-8"?>
<svg width="64" height="64" version="1.1" viewBox="0 0 16.933 16.933" xmlns="http://www.w3.org/2000/svg" xmlns:cc="http://creativecommons.org/ns#" xmlns:dc="http://purl.org/dc/elements/1.1/" xmlns:rdf="http://www.w3.org/1999/02/22-rdf-syntax-ns#" xmlns:xlink="http://www.w3.org/1999/xlink">
 <metadata>
  <rdf:RDF>
   <cc:Work rdf:about="">
    <dc:format>image/svg+xml</dc:format>
    <dc:type rdf:resource="http://purl.org/dc/dcmitype/StillImage"/>
    <dc:title/>
   </cc:Work>
  </rdf:RDF>
 </metadata>
 <defs>
  <linearGradient id="linearGradient1270">
   <stop stop-color="#dd32ec" offset="0"/>
   <stop stop-color="#389cf4" offset="1"/>
  </linearGradient>
  <filter id="filter2761" x="-.024" y="-.024" width="1.048" height="1.048" color-interpolation-filters="sRGB">
   <feGaussianBlur stdDeviation="0.14552168"/>
  </filter>
  <filter id="filter855-1" x="-.059067" y="-.060963" width="1.1181" height="1.1219" color-interpolation-filters="sRGB">
   <feGaussianBlur stdDeviation="0.2154143"/>
  </filter>
  <linearGradient id="linearGradient1272" x1="-30.896" x2="-30.896" y1="29.611" y2="39.07" gradientUnits="userSpaceOnUse" xlink:href="#linearGradient1270"/>
 </defs>
 <path d="m24.897 24.22c0-0.39556 0.53948-0.34026 0.74623-0.21037l3.9819 2.5c0.4166 0.26158 0.4166 0.68308 0 0.94464l-3.9819 2.5c-0.20676 0.12974-0.74623 0.17761-0.74623-0.21064z" fill="#fff" style="paint-order:markers fill stroke"/>
 <circle cx="-330.35" cy="-328.38" r="0" fill="#5e4aa6" stroke-width=".26458"/>
 <g transform="translate(-.00084984 .14045)">
  <path d="m10.709 1.05c4.405 0 5.0345 0.67282 5.0345 5.388v3.7761c0 4.7152-0.62954 5.388-5.0345 5.388h-4.4832c-4.405 0-5.0346-0.6728-5.0346-5.388v-3.7761c0-4.7152 0.62954-5.388 5.0346-5.388z" enable-background="new" fill="#141414" filter="url(#filter2761)" opacity=".3"/>
  <path d="m10.709 1.05c4.405 0 5.0345 0.67282 5.0345 5.388v3.7761c0 4.7152-0.62954 5.388-5.0345 5.388h-4.4832c-4.405 0-5.0346-0.6728-5.0346-5.388v-3.7761c0-4.7152 0.62954-5.388 5.0346-5.388z" enable-background="new" fill="#fafafa"/>
  <g transform="matrix(1.4186,0,0,1.4186,-7.9569,-422.26)" filter="url(#filter855-1)">
   <g stroke-width=".57432">
    <path d="m11.15 307.77c2.6769-0.34724 5.3572-3.7582 4.7049-5.4512-0.37742-1.607-5.0847-4.1763-6.9323-2.4509-2.5258 2.2658-0.64776 8.1044 2.2273 7.9022z" fill="#389cf4"/>
    <path d="m7.5629 305.39c1.6391 2.1446 5.9332 2.7604 7.0734 1.349 1.2029-1.1303 1.0744-6.4916-1.3436-7.229-3.2251-1.0545-7.3425 3.4912-5.7298 5.88z" fill="#dc28eb" opacity=".8"/>
   </g>
   <path d="m10.303 303.89c0 0.76057 0.01435 1.026-0.47356 1.026s-0.87538 0.15785-0.87538 0.60271c0 0.44485 0.45921 0.66011 0.74621 0.66011 0.28701 0 0.85385-0.2009 0.85385-0.80362v-2.7265l2.4395-0.56683v2.088s0.0287 0.25114-0.29418 0.25114c-0.32287 0-1.0332-0.0933-1.0332 0.58838 0 0.68162 0.68882 0.63858 0.79644 0.63858 0.10763 0 0.80362-0.11479 0.80362-0.92559v-3.8316l-2.9776 0.57402z" fill="#fff" stroke-width=".16674"/>
  </g>
  <g transform="matrix(1.4186,0,0,1.4186,-7.9569,-422.26)" stroke-width=".57432">
   <path d="m11.15 307.77c2.6769-0.34724 5.3572-3.7582 4.7049-5.4512-0.37742-1.607-5.0847-4.1763-6.9323-2.4509-2.5258 2.2658-0.64776 8.1044 2.2273 7.9022z" fill="#389cf4"/>
   <path d="m7.5629 305.39c1.6391 2.1446 5.9332 2.7604 7.0734 1.349 1.2029-1.1303 1.0744-6.4916-1.3436-7.229-3.2251-1.0545-7.3425 3.4912-5.7298 5.88z" fill="#dc28eb" opacity=".8"/>
  </g>
  <g transform="translate(-18.123,-13.006)">
   <circle cx="26.591" cy="21.332" r="5.2044" fill="#fff"/>
   <g transform="translate(57.949,-12.877)" fill="url(#linearGradient1272)">
    <path d="m-34.602 32.704h0.3638v2.993h-0.3638z"/>
    <path d="m-35.282 33.365h0.3638v1.6702h-0.3638z"/>
    <path d="m-35.963 33.762h0.3638v0.87642h-0.3638z"/>
    <path d="m-33.921 33.134h0.3638v2.1332h-0.3638z"/>
    <path d="m-33.241 32.265h0.3638v3.8695h-0.3638z"/>
    <path d="m-32.56 31.356h0.3638v5.6884h-0.3638z"/>
    <path d="m-31.88 33.1h0.3638v2.1993h-0.3638z"/>
    <path d="m-31.2 31.356h0.36379v5.6884h-0.36379z"/>
    <path d="m-30.519 29.792h0.3638v8.8161h-0.3638z"/>
    <path d="m-29.839 30.996h0.3638v6.4073h-0.3638z"/>
    <path d="m-29.158 32.4h0.3638v3.6011h-0.3638z"/>
    <path d="m-28.478 33.475h0.3638v1.4496h-0.3638z"/>
    <path d="m-27.797 32.996h0.3638v2.4084h-0.3638z"/>
    <path d="m-27.117 33.627h0.3638v1.1456h-0.3638z"/>
   </g>
  </g>
 </g>
</svg>
