<?xml version="1.0" encoding="UTF-8"?>
<svg width="64" height="64" version="1.1" viewBox="0 0 16.933 16.933" xmlns="http://www.w3.org/2000/svg" xmlns:cc="http://creativecommons.org/ns#" xmlns:dc="http://purl.org/dc/elements/1.1/" xmlns:rdf="http://www.w3.org/1999/02/22-rdf-syntax-ns#" xmlns:xlink="http://www.w3.org/1999/xlink">
 <metadata>
  <rdf:RDF>
   <cc:Work rdf:about="">
    <dc:format>image/svg+xml</dc:format>
    <dc:type rdf:resource="http://purl.org/dc/dcmitype/StillImage"/>
    <dc:title/>
   </cc:Work>
  </rdf:RDF>
 </metadata>
 <defs>
  <clipPath id="SVGID_2_">
   <use width="100%" height="100%" xlink:href="#SVGID_1_"/>
  </clipPath>
  <rect id="SVGID_1_" x="247.79" y="352.04" width="99.69" height="99.8"/>
  <filter id="filter2761-3" x="-.024" y="-.024" width="1.048" height="1.048" color-interpolation-filters="sRGB">
   <feGaussianBlur stdDeviation="0.14552168"/>
  </filter>
  <filter id="filter924" x="-.060054" y="-.059946" width="1.1201" height="1.1199" color-interpolation-filters="sRGB">
   <feGaussianBlur stdDeviation="0.2078715"/>
  </filter>
  <linearGradient id="linearGradient2645-5" x1="15.752" x2="1.3927" y1="281.24" y2="295.6" gradientTransform="translate(-.13211 -279.93)" gradientUnits="userSpaceOnUse">
   <stop stop-color="#ffdc32" offset="0"/>
   <stop stop-color="#ff7832" offset="1"/>
  </linearGradient>
  <filter id="filter1245" x="-.036001" y="-.035999" width="1.072" height="1.072" color-interpolation-filters="sRGB">
   <feGaussianBlur stdDeviation="1.4940387"/>
  </filter>
 </defs>
 <circle cx="-355.54" cy="-328.51" r="0" fill="#5e4aa6" stroke-width=".26458"/>
 <circle cx="-64.626" cy="6.3115" r="0" fill="#5e4aa6" fill-rule="evenodd" stroke-width=".26458"/>
 <path d="m10.708 1.1905c4.405 0 5.0345 0.67282 5.0345 5.388v3.7761c0 4.7152-0.62954 5.388-5.0345 5.388h-4.4832c-4.405 0-5.0346-0.6728-5.0346-5.388v-3.7761c0-4.7152 0.62954-5.388 5.0346-5.388z" enable-background="new" fill="#141414" filter="url(#filter2761-3)" opacity=".3"/>
 <g transform="matrix(1.3181 0 0 1.3181 -2.6299 -2.4991)" fill="#285ae6" filter="url(#filter924)">
  <path d="m11.198 11.399a4.1537 4.1537 0 0 1-2.7795 1.067 4.1537 4.1537 0 0 1-4.1537-4.1537 4.1537 4.1537 0 0 1 4.1537-4.1537 4.1537 4.1537 0 0 1 2.7795 1.0671"/>
  <circle cx="8.4188" cy="8.3271" r="4.1537" opacity=".2"/>
 </g>
 <path d="m10.708 1.1905c4.405 0 5.0345 0.67282 5.0345 5.388v3.7761c0 4.7152-0.62954 5.388-5.0345 5.388h-4.4832c-4.405 0-5.0346-0.6728-5.0346-5.388v-3.7761c0-4.7152 0.62954-5.388 5.0346-5.388z" enable-background="new" fill="url(#linearGradient2645-5)"/>
 <path class="st0" transform="matrix(.085856 0 0 .085856 -17.083 -26.041)" d="m247.78 356.75v71.76c0 3.5 2.63 7.26 5.87 8.42l41.86 14.79v-84.42l-41.86-14.79c-3.24-1.16-5.87 0.74-5.87 4.24zm93.69-4.33-14.84 6.44v71.76c0 3.5-2.32 7.91-5.19 9.83l-11.41 7.75 31.44-11.36c3.28-1.12 5.91-4.83 5.91-8.33v-71.76c0.01-3.5-2.63-5.42-5.91-4.33zm-18.99 76.09v-71.76c0-3.5-2.32-4.75-5.19-2.83l-17.64 13.38v84.42l17.64-13.38c2.87-1.92 5.19-6.33 5.19-9.83z" clip-path="url(#SVGID_2_)" fill="#ff5050" filter="url(#filter1245)" opacity=".5"/>
 <path class="st0" transform="matrix(.085856 0 0 .085856 -17.083 -26.041)" d="m247.78 356.75v71.76c0 3.5 2.63 7.26 5.87 8.42l41.86 14.79v-84.42l-41.86-14.79c-3.24-1.16-5.87 0.74-5.87 4.24zm93.69-4.33-14.84 6.44v71.76c0 3.5-2.32 7.91-5.19 9.83l-11.41 7.75 31.44-11.36c3.28-1.12 5.91-4.83 5.91-8.33v-71.76c0.01-3.5-2.63-5.42-5.91-4.33zm-18.99 76.09v-71.76c0-3.5-2.32-4.75-5.19-2.83l-17.64 13.38v84.42l17.64-13.38c2.87-1.92 5.19-6.33 5.19-9.83z" clip-path="url(#SVGID_2_)" fill="#fff"/>
</svg>
