<?xml version="1.0" encoding="UTF-8" standalone="no"?>
<svg
   xmlns:dc="http://purl.org/dc/elements/1.1/"
   xmlns:cc="http://creativecommons.org/ns#"
   xmlns:rdf="http://www.w3.org/1999/02/22-rdf-syntax-ns#"
   xmlns:svg="http://www.w3.org/2000/svg"
   xmlns="http://www.w3.org/2000/svg"
   xmlns:xlink="http://www.w3.org/1999/xlink"
   xmlns:sodipodi="http://sodipodi.sourceforge.net/DTD/sodipodi-0.dtd"
   xmlns:inkscape="http://www.inkscape.org/namespaces/inkscape"
   inkscape:version="1.0 (4035a4fb49, 2020-05-01)"
   sodipodi:docname="inkscape.svg"
   id="svg29"
   viewBox="0 0 16.933 16.933"
   version="1.1"
   height="64"
   width="64">
  <sodipodi:namedview
     inkscape:current-layer="svg29"
     inkscape:window-maximized="1"
     inkscape:window-y="0"
     inkscape:window-x="0"
     inkscape:cy="49.640596"
     inkscape:cx="-17.023421"
     inkscape:zoom="4.5078057"
     showgrid="false"
     id="namedview31"
     inkscape:window-height="985"
     inkscape:window-width="1920"
     inkscape:pageshadow="2"
     inkscape:pageopacity="0"
     guidetolerance="10"
     gridtolerance="10"
     objecttolerance="10"
     borderopacity="1"
     bordercolor="#666666"
     pagecolor="#ffffff" />
  <defs
     id="defs11">
    <filter
       color-interpolation-filters="sRGB"
       height="1.048"
       width="1.048"
       y="-.024"
       x="-.024"
       id="filter2761">
      <feGaussianBlur
         id="feGaussianBlur2"
         stdDeviation="0.14552168" />
    </filter>
    <filter
       color-interpolation-filters="sRGB"
       height="1.1199"
       width="1.1201"
       y="-.059946"
       x="-.060054"
       id="filter924">
      <feGaussianBlur
         id="feGaussianBlur5"
         stdDeviation="0.2078715" />
    </filter>
    <filter
       color-interpolation-filters="sRGB"
       height="1.1208"
       width="1.1192"
       y="-.0604"
       x="-.059605"
       id="filter852">
      <feGaussianBlur
         id="feGaussianBlur8"
         stdDeviation="0.23538182" />
    </filter>
    <filter
       color-interpolation-filters="sRGB"
       height="1.048"
       width="1.048"
       y="-.024"
       x="-.024"
       id="filter2761-36">
      <feGaussianBlur
         id="feGaussianBlur2-7"
         stdDeviation="0.14552168" />
    </filter>
    <linearGradient
       gradientUnits="userSpaceOnUse"
       gradientTransform="translate(58.81987,-4.9486)"
       y2="16.321"
       y1="16.321"
       x2="-16.238"
       x1="-22.655"
       id="linearGradient1174">
      <stop
         id="stop5"
         offset="0"
         stop-color="#0a82f0" />
      <stop
         id="stop7"
         offset="1"
         stop-color="#3250e6" />
    </linearGradient>
    <filter
       inkscape:collect="always"
       style="color-interpolation-filters:sRGB"
       id="filter1052"
       x="-0.048"
       width="1.096"
       y="-0.048"
       height="1.096">
      <feGaussianBlur
         inkscape:collect="always"
         stdDeviation="0.29103594"
         id="feGaussianBlur1054" />
    </filter>
    <linearGradient
       inkscape:collect="always"
       xlink:href="#linearGradient1038"
       id="linearGradient1040"
       x1="37.040939"
       y1="15.874687"
       x2="51.592735"
       y2="1.3228906"
       gradientUnits="userSpaceOnUse"
       gradientTransform="translate(-35.850338,-0.1322889)" />
    <linearGradient
       inkscape:collect="always"
       id="linearGradient1038">
      <stop
         style="stop-color:#f5f5f5;stop-opacity:1"
         offset="0"
         id="stop1034" />
      <stop
         style="stop-color:#fafafa;stop-opacity:1"
         offset="1"
         id="stop1036" />
    </linearGradient>
    <filter
       id="filter2761-3"
       x="-.024"
       y="-.024"
       width="1.048"
       height="1.048"
       color-interpolation-filters="sRGB">
      <feGaussianBlur
         stdDeviation="0.14552168"
         id="feGaussianBlur895" />
    </filter>
    <linearGradient
       id="linearGradient1195"
       x1="-9.2997"
       x2="-.93244"
       y1="32.176"
       y2="32.176"
       gradientTransform="translate(1.8475,-2.1749)"
       gradientUnits="userSpaceOnUse">
      <stop
         stop-color="#1478e6"
         offset="0"
         id="stop898" />
      <stop
         stop-color="#3c50e6"
         offset="1"
         id="stop900" />
    </linearGradient>
  </defs>
  <metadata
     id="metadata13">
    <rdf:RDF>
      <cc:Work
         rdf:about="">
        <dc:format>image/svg+xml</dc:format>
        <dc:type
           rdf:resource="http://purl.org/dc/dcmitype/StillImage" />
        <dc:title></dc:title>
      </cc:Work>
    </rdf:RDF>
  </metadata>
  <rect
     ry="3.4395156"
     y="1.1906016"
     x="1.1906018"
     height="14.551797"
     width="14.551797"
     id="rect1042"
     style="opacity:0.3;fill:#000000;fill-opacity:1;stroke-width:0.529156;stroke-linecap:round;filter:url(#filter1052)" />
  <rect
     style="fill:url(#linearGradient1040);fill-opacity:1;stroke-width:0.529156;stroke-linecap:round"
     id="rect1032"
     width="14.551797"
     height="14.551797"
     x="1.1906016"
     y="1.1906017"
     ry="3.4395156" />
  <path
     id="path25"
     stroke-width=".93192"
     opacity=".8"
     filter="url(#filter852)"
     d="m8.3878 3.6496c-0.29307-5.821e-4 -0.58445 0.10597-0.79477 0.32125l-3.4985 3.5803c-1.1823 1.4641 0.80466 1.2941 1.6564 1.7158 0.30554 0.31231-1.1709 0.54162-0.86533 0.85419 0.30554 0.31231 1.8461 0.60131 2.1521 0.91361 0.30554 0.31231-0.62491 0.64404-0.3194 0.95632 0.30554 0.31231 1.0116 0.01623 1.1439 0.73719 0.09429 0.51521 1.2747 0.2214 1.8513-0.20055 0.30553-0.31255-0.58408-0.28191-0.27855-0.59422 0.75976-0.77699 1.467-0.28363 1.727-1.0622 0.12841-0.3847-1.1194-0.59202-0.81334-0.90433 0.87909-0.51339 3.9171-0.84789 2.4753-2.2896l-3.6266-3.7065c-0.22179-0.21293-0.51654-0.32067-0.80964-0.32125zm0.02971 0.33982c0.20926 0.00111 0.41806 0.080003 0.56821 0.23211l1.3853 1.4057c0.13128 0.13414 0.12916 0.39319 0.05571 0.46793l-0.68706-0.54966-0.13556 0.81519-0.57379-0.30268-0.92105 0.57937-0.30453-1.2237-0.49394 0.85419h-0.75392c-0.30789 0-0.34474-0.3906-0.06499-0.67034 0.48865-0.52744 1.049-1.0645 1.3537-1.376 0.15315-0.15654 0.36268-0.23323 0.57194-0.23211zm-1.6619 5.4704c0.09351 0.058083 1.5076 0.34564 1.8532 0.40295 0.11981 0.02527 0.03515 0.14877-0.12998 0.23211-0.37247 0.09898-2.1791-0.63507-1.7233-0.63507zm5.5003 0.98418c-0.28455 0.0098-0.56514 0.15452-0.6425 0.42711 0 0.17764 1.3073 0.29516 1.3073-0.04085-0.09325-0.26984-0.38022-0.39605-0.66478-0.38623zm-6.0017 0.76876c-0.4102-0.0038-0.89049 0.29704-0.53664 0.6035 0.30995 0.26802 0.78866-0.06792 0.93219-0.44195-0.08446-0.11223-0.23502-0.16006-0.39554-0.16155zm5.1937 0.02414c-0.39954 0.3584 0.04441 0.7218 0.43822 0.49024 0.08778-0.08908-2e-3 -0.40115-0.43822-0.49024z" />
  <path
     id="path27"
     stroke-width=".93192"
     fill="#333"
     d="m8.3878 3.6496c-0.29307-5.821e-4 -0.58445 0.10597-0.79477 0.32125l-3.4985 3.5803c-1.1823 1.4641 0.80466 1.2941 1.6564 1.7158 0.30554 0.31231-1.1709 0.54162-0.86533 0.85419 0.30554 0.31231 1.8461 0.60131 2.1521 0.91361 0.30554 0.31231-0.62491 0.64404-0.3194 0.95632 0.30554 0.31231 1.0116 0.01623 1.1439 0.73719 0.09429 0.51521 1.2747 0.2214 1.8513-0.20055 0.30553-0.31255-0.58408-0.28191-0.27855-0.59422 0.75976-0.77699 1.467-0.28363 1.727-1.0622 0.12841-0.3847-1.1194-0.59202-0.81334-0.90433 0.87909-0.51339 3.9171-0.84789 2.4753-2.2896l-3.6266-3.7065c-0.22179-0.21293-0.51654-0.32067-0.80964-0.32125zm0.02971 0.33982c0.20926 0.00111 0.41806 0.080003 0.56821 0.23211l1.3853 1.4057c0.13128 0.13414 0.12916 0.39319 0.05571 0.46793l-0.68706-0.54966-0.13556 0.81519-0.57379-0.30268-0.92105 0.57937-0.30453-1.2237-0.49394 0.85419h-0.75392c-0.30789 0-0.34474-0.3906-0.06499-0.67034 0.48865-0.52744 1.049-1.0645 1.3537-1.376 0.15315-0.15654 0.36268-0.23323 0.57194-0.23211zm-1.6619 5.4704c0.09351 0.058083 1.5076 0.34564 1.8532 0.40295 0.11981 0.02527 0.03515 0.14877-0.12998 0.23211-0.37247 0.09898-2.1791-0.63507-1.7233-0.63507zm5.5003 0.98418c-0.28455 0.0098-0.56514 0.15452-0.6425 0.42711 0 0.17764 1.3073 0.29516 1.3073-0.04085-0.09325-0.26984-0.38022-0.39605-0.66478-0.38623zm-6.0017 0.76876c-0.4102-0.0038-0.89049 0.29704-0.53664 0.6035 0.30995 0.26802 0.78866-0.06792 0.93219-0.44195-0.08446-0.11223-0.23502-0.16006-0.39554-0.16155zm5.1937 0.02414c-0.39954 0.3584 0.04441 0.7218 0.43822 0.49024 0.08778-0.08908-2e-3 -0.40115-0.43822-0.49024z" />
</svg>
