<?xml version="1.0" encoding="UTF-8"?>
<svg width="64" height="64" version="1.1" xmlns="http://www.w3.org/2000/svg" xmlns:cc="http://creativecommons.org/ns#" xmlns:dc="http://purl.org/dc/elements/1.1/" xmlns:rdf="http://www.w3.org/1999/02/22-rdf-syntax-ns#" xmlns:xlink="http://www.w3.org/1999/xlink">
 <metadata>
  <rdf:RDF>
   <cc:Work rdf:about="">
    <dc:format>image/svg+xml</dc:format>
    <dc:type rdf:resource="http://purl.org/dc/dcmitype/StillImage"/>
    <dc:title/>
   </cc:Work>
  </rdf:RDF>
 </metadata>
 <defs>
  <linearGradient id="j" x1="756" x2="756" y1="-860.64" y2="-876.64" gradientTransform="matrix(1.3636 0 0 1.3636 -1098.9 1215.4)" gradientUnits="userSpaceOnUse">
   <stop stop-color="#d36118" offset="0"/>
   <stop stop-color="#f09e6f" offset="1"/>
  </linearGradient>
  <linearGradient id="l" x1="812" x2="812" y1="-1075.6" y2="-1115.6" gradientTransform="matrix(.5 0 0 .54998 -471.56 633.59)" gradientUnits="userSpaceOnUse">
   <stop stop-color="#ebad00" offset="0"/>
   <stop stop-color="#ff633a" offset="1"/>
  </linearGradient>
  <linearGradient id="p" x1="523" x2="523" y1="-1064.6" y2="-1088.6" gradientTransform="matrix(.28571 0 0 .41667 -224.99 481.6)" gradientUnits="userSpaceOnUse">
   <stop stop-color="#b3b3b3" offset="0"/>
   <stop stop-color="#e6e6e6" offset="1"/>
  </linearGradient>
  <linearGradient id="q" x1="714" x2="714" y1="-1063.6" y2="-1083.6" gradientTransform="matrix(.25641 0 0 .5 -258.64 569.82)" gradientUnits="userSpaceOnUse">
   <stop stop-color="#fff" stop-opacity=".58824" offset="0"/>
   <stop stop-color="#fff" stop-opacity=".86274" offset="1"/>
  </linearGradient>
  <linearGradient id="r" x1="889" x2="881.77" y1="-1054.6" y2="-1044.6" gradientTransform="matrix(.64237 0 0 .63876 -640.65 704.24)" gradientUnits="userSpaceOnUse">
   <stop stop-color="#18a303" offset="0"/>
   <stop stop-color="#106802" offset="1"/>
  </linearGradient>
  <filter id="filter2761-3" x="-.024" y="-.024" width="1.048" height="1.048" color-interpolation-filters="sRGB">
   <feGaussianBlur stdDeviation="0.14552168"/>
  </filter>
  <linearGradient id="linearGradient2645-37" x1="1.402" x2="15.868" y1="295.63" y2="281.16" gradientTransform="matrix(3.7796 0 0 3.7796 -.49875 -1058)" gradientUnits="userSpaceOnUse">
   <stop stop-color="#ffdc32" offset="0"/>
   <stop stop-color="#ff7832" offset="1"/>
  </linearGradient>
  <linearGradient id="linearGradient986" x1="399.57" x2="399.57" y1="545.8" y2="517.8" gradientTransform="matrix(2.1429,0,0,2.1429,-826.36,-1107.5)" gradientUnits="userSpaceOnUse">
   <stop stop-color="#3889e9" offset="0"/>
   <stop stop-color="#5ea5fb" offset="1"/>
  </linearGradient>
 </defs>
 <circle cx="32.02" cy="32.044" r="0" fill="url(#linearGradient986)" stroke-width="1.5715"/>
 <path transform="matrix(3.7796 0 0 3.7796 -.0031954 .53086)" d="m10.709 1.05c4.405 0 5.0345 0.67282 5.0345 5.388v3.7761c0 4.7152-0.62954 5.388-5.0345 5.388h-4.4832c-4.405 0-5.0346-0.6728-5.0346-5.388v-3.7761c0-4.7152 0.62954-5.388 5.0346-5.388z" enable-background="new" fill="#141414" filter="url(#filter2761-3)" opacity=".3"/>
 <path d="m40.473 4.4994c16.649 0 19.028 2.543 19.028 20.364v14.272c0 17.822-2.3794 20.364-19.028 20.364h-16.945c-16.649 0-19.029-2.5429-19.029-20.364v-14.272c0-17.822 2.3794-20.364 19.029-20.364z" enable-background="new" fill="url(#linearGradient2645-37)" stroke-width="3.7796"/>
 <path d="m25.068 9.5c-13.622 0-15.568 2.081-15.568 16.662v11.676c0 14.58 1.9469 16.662 15.568 16.662h13.863c13.621 0 15.568-2.081 15.568-16.662v-10.549l-17.789-17.789h-11.643zm17.98 0.099609 11.314 11.316c-0.53152-8.5717-2.9296-10.869-11.314-11.316z" enable-background="new" fill="#fff" stroke-width="3.0923"/>
 <circle cx="-1275.8" cy="-1257.1" r="0" fill="#5e4aa6"/>
 <g transform="translate(109.56 -1)">
  <path d="m-76.547 39-1.4844 1.4844-0.53906-0.48438h-2.5703l1.7617 1.8301-0.16992 0.16992h-1.0098v1.0098l-5.9922 5.9902h3.9023l4.3359-5h1.0254l4.8184 5h3.9023l-5.9922-5.3906v-1.6094h-1.7891l-0.12891-0.11719 2.5-2.8828h-2.5703z" opacity=".5"/>
  <path d="m-91.195 20h24.732c0.75545 0 3.9044 3.2446 3.9044 4v16.455c0 0.75545-0.60819 1.3636-1.3636 1.3636h-27.273c-0.75545 0-1.3636-0.60819-1.3636-1.3636v-19.091c0-0.75545 0.60819-1.3636 1.3636-1.3636z" fill="url(#j)"/>
  <path d="m-91.195 20h24.732c0.75545 0 3.9044 3.2716 3.9044 4.0333v16.592c0 0.76173-0.60819 1.3749-1.3636 1.3749h-27.273c-0.75545 0-1.3636-0.61323-1.3636-1.3749v-19.25c0-0.76173 0.60819-1.3749 1.3636-1.3749z" fill="url(#l)"/>
  <g transform="translate(-109.56)" fill="#fff">
   <rect x="20" y="23" width="24" height="3" opacity=".35"/>
   <rect x="24" y="28" width="8" height="2" opacity=".35"/>
   <circle cx="21" cy="29" r="1" opacity=".35"/>
   <rect x="24" y="32" width="8" height="2" opacity=".35"/>
   <circle cx="21" cy="33" r="1" opacity=".35"/>
   <rect x="24" y="36" width="8" height="1.9999" opacity=".35"/>
   <circle cx="21" cy="37" r="1" opacity=".35"/>
  </g>
  <rect x="-75.559" y="28" width="10" height="10" fill="url(#p)"/>
  <rect x="-75.559" y="28" width="10" height="10" fill="url(#q)"/>
  <path d="m-73.559 36.353 2-4 2.6667 1.3333 2-4" fill="none" stroke="url(#r)" stroke-linecap="round" stroke-linejoin="round"/>
 </g>
</svg>
