<?xml version="1.0" encoding="UTF-8"?>
<svg width="64" height="64" version="1.1" xmlns="http://www.w3.org/2000/svg" xmlns:cc="http://creativecommons.org/ns#" xmlns:dc="http://purl.org/dc/elements/1.1/" xmlns:rdf="http://www.w3.org/1999/02/22-rdf-syntax-ns#" xmlns:xlink="http://www.w3.org/1999/xlink">
 <metadata>
  <rdf:RDF>
   <cc:Work rdf:about="">
    <dc:format>image/svg+xml</dc:format>
    <dc:type rdf:resource="http://purl.org/dc/dcmitype/StillImage"/>
    <dc:title/>
   </cc:Work>
  </rdf:RDF>
 </metadata>
 <defs>
  <filter id="filter2761-3" x="-.024" y="-.024" width="1.048" height="1.048" color-interpolation-filters="sRGB">
   <feGaussianBlur stdDeviation="0.14552168"/>
  </filter>
  <linearGradient id="linearGradient942" x1="399.57" x2="399.57" y1="545.8" y2="517.8" gradientTransform="matrix(2.1429 0 0 2.1429 -682.73 -1154.5)" gradientUnits="userSpaceOnUse">
   <stop stop-color="#3889e9" offset="0"/>
   <stop stop-color="#5ea5fb" offset="1"/>
  </linearGradient>
  <linearGradient id="b-6" x1="399.57" x2="399.57" y1="545.8" y2="517.8" gradientTransform="matrix(2.1429 0 0 2.1429 -878.7 -1171.4)" gradientUnits="userSpaceOnUse">
   <stop stop-color="#3889e9" offset="0"/>
   <stop stop-color="#5ea5fb" offset="1"/>
  </linearGradient>
  <linearGradient id="linearGradient2645-3-7" x1="15.752" x2="1.3927" y1="281.24" y2="295.6" gradientTransform="matrix(3.7796 0 0 3.7796 -.49758 -1058)" gradientUnits="userSpaceOnUse">
   <stop stop-color="#2ecc85" offset="0"/>
   <stop stop-color="#16a085" offset="1"/>
  </linearGradient>
  <linearGradient id="linearGradient1068" x1="43.5" x2="15.5" y1="20.618" y2="46.618" gradientUnits="userSpaceOnUse" xlink:href="#linearGradient2645-3-7"/>
 </defs>
 <circle cx="175.65" cy="-14.915" r="0" fill="url(#linearGradient942)" stroke-width="1.5715"/>
 <path transform="matrix(3.7796 0 0 3.7796 -.0032 .53086)" d="m10.709 1.05c4.405 0 5.0345 0.67282 5.0345 5.388v3.7761c0 4.7152-0.62954 5.388-5.0345 5.388h-4.4832c-4.405 0-5.0346-0.6728-5.0346-5.388v-3.7761c0-4.7152 0.62954-5.388 5.0346-5.388z" enable-background="new" fill="#141414" filter="url(#filter2761-3)" opacity=".3"/>
 <path d="m40.473 4.4998c16.649 0 19.028 2.543 19.028 20.364v14.272c0 17.822-2.3794 20.364-19.028 20.364h-16.945c-16.649 0-19.029-2.5429-19.029-20.364v-14.272c0-17.822 2.3794-20.364 19.029-20.364z" enable-background="new" fill="url(#linearGradient2645-3-7)" stroke-width="3.7796"/>
 <path d="m25.068 9.5c-13.622 0-15.568 2.081-15.568 16.662v11.676c0 14.58 1.9469 16.662 15.568 16.662h13.863c13.621 0 15.568-2.081 15.568-16.662v-10.549l-17.789-17.789h-11.643zm17.98 0.09961 11.314 11.316c-0.53152-8.5717-2.9296-10.869-11.314-11.316z" enable-background="new" fill="#fff" stroke-width="3.0923"/>
 <circle cx="-775.21" cy="-1489.4" r="0" fill="#5e4aa6"/>
 <circle cx="-923.26" cy="-1418.9" r="0" fill="#5e4aa6"/>
 <circle cx="-20.305" cy="-31.835" r="0" fill="url(#b-6)" stroke-width="1.5715"/>
 <g transform="translate(0 -1.6193)">
  <g fill-rule="evenodd">
   <rect x="15.5" y="20.618" width="28" height="26" ry="0" fill="#ccf4c6" style="paint-order:normal"/>
   <rect x="15.5" y="20.618" width="28" height="6" ry="0" fill="#92e285" style="paint-order:normal"/>
   <path d="m15.5 20.618v26h28v-26zm1 1h8v4h-8zm9 0h8v4h-8zm9 0h8v4h-8zm-18 5h8v4h-8zm9 0h8v4h-8zm9 0h8v4h-8zm-18 5h8v4h-8zm9 0h8v4h-8zm9 0h8v4h-8zm-18 5h8v4h-8zm9 0h8v4h-8zm9 0h8v4h-8zm-18 5h8v4h-8zm9 0h8v4h-8zm9 0h8v4h-8z" fill="url(#linearGradient1068)" style="paint-order:normal"/>
  </g>
  <g transform="matrix(1.0227 0 0 .95455 -.9315 3.4817)" stroke-width="1.0121">
   <rect x="34.645" y="33.666" width="13.689" height="14.667" ry="1.0476" fill="#fff"/>
   <rect x="35.622" y="42.047" width="2.9346" height="6.2868" fill="#228fff"/>
   <rect x="39.533" y="36.809" width="3.9126" height="11.524" fill="#ff8037"/>
   <rect x="44.422" y="44.143" width="2.9348" height="4.1914" fill="#ffca22"/>
  </g>
 </g>
</svg>
