<?xml version="1.0" encoding="UTF-8"?>
<svg width="64" height="64" version="1.1" xmlns="http://www.w3.org/2000/svg" xmlns:cc="http://creativecommons.org/ns#" xmlns:dc="http://purl.org/dc/elements/1.1/" xmlns:rdf="http://www.w3.org/1999/02/22-rdf-syntax-ns#" xmlns:xlink="http://www.w3.org/1999/xlink">
 <metadata>
  <rdf:RDF>
   <cc:Work rdf:about="">
    <dc:format>image/svg+xml</dc:format>
    <dc:type rdf:resource="http://purl.org/dc/dcmitype/StillImage"/>
    <dc:title/>
   </cc:Work>
  </rdf:RDF>
 </metadata>
 <defs>
  <linearGradient id="b" x1="399.57" x2="399.57" y1="545.8" y2="517.8" gradientTransform="matrix(2.1429,0,0,2.1429,-826.36,-1107.5)" gradientUnits="userSpaceOnUse">
   <stop stop-color="#3889e9" offset="0"/>
   <stop stop-color="#5ea5fb" offset="1"/>
  </linearGradient>
  <linearGradient id="l" x1="525.44" x2="516.66" y1="836.19" y2="828.5" gradientTransform="matrix(.97893 0 0 1.0007 -171.43 -740)" gradientUnits="userSpaceOnUse" xlink:href="#a"/>
  <linearGradient id="a">
   <stop stop-color="#dc85e9" offset="0"/>
   <stop stop-color="#f2cbf8" offset="1"/>
  </linearGradient>
  <linearGradient id="j" x1="525.44" x2="516.66" y1="836.19" y2="828.5" gradientTransform="matrix(.97893 0 0 1.0007 755.62 -1698.7)" gradientUnits="userSpaceOnUse" xlink:href="#a"/>
  <linearGradient id="i" x1="525.44" x2="516.66" y1="836.19" y2="828.5" gradientTransform="translate(-125.52 -1702.5)" gradientUnits="userSpaceOnUse" xlink:href="#a"/>
  <linearGradient id="h" x1="520.59" x2="516.15" y1="735.05" y2="720.86" gradientTransform="matrix(.51254 0 0 .61538 134.61 -1323.2)" gradientUnits="userSpaceOnUse" xlink:href="#a"/>
  <filter id="filter2761-3" x="-.024" y="-.024" width="1.048" height="1.048" color-interpolation-filters="sRGB">
   <feGaussianBlur stdDeviation="0.14552168"/>
  </filter>
  <linearGradient id="linearGradient2645-3" x1="15.752" x2="1.3927" y1="281.24" y2="295.6" gradientTransform="matrix(3.7796 0 0 3.7796 -.4993 -1058)" gradientUnits="userSpaceOnUse">
   <stop stop-color="#dc28e6" offset="0"/>
   <stop stop-color="#8c14e6" offset="1"/>
  </linearGradient>
 </defs>
 <circle cx="32.02" cy="32.044" r="0" fill="url(#b)" stroke-width="1.5715"/>
 <path transform="matrix(3.7796 0 0 3.7796 -.0031954 .53086)" d="m10.709 1.05c4.405 0 5.0345 0.67282 5.0345 5.388v3.7761c0 4.7152-0.62954 5.388-5.0345 5.388h-4.4832c-4.405 0-5.0346-0.6728-5.0346-5.388v-3.7761c0-4.7152 0.62954-5.388 5.0346-5.388z" enable-background="new" fill="#141414" filter="url(#filter2761-3)" opacity=".3"/>
 <path d="m40.473 4.4994c16.649 0 19.028 2.543 19.028 20.364v14.272c0 17.822-2.3794 20.364-19.028 20.364h-16.945c-16.649 0-19.029-2.5429-19.029-20.364v-14.272c0-17.822 2.3794-20.364 19.029-20.364z" enable-background="new" fill="url(#linearGradient2645-3)" stroke-width="3.7796"/>
 <path d="m25.068 9.5c-13.622 0-15.568 2.081-15.568 16.662v11.676c0 14.58 1.9469 16.662 15.568 16.662h13.863c13.621 0 15.568-2.081 15.568-16.662v-10.549l-17.789-17.789h-11.643zm17.98 0.099609 11.314 11.316c-0.53152-8.5717-2.9296-10.869-11.314-11.316z" enable-background="new" fill="#fff" stroke-width="3.0923"/>
 <g transform="matrix(1.0689 0 0 1.0697 -335.66 -56.864)" enable-background="new" stroke="#8e03a3" stroke-width=".83352">
  <path d="m332.72 90.105v4.0029c0 1.9344 5.0402 3.5026 11.258 3.5026 6.2174 0 11.258-1.5681 11.258-3.5026v-4.0029z" color="#000000" fill="url(#l)"/>
  <g transform="translate(-927,953.99)">
   <path d="m1259.7-868.57v4.003c0 1.9344 5.0402 3.5025 11.258 3.5025 6.2174 0 11.258-1.5681 11.258-3.5025v-4.003z" color="#000000" fill="url(#j)" stroke-width=".83352"/>
   <g transform="matrix(.97893 0 0 1.0007 878.45 .37754)" stroke-width=".84214">
    <path d="m389.48-872.96v4c0 1.933 5.1487 3.5 11.5 3.5s11.5-1.567 11.5-3.5v-4z" color="#000000" fill="url(#i)"/>
    <ellipse cx="400.98" cy="-873.78" rx="11.5" ry="3.5" color="#000000" fill="url(#h)"/>
   </g>
  </g>
 </g>
</svg>
