<?xml version="1.0" encoding="UTF-8" standalone="no"?>
<svg
   xmlns:dc="http://purl.org/dc/elements/1.1/"
   xmlns:cc="http://creativecommons.org/ns#"
   xmlns:rdf="http://www.w3.org/1999/02/22-rdf-syntax-ns#"
   xmlns:svg="http://www.w3.org/2000/svg"
   xmlns="http://www.w3.org/2000/svg"
   xmlns:xlink="http://www.w3.org/1999/xlink"
   xmlns:sodipodi="http://sodipodi.sourceforge.net/DTD/sodipodi-0.dtd"
   xmlns:inkscape="http://www.inkscape.org/namespaces/inkscape"
   inkscape:version="1.0 (4035a4fb49, 2020-05-01)"
   sodipodi:docname="menu-editor.svg"
   id="svg61"
   viewBox="0 0 16.933 16.933"
   version="1.1"
   height="64"
   width="64">
  <metadata
     id="metadata65">
    <rdf:RDF>
      <cc:Work
         rdf:about="">
        <dc:format>image/svg+xml</dc:format>
        <dc:type
           rdf:resource="http://purl.org/dc/dcmitype/StillImage" />
        <dc:title></dc:title>
      </cc:Work>
    </rdf:RDF>
  </metadata>
  <sodipodi:namedview
     inkscape:current-layer="svg61"
     inkscape:window-maximized="1"
     inkscape:window-y="0"
     inkscape:window-x="0"
     inkscape:cy="46.316881"
     inkscape:cx="-3.7016051"
     inkscape:zoom="3.1875"
     showgrid="false"
     id="namedview63"
     inkscape:window-height="985"
     inkscape:window-width="1920"
     inkscape:pageshadow="2"
     inkscape:pageopacity="0"
     guidetolerance="10"
     gridtolerance="10"
     objecttolerance="10"
     borderopacity="1"
     bordercolor="#666666"
     pagecolor="#ffffff" />
  <defs
     id="defs23">
    <linearGradient
       gradientUnits="userSpaceOnUse"
       gradientTransform="translate(-64,-68)"
       y2="212"
       y1="100"
       x2="152"
       x1="152"
       id="d">
      <stop
         id="stop2"
         offset="0"
         stop-opacity="0" />
      <stop
         id="stop4"
         offset=".5" />
      <stop
         id="stop6"
         offset="1"
         stop-opacity="0" />
    </linearGradient>
    <filter
       color-interpolation-filters="sRGB"
       height="1.048"
       width="1.048"
       y="-.024"
       x="-.024"
       id="a">
      <feGaussianBlur
         id="feGaussianBlur9"
         stdDeviation="1.5000091" />
    </filter>
    <clipPath
       id="f">
      <path
         id="path12"
         fill="#5d5d5d"
         color="#000000"
         d="m152 68c-48.601 0-88 39.399-88 88s39.399 88 88 88 88-39.399 88-88-39.399-88-88-88z" />
    </clipPath>
    <filter
       color-interpolation-filters="sRGB"
       height="1.12"
       width="1.12"
       y="-.06"
       x="-.06"
       id="e">
      <feGaussianBlur
         id="feGaussianBlur15"
         stdDeviation="4.4" />
    </filter>
    <linearGradient
       gradientTransform="translate(-28.753964)"
       gradientUnits="userSpaceOnUse"
       y2="15.498"
       y1="1.9731"
       x2="8.117"
       x1="8.1703"
       id="b">
      <stop
         id="stop18"
         offset="0"
         stop-color="#ee9e4e" />
      <stop
         id="stop20"
         offset="1"
         stop-color="#e98b50" />
    </linearGradient>
    <filter
       inkscape:collect="always"
       style="color-interpolation-filters:sRGB"
       id="filter1052"
       x="-0.048"
       width="1.096"
       y="-0.048"
       height="1.096">
      <feGaussianBlur
         inkscape:collect="always"
         stdDeviation="0.29103594"
         id="feGaussianBlur1054" />
    </filter>
    <linearGradient
       inkscape:collect="always"
       xlink:href="#linearGradient1038"
       id="linearGradient1040"
       x1="37.040939"
       y1="15.874687"
       x2="51.592735"
       y2="1.3228906"
       gradientUnits="userSpaceOnUse"
       gradientTransform="translate(-35.850338,-0.1322889)" />
    <linearGradient
       inkscape:collect="always"
       id="linearGradient1038">
      <stop
         style="stop-color:#ff8232;stop-opacity:1"
         offset="0"
         id="stop1034" />
      <stop
         style="stop-color:#ffd532;stop-opacity:1"
         offset="1"
         id="stop1036" />
    </linearGradient>
    <linearGradient
       gradientTransform="translate(21.351322,-0.30833903)"
       id="linearGradient862"
       x1="7.9373"
       x2="7.9373"
       y1="15.081"
       y2="1.852"
       gradientUnits="userSpaceOnUse">
      <stop
         stop-color="#f3f1ee"
         offset="0"
         id="stop914" />
      <stop
         stop-color="#fff"
         offset="1"
         id="stop916" />
    </linearGradient>
    <linearGradient
       id="linearGradient861"
       x1="10.054"
       x2="10.054"
       y1="4.7624"
       y2="5.027"
       gradientTransform="translate(21.086742,-0.30833903)"
       gradientUnits="userSpaceOnUse"
       xlink:href="#linearGradient859" />
    <linearGradient
       id="linearGradient859">
      <stop
         stop-color="#88888b"
         offset="0"
         id="stop920" />
      <stop
         stop-color="#d4d4d8"
         offset="1"
         id="stop922" />
    </linearGradient>
    <linearGradient
       id="linearGradient865"
       x1="10.054"
       x2="10.054"
       y1="4.7624"
       y2="5.027"
       gradientTransform="translate(21.086742,3.395761)"
       gradientUnits="userSpaceOnUse"
       xlink:href="#linearGradient859" />
    <linearGradient
       id="linearGradient869"
       x1="10.054"
       x2="10.054"
       y1="4.7624"
       y2="5.027"
       gradientTransform="translate(21.086742,7.099861)"
       gradientUnits="userSpaceOnUse"
       xlink:href="#linearGradient859" />
    <linearGradient
       id="linearGradient1007"
       x1="46"
       x2="46"
       y1="60"
       y2="30"
       gradientTransform="matrix(0.26457812,0,0,0.26457812,21.350916,-0.30837374)"
       gradientUnits="userSpaceOnUse">
      <stop
         stop-color="#1e1e1e"
         offset="0"
         id="stop927" />
      <stop
         stop-color="#3c3c3c"
         offset="1"
         id="stop929" />
    </linearGradient>
    <linearGradient
       id="f-9"
       x1="2331.3"
       x2="2331.3"
       y1="435.51"
       y2="45.726"
       gradientTransform="matrix(0.02056963,0,0,0.02056963,-14.372016,6.6463614)"
       gradientUnits="userSpaceOnUse">
      <stop
         stop-color="#807c76"
         offset=".057692"
         id="stop932" />
      <stop
         stop-color="#d4d7d0"
         offset=".38462"
         id="stop934" />
      <stop
         stop-color="#bdbfba"
         offset=".55769"
         id="stop936" />
      <stop
         stop-color="#acb3ac"
         offset=".63462"
         id="stop938" />
      <stop
         stop-color="#dadfda"
         offset=".75"
         id="stop940" />
      <stop
         stop-color="#c2c7c1"
         offset=".86274"
         id="stop942" />
      <stop
         stop-color="#7f7a75"
         offset=".94118"
         id="stop944" />
    </linearGradient>
    <radialGradient
       id="radialGradient1042"
       cx="12.171"
       cy="12.171"
       r="4.7624"
       gradientTransform="translate(21.351322,-0.30833903)"
       gradientUnits="userSpaceOnUse">
      <stop
         offset="0"
         id="stop947" />
      <stop
         offset=".47287"
         id="stop949" />
      <stop
         stop-opacity="0"
         offset="1"
         id="stop951" />
    </radialGradient>
    <filter
       id="filter2761"
       x="-.024"
       y="-.024"
       width="1.048"
       height="1.048"
       color-interpolation-filters="sRGB">
      <feGaussianBlur
         stdDeviation="0.14552168"
         id="feGaussianBlur1035" />
    </filter>
    <filter
       id="filter924"
       x="-.060054"
       y="-.059946"
       width="1.1201"
       height="1.1199"
       color-interpolation-filters="sRGB">
      <feGaussianBlur
         stdDeviation="0.2078715"
         id="feGaussianBlur1038" />
    </filter>
    <linearGradient
       id="linearGradient1153"
       x1="22.053"
       x2="33.441"
       y1="10.438"
       y2="10.438"
       gradientTransform="rotate(-45,17.349,30.119)"
       gradientUnits="userSpaceOnUse">
      <stop
         stop-color="#faf1a5"
         offset="0"
         id="stop1041" />
      <stop
         stop-color="#faf7c8"
         offset="1"
         id="stop1043" />
    </linearGradient>
    <linearGradient
       id="linearGradient1161"
       x1="22.053"
       x2="33.441"
       y1="9.3051"
       y2="9.3051"
       gradientTransform="rotate(-45,17.349,30.119)"
       gradientUnits="userSpaceOnUse">
      <stop
         stop-color="#ffc85a"
         offset="0"
         id="stop1046" />
      <stop
         stop-color="#faf6c3"
         offset="1"
         id="stop1048" />
    </linearGradient>
    <linearGradient
       id="linearGradient13510-3"
       x1="8.7643"
       x2="8.7643"
       y1="287.18"
       y2="287.64"
       gradientTransform="matrix(0.57232,0,0,0.33584,3.6217,-89.534)"
       gradientUnits="userSpaceOnUse"
       xlink:href="#linearGradient991" />
    <linearGradient
       id="linearGradient991">
      <stop
         stop-color="#969696"
         offset="0"
         id="stop1052" />
      <stop
         stop-color="#e6e6e6"
         stop-opacity=".90196"
         offset="1"
         id="stop1054" />
    </linearGradient>
    <linearGradient
       id="linearGradient13512"
       x1="8.3178"
       x2="8.3178"
       y1="289.36"
       y2="289.81"
       gradientTransform="matrix(0.55154,0,0,0.33584,3.7873,-92.234)"
       gradientUnits="userSpaceOnUse"
       xlink:href="#linearGradient991" />
    <linearGradient
       id="linearGradient1206"
       x1="8.7643"
       x2="8.7643"
       y1="287.18"
       y2="287.64"
       gradientTransform="matrix(0.57232,0,0,0.33584,3.6217,-87.562)"
       gradientUnits="userSpaceOnUse"
       xlink:href="#linearGradient991" />
    <linearGradient
       id="linearGradient1210"
       x1="8.7643"
       x2="8.7643"
       y1="287.18"
       y2="287.64"
       gradientTransform="matrix(0.57232,0,0,0.33584,3.6217,-85.59)"
       gradientUnits="userSpaceOnUse"
       xlink:href="#linearGradient991" />
    <linearGradient
       id="linearGradient2645-37"
       x1="15.752"
       x2="1.3927"
       y1="281.24"
       y2="295.6"
       gradientTransform="translate(-0.13126,-280.07)"
       gradientUnits="userSpaceOnUse">
      <stop
         stop-color="#ffdc32"
         offset="0"
         id="stop1060" />
      <stop
         stop-color="#ff7832"
         offset="1"
         id="stop1062" />
    </linearGradient>
    <filter
       id="filter2761-3"
       x="-.024"
       y="-.024"
       width="1.048"
       height="1.048"
       color-interpolation-filters="sRGB">
      <feGaussianBlur
         stdDeviation="0.14552168"
         id="feGaussianBlur1274" />
    </filter>
    <linearGradient
       id="linearGradient994"
       x1="13.131"
       x2="3.7382"
       y1="-4.101"
       y2="-13.46"
       gradientTransform="matrix(1.2341,0,0,1.2341,11.478519,18.859728)"
       gradientUnits="userSpaceOnUse">
      <stop
         stop-color="#0a82f0"
         offset="0"
         id="stop1277" />
      <stop
         stop-color="#3250e6"
         offset="1"
         id="stop1279" />
    </linearGradient>
  </defs>
  <rect
     ry="3.4395156"
     y="1.1906018"
     x="1.1906019"
     height="14.551797"
     width="14.551797"
     id="rect1042"
     style="opacity:0.3;fill:#000000;fill-opacity:1;stroke-width:0.529156;stroke-linecap:round;filter:url(#filter1052)" />
  <rect
     style="fill:url(#linearGradient1040);fill-opacity:1;stroke-width:0.529156;stroke-linecap:round"
     id="rect1032"
     width="14.551797"
     height="14.551797"
     x="1.1906019"
     y="1.1906018"
     ry="3.4395156" />
  <g
     transform="translate(-0.13227988)"
     id="g1272">
    <rect
       style="opacity:1;fill:#fafafa;fill-opacity:1;stroke-width:0.529156;stroke-linecap:round"
       id="rect1209"
       width="7.4081998"
       height="0.26458022"
       x="6.4821501"
       y="4.3301826"
       ry="0.13229011" />
    <rect
       ry="0.13229011"
       y="7.0589819"
       x="6.4821501"
       height="0.26458022"
       width="7.4081998"
       id="rect1211"
       style="opacity:1;fill:#fafafa;fill-opacity:1;stroke-width:0.529156;stroke-linecap:round" />
    <rect
       style="opacity:1;fill:#fafafa;fill-opacity:1;stroke-width:0.529156;stroke-linecap:round"
       id="rect1213"
       width="7.4081998"
       height="0.26458022"
       x="6.4821501"
       y="9.7877808"
       ry="0.13229011" />
    <rect
       ry="0.13229011"
       y="12.51658"
       x="6.4821501"
       height="0.26458022"
       width="7.4081998"
       id="rect1227"
       style="opacity:1;fill:#fafafa;fill-opacity:1;stroke-width:0.529156;stroke-linecap:round" />
    <g
       id="g1253"
       transform="translate(0,-0.26365162)">
      <g
         id="g1219">
        <path
           style="stroke-width:0.188984"
           d="M 4.3655232,4.0572282 A 0.66144531,0.66144531 0 0 0 3.7040779,4.7186735 0.66144531,0.66144531 0 0 0 4.3655232,5.3801188 0.66144531,0.66144531 0 0 0 5.0269685,4.7186735 0.66144531,0.66144531 0 0 0 4.3655232,4.0572282 Z m 0,0.1889844 A 0.47246094,0.47246094 0 0 1 4.8379841,4.7186735 0.47246094,0.47246094 0 0 1 4.3655232,5.1911344 0.47246094,0.47246094 0 0 1 3.8930623,4.7186735 0.47246094,0.47246094 0 0 1 4.3655232,4.2462126 Z"
           fill="#ffffff"
           id="path1167" />
        <path
           id="path1215"
           fill="#ffffff"
           d="M 4.3655232,3.660361 A 1.0583125,1.0583125 0 0 0 3.3072107,4.7186735 1.0583125,1.0583125 0 0 0 4.3655232,5.776986 1.0583125,1.0583125 0 0 0 5.4238357,4.7186735 1.0583125,1.0583125 0 0 0 4.3655232,3.660361 Z m 0,0.302375 A 0.75593752,0.75593752 0 0 1 5.1214607,4.7186735 0.75593752,0.75593752 0 0 1 4.3655232,5.474611 0.75593752,0.75593752 0 0 1 3.6095857,4.7186735 0.75593752,0.75593752 0 0 1 4.3655232,3.962736 Z"
           style="stroke-width:0.302374" />
      </g>
      <g
         transform="translate(0,2.6743187)"
         id="g1225">
        <path
           id="path1221"
           fill="#ffffff"
           d="M 4.3655232,4.0572282 A 0.66144531,0.66144531 0 0 0 3.7040779,4.7186735 0.66144531,0.66144531 0 0 0 4.3655232,5.3801188 0.66144531,0.66144531 0 0 0 5.0269685,4.7186735 0.66144531,0.66144531 0 0 0 4.3655232,4.0572282 Z m 0,0.1889844 A 0.47246094,0.47246094 0 0 1 4.8379841,4.7186735 0.47246094,0.47246094 0 0 1 4.3655232,5.1911344 0.47246094,0.47246094 0 0 1 3.8930623,4.7186735 0.47246094,0.47246094 0 0 1 4.3655232,4.2462126 Z"
           style="stroke-width:0.188984" />
        <path
           style="stroke-width:0.302374"
           d="M 4.3655232,3.660361 A 1.0583125,1.0583125 0 0 0 3.3072107,4.7186735 1.0583125,1.0583125 0 0 0 4.3655232,5.776986 1.0583125,1.0583125 0 0 0 5.4238357,4.7186735 1.0583125,1.0583125 0 0 0 4.3655232,3.660361 Z m 0,0.302375 A 0.75593752,0.75593752 0 0 1 5.1214607,4.7186735 0.75593752,0.75593752 0 0 1 4.3655232,5.474611 0.75593752,0.75593752 0 0 1 3.6095857,4.7186735 0.75593752,0.75593752 0 0 1 4.3655232,3.962736 Z"
           fill="#ffffff"
           id="path1223" />
      </g>
      <g
         id="g1233"
         transform="translate(0,5.348638)">
        <path
           style="stroke-width:0.188984"
           d="M 4.3655232,4.0572282 A 0.66144531,0.66144531 0 0 0 3.7040779,4.7186735 0.66144531,0.66144531 0 0 0 4.3655232,5.3801188 0.66144531,0.66144531 0 0 0 5.0269685,4.7186735 0.66144531,0.66144531 0 0 0 4.3655232,4.0572282 Z m 0,0.1889844 A 0.47246094,0.47246094 0 0 1 4.8379841,4.7186735 0.47246094,0.47246094 0 0 1 4.3655232,5.1911344 0.47246094,0.47246094 0 0 1 3.8930623,4.7186735 0.47246094,0.47246094 0 0 1 4.3655232,4.2462126 Z"
           fill="#ffffff"
           id="path1229" />
        <path
           id="path1231"
           fill="#ffffff"
           d="M 4.3655232,3.660361 A 1.0583125,1.0583125 0 0 0 3.3072107,4.7186735 1.0583125,1.0583125 0 0 0 4.3655232,5.776986 1.0583125,1.0583125 0 0 0 5.4238357,4.7186735 1.0583125,1.0583125 0 0 0 4.3655232,3.660361 Z m 0,0.302375 A 0.75593752,0.75593752 0 0 1 5.1214607,4.7186735 0.75593752,0.75593752 0 0 1 4.3655232,5.474611 0.75593752,0.75593752 0 0 1 3.6095857,4.7186735 0.75593752,0.75593752 0 0 1 4.3655232,3.962736 Z"
           style="stroke-width:0.302374" />
      </g>
      <g
         transform="translate(0,8.0229568)"
         id="g1239">
        <path
           id="path1235"
           fill="#ffffff"
           d="M 4.3655232,4.0572282 A 0.66144531,0.66144531 0 0 0 3.7040779,4.7186735 0.66144531,0.66144531 0 0 0 4.3655232,5.3801188 0.66144531,0.66144531 0 0 0 5.0269685,4.7186735 0.66144531,0.66144531 0 0 0 4.3655232,4.0572282 Z m 0,0.1889844 A 0.47246094,0.47246094 0 0 1 4.8379841,4.7186735 0.47246094,0.47246094 0 0 1 4.3655232,5.1911344 0.47246094,0.47246094 0 0 1 3.8930623,4.7186735 0.47246094,0.47246094 0 0 1 4.3655232,4.2462126 Z"
           style="stroke-width:0.188984" />
        <path
           style="stroke-width:0.302374"
           d="M 4.3655232,3.660361 A 1.0583125,1.0583125 0 0 0 3.3072107,4.7186735 1.0583125,1.0583125 0 0 0 4.3655232,5.776986 1.0583125,1.0583125 0 0 0 5.4238357,4.7186735 1.0583125,1.0583125 0 0 0 4.3655232,3.660361 Z m 0,0.302375 A 0.75593752,0.75593752 0 0 1 5.1214607,4.7186735 0.75593752,0.75593752 0 0 1 4.3655232,5.474611 0.75593752,0.75593752 0 0 1 3.6095857,4.7186735 0.75593752,0.75593752 0 0 1 4.3655232,3.962736 Z"
           fill="#ffffff"
           id="path1237" />
      </g>
    </g>
  </g>
  <g
     transform="matrix(0.64382439,0,0,0.64382439,-1.7829388,17.403278)"
     id="g1325">
    <circle
       style="fill:url(#linearGradient994)"
       transform="scale(1,-1)"
       cx="21.845419"
       cy="8.0848274"
       r="5.8376999"
       color="#000000"
       fill="url(#linearGradient994)"
       stroke="#e6e6e6"
       stroke-width="0.65303"
       id="circle1290" />
    <path
       d="m 24.432019,-12.366528 c -0.30796,-0.18222 -0.42289,-0.23346 -0.68282,0.1161 l -0.09305,0.12282 c -0.17854,0.22092 -0.24939,0.32674 -0.51368,0.25354 -0.01732,-0.0056 -0.03477,-0.01086 -0.05221,-0.01608 -0.004,-0.0015 -0.0076,-0.0026 -0.01208,-0.0035 l 3.87e-4,3.84e-4 c -0.06613,-0.01951 -0.13252,-0.03713 -0.19917,-0.05304 l 9.4e-4,-3.24e-4 c -0.01141,-0.0022 -0.02161,-0.0046 -0.03213,-0.007 -0.01014,-0.0023 -0.0203,-0.0047 -0.03033,-0.007 -0.26844,-0.06861 -0.27664,-0.19556 -0.32098,-0.47721 l -0.01926,-0.15295 c -0.02516,-0.21632 -0.06892,-0.32772 -0.15123,-0.38459 -0.01042,-0.0069 -0.02135,-0.01322 -0.03276,-0.01892 -0.08066,-0.0386 -0.19269,-0.04002 -0.34924,-0.03826 -0.35781,-0.0039 -0.48289,0.0093 -0.53322,0.44184 l -0.01928,0.15285 c -0.04755,0.30212 -0.05325,0.42636 -0.38347,0.49135 l 0.0066,0.0021 c -0.0702,0.01681 -0.13989,0.03558 -0.20909,0.05611 l 0.0047,-0.0053 c -0.31847,0.10884 -0.38552,0.0041 -0.57776,-0.23378 l -0.09305,-0.12283 c -0.08123,-0.1092 -0.14831,-0.17929 -0.21153,-0.21848 -0.13897,-0.08644 -0.2595,-0.02292 -0.47117,0.10244 -0.31186,0.17546 -0.41372,0.24947 -0.24098,0.64932 l 0.05979,0.14209 c 0.10244,0.2661 0.15883,0.38014 -0.03937,0.57376 -0.0077,0.007 -0.01517,0.01415 -0.02276,0.02129 -0.008,0.0074 -0.0155,0.01459 -0.0242,0.02223 l 9.38e-4,-3.25e-4 c -0.04974,0.04712 -0.09844,0.09557 -0.14596,0.14553 l 1.38e-4,-5.04e-4 c -0.003,0.0036 -0.0056,0.0059 -0.0085,0.0091 -0.01251,0.01322 -0.02484,0.02663 -0.03718,0.04003 -0.19229,0.19553 -0.30654,0.13931 -0.57163,0.03726 l -0.14198,-0.05985 c -0.39985,-0.17272 -0.47393,-0.07099 -0.64938,0.24087 -0.18236,0.30788 -0.23342,0.42291 0.11609,0.6828201 l 0.12283,0.093038 c 0.22093,0.17853 0.32672,0.24942 0.25354,0.51368 -0.0054,0.017391 -0.01089,0.034776 -0.01608,0.052217 -0.0012,0.00374 -0.0024,0.00776 -0.0037,0.011934 l 3.64e-4,-3.651e-4 c -0.01952,0.066155 -0.03711,0.13253 -0.05305,0.19917 l -2.88e-4,-0.00103 c -0.0022,0.011366 -0.0047,0.021554 -0.007,0.032136 -0.0023,0.010157 -0.0048,0.020243 -0.0071,0.030353 -0.06859,0.26845 -0.19555,0.27664 -0.47721,0.32098 l -0.15295,0.019267 c -0.43264,0.05033 -0.44575,0.17543 -0.44177,0.53324 -0.004,0.35781 0.0092,0.48289 0.44184,0.53322 l 0.15283,0.019295 c 0.30212,0.047548 0.42635,0.053254 0.49134,0.38348 l 0.0021,-0.00676 c 0.01679,0.07023 0.03558,0.13989 0.05612,0.20908 l -0.0051,-0.00465 c 0.10882,0.31848 0.0041,0.38552 -0.23378,0.57777 l -0.12284,0.09305 c -0.34952,0.25991 -0.29845,0.37494 -0.1161,0.68282 0.17546,0.31186 0.24953,0.4136 0.64938,0.24087 l 0.14209,-0.05979 c 0.2661,-0.10244 0.38015,-0.15882 0.57376,0.03938 0.007,0.0077 0.01411,0.01528 0.0213,0.02271 0.0074,0.0079 0.01457,0.01554 0.02216,0.02434 l -1.89e-4,-9.78e-4 c 0.04715,0.0497 0.09557,0.09846 0.14553,0.14597 l -5.22e-4,-1.62e-4 c 0.0033,0.0028 0.0062,0.0053 0.009,0.0088 0.01342,0.01222 0.02664,0.02478 0.04001,0.03721 0.19554,0.19227 0.13931,0.30654 0.03726,0.57163 l -0.05984,0.14199 c -0.17274,0.39985 -0.07099,0.47393 0.24087,0.64939 0.30796,0.18222 0.42289,0.23347 0.68282,-0.11609 l 0.09305,-0.12282 c 0.17854,-0.22092 0.24938,-0.32674 0.51368,-0.25354 0.01732,0.0056 0.0348,0.01086 0.05223,0.01604 0.004,0.0015 0.0076,0.0027 0.01209,0.0035 l -3.87e-4,-3.82e-4 c 0.06613,0.01951 0.13252,0.03713 0.19917,0.05305 l -9.41e-4,3.25e-4 c 0.01142,0.0022 0.02161,0.0044 0.03215,0.007 0.01016,0.0023 0.02031,0.0046 0.03031,0.0072 0.26843,0.06862 0.27664,0.19556 0.32098,0.4772 l 0.01926,0.15295 c 0.05033,0.43264 0.17543,0.44575 0.53324,0.44176 0.35781,0.0039 0.48289,-0.0093 0.53322,-0.44184 l 0.01927,-0.15284 c 0.04754,-0.30212 0.05325,-0.42635 0.38347,-0.49134 l -0.0066,-0.0021 c 0.0702,-0.01681 0.13988,-0.03558 0.20909,-0.05611 l -0.0047,0.0052 c 0.31848,-0.10882 0.38553,-0.0041 0.57777,0.23378 l 0.09305,0.12283 c 0.25991,0.34952 0.37484,0.29835 0.6827,0.11603 0.31186,-0.17546 0.41372,-0.24947 0.24099,-0.64931 l -0.05979,-0.1421 c -0.10238,-0.26603 -0.15876,-0.38009 0.03944,-0.5737 0.0077,-0.007 0.01517,-0.01417 0.02271,-0.02131 0.0079,-0.0074 0.01543,-0.01462 0.02423,-0.0222 l -9.41e-4,3.25e-4 c 0.04973,-0.04712 0.09844,-0.09557 0.14596,-0.14554 l -1.38e-4,5.04e-4 c 0.0031,-0.0036 0.0056,-0.0059 0.0084,-0.0091 0.01249,-0.01323 0.02479,-0.02666 0.03721,-0.04002 0.19228,-0.19554 0.30654,-0.13931 0.57163,-0.03726 l 0.141981,0.05985 c 0.39985,0.17272 0.473929,0.07099 0.64938,-0.24087 0.18233,-0.3079 0.23347,-0.42289 -0.11609,-0.68282 l -0.12283,-0.09304 c -0.220891,-0.17867 -0.32671,-0.2495 -0.253501,-0.51382 0.0054,-0.017372 0.01086,-0.034806 0.01606,-0.052234 0.0011,-0.00375 0.0023,-0.00776 0.0037,-0.011909 l -3.65e-4,3.647e-4 c 0.01952,-0.066155 0.03711,-0.13253 0.05307,-0.19917 l 2.94e-4,0.00104 c 0.0022,-0.011341 0.0046,-0.021513 0.007,-0.032142 0.0023,-0.010169 0.0048,-0.020152 0.0072,-0.030322 0.06858,-0.26845 0.19554,-0.27664 0.4772,-0.32098 l 0.15295,-0.019263 c 0.43264,-0.05033 0.44574,-0.17543 0.44176,-0.53324 0.0027,-0.24599 -0.0026,-0.38202 -0.1468,-0.45938 -0.06554,-0.035189 -0.15983,-0.058122 -0.29504,-0.073842 l -0.15283,-0.019301 c -0.30216,-0.047555 -0.42639,-0.053257 -0.49138,-0.38348 l -0.0021,0.00678 c -0.01676,-0.070225 -0.03554,-0.13988 -0.05609,-0.20908 l 0.0051,0.00471 c -0.10898,-0.31866 -0.0043,-0.38571 0.23362,-0.57796 l 0.12285,-0.093051 c 0.34956,-0.2598997 0.29843,-0.3748197 0.11608,-0.6826997 -0.08773,-0.15593 -0.150109,-0.25939 -0.24052,-0.30224 -0.09042,-0.04282 -0.208869,-0.02511 -0.40879,0.06126 l -0.142089,0.05979 c -0.2661,0.10243 -0.380151,0.15882 -0.57377,-0.03938 -0.007,-0.0076 -0.01413,-0.01524 -0.02129,-0.02273 -0.0075,-0.0079 -0.01459,-0.0155 -0.02221,-0.02424 l 1.86e-4,9.82e-4 c -0.04711,-0.04976 -0.09557,-0.09844 -0.145531,-0.14596 l 5.22e-4,1.51e-4 c -0.0033,-0.0028 -0.0062,-0.0053 -0.009,-0.0088 -0.01342,-0.01222 -0.02662,-0.02483 -0.04002,-0.03717 -0.19554,-0.19228 -0.13931,-0.30655 -0.03726,-0.57164 l 0.05984,-0.14199 c 0.17273,-0.39984 0.07099,-0.47392 -0.24087,-0.64938 z m -1.0287,1.7802 c 2.39e-4,1.38e-4 4.56e-4,2.63e-4 6.7e-4,3.86e-4 0.29099,0.16803 0.54324,0.38063 0.75277,0.6246202 a 0.79605,0.79605 0 0 0 0.08579,0.57646 0.79605,0.79605 0 0 0 0.45527,0.36174 c 0.20849,0.59459 0.22639,1.257 0.01529,1.8893 -0.05316,0.15928 -0.23903,0.22976 -0.38444,0.14579 l -0.71117,-0.41059 c -0.10165,-0.058671 -0.15268,-0.17715 -0.12549,-0.29132 0.16324,-0.68529 -0.14137,-1.3935 -0.75091,-1.7465 -0.10755,-0.061227 -0.22178,-0.10999 -0.34052,-0.14483 -0.11303,-0.033135 -0.19067,-0.13681 -0.19067,-0.25461 l -7.5e-5,-0.8197602 c 3.8e-5,-0.16762 0.15355,-0.29322 0.31786,-0.26007 0.30771,0.06203 0.60334,0.17324 0.87562,0.32944 z m -1.8462,-0.29256 c 0.07589,0.04913 0.1221,0.13297 0.12208,0.22338 l 7.6e-5,0.81976 c 7e-6,0.11747 -0.07721,0.22096 -0.18982,0.25441 -0.38952,0.11572 -0.71989,0.37579 -0.92377,0.72727 -0.20287,0.35234 -0.26335,0.76865 -0.16896,1.1641 0.02729,0.1142 -0.02369,0.23275 -0.12535,0.29149 l -0.70812,0.40893 c -0.14534,0.08392 -0.33111,0.013549 -0.38435,-0.14563 -0.2069,-0.6179 -0.19856,-1.2819 0.01271,-1.8878 a 0.79605,0.79605 0 0 0 0.45494,-0.36197 0.79605,0.79605 0 0 0 0.08575,-0.5748 c 0.41898,-0.48628 0.98984,-0.82589 1.6286,-0.95587 0.06767,-0.01376 0.13808,-6.31e-4 0.19622,0.03665 z m 1.7956,3.9402 0.70825,0.40891 c 0.14543,0.083937 0.17732,0.28014 0.06596,0.40582 -0.44174,0.49866 -1.024,0.81434 -1.6428,0.93122 a 0.79605,0.79605 0 0 0 -0.15793,-0.11436 0.79605,0.79605 0 0 0 -0.38161,-0.097506 0.79605,0.79605 0 0 0 -0.54087,0.21331 c -0.31635,-0.05913 -0.62696,-0.17106 -0.91835,-0.33886 -3.47e-4,-2.01e-4 -7.17e-4,-4.14e-4 -0.0011,-6.54e-4 -0.27099,-0.15817 -0.51493,-0.35861 -0.72215,-0.59422 -0.11064,-0.12574 -0.07856,-0.32127 0.06646,-0.40508 l 0.70896,-0.40935 c 0.102,-0.05887 0.23061,-0.043468 0.31583,0.037829 0.08961,0.085457 0.18902,0.1601 0.29592,0.22262 0.61057,0.35165 1.3764,0.26147 1.8884,-0.22269 0.08528,-0.08064 0.2134,-0.095684 0.31504,-0.036987 z"
       color="#000000"
       fill="#ffffff"
       id="path1292" />
    <path
       d="m 23.670019,-11.045528 c -1.4138,-0.81625 -3.1661,-0.51637 -4.2376,0.62461 a 0.79605,0.79605 0 0 1 0.30058,0.46124 c 0.41898,-0.48628 0.98984,-0.82589 1.6286,-0.95588 0.06767,-0.01376 0.13808,-6.29e-4 0.19622,0.03665 0.07589,0.04913 0.1221,0.13297 0.12208,0.22338 l 7.6e-5,0.81976 c 5e-6,0.11746 -0.07721,0.22096 -0.18982,0.25441 -0.38952,0.11572 -0.71989,0.37579 -0.92377,0.72727 -0.20287,0.35234 -0.26335,0.76865 -0.16896,1.1641 0.02729,0.1142 -0.02369,0.23275 -0.12535,0.29149 l -0.70812,0.40893 c -0.14534,0.083921 -0.33111,0.013549 -0.38435,-0.14563 -0.2069,-0.6179 -0.19856,-1.2819 0.01271,-1.8878 a 0.79605,0.79605 0 0 1 -0.54973,-0.029694 c -0.4522,1.4984 0.16418,3.1657 1.5779,3.9819 0.29964,0.173 0.61456,0.29535 0.93496,0.37074 a 0.79605,0.79605 0 0 1 0.24897,-0.49135 c -0.31636,-0.05913 -0.62697,-0.17105 -0.91835,-0.33886 -3.48e-4,-2e-4 -7.17e-4,-4.13e-4 -0.0011,-6.54e-4 -0.27099,-0.15817 -0.51492,-0.35862 -0.72215,-0.59422 -0.11064,-0.12574 -0.07856,-0.32127 0.06646,-0.40508 l 0.70896,-0.40935 c 0.102,-0.05887 0.23061,-0.043467 0.31583,0.03783 0.08962,0.085456 0.18902,0.1601 0.29592,0.22262 0.61057,0.35165 1.3764,0.26147 1.8884,-0.22269 0.08528,-0.080641 0.2134,-0.095684 0.31504,-0.036987 l 0.70825,0.40891 c 0.14543,0.083937 0.17732,0.28014 0.06596,0.40582 -0.44174,0.49865 -1.024,0.81434 -1.6428,0.93122 a 0.79605,0.79605 0 0 1 0.25054,0.49116 c 0.89376,-0.21059 1.7022,-0.77423 2.1973,-1.6317 0.49517,-0.85766 0.57902,-1.8399 0.31432,-2.7193 a 0.79605,0.79605 0 0 1 -0.54846,0.029539 c 0.20849,0.59459 0.22639,1.257 0.01529,1.8893 -0.05316,0.15928 -0.23903,0.22976 -0.38444,0.14579 l -0.71116,-0.41059 c -0.10165,-0.058671 -0.15269,-0.17715 -0.12549,-0.29132 0.16324,-0.68529 -0.14137,-1.3935 -0.75091,-1.7465 -0.10755,-0.061227 -0.22178,-0.10999 -0.34052,-0.14483 -0.11303,-0.033135 -0.19067,-0.13681 -0.19067,-0.25461 l -7.5e-5,-0.81976 c 3.8e-5,-0.16762 0.15355,-0.29322 0.31786,-0.26007 0.30771,0.06203 0.60334,0.17324 0.87562,0.32944 2.39e-4,1.37e-4 4.56e-4,2.63e-4 6.7e-4,3.86e-4 0.29099,0.16803 0.54324,0.38063 0.75277,0.6246203 a 0.79605,0.79605 0 0 1 0.30085,-0.4602003 c -0.22543,-0.23964 -0.48876,-0.4511 -0.78827,-0.62402 z m -1.1941,2.0682 a 1.0614,1.0614 0 0 1 0.3885,1.4499 1.0614,1.0614 0 0 1 -1.4499,0.3885 1.0614,1.0614 0 0 1 -0.3885,-1.4499 1.0614,1.0614 0 0 1 1.4499,-0.3885 z"
       color="#000000"
       opacity="0.1"
       id="path1294" />
    <path
       d="m 25.115019,-10.136628 a 0.39803,0.39803 0 0 0 -0.38151,0.0091 0.39803,0.39803 0 0 0 -0.14571,0.54364 0.39803,0.39803 0 0 0 0.54364,0.14571 0.39803,0.39803 0 0 0 0.14577,-0.54375 0.39803,0.39803 0 0 0 -0.16218,-0.15469 z m -5.9584,0.009 a 0.39803,0.39803 0 0 0 -0.54371,0.14568 0.39803,0.39803 0 0 0 0.14569,0.54372 0.39803,0.39803 0 0 0 0.54372,-0.14569 0.39803,0.39803 0 0 0 -0.14569,-0.54371 z m 2.9793,5.1698 a 0.39803,0.39803 0 0 0 -0.1909,-0.04872 0.39803,0.39803 0 0 0 -0.39795,0.39801 0.39803,0.39803 0 0 0 0.39801,0.39795 0.39803,0.39803 0 0 0 0.39795,-0.398 0.39803,0.39803 0 0 0 -0.20711,-0.34923 z"
       enable-background="new"
       fill="#e6e6e6"
       id="path1296" />
  </g>
</svg>
