<?xml version="1.0" encoding="UTF-8"?>
<svg width="64" height="64" version="1.1" viewBox="0 0 64 64" xmlns="http://www.w3.org/2000/svg" xmlns:cc="http://creativecommons.org/ns#" xmlns:dc="http://purl.org/dc/elements/1.1/" xmlns:rdf="http://www.w3.org/1999/02/22-rdf-syntax-ns#" xmlns:xlink="http://www.w3.org/1999/xlink">
 <metadata>
  <rdf:RDF>
   <cc:Work rdf:about="">
    <dc:format>image/svg+xml</dc:format>
    <dc:type rdf:resource="http://purl.org/dc/dcmitype/StillImage"/>
    <dc:title/>
   </cc:Work>
  </rdf:RDF>
 </metadata>
 <defs>
  <linearGradient id="a" x1="32.551" x2="32.551" y1="61.933" y2="1.7911" gradientUnits="userSpaceOnUse">
   <stop stop-color="#fafafa" offset="0"/>
   <stop stop-color="#d2d2d2" offset="1"/>
  </linearGradient>
  <filter id="filter2761" x="-.024" y="-.024" width="1.048" height="1.048" color-interpolation-filters="sRGB">
   <feGaussianBlur stdDeviation="0.14552168"/>
  </filter>
  <filter id="filter1338" x="-.060001" y="-.059999" width="1.12" height="1.12" color-interpolation-filters="sRGB">
   <feGaussianBlur stdDeviation="1.4999625"/>
  </filter>
  <linearGradient id="linearGradient1579" x1="10.681" x2="54.343" y1="53.172" y2="10.063" gradientUnits="userSpaceOnUse">
   <stop stop-color="#3250e6" offset="0"/>
   <stop stop-color="#0a82f0" offset="1"/>
  </linearGradient>
 </defs>
 <path transform="matrix(3.7796 0 0 3.7796 -.0032124 .53085)" d="m10.709 1.05c4.405 0 5.0345 0.67282 5.0345 5.388v3.7761c0 4.7152-0.62954 5.388-5.0345 5.388h-4.4832c-4.405 0-5.0346-0.6728-5.0346-5.388v-3.7761c0-4.7152 0.62954-5.388 5.0346-5.388z" enable-background="new" fill="#141414" filter="url(#filter2761)" opacity=".3"/>
 <path d="m40.473 4.4994c16.649 0 19.028 2.543 19.028 20.364v14.272c0 17.822-2.3794 20.364-19.028 20.364h-16.945c-16.649 0-19.029-2.5429-19.029-20.364v-14.272c0-17.822 2.3794-20.364 19.029-20.364z" enable-background="new" fill="#fafafa" stroke-width="3.7796"/>
 <g transform="matrix(3.7796 0 0 3.7796 100.85 -46.51)" fill="#5e4aa6" stroke-width=".26458">
  <circle cx="-305.77" cy="-331.46" r="0"/>
  <circle cx="-301.96" cy="-329.38" r="0"/>
  <circle cx="-298.88" cy="-325.72" r="0"/>
  <circle cx="-301.82" cy="-331.53" r="0"/>
  <g transform="translate(55.39,6.5931)">
   <circle cx="-330.35" cy="-328.38" r="0"/>
   <circle cx="-299.17" cy="-337.27" r="0"/>
   <circle cx="-299.81" cy="-339.42" r="0"/>
   <circle cx="-302.25" cy="-338.13" r="0"/>
   <circle cx="-301.89" cy="-335.91" r="0"/>
   <circle cx="-304.76" cy="-351.05" r="0"/>
   <circle cx="-304.83" cy="-349.54" r="0"/>
   <circle cx="-359.94" cy="-336.91" r="0"/>
  </g>
  <g transform="translate(30.323,-4.155)">
   <circle cx="-330.35" cy="-328.38" r="0"/>
   <g transform="translate(23.999,2.5837)">
    <circle cx="-330.35" cy="-328.38" r="0"/>
    <circle cx="-299.17" cy="-337.27" r="0"/>
    <circle cx="-299.81" cy="-339.42" r="0"/>
    <circle cx="-302.25" cy="-338.13" r="0"/>
    <circle cx="-301.89" cy="-335.91" r="0"/>
    <circle cx="-304.76" cy="-351.05" r="0"/>
    <circle cx="-304.83" cy="-349.54" r="0"/>
    <circle cx="-359.94" cy="-336.91" r="0"/>
   </g>
   <g transform="translate(24.518,-1.8976)">
    <circle cx="-330.35" cy="-328.38" r="0"/>
    <circle cx="-299.17" cy="-337.27" r="0"/>
    <circle cx="-299.81" cy="-339.42" r="0"/>
    <circle cx="-302.25" cy="-338.13" r="0"/>
    <circle cx="-301.89" cy="-335.91" r="0"/>
    <circle cx="-304.76" cy="-351.05" r="0"/>
    <circle cx="-304.83" cy="-349.54" r="0"/>
    <circle cx="-359.94" cy="-336.91" r="0"/>
   </g>
  </g>
  <g transform="translate(28.745,-10.326)">
   <circle cx="-330.35" cy="-328.38" r="0"/>
   <g transform="translate(23.999,2.5837)">
    <circle cx="-330.35" cy="-328.38" r="0"/>
    <circle cx="-299.17" cy="-337.27" r="0"/>
    <circle cx="-299.81" cy="-339.42" r="0"/>
    <circle cx="-302.25" cy="-338.13" r="0"/>
    <circle cx="-301.89" cy="-335.91" r="0"/>
    <circle cx="-304.76" cy="-351.05" r="0"/>
    <circle cx="-304.83" cy="-349.54" r="0"/>
    <circle cx="-359.94" cy="-336.91" r="0"/>
   </g>
   <g transform="translate(24.518,-1.8976)">
    <circle cx="-330.35" cy="-328.38" r="0"/>
    <circle cx="-299.17" cy="-337.27" r="0"/>
    <circle cx="-299.81" cy="-339.42" r="0"/>
    <circle cx="-302.25" cy="-338.13" r="0"/>
    <circle cx="-301.89" cy="-335.91" r="0"/>
    <circle cx="-304.76" cy="-351.05" r="0"/>
    <circle cx="-304.83" cy="-349.54" r="0"/>
    <circle cx="-359.94" cy="-336.91" r="0"/>
   </g>
   <circle cx="-311.92" cy="-331.32" r="0"/>
  </g>
  <g transform="translate(27.094,-3.4375)">
   <circle cx="-330.35" cy="-328.38" r="0"/>
   <g transform="translate(23.999,2.5837)">
    <circle cx="-330.35" cy="-328.38" r="0"/>
    <circle cx="-299.17" cy="-337.27" r="0"/>
    <circle cx="-299.81" cy="-339.42" r="0"/>
    <circle cx="-302.25" cy="-338.13" r="0"/>
    <circle cx="-301.89" cy="-335.91" r="0"/>
    <circle cx="-304.76" cy="-351.05" r="0"/>
    <circle cx="-304.83" cy="-349.54" r="0"/>
    <circle cx="-359.94" cy="-336.91" r="0"/>
   </g>
   <g transform="translate(24.518,-1.8976)">
    <circle cx="-330.35" cy="-328.38" r="0"/>
    <circle cx="-299.17" cy="-337.27" r="0"/>
    <circle cx="-299.81" cy="-339.42" r="0"/>
    <circle cx="-302.25" cy="-338.13" r="0"/>
    <circle cx="-301.89" cy="-335.91" r="0"/>
    <circle cx="-304.76" cy="-351.05" r="0"/>
    <circle cx="-304.83" cy="-349.54" r="0"/>
    <circle cx="-359.94" cy="-336.91" r="0"/>
   </g>
   <circle cx="-311.92" cy="-331.32" r="0"/>
  </g>
  <g transform="translate(29.247,-7.4555)">
   <circle cx="-330.35" cy="-328.38" r="0"/>
   <g transform="translate(23.999,2.5837)">
    <circle cx="-330.35" cy="-328.38" r="0"/>
    <circle cx="-299.17" cy="-337.27" r="0"/>
    <circle cx="-299.81" cy="-339.42" r="0"/>
    <circle cx="-302.25" cy="-338.13" r="0"/>
    <circle cx="-301.89" cy="-335.91" r="0"/>
    <circle cx="-304.76" cy="-351.05" r="0"/>
    <circle cx="-304.83" cy="-349.54" r="0"/>
    <circle cx="-359.94" cy="-336.91" r="0"/>
   </g>
   <g transform="translate(24.518,-1.8976)">
    <circle cx="-330.35" cy="-328.38" r="0"/>
    <circle cx="-299.17" cy="-337.27" r="0"/>
    <circle cx="-299.81" cy="-339.42" r="0"/>
    <circle cx="-302.25" cy="-338.13" r="0"/>
    <circle cx="-301.89" cy="-335.91" r="0"/>
    <circle cx="-304.76" cy="-351.05" r="0"/>
    <circle cx="-304.83" cy="-349.54" r="0"/>
    <circle cx="-359.94" cy="-336.91" r="0"/>
   </g>
   <circle cx="-311.92" cy="-331.32" r="0"/>
   <circle cx="-300.02" cy="-345.82" r="0"/>
   <g transform="translate(19.697 .87184)">
    <circle cx="-330.35" cy="-328.38" r="0"/>
    <circle cx="-299.17" cy="-337.27" r="0"/>
    <circle cx="-299.81" cy="-339.42" r="0"/>
    <circle cx="-302.25" cy="-338.13" r="0"/>
    <circle cx="-301.89" cy="-335.91" r="0"/>
    <circle cx="-304.76" cy="-351.05" r="0"/>
    <circle cx="-304.83" cy="-349.54" r="0"/>
    <circle cx="-359.94" cy="-336.91" r="0"/>
   </g>
   <circle cx="-299.82" cy="-321.23" r="0"/>
  </g>
  <g transform="translate(22.502,-7.025)">
   <circle cx="-330.35" cy="-328.38" r="0"/>
   <g transform="translate(23.999,2.5837)">
    <circle cx="-330.35" cy="-328.38" r="0"/>
    <circle cx="-299.17" cy="-337.27" r="0"/>
    <circle cx="-299.81" cy="-339.42" r="0"/>
    <circle cx="-302.25" cy="-338.13" r="0"/>
    <circle cx="-301.89" cy="-335.91" r="0"/>
    <circle cx="-304.76" cy="-351.05" r="0"/>
    <circle cx="-304.83" cy="-349.54" r="0"/>
    <circle cx="-359.94" cy="-336.91" r="0"/>
   </g>
   <g transform="translate(24.518,-1.8976)">
    <circle cx="-330.35" cy="-328.38" r="0"/>
    <circle cx="-299.17" cy="-337.27" r="0"/>
    <circle cx="-299.81" cy="-339.42" r="0"/>
    <circle cx="-302.25" cy="-338.13" r="0"/>
    <circle cx="-301.89" cy="-335.91" r="0"/>
    <circle cx="-304.76" cy="-351.05" r="0"/>
    <circle cx="-304.83" cy="-349.54" r="0"/>
    <circle cx="-359.94" cy="-336.91" r="0"/>
   </g>
   <circle cx="-311.92" cy="-331.32" r="0"/>
   <circle cx="-300.02" cy="-345.82" r="0"/>
   <g transform="translate(19.697 .87184)">
    <circle cx="-330.35" cy="-328.38" r="0"/>
    <circle cx="-299.17" cy="-337.27" r="0"/>
    <circle cx="-299.81" cy="-339.42" r="0"/>
    <circle cx="-302.25" cy="-338.13" r="0"/>
    <circle cx="-301.89" cy="-335.91" r="0"/>
    <circle cx="-304.76" cy="-351.05" r="0"/>
    <circle cx="-304.83" cy="-349.54" r="0"/>
    <circle cx="-359.94" cy="-336.91" r="0"/>
   </g>
   <circle cx="-299.82" cy="-321.23" r="0"/>
  </g>
  <g transform="translate(17.301,-3.9312)">
   <circle cx="-330.35" cy="-328.38" r="0"/>
   <circle cx="-39.434" cy="6.44" r="0" fill-rule="evenodd"/>
   <circle cx="-306.9" cy="-332.28" r="0"/>
  </g>
 </g>
 <g transform="matrix(3.7796 0 0 3.7796 205.46 -37.487)" fill="#5e4aa6" stroke-width=".26458">
  <circle cx="-330.35" cy="-328.38" r="0"/>
  <circle cx="-39.434" cy="6.44" r="0" fill-rule="evenodd"/>
  <circle cx="-306.9" cy="-332.28" r="0"/>
 </g>
 <g transform="translate(.65964 -.60967)">
  <g transform="matrix(.75174 0 0 .75174 7.2835 7.8022)">
   <g stroke-opacity=".55" stroke-width="4.1999">
    <rect x="2.003" y="3" width="59.997" height="60" rx="29.998" filter="url(#filter1338)" opacity=".25"/>
    <rect x="2.003" y="2" width="59.997" height="60" rx="29.998" fill="url(#a)"/>
    <rect x="8.0027" y="8.8771" width="47.998" height="48" rx="23.999" opacity=".15"/>
   </g>
   <path d="m2.018 31.25c-6e-3 0.2505-0.017999 0.498-0.017999 0.75 0 16.62 13.379 30 29.998 30s29.998-13.38 29.998-30c0-0.252-0.012-0.4995-0.018-0.75-0.39748 16.269-13.619 29.25-29.98 29.25-16.367 0-29.585-12.981-29.98-29.25" fill="#b9b9b9" opacity=".35" stroke-width="1.5"/>
   <g>
    <rect x="8.0027" y="8" width="47.998" height="48" rx="23.999" fill="url(#linearGradient1579)" stroke-opacity=".55" stroke-width="4.1999"/>
    <rect x="12.502" y="12.5" width="38.998" height="39" rx="19.499" fill="#fff" stroke-opacity=".55" stroke-width="4.1999"/>
    <rect x="30.502" y="12.5" width="2.9998" height="7.5" rx="1.4999" fill="#e6e6e6" stroke-width="1.5"/>
    <ellipse cx="32.002" cy="8" rx="1.4999" ry="1.5" fill="#fff" stroke-width="1.5"/>
   </g>
   <g fill="#26333a" stroke-width="1.5">
    <ellipse cx="56" cy="32" rx="1.4999" ry="1.5"/>
    <ellipse cx="8.0027" cy="32" rx="1.4999" ry="1.5"/>
    <ellipse cx="14.002" cy="15.5" rx="1.4999" ry="1.5"/>
    <ellipse cx="50.001" cy="15.5" rx="1.4999" ry="1.5"/>
    <ellipse cx="14.002" cy="48.5" rx="1.4999" ry="1.5"/>
    <ellipse cx="50.001" cy="48.5" rx="1.4999" ry="1.5"/>
   </g>
  </g>
 </g>
</svg>
