<?xml version="1.0" encoding="UTF-8" standalone="no"?>
<svg
   xmlns:dc="http://purl.org/dc/elements/1.1/"
   xmlns:cc="http://creativecommons.org/ns#"
   xmlns:rdf="http://www.w3.org/1999/02/22-rdf-syntax-ns#"
   xmlns:svg="http://www.w3.org/2000/svg"
   xmlns="http://www.w3.org/2000/svg"
   xmlns:xlink="http://www.w3.org/1999/xlink"
   xmlns:sodipodi="http://sodipodi.sourceforge.net/DTD/sodipodi-0.dtd"
   xmlns:inkscape="http://www.inkscape.org/namespaces/inkscape"
   inkscape:version="1.0 (4035a4fb49, 2020-05-01)"
   sodipodi:docname="netease-cloud-music.svg"
   id="svg25"
   viewBox="0 0 16.933 16.933"
   version="1.1"
   height="64"
   width="64">
  <metadata
     id="metadata29">
    <rdf:RDF>
      <cc:Work
         rdf:about="">
        <dc:format>image/svg+xml</dc:format>
        <dc:type
           rdf:resource="http://purl.org/dc/dcmitype/StillImage" />
        <dc:title></dc:title>
      </cc:Work>
    </rdf:RDF>
  </metadata>
  <sodipodi:namedview
     inkscape:current-layer="svg25"
     inkscape:window-maximized="1"
     inkscape:window-y="0"
     inkscape:window-x="0"
     inkscape:cy="29.100462"
     inkscape:cx="-28.450547"
     inkscape:zoom="3.1875"
     showgrid="false"
     id="namedview27"
     inkscape:window-height="985"
     inkscape:window-width="1920"
     inkscape:pageshadow="2"
     inkscape:pageopacity="0"
     guidetolerance="10"
     gridtolerance="10"
     objecttolerance="10"
     borderopacity="1"
     bordercolor="#666666"
     pagecolor="#ffffff" />
  <defs
     id="defs7">
    <linearGradient
       gradientUnits="userSpaceOnUse"
       gradientTransform="matrix(0.53033,0,0,0.53033,11.536,352.06)"
       y2="-98.292"
       y1="-140.25"
       x2="-6.1472"
       x1="-6.1472"
       id="a">
      <stop
         id="stop2"
         offset="0"
         stop-color="#ff3c69" />
      <stop
         id="stop4"
         offset="1"
         stop-color="#ff462b" />
    </linearGradient>
    <filter
       inkscape:collect="always"
       style="color-interpolation-filters:sRGB"
       id="filter1052"
       x="-0.048"
       width="1.096"
       y="-0.048"
       height="1.096">
      <feGaussianBlur
         inkscape:collect="always"
         stdDeviation="0.29103594"
         id="feGaussianBlur1054" />
    </filter>
    <linearGradient
       inkscape:collect="always"
       xlink:href="#linearGradient1038"
       id="linearGradient1040"
       x1="37.040939"
       y1="15.874687"
       x2="51.592735"
       y2="1.3228906"
       gradientUnits="userSpaceOnUse"
       gradientTransform="translate(-35.850338,-0.1322888)" />
    <linearGradient
       inkscape:collect="always"
       id="linearGradient1038">
      <stop
         style="stop-color:#ff4438;stop-opacity:1"
         offset="0"
         id="stop1034" />
      <stop
         style="stop-color:#ff3e5b;stop-opacity:1"
         offset="1"
         id="stop1036" />
    </linearGradient>
  </defs>
  <rect
     ry="3.4395156"
     y="1.1906019"
     x="1.1906022"
     height="14.551797"
     width="14.551797"
     id="rect1042"
     style="opacity:0.3;fill:#000000;fill-opacity:1;stroke-width:0.529156;stroke-linecap:round;filter:url(#filter1052)" />
  <rect
     style="fill:url(#linearGradient1040);fill-opacity:1;stroke-width:0.529156;stroke-linecap:round"
     id="rect1032"
     width="14.551797"
     height="14.551797"
     x="1.1906022"
     y="1.1906019"
     ry="3.4395156" />
  <path
     id="path887"
     stroke-width="1.1697"
     fill="#ffffff"
     d="m 9.3909017,8.7719874 a 0.79772,0.79772 0 0 1 -0.81175,0.78251 c -0.49711,0 -0.77081,-0.43629 -0.81526,-0.83983 -0.08422,-0.77198 0.33453,-1.1919 0.69946,-1.4071 0.14855,-0.0877 0.3123,-0.15557 0.48191,-0.20586 0,0 0.39535,1.2094 0.42576,1.3966 0.03392,0.20703 0.01871,0.27371 0.01871,0.27371 m 1.9393003,-2.4247 a 3.1733,3.1733 0 0 0 -1.5217003,-0.45032 l -0.12399,-0.43395 0.0047,0.005 -0.01404,-0.0386 -0.03509,-0.12866 c -0.08422,-0.37196 0.06784,-0.54858 0.14621,-0.61174 l 0.04211,-0.0292 c 0.3602603,-0.23043 0.8702403,0.13802 0.8994803,0.16024 0.22692,0.21054 0.64215,0.26317 0.86556,0.0468 0.22692,-0.21756 0.17311,-0.62578 -0.05264,-0.84333 -0.35207,-0.33921 -1.4352,-0.88428 -2.3557003,-0.29242 -0.82696,0.53103 -0.8445,1.2784 -0.70765,1.7101 l 0.16493,0.58484 a 3.2517,3.2517 0 0 0 -0.78368,0.32984 c -0.9065,0.53454 -1.3603,1.4387 -1.2469,2.475 0.11697,1.0656 0.94393,1.8398996 1.9674,1.8398996 1.0878,0 1.9721003,-0.8515296 1.9721003,-1.8983996 -0.0152,-0.24914 -0.0117,-0.2468 -0.04679,-0.47021 -0.03509,-0.21756 -0.36845,-1.2422 -0.36845,-1.2422 0.20586,0.0468 0.39769,0.12047 0.56261,0.2234 1.8691,1.1697 1.0913,3.0329996 1.0562,3.1136996 -0.51466,1.1896 -1.6375,1.9007 -3.0798003,1.9487 a 3.5277,3.5277 0 0 1 -2.5359,-0.95212 3.5956,3.5956 0 0 1 -1.1533,-2.6200996 c 0,-1.482 0.96615,-2.8271 2.406,-3.3464 0.30061,-0.10877 0.54156,-0.41757 0.37663,-0.77549 -0.131,-0.28072 -0.48424,-0.37898 -0.78368,-0.26903 -1.8902,0.68192 -3.1593,2.447 -3.1593,4.3898 0,1.2854996 0.54975,2.5334996 1.5089,3.4247996 a 4.7021,4.7021 0 0 0 3.3827,1.2644 c 1.8879003,-0.0632 3.4236003,-1.048 4.1079003,-2.6294 0.42693,-0.9602996 0.66554,-3.1346996 -1.4937,-4.4844996" />
</svg>
