<?xml version="1.0" encoding="UTF-8" standalone="no"?>
<svg
   xmlns:dc="http://purl.org/dc/elements/1.1/"
   xmlns:cc="http://creativecommons.org/ns#"
   xmlns:rdf="http://www.w3.org/1999/02/22-rdf-syntax-ns#"
   xmlns:svg="http://www.w3.org/2000/svg"
   xmlns="http://www.w3.org/2000/svg"
   xmlns:xlink="http://www.w3.org/1999/xlink"
   xmlns:sodipodi="http://sodipodi.sourceforge.net/DTD/sodipodi-0.dtd"
   xmlns:inkscape="http://www.inkscape.org/namespaces/inkscape"
   inkscape:version="1.0 (4035a4fb49, 2020-05-01)"
   sodipodi:docname="office-calendar.svg"
   id="svg28"
   viewBox="0 0 16.933 16.933"
   version="1.1"
   height="64"
   width="64">
  <sodipodi:namedview
     inkscape:current-layer="svg28"
     inkscape:window-maximized="1"
     inkscape:window-y="0"
     inkscape:window-x="0"
     inkscape:cy="24.406288"
     inkscape:cx="7.0980951"
     inkscape:zoom="4.5078057"
     showgrid="false"
     id="namedview30"
     inkscape:window-height="985"
     inkscape:window-width="1920"
     inkscape:pageshadow="2"
     inkscape:pageopacity="0"
     guidetolerance="10"
     gridtolerance="10"
     objecttolerance="10"
     borderopacity="1"
     bordercolor="#666666"
     pagecolor="#ffffff" />
  <defs
     id="defs10">
    <filter
       color-interpolation-filters="sRGB"
       height="1.048"
       width="1.048"
       y="-.024"
       x="-.024"
       id="filter2761">
      <feGaussianBlur
         id="feGaussianBlur2"
         stdDeviation="0.14552168" />
    </filter>
    <linearGradient
       gradientUnits="userSpaceOnUse"
       gradientTransform="translate(1.4032401,-282.40798)"
       y2="295.6"
       y1="281.24"
       x2="1.3927"
       x1="15.752"
       id="linearGradient2645-3">
      <stop
         id="stop5"
         offset="0"
         stop-color="#0a82f0" />
      <stop
         id="stop7"
         offset="1"
         stop-color="#3250e6" />
    </linearGradient>
    <filter
       color-interpolation-filters="sRGB"
       height="1.048"
       width="1.048"
       y="-.024"
       x="-.024"
       id="filter2761-3">
      <feGaussianBlur
         id="feGaussianBlur2-6"
         stdDeviation="0.14552168" />
    </filter>
    <linearGradient
       gradientUnits="userSpaceOnUse"
       gradientTransform="matrix(0.2399,0,0,0.25621,-99.147704,-126.64)"
       y2="546.21"
       y1="507.72"
       x2="394.95"
       x1="352.61"
       id="c">
      <stop
         id="stop5-7"
         offset="0"
         stop-color="#fafdfc" />
      <stop
         id="stop7-5"
         offset="1"
         stop-color="#c6efff" />
    </linearGradient>
    <linearGradient
       gradientUnits="userSpaceOnUse"
       gradientTransform="translate(-.13126 -280.07)"
       y2="295.6"
       y1="281.24"
       x2="1.3927"
       x1="15.752"
       id="linearGradient2645-3-3">
      <stop
         id="stop10"
         offset="0"
         stop-color="#0a82f0" />
      <stop
         id="stop12"
         offset="1"
         stop-color="#3250e6" />
    </linearGradient>
    <linearGradient
       gradientUnits="userSpaceOnUse"
       gradientTransform="matrix(0.93636,0,0,1,-17.523874,-2e-7)"
       y2="8.326"
       y1="8.326"
       x2="14.354"
       x1="2.5804"
       id="linearGradient981">
      <stop
         id="stop15"
         offset="0"
         stop-color="#1478f0" />
      <stop
         id="stop17"
         offset="1"
         stop-color="#145af0" />
    </linearGradient>
    <clipPath
       id="a">
      <circle
         id="circle2"
         style="paint-order:stroke markers fill"
         stroke-width=".491"
         stroke-opacity=".039"
         fill="#d86eb0"
         r="6.879"
         cy="288.53"
         cx="8.467" />
    </clipPath>
    <filter
       inkscape:collect="always"
       style="color-interpolation-filters:sRGB"
       id="filter1052"
       x="-0.048"
       width="1.096"
       y="-0.048"
       height="1.096">
      <feGaussianBlur
         inkscape:collect="always"
         stdDeviation="0.29103594"
         id="feGaussianBlur1054" />
    </filter>
    <linearGradient
       inkscape:collect="always"
       xlink:href="#linearGradient1038"
       id="linearGradient1040"
       x1="37.040939"
       y1="15.874687"
       x2="51.592735"
       y2="1.3228906"
       gradientUnits="userSpaceOnUse"
       gradientTransform="translate(-35.850337,-0.13228877)" />
    <linearGradient
       inkscape:collect="always"
       id="linearGradient1038">
      <stop
         style="stop-color:#3250e6;stop-opacity:1"
         offset="0"
         id="stop1034" />
      <stop
         style="stop-color:#0a82f0;stop-opacity:1"
         offset="1"
         id="stop1036" />
    </linearGradient>
    <style
       type="text/css"
       id="style904" />
    <style
       type="text/css"
       id="style906" />
    <style
       type="text/css"
       id="style908" />
    <linearGradient
       id="linearGradient1448"
       x1="3.9687"
       x2="3.9687"
       y1="16.404"
       y2="2.6458"
       gradientTransform="matrix(0.91666,0,0,0.91666,23.056117,0.70545)"
       gradientUnits="userSpaceOnUse">
      <stop
         stop-color="#00a0ff"
         offset="0"
         id="stop910" />
      <stop
         stop-color="#37beff"
         offset="1"
         id="stop912" />
    </linearGradient>
    <filter
       id="filter861"
       x="-.027"
       y="-.027"
       width="1.054"
       height="1.054"
       color-interpolation-filters="sRGB">
      <feGaussianBlur
         stdDeviation="0.16371"
         id="feGaussianBlur915" />
    </filter>
  </defs>
  <metadata
     id="metadata12">
    <rdf:RDF>
      <cc:Work
         rdf:about="">
        <dc:format>image/svg+xml</dc:format>
        <dc:type
           rdf:resource="http://purl.org/dc/dcmitype/StillImage" />
        <dc:title></dc:title>
      </cc:Work>
    </rdf:RDF>
  </metadata>
  <rect
     ry="3.4395156"
     y="1.1906018"
     x="1.1906018"
     height="14.551797"
     width="14.551797"
     id="rect1042"
     style="opacity:0.3;fill:#000000;fill-opacity:1;stroke-width:0.529156;stroke-linecap:round;filter:url(#filter1052)" />
  <rect
     style="fill:url(#linearGradient1040);fill-opacity:1;stroke-width:0.529156;stroke-linecap:round"
     id="rect1032"
     width="14.551797"
     height="14.551797"
     x="1.1906016"
     y="1.1906018"
     ry="3.4395156" />
  <g
     style="font-size:3.1548px;line-height:1.25;font-family:sans-serif;letter-spacing:0px;word-spacing:0px;fill:#ffffff;stroke-width:0.078871"
     id="text20"
     aria-label="Friday">
    <path
       id="path1042"
       style="fill:#ffffff;stroke-width:0.078871"
       d="M 4.6586716,4.9188916 H 5.7565419 V 4.6601981 H 4.6586716 V 3.9251297 H 5.9079723 V 3.6664361 H 4.3652752 v 2.2998491 h 0.2933964 z" />
    <path
       id="path1044"
       style="fill:#ffffff;stroke-width:0.078871"
       d="M 6.1130247,4.3131701 V 5.9662852 H 6.3780279 V 5.1081796 C 6.3811827,4.7106749 6.5452323,4.5340061 6.9080343,4.5434705 v -0.268158 c -0.044167,-0.00631 -0.069406,-0.00946 -0.1009536,-0.00946 -0.1703592,0 -0.299706,0.1009536 -0.4511364,0.347028 v -0.299706 z" />
    <path
       id="path1046"
       style="fill:#ffffff;stroke-width:0.078871"
       d="M 7.4222594,4.3131701 H 7.1604111 v 1.6531151 h 0.2618483 z m 0,-0.646734 H 7.1572563 v 0.331254 h 0.2650031 z" />
    <path
       id="path1048"
       style="fill:#ffffff;stroke-width:0.078871"
       d="M 9.2110255,3.6664361 H 8.9491771 V 4.5213869 C 8.8387591,4.3541825 8.6620903,4.2658481 8.4412543,4.2658481 c -0.4290528,0 -0.70983,0.3438732 -0.70983,0.8707247 0,0.5583996 0.2713128,0.9022728 0.7192944,0.9022728 0.2271456,0 0.3848856,-0.08518 0.5268516,-0.2902416 v 0.2176812 h 0.2334552 z m -0.725604,0.8454864 c 0.283932,0 0.4637556,0.2492292 0.4637556,0.6467339 0,0.3817308 -0.1829784,0.6341148 -0.4606008,0.6341148 -0.2902416,0 -0.4826844,-0.2555388 -0.4826844,-0.6404244 0,-0.3848855 0.1924428,-0.6404243 0.4795296,-0.6404243 z" />
    <path
       id="path1050"
       style="fill:#ffffff;stroke-width:0.078871"
       d="m 11.078661,5.8117 c -0.02839,0.00631 -0.04101,0.00631 -0.05679,0.00631 -0.09149,0 -0.141966,-0.047322 -0.141966,-0.1293468 V 4.7169845 c 0,-0.2933964 -0.214526,-0.4511364 -0.621495,-0.4511364 -0.24292,0 -0.4353625,0.069406 -0.5489353,0.1924428 -0.075715,0.08518 -0.1072632,0.1798236 -0.1135728,0.3438732 h 0.2650032 c 0.022084,-0.2019072 0.1419659,-0.2933964 0.3880399,-0.2933964 0.239765,0 0.369112,0.088334 0.369112,0.2460744 v 0.069406 c -0.0032,0.1135727 -0.05994,0.1545851 -0.274468,0.1829783 -0.3722659,0.047322 -0.4290523,0.059941 -0.5300059,0.1009536 -0.1924428,0.082025 -0.2902416,0.2271456 -0.2902416,0.441672 0,0.299706 0.2082168,0.488994 0.5426255,0.488994 0.208217,0 0.375421,-0.07256 0.561554,-0.2429196 0.01893,0.1703592 0.100954,0.2429196 0.271313,0.2429196 0.05679,0 0.09149,-0.00631 0.179824,-0.028393 z M 10.61806,5.4457432 c 0,0.088334 -0.02524,0.141966 -0.104108,0.2145264 -0.107264,0.097799 -0.23661,0.1482756 -0.391195,0.1482756 -0.2050625,0 -0.3249449,-0.097799 -0.3249449,-0.2650032 0,-0.173514 0.1135728,-0.2618484 0.3975049,-0.3028608 0.280777,-0.037858 0.334409,-0.050477 0.422743,-0.091489 z" />
    <path
       id="path1052"
       style="fill:#ffffff;stroke-width:0.078871"
       d="M 12.283792,4.3131701 11.826346,5.6003284 11.403603,4.3131701 h -0.280777 l 0.5584,1.6594247 -0.100954,0.2618484 C 11.536105,6.3511708 11.479318,6.395338 11.3689,6.395338 c -0.04417,0 -0.08202,-0.00631 -0.138811,-0.018929 v 0.23661 c 0.05363,0.028393 0.107263,0.041012 0.176669,0.041012 0.08518,0 0.176669,-0.028393 0.246074,-0.07887 0.08202,-0.059941 0.129347,-0.1293468 0.179824,-0.2618484 l 0.735068,-2.0001431 z" />
  </g>
  <g
     style="font-size:7.4765px;line-height:1.25;font-family:sans-serif;letter-spacing:0px;word-spacing:0px;fill:#ffffff;stroke-width:0.18691"
     id="text24"
     aria-label="15">
    <path
       id="path1037"
       style="fill:#ffffff;stroke-width:0.18691"
       d="M 6.8310158,13.208154 H 6.1885041 V 9.8787748 q 0,-0.7009219 0.029205,-1.3142285 L 5.2247365,9.4114936 4.8742756,8.9734174 6.2761193,7.8636244 h 0.5548965 z" />
    <path
       id="path1039"
       style="fill:#ffffff;stroke-width:0.18691"
       d="m 8.8169612,13.003718 v -0.642512 q 0.5256914,0.350461 1.3434338,0.350461 0.584101,0 0.876152,-0.29205 0.321256,-0.292051 0.321256,-0.846948 0,-0.554896 -0.321256,-0.817742 -0.292051,-0.262846 -0.934562,-0.262846 -0.3212562,0 -0.8177425,0.08762 L 8.9337815,10.375261 9.1382171,7.8636244 H 11.649854 V 8.476931 H 9.7223186 L 9.5762932,9.9955951 q 0.3796661,-0.05841 0.7593318,-0.05841 0.788537,0 1.255819,0.438076 0.467281,0.408871 0.467281,1.109793 0,0.846947 -0.496486,1.314229 -0.496487,0.467281 -1.431049,0.467281 -0.8177425,0 -1.3142288,-0.262846 z" />
  </g>
  <circle
     id="circle19"
     stroke-width="0.26458"
     fill="#5e4aa6"
     r="0"
     cy="-328.87213"
     cx="-365.64008" />
  <g
     transform="translate(-12.939406,-0.49211557)"
     id="g930"
     stroke-width="0.26458"
     fill="#5e4aa6">
    <circle
       id="circle922"
       r="0"
       cy="-328.38"
       cx="-330.35001" />
    <circle
       id="circle924"
       r="0"
       cy="-328.37"
       cx="-330.35001" />
    <circle
       id="circle926"
       r="0"
       cy="-328.37"
       cx="-330.35001" />
    <circle
       id="circle928"
       r="0"
       cy="-336.82999"
       cx="-352.63" />
  </g>
  <g
     transform="translate(-12.939406,-0.49211557)"
     id="g972"
     fill="#5e4aa6">
    <g
       id="g940"
       stroke-width="0.26458">
      <circle
         id="circle932"
         r="0"
         cy="-328.38"
         cx="-330.35001" />
      <circle
         id="circle934"
         r="0"
         cy="-328.37"
         cx="-330.35001" />
      <circle
         id="circle936"
         r="0"
         cy="-328.37"
         cx="-330.35001" />
      <circle
         id="circle938"
         r="0"
         cy="-336.82999"
         cx="-352.63" />
    </g>
    <g
       id="g950"
       stroke-width="0.26458"
       transform="translate(32.665,-10.979)">
      <circle
         id="circle942"
         r="0"
         cy="-328.38"
         cx="-330.35001" />
      <circle
         id="circle944"
         r="0"
         cy="-326.25"
         cx="-312.10999" />
      <circle
         id="circle946"
         r="0"
         cy="-333.07001"
         cx="-306.01999" />
      <circle
         id="circle948"
         r="0"
         cy="-326.01001"
         cx="-308.84" />
    </g>
    <g
       id="g960"
       transform="matrix(0.26458,0,0,0.26458,4.6401e-6,4.6401e-6)">
      <circle
         id="circle952"
         r="0"
         cy="-1237.8"
         cx="-1331.1" />
      <circle
         id="circle954"
         r="0"
         cy="-1229.7"
         cx="-1262.2" />
      <circle
         id="circle956"
         r="0"
         cy="-1255.5"
         cx="-1239.2" />
      <circle
         id="circle958"
         r="0"
         cy="-1228.8"
         cx="-1249.8" />
    </g>
    <g
       id="g970"
       stroke-width="0.26458"
       transform="translate(-21.833,0.89722)">
      <circle
         id="circle962"
         r="0"
         cy="-328.38"
         cx="-330.35001" />
      <circle
         id="circle964"
         r="0"
         cy="-326.25"
         cx="-312.10999" />
      <circle
         id="circle966"
         r="0"
         cy="-333.07001"
         cx="-306.01999" />
      <circle
         id="circle968"
         r="0"
         cy="-326.01001"
         cx="-308.84" />
    </g>
  </g>
</svg>
