<?xml version="1.0" encoding="UTF-8"?>
<!-- Created with Inkscape (http://www.inkscape.org/) -->
<svg width="64" height="64" version="1.1" viewBox="0 0 16.933 16.933" xmlns="http://www.w3.org/2000/svg" xmlns:cc="http://creativecommons.org/ns#" xmlns:dc="http://purl.org/dc/elements/1.1/" xmlns:rdf="http://www.w3.org/1999/02/22-rdf-syntax-ns#" xmlns:xlink="http://www.w3.org/1999/xlink">
 <defs>
  <filter id="filter2761" x="-.024" y="-.024" width="1.048" height="1.048" color-interpolation-filters="sRGB">
   <feGaussianBlur stdDeviation="0.14552168"/>
  </filter>
  <linearGradient id="linearGradient1007" x1="4.2276" x2="7.3041" y1="5.5261" y2="5.5261" gradientTransform="translate(2.0025 -9.265)" gradientUnits="userSpaceOnUse">
   <stop stop-color="#0a82f0" offset="0"/>
   <stop stop-color="#3250e6" offset="1"/>
  </linearGradient>
  <linearGradient id="linearGradient904" x1="4.2276" x2="7.3041" y1="5.5261" y2="5.5261" gradientTransform="translate(2.0025,-18.826)" gradientUnits="userSpaceOnUse" xlink:href="#linearGradient1007"/>
  <linearGradient id="linearGradient910" x1="4.2276" x2="7.3041" y1="5.5261" y2="5.5261" gradientTransform="translate(2.0025,-9.265)" gradientUnits="userSpaceOnUse" xlink:href="#linearGradient1007"/>
 </defs>
 <metadata>
  <rdf:RDF>
   <cc:Work rdf:about="">
    <dc:format>image/svg+xml</dc:format>
    <dc:type rdf:resource="http://purl.org/dc/dcmitype/StillImage"/>
    <dc:title/>
   </cc:Work>
  </rdf:RDF>
 </metadata>
 <path d="m10.709 1.05c4.405 0 5.0345 0.67282 5.0345 5.388v3.7761c0 4.7152-0.62954 5.388-5.0345 5.388h-4.4832c-4.405 0-5.0346-0.6728-5.0346-5.388v-3.7761c0-4.7152 0.62954-5.388 5.0346-5.388z" enable-background="new" fill="#141414" filter="url(#filter2761)" opacity=".3"/>
 <path d="m10.709 1.05c4.405 0 5.0345 0.67282 5.0345 5.388v3.7761c0 4.7152-0.62954 5.388-5.0345 5.388h-4.4832c-4.405 0-5.0346-0.6728-5.0346-5.388v-3.7761c0-4.7152 0.62954-5.388 5.0346-5.388z" enable-background="new" fill="#fafafa"/>
 <g fill="#5e4aa6">
  <circle cx="-305.77" cy="-331.46" r="0" stroke-width=".26458"/>
  <g stroke-width=".26458">
   <circle cx="-301.96" cy="-329.38" r="0"/>
   <circle cx="-298.88" cy="-325.72" r="0"/>
   <circle cx="-301.82" cy="-331.53" r="0"/>
   <g transform="translate(55.39 6.5931)">
    <circle cx="-330.35" cy="-328.38" r="0"/>
    <circle cx="-299.17" cy="-337.27" r="0"/>
    <circle cx="-299.81" cy="-339.42" r="0"/>
    <circle cx="-302.25" cy="-338.13" r="0"/>
    <circle cx="-301.89" cy="-335.91" r="0"/>
    <circle cx="-304.76" cy="-351.05" r="0"/>
    <circle cx="-304.83" cy="-349.54" r="0"/>
    <circle cx="-359.94" cy="-336.91" r="0"/>
   </g>
   <g transform="translate(30.323 -4.155)">
    <circle cx="-330.35" cy="-328.38" r="0"/>
    <g transform="translate(23.999,2.5837)">
     <circle cx="-330.35" cy="-328.38" r="0"/>
     <circle cx="-299.17" cy="-337.27" r="0"/>
     <circle cx="-299.81" cy="-339.42" r="0"/>
     <circle cx="-302.25" cy="-338.13" r="0"/>
     <circle cx="-301.89" cy="-335.91" r="0"/>
     <circle cx="-304.76" cy="-351.05" r="0"/>
     <circle cx="-304.83" cy="-349.54" r="0"/>
     <circle cx="-359.94" cy="-336.91" r="0"/>
    </g>
    <g transform="translate(24.518,-1.8976)">
     <circle cx="-330.35" cy="-328.38" r="0"/>
     <circle cx="-299.17" cy="-337.27" r="0"/>
     <circle cx="-299.81" cy="-339.42" r="0"/>
     <circle cx="-302.25" cy="-338.13" r="0"/>
     <circle cx="-301.89" cy="-335.91" r="0"/>
     <circle cx="-304.76" cy="-351.05" r="0"/>
     <circle cx="-304.83" cy="-349.54" r="0"/>
     <circle cx="-359.94" cy="-336.91" r="0"/>
    </g>
   </g>
  </g>
 </g>
 <g transform="translate(-.03427 -.21618)">
  <rect x="3.21" y="5.3696" width="10.583" height="6.3468" ry=".39668" fill="#e6e6e6" stroke-width=".20091" style="paint-order:markers stroke fill"/>
  <g transform="matrix(.20352 0 0 .20352 1.8871 2.2982)" fill="#fff">
   <rect x="11" y="20" width="6" height="5" ry="1" fill="#fff" style="paint-order:markers stroke fill"/>
   <rect x="20" y="20" width="6" height="5" ry="1" fill="#fff" style="paint-order:markers stroke fill"/>
   <rect x="29" y="20" width="6" height="5" ry="1" style="paint-order:markers stroke fill"/>
   <rect x="39" y="20" width="6" height="5" ry="1" style="paint-order:markers stroke fill"/>
   <rect x="48" y="20" width="6" height="5" ry="1" style="paint-order:markers stroke fill"/>
   <rect x="11" y="29" width="6" height="5" ry="1" style="paint-order:markers stroke fill"/>
   <rect x="20" y="29" width="6" height="5" ry="1" style="paint-order:markers stroke fill"/>
   <rect x="29" y="29" width="6" height="5" ry="1" style="paint-order:markers stroke fill"/>
   <rect x="39" y="29" width="6" height="5" ry="1" style="paint-order:markers stroke fill"/>
   <rect x="48" y="29" width="6" height="5" ry="1" style="paint-order:markers stroke fill"/>
   <rect x="20" y="37.975" width="24" height="5" ry="1.025" style="paint-order:markers stroke fill"/>
  </g>
  <g transform="translate(-.017756)">
   <rect transform="rotate(90)" x="6.2301" y="-3.8719" width="3.0765" height=".26607" ry=".1303" fill="url(#linearGradient910)"/>
   <rect transform="rotate(90)" x="6.2301" y="-13.433" width="3.0765" height=".26607" ry=".1303" fill="url(#linearGradient904)"/>
  </g>
  <path d="m12.032 5.3681a8.1408 7.9352 0 0 1-6.2448 6.3482h7.599c0.2255 0 0.40704-0.17695 0.40704-0.39676v-5.5547c0-0.2198-0.18154-0.39677-0.40704-0.39677z" opacity=".05" stroke-width=".20093" style="paint-order:markers stroke fill"/>
 </g>
</svg>
