<?xml version="1.0" encoding="UTF-8" standalone="no"?>
<svg
   xmlns:dc="http://purl.org/dc/elements/1.1/"
   xmlns:cc="http://creativecommons.org/ns#"
   xmlns:rdf="http://www.w3.org/1999/02/22-rdf-syntax-ns#"
   xmlns:svg="http://www.w3.org/2000/svg"
   xmlns="http://www.w3.org/2000/svg"
   xmlns:xlink="http://www.w3.org/1999/xlink"
   xmlns:sodipodi="http://sodipodi.sourceforge.net/DTD/sodipodi-0.dtd"
   xmlns:inkscape="http://www.inkscape.org/namespaces/inkscape"
   inkscape:version="1.0 (4035a4fb49, 2020-05-01)"
   sodipodi:docname="preferences-system.svg"
   id="svg26"
   viewBox="0 0 16.933 16.933"
   version="1.1"
   height="64"
   width="64">
  <sodipodi:namedview
     inkscape:current-layer="svg26"
     inkscape:window-maximized="1"
     inkscape:window-y="0"
     inkscape:window-x="0"
     inkscape:cy="29.064956"
     inkscape:cx="-58.680438"
     inkscape:zoom="3.1875"
     showgrid="false"
     id="namedview28"
     inkscape:window-height="985"
     inkscape:window-width="1920"
     inkscape:pageshadow="2"
     inkscape:pageopacity="0"
     guidetolerance="10"
     gridtolerance="10"
     objecttolerance="10"
     borderopacity="1"
     bordercolor="#666666"
     pagecolor="#ffffff" />
  <defs
     id="defs10">
    <filter
       color-interpolation-filters="sRGB"
       height="1.048"
       width="1.048"
       y="-.024"
       x="-.024"
       id="filter2761">
      <feGaussianBlur
         id="feGaussianBlur2"
         stdDeviation="0.14552168" />
    </filter>
    <linearGradient
       gradientUnits="userSpaceOnUse"
       gradientTransform="matrix(1.2341,0,0,1.2341,-1.8995,2.4489)"
       y2="-13.46"
       y1="-4.101"
       x2="3.7382"
       x1="13.131"
       id="linearGradient994">
      <stop
         id="stop5"
         offset="0"
         stop-color="#0a82f0" />
      <stop
         id="stop7"
         offset="1"
         stop-color="#3250e6" />
    </linearGradient>
    <filter
       color-interpolation-filters="sRGB"
       height="1.048"
       width="1.048"
       y="-.024"
       x="-.024"
       id="filter2761-6">
      <feGaussianBlur
         id="feGaussianBlur2-7"
         stdDeviation="0.14552168" />
    </filter>
    <linearGradient
       gradientUnits="userSpaceOnUse"
       gradientTransform="translate(58.81987,-4.9486)"
       y2="16.321"
       y1="16.321"
       x2="-16.238"
       x1="-22.655"
       id="linearGradient1174">
      <stop
         id="stop5-5"
         offset="0"
         stop-color="#0a82f0" />
      <stop
         id="stop7-3"
         offset="1"
         stop-color="#3250e6" />
    </linearGradient>
    <filter
       inkscape:collect="always"
       style="color-interpolation-filters:sRGB"
       id="filter1052"
       x="-0.048"
       width="1.096"
       y="-0.048"
       height="1.096">
      <feGaussianBlur
         inkscape:collect="always"
         stdDeviation="0.29103594"
         id="feGaussianBlur1054" />
    </filter>
    <linearGradient
       inkscape:collect="always"
       xlink:href="#linearGradient1038"
       id="linearGradient1040"
       x1="37.040939"
       y1="15.874687"
       x2="51.592735"
       y2="1.3228906"
       gradientUnits="userSpaceOnUse"
       gradientTransform="translate(-35.850337,-0.1322889)" />
    <linearGradient
       inkscape:collect="always"
       id="linearGradient1038">
      <stop
         style="stop-color:#f5f5f5;stop-opacity:1"
         offset="0"
         id="stop1034" />
      <stop
         style="stop-color:#fafafa;stop-opacity:1"
         offset="1"
         id="stop1036" />
    </linearGradient>
    <filter
       id="filter2761-3"
       x="-.024"
       y="-.024"
       width="1.048"
       height="1.048"
       color-interpolation-filters="sRGB">
      <feGaussianBlur
         stdDeviation="0.14552168"
         id="feGaussianBlur895" />
    </filter>
    <linearGradient
       id="linearGradient1195"
       x1="-9.2997"
       x2="-.93244"
       y1="32.176"
       y2="32.176"
       gradientTransform="translate(1.8475,-2.1749)"
       gradientUnits="userSpaceOnUse">
      <stop
         stop-color="#1478e6"
         offset="0"
         id="stop898" />
      <stop
         stop-color="#3c50e6"
         offset="1"
         id="stop900" />
    </linearGradient>
  </defs>
  <metadata
     id="metadata12">
    <rdf:RDF>
      <cc:Work
         rdf:about="">
        <dc:format>image/svg+xml</dc:format>
        <dc:type
           rdf:resource="http://purl.org/dc/dcmitype/StillImage" />
        <dc:title></dc:title>
      </cc:Work>
    </rdf:RDF>
  </metadata>
  <rect
     ry="3.4395156"
     y="1.1906016"
     x="1.1906018"
     height="14.551797"
     width="14.551797"
     id="rect1042"
     style="opacity:0.3;fill:#000000;fill-opacity:1;stroke-width:0.529156;stroke-linecap:round;filter:url(#filter1052)" />
  <rect
     style="fill:url(#linearGradient1040);fill-opacity:1;stroke-width:0.529156;stroke-linecap:round"
     id="rect1032"
     width="14.551797"
     height="14.551797"
     x="1.1906016"
     y="1.1906017"
     ry="3.4395156" />
  <g
     transform="translate(-8.9959717e-4,0.14049979)"
     id="g943">
    <circle
       style="fill:url(#linearGradient994)"
       transform="scale(1,-1)"
       cx="8.4673996"
       cy="-8.3260002"
       r="5.8376999"
       color="#000000"
       fill="url(#linearGradient994)"
       stroke="#e6e6e6"
       stroke-width="0.65303"
       id="circle18" />
    <path
       d="M 11.054,4.0443 C 10.74604,3.86208 10.63111,3.81084 10.37118,4.1604 L 10.27813,4.28322 C 10.09959,4.50414 10.02874,4.60996 9.76445,4.53676 9.747132,4.53121 9.729677,4.5259 9.712242,4.52068 9.708242,4.5192 9.704652,4.51809 9.70016,4.51722 l 3.87e-4,3.838e-4 c -0.066128,-0.019507 -0.13252,-0.03713 -0.19917,-0.053037 l 9.402e-4,-3.234e-4 c -0.011415,-0.00222 -0.021606,-0.00457 -0.032133,-0.00703 -0.010144,-0.00234 -0.020295,-0.00469 -0.030332,-0.00703 -0.26844,-0.068612 -0.27664,-0.19556 -0.32098,-0.47721 l -0.019262,-0.15295 c -0.025164,-0.21632 -0.068924,-0.32772 -0.15123,-0.38459 -0.010416,-0.00691 -0.021352,-0.013217 -0.032765,-0.018919 -0.080656,-0.038602 -0.19269,-0.040022 -0.34924,-0.038257 -0.35781,-0.00395 -0.48289,0.00926 -0.53322,0.44184 l -0.019275,0.15285 c -0.047552,0.30212 -0.053252,0.42636 -0.38347,0.49135 l 0.0066,0.0021 c -0.070201,0.016808 -0.13989,0.035579 -0.20909,0.056114 l 0.00468,-0.00531 c -0.31847,0.10884 -0.38552,0.00407 -0.57776,-0.23378 l -0.093053,-0.12283 c -0.081235,-0.1092 -0.14831,-0.17929 -0.21153,-0.21848 -0.13897,-0.086436 -0.2595,-0.022917 -0.47117,0.10244 -0.31186,0.17546 -0.41372,0.24947 -0.24098,0.64932 l 0.059794,0.14209 c 0.10244,0.2661 0.15883,0.38014 -0.039372,0.57376 -0.00766,0.00703 -0.015172,0.014155 -0.02276,0.021288 -0.00796,0.0074 -0.015504,0.014587 -0.024201,0.022226 l 9.377e-4,-3.258e-4 c -0.049735,0.047118 -0.098442,0.095568 -0.14596,0.14553 l 1.382e-4,-5.035e-4 c -0.00304,0.00358 -0.00558,0.00592 -0.00848,0.00913 -0.012506,0.013217 -0.024837,0.026632 -0.03718,0.040034 -0.19229,0.19553 -0.30654,0.13931 -0.57163,0.037259 l -0.14198,-0.059853 c -0.39985,-0.17272 -0.47393,-0.070985 -0.64938,0.24087 -0.18236,0.30788 -0.23342,0.42291 0.11609,0.68282 l 0.12283,0.093038 c 0.22093,0.17853 0.32672,0.24942 0.25354,0.51368 -0.00544,0.017391 -0.010885,0.034776 -0.016083,0.052217 -0.00118,0.00374 -0.00236,0.00776 -0.0037,0.011934 L 4.731075,7.2187 C 4.711557,7.284855 4.693969,7.35123 4.678025,7.41787 L 4.6777369,7.41684 c -0.00223,0.011366 -0.00466,0.021554 -0.00702,0.032136 -0.00233,0.010157 -0.00479,0.020243 -0.00705,0.030353 -0.068586,0.26845 -0.19555,0.27664 -0.47721,0.32098 l -0.15295,0.019267 c -0.43264,0.05033 -0.44575,0.17543 -0.44177,0.53324 -0.00397,0.35781 0.00919,0.48289 0.44184,0.53322 l 0.15283,0.019295 c 0.30212,0.047548 0.42635,0.053254 0.49134,0.38348 l 0.00211,-0.00676 c 0.016794,0.07023 0.03558,0.13989 0.056124,0.20908 l -0.0051,-0.00465 c 0.10882,0.31848 0.00408,0.38552 -0.23378,0.57777 l -0.12284,0.09305 c -0.34952,0.25991 -0.29845,0.37494 -0.1161,0.68282 0.17546,0.31186 0.24953,0.4136 0.64938,0.24087 l 0.14209,-0.05979 c 0.2661,-0.10244 0.38015,-0.15882 0.57376,0.03938 0.00703,0.0077 0.014114,0.01528 0.021304,0.02271 0.00745,0.0079 0.014568,0.01554 0.022156,0.02434 l -1.887e-4,-9.78e-4 c 0.047151,0.0497 0.095566,0.09846 0.14553,0.14597 l -5.218e-4,-1.62e-4 c 0.00334,0.0028 0.00618,0.0053 0.00901,0.0088 0.013416,0.01222 0.026638,0.02478 0.040008,0.03721 0.19554,0.19227 0.13931,0.30654 0.037263,0.57163 l -0.059838,0.14199 c -0.17274,0.39985 -0.070987,0.47393 0.24087,0.64939 0.30796,0.18222 0.42289,0.23347 0.68282,-0.11609 l 0.093051,-0.12282 c 0.17854,-0.22092 0.24938,-0.32674 0.51368,-0.25354 0.017318,0.0056 0.034799,0.01086 0.052226,0.01604 0.004,0.0015 0.00756,0.0027 0.012094,0.0035 l -3.875e-4,-3.82e-4 c 0.066129,0.01951 0.13252,0.03713 0.19917,0.05305 l -9.404e-4,3.25e-4 c 0.011415,0.0022 0.021613,0.0044 0.032152,0.007 0.010157,0.0023 0.020312,0.0046 0.030313,0.0072 0.26843,0.06862 0.27664,0.19556 0.32098,0.4772 l 0.019263,0.15295 c 0.050331,0.43264 0.17543,0.44575 0.53324,0.44176 0.35781,0.0039 0.48289,-0.0093 0.53322,-0.44184 l 0.019274,-0.15284 c 0.047545,-0.30212 0.053249,-0.42635 0.38347,-0.49134 l -0.00661,-0.0021 c 0.070199,-0.01681 0.13988,-0.03558 0.20909,-0.05611 l -0.00474,0.0052 c 0.3184795,-0.10882 0.3855295,-0.0041 0.5777695,0.23378 l 0.09305,0.12283 c 0.25991,0.34952 0.37484,0.29835 0.6827,0.11603 0.31186,-0.17546 0.41372,-0.24947 0.24099,-0.64931 l -0.05979,-0.1421 c -0.10238,-0.26603 -0.15876,-0.38009 0.03944,-0.5737 0.0077,-0.007 0.01517,-0.01417 0.02271,-0.02131 0.0079,-0.0074 0.01543,-0.01462 0.02423,-0.0222 l -9.41e-4,3.25e-4 c 0.04973,-0.04712 0.09844,-0.09557 0.14596,-0.14554 l -1.38e-4,5.04e-4 c 0.0031,-0.0036 0.0056,-0.0059 0.0084,-0.0091 0.01249,-0.01323 0.02479,-0.02666 0.03721,-0.04002 0.19228,-0.19554 0.30654,-0.13931 0.57163,-0.03726 l 0.141981,0.05985 c 0.39985,0.17272 0.473929,0.07099 0.64938,-0.24087 0.18233,-0.3079 0.23347,-0.42289 -0.11609,-0.68282 l -0.12283,-0.09304 c -0.220891,-0.17867 -0.32671,-0.2495 -0.253501,-0.51382 0.0054,-0.017372 0.01086,-0.034806 0.01606,-0.052234 0.0011,-0.00375 0.0023,-0.00776 0.0037,-0.011909 l -3.65e-4,3.647e-4 c 0.01952,-0.066155 0.03711,-0.13253 0.05307,-0.19917 l 2.94e-4,0.00104 c 0.0022,-0.011341 0.0046,-0.021513 0.007,-0.032142 0.0023,-0.010169 0.0048,-0.020152 0.0072,-0.030322 0.06858,-0.26845 0.19554,-0.27664 0.4772,-0.32098 l 0.15295,-0.019263 c 0.43264,-0.05033 0.44574,-0.17543 0.44176,-0.53324 0.0027,-0.24599 -0.0026,-0.38202 -0.1468,-0.45938 -0.06554,-0.035189 -0.15983,-0.058122 -0.29504,-0.073842 l -0.15283,-0.019301 c -0.30216,-0.047555 -0.42639,-0.053257 -0.49138,-0.38348 l -0.0021,0.00678 c -0.01676,-0.070225 -0.03554,-0.13988 -0.05609,-0.20908 l 0.0051,0.00471 c -0.10898,-0.31866 -0.0043,-0.38571 0.23362,-0.57796 l 0.12285,-0.093051 c 0.34956,-0.2599 0.29843,-0.37482 0.11608,-0.6827 -0.08773,-0.15593 -0.150109,-0.25939 -0.24052,-0.30224 -0.09042,-0.042823 -0.208869,-0.025114 -0.40879,0.06126 l -0.142089,0.059792 c -0.2661,0.10243 -0.380151,0.15882 -0.57377,-0.03938 -0.007,-0.00765 -0.01413,-0.015241 -0.02129,-0.022732 -0.0075,-0.0079 -0.01459,-0.0155 -0.02221,-0.024238 l 1.86e-4,9.824e-4 c -0.04711,-0.049759 -0.09557,-0.098444 -0.145531,-0.14596 l 5.22e-4,1.506e-4 c -0.0033,-0.00284 -0.0062,-0.00531 -0.009,-0.00876 -0.01342,-0.012218 -0.02662,-0.02483 -0.04002,-0.037171 -0.19554,-0.19228 -0.13931,-0.30655 -0.03726,-0.57164 l 0.05984,-0.14199 c 0.17273,-0.39984 0.07099,-0.47392 -0.24087,-0.64938 z m -1.0287,1.7802 c 2.39e-4,1.382e-4 4.56e-4,2.628e-4 6.7e-4,3.862e-4 0.29099,0.16803 0.54324,0.38063 0.75277,0.62462 a 0.79605,0.79605 0 0 0 0.08579,0.57646 0.79605,0.79605 0 0 0 0.45527,0.36174 c 0.20849,0.59459 0.22639,1.257 0.01529,1.8893 -0.05316,0.15928 -0.23903,0.22976 -0.38444,0.14579 l -0.71117,-0.41059 c -0.10165,-0.058671 -0.15268,-0.17715 -0.12549,-0.29132 0.16324,-0.68529 -0.14137,-1.3935 -0.75091,-1.7465 C 9.25553,6.9131592 9.1413,6.8643962 9.02256,6.8295562 8.90953,6.7964212 8.83189,6.6927462 8.83189,6.5749462 l -7.5e-5,-0.81976 c 3.85e-5,-0.16762 0.15355,-0.29322 0.31786,-0.26007 0.30771,0.062026 0.60334,0.17324 0.87562,0.32944 z M 8.1791,5.53194 c 0.075894,0.049129 0.1221,0.13297 0.12208,0.22338 l 7.58e-5,0.81976 c 6.9e-6,0.11747 -0.07721,0.22096 -0.18982,0.25441 -0.38952,0.11572 -0.71989,0.37579 -0.92377,0.72727 -0.20287,0.35234 -0.26335,0.76865 -0.16896,1.1641 0.027294,0.1142 -0.023691,0.23275 -0.12535,0.29149 l -0.70812,0.40893 c -0.14534,0.08392 -0.33111,0.013549 -0.38435,-0.14563 -0.2069,-0.6179 -0.19856,-1.2819 0.012711,-1.8878 a 0.79605,0.79605 0 0 0 0.45494,-0.36197 0.79605,0.79605 0 0 0 0.085755,-0.5748 c 0.41898,-0.48628 0.98984,-0.82589 1.6286,-0.95587 0.067674,-0.01376 0.13808,-6.306e-4 0.19622,0.036653 z m 1.7956,3.9402 0.70825,0.40891 c 0.14543,0.083937 0.17732,0.28014 0.06596,0.40582 -0.44174,0.49866 -1.024,0.81434 -1.6428,0.93122 A 0.79605,0.79605 0 0 0 8.94818,11.10373 0.79605,0.79605 0 0 0 8.56657,11.006224 0.79605,0.79605 0 0 0 8.0257,11.219534 C 7.70935,11.160404 7.39874,11.048474 7.10735,10.880674 7.1070026,10.880473 7.1066332,10.88026 7.10622,10.88002 6.83523,10.72185 6.59129,10.52141 6.38407,10.2858 6.27343,10.16006 6.305509,9.96453 6.450528,9.88072 l 0.70896,-0.40935 c 0.102,-0.05887 0.23061,-0.043468 0.31583,0.037829 0.089615,0.085457 0.18902,0.1601 0.29592,0.22262 0.61057,0.35165 1.3764,0.26147 1.8884,-0.22269 0.085281,-0.08064 0.2134,-0.095684 0.31504,-0.036987 z"
       color="#000000"
       fill="#ffffff"
       id="path20" />
    <path
       d="M 10.292,5.3653 C 8.8782,4.54905 7.1259,4.84893 6.0544,5.98991 A 0.79605,0.79605 0 0 1 6.35498,6.45115 C 6.77396,5.96487 7.34482,5.62526 7.98358,5.49527 8.051254,5.48151 8.12166,5.4946406 8.1798,5.531922 c 0.075894,0.049129 0.1221,0.13297 0.12208,0.22338 l 7.57e-5,0.81976 c 5.8e-6,0.11746 -0.077211,0.22096 -0.18982,0.25441 -0.38952,0.11572 -0.71989,0.37579 -0.92377,0.72727 -0.20287,0.35234 -0.26335,0.76865 -0.16896,1.1641 0.027294,0.1142 -0.023691,0.23275 -0.12535,0.29149 l -0.70812,0.40893 c -0.14534,0.083921 -0.33111,0.013549 -0.38435,-0.14563 -0.2069,-0.6179 -0.19856,-1.2819 0.012711,-1.8878 a 0.79605,0.79605 0 0 1 -0.54973,-0.029694 c -0.4522,1.4984 0.16418,3.1657 1.5779,3.9819 0.29964,0.173 0.61456,0.29535 0.93496,0.37074 a 0.79605,0.79605 0 0 1 0.24897,-0.49135 c -0.31636,-0.05913 -0.62697,-0.17105 -0.91835,-0.33886 -3.474e-4,-2e-4 -7.166e-4,-4.13e-4 -0.00113,-6.54e-4 -0.27099,-0.15817 -0.51492,-0.35862 -0.72215,-0.59422 -0.11064,-0.12574 -0.078561,-0.32127 0.066457,-0.40508 l 0.70896,-0.40935 c 0.102,-0.05887 0.23061,-0.043467 0.31583,0.03783 0.089616,0.085456 0.18902,0.1601 0.29592,0.22262 0.61057,0.35165 1.3764,0.26147 1.8884,-0.22269 0.085281,-0.080641 0.2134,-0.095684 0.31504,-0.036987 l 0.7082503,0.40891 c 0.14543,0.083937 0.17732,0.28014 0.06596,0.40582 -0.44174,0.49865 -1.0240003,0.81434 -1.6428003,0.93122 a 0.79605,0.79605 0 0 1 0.25054,0.49116 c 0.8937603,-0.21059 1.7022003,-0.77423 2.1973003,-1.6317 0.49517,-0.85766 0.57902,-1.8399 0.31432,-2.7193 a 0.79605,0.79605 0 0 1 -0.54846,0.029539 c 0.20849,0.59459 0.22639,1.257 0.01529,1.8893 -0.05316,0.15928 -0.23903,0.22976 -0.38444,0.14579 l -0.71116,-0.41059 c -0.10165,-0.058671 -0.15269,-0.17715 -0.12549,-0.29132 0.16324,-0.68529 -0.1413703,-1.3935 -0.7509103,-1.7465 -0.10755,-0.061227 -0.22178,-0.10999 -0.34052,-0.14483 -0.11303,-0.033135 -0.19067,-0.13681 -0.19067,-0.25461 l -7.51e-5,-0.81976 c 3.85e-5,-0.16762 0.15355,-0.29322 0.31786,-0.26007 0.30771,0.062025 0.60334,0.17324 0.8756204,0.32944 2.39e-4,1.37e-4 4.56e-4,2.629e-4 6.7e-4,3.863e-4 0.29099,0.16803 0.54324,0.38063 0.75277,0.62462 a 0.79605,0.79605 0 0 1 0.30085,-0.4602 c -0.22543,-0.23964 -0.48876,-0.4511 -0.78827,-0.62402 z M 9.0979,7.4335 A 1.0614,1.0614 0 0 1 9.4864,8.8834 1.0614,1.0614 0 0 1 8.0365,9.2719 1.0614,1.0614 0 0 1 7.648,7.822 1.0614,1.0614 0 0 1 9.0979,7.4335 Z"
       color="#000000"
       opacity="0.1"
       id="path22" />
    <path
       d="M 11.737,6.2742 A 0.39803,0.39803 0 0 0 11.35549,6.28333 0.39803,0.39803 0 0 0 11.20978,6.82697 0.39803,0.39803 0 0 0 11.75342,6.97268 0.39803,0.39803 0 0 0 11.89919,6.42893 0.39803,0.39803 0 0 0 11.73701,6.27424 Z M 5.7786,6.28321 A 0.39803,0.39803 0 0 0 5.23489,6.42889 0.39803,0.39803 0 0 0 5.38058,6.97261 0.39803,0.39803 0 0 0 5.9243,6.82692 0.39803,0.39803 0 0 0 5.77861,6.28321 Z m 2.9793,5.1698 A 0.39803,0.39803 0 0 0 8.567,11.40429 0.39803,0.39803 0 0 0 8.16905,11.8023 0.39803,0.39803 0 0 0 8.56706,12.20025 0.39803,0.39803 0 0 0 8.96501,11.80225 0.39803,0.39803 0 0 0 8.7579,11.45302 Z"
       enable-background="new"
       fill="#e6e6e6"
       id="path24" />
  </g>
</svg>
