<?xml version="1.0" encoding="UTF-8"?>
<!-- Created with Inkscape (http://www.inkscape.org/) -->
<svg width="64" height="64" version="1.1" viewBox="0 0 16.933 16.933" xmlns="http://www.w3.org/2000/svg" xmlns:cc="http://creativecommons.org/ns#" xmlns:dc="http://purl.org/dc/elements/1.1/" xmlns:rdf="http://www.w3.org/1999/02/22-rdf-syntax-ns#" xmlns:xlink="http://www.w3.org/1999/xlink">
 <defs>
  <filter id="filter2761" x="-.024" y="-.024" width="1.048" height="1.048" color-interpolation-filters="sRGB">
   <feGaussianBlur stdDeviation="0.14552168"/>
  </filter>
  <linearGradient id="linearGradient926" x1="5.0225" x2="14.565" y1="9.2916" y2="2.9417" gradientTransform="matrix(.94737 0 0 1.0339 .30022 .4384)" gradientUnits="userSpaceOnUse">
   <stop stop-color="#2b59e8" offset="0"/>
   <stop stop-color="#148cf0" offset="1"/>
  </linearGradient>
 </defs>
 <metadata>
  <rdf:RDF>
   <cc:Work rdf:about="">
    <dc:format>image/svg+xml</dc:format>
    <dc:type rdf:resource="http://purl.org/dc/dcmitype/StillImage"/>
    <dc:title/>
   </cc:Work>
  </rdf:RDF>
 </metadata>
 <path d="m10.709 1.05c4.405 0 5.0345 0.67282 5.0345 5.388v3.7761c0 4.7152-0.62954 5.388-5.0345 5.388h-4.4832c-4.405 0-5.0346-0.6728-5.0346-5.388v-3.7761c0-4.7152 0.62954-5.388 5.0346-5.388z" enable-background="new" fill="#141414" filter="url(#filter2761)" opacity=".3"/>
 <path d="m10.709 1.05c4.405 0 5.0345 0.67282 5.0345 5.388v3.7761c0 4.7152-0.62954 5.388-5.0345 5.388h-4.4832c-4.405 0-5.0346-0.6728-5.0346-5.388v-3.7761c0-4.7152 0.62954-5.388 5.0346-5.388z" enable-background="new" fill="#fafafa"/>
 <g transform="translate(-1.5426 1.435)">
  <g transform="translate(1.632 -280.65)" stroke-width="1.612">
   <path d="m2.81 288.54h4.596v4.596h-4.596z" fill="none" opacity=".5" stroke="#e6e6e6" stroke-dasharray="0.85290318, 0.85290317999999998" stroke-dashoffset=".79373" stroke-linecap="round" stroke-width=".52916"/>
   <path d="m3.631 285.09-0.985 2.125c0.159-0.09 0.332-0.155 0.511-0.197l0.478 4.637 0.477-4.638c0.178 0.042 0.349 0.107 0.504 0.198zm5.261 6.237c0.09 0.159 0.155 0.332 0.197 0.511l-4.802 0.478 4.803 0.478a1.84 1.84 0 0 1-0.198 0.503l2.125-0.985z" fill="#1478f0"/>
  </g>
  <rect x="4.1496" y="9.7371" width="3.0076" height="3.0076" ry=".49417" fill="#e6e6e6" opacity=".5" style="paint-order:stroke fill markers"/>
 </g>
 <g transform="translate(-.076102 .17757)">
  <rect x="5.0584" y="3.4799" width="9.0405" height="6.5651" ry=".57152" fill="url(#linearGradient926)" style="paint-order:stroke fill markers"/>
  <rect x="5.5287" y="4.799" width="8.0998" height="4.7894" ry=".43689" fill="#fff" style="paint-order:stroke fill markers"/>
  <g transform="translate(3.9692)" fill="#fafafa">
   <circle cx="7.749" cy="4.1974" r=".287" style="paint-order:stroke fill markers"/>
   <circle cx="8.5607" cy="4.1974" r=".287" style="paint-order:stroke fill markers"/>
   <circle cx="9.3723" cy="4.1974" r=".287" style="paint-order:stroke fill markers"/>
  </g>
 </g>
</svg>
