<?xml version="1.0" encoding="UTF-8"?>
<svg width="64" height="64" version="1.1" viewBox="0 0 16.933 16.933" xmlns="http://www.w3.org/2000/svg" xmlns:cc="http://creativecommons.org/ns#" xmlns:dc="http://purl.org/dc/elements/1.1/" xmlns:rdf="http://www.w3.org/1999/02/22-rdf-syntax-ns#">
 <metadata>
  <rdf:RDF>
   <cc:Work rdf:about="">
    <dc:format>image/svg+xml</dc:format>
    <dc:type rdf:resource="http://purl.org/dc/dcmitype/StillImage"/>
    <dc:title/>
   </cc:Work>
  </rdf:RDF>
 </metadata>
 <defs>
  <style type="text/css"/>
  <filter id="filter911" x="-.057615" y="-.062591" width="1.1152" height="1.1252" color-interpolation-filters="sRGB">
   <feGaussianBlur stdDeviation="0.25750987"/>
  </filter>
  <filter id="filter2761-3" x="-.024" y="-.024" width="1.048" height="1.048" color-interpolation-filters="sRGB">
   <feGaussianBlur stdDeviation="0.14552168"/>
  </filter>
  <linearGradient id="linearGradient2645-3-6" x1="15.752" x2="1.3927" y1="281.24" y2="295.6" gradientTransform="translate(-.087013 -279.72)" gradientUnits="userSpaceOnUse">
   <stop stop-color="#0a82f0" offset="0"/>
   <stop stop-color="#3250e6" offset="1"/>
  </linearGradient>
 </defs>
 <path d="m10.753 1.3991c4.405 0 5.0345 0.67282 5.0345 5.388v3.7761c0 4.7152-0.62954 5.388-5.0345 5.388h-4.4832c-4.405 0-5.0346-0.6728-5.0346-5.388v-3.7761c0-4.7152 0.62954-5.388 5.0346-5.388z" enable-background="new" fill="#141414" filter="url(#filter2761-3)" opacity=".3"/>
 <path d="m10.753 1.3991c4.405 0 5.0345 0.67282 5.0345 5.388v3.7761c0 4.7152-0.62954 5.388-5.0345 5.388h-4.4832c-4.405 0-5.0346-0.6728-5.0346-5.388v-3.7761c0-4.7152 0.62954-5.388 5.0346-5.388z" enable-background="new" fill="url(#linearGradient2645-3-6)"/>
 <g transform="matrix(.96771 0 0 .96771 .27539 .55307)" stroke-width=".01234">
  <path d="m7.5703 7.2541h-3.1342l-1.271 1.577 1.271 0.78849v3.5575h3.9412v-5.116c0-0.44546-0.36155-0.807-0.807-0.807zm-1.1932-0.79466c0.65399 0 1.1846-0.5306 1.1846-1.1846v-1.9719h-1.519c-0.4689 0-0.85019 0.38006-0.85019 0.85019v1.1217c0 0.65399 0.5306 1.1846 1.1846 1.1846zm6.287 1.4413h-2.3803c-0.62438 0-1.1315 0.50715-1.1315 1.1315v4.1448h3.5106v-2.764l1.229-0.79343zm-1.73-0.70829c0.58242 0 1.055-0.4726 1.055-1.055v-1.7571h-1.3524c-0.41831 0-0.75765 0.33934-0.75765 0.75764v0.9995c0 0.58242 0.4726 1.055 1.055 1.055z" fill="#1455c8" filter="url(#filter911)" p-id="1147"/>
  <path d="m7.5703 7.2541h-3.1342l-1.271 1.577 1.271 0.78849v3.5575h3.9412v-5.116c0-0.44546-0.36155-0.807-0.807-0.807zm-1.1932-0.79466c0.65399 0 1.1846-0.5306 1.1846-1.1846v-1.9719h-1.519c-0.4689 0-0.85019 0.38006-0.85019 0.85019v1.1217c0 0.65399 0.5306 1.1846 1.1846 1.1846zm6.287 1.4413h-2.3803c-0.62438 0-1.1315 0.50715-1.1315 1.1315v4.1448h3.5106v-2.764l1.229-0.79343zm-1.73-0.70829c0.58242 0 1.055-0.4726 1.055-1.055v-1.7571h-1.3524c-0.41831 0-0.75765 0.33934-0.75765 0.75764v0.9995c0 0.58242 0.4726 1.055 1.055 1.055z" fill="#fafafa" p-id="1147"/>
 </g>
</svg>
