<?xml version="1.0" encoding="UTF-8"?>
<!-- Created with Inkscape (http://www.inkscape.org/) -->
<svg width="64" height="64" version="1.1" viewBox="0 0 16.933 16.933" xmlns="http://www.w3.org/2000/svg" xmlns:cc="http://creativecommons.org/ns#" xmlns:dc="http://purl.org/dc/elements/1.1/" xmlns:rdf="http://www.w3.org/1999/02/22-rdf-syntax-ns#" xmlns:xlink="http://www.w3.org/1999/xlink">
 <defs>
  <filter id="filter2761" x="-.024" y="-.024" width="1.048" height="1.048" color-interpolation-filters="sRGB">
   <feGaussianBlur stdDeviation="0.14552168"/>
  </filter>
  <linearGradient id="d" x1="-69.178" x2="-22" y1="-32" y2="-32" gradientTransform="matrix(.18567 0 0 .18567 16.815 -2.5601)" gradientUnits="userSpaceOnUse">
   <stop stop-color="#0a82f0" offset="0"/>
   <stop stop-color="#3250e6" stop-opacity="0" offset="1"/>
  </linearGradient>
  <linearGradient id="c" x1="39.635" x2="39.635" y1="58" y2="6" gradientTransform="matrix(.18567 0 0 .18567 2.5601 2.5186)" gradientUnits="userSpaceOnUse">
   <stop offset="0"/>
   <stop stop-opacity="0" offset="1"/>
  </linearGradient>
 </defs>
 <metadata>
  <rdf:RDF>
   <cc:Work rdf:about="">
    <dc:format>image/svg+xml</dc:format>
    <dc:type rdf:resource="http://purl.org/dc/dcmitype/StillImage"/>
    <dc:title/>
   </cc:Work>
  </rdf:RDF>
 </metadata>
 <path d="m10.709 1.05c4.405 0 5.0345 0.67282 5.0345 5.388v3.7761c0 4.7152-0.62954 5.388-5.0345 5.388h-4.4832c-4.405 0-5.0346-0.6728-5.0346-5.388v-3.7761c0-4.7152 0.62954-5.388 5.0346-5.388z" enable-background="new" fill="#141414" filter="url(#filter2761)" opacity=".3"/>
 <path d="m10.709 1.05c4.405 0 5.0345 0.67282 5.0345 5.388v3.7761c0 4.7152-0.62954 5.388-5.0345 5.388h-4.4832c-4.405 0-5.0346-0.6728-5.0346-5.388v-3.7761c0-4.7152 0.62954-5.388 5.0346-5.388z" enable-background="new" fill="#fafafa"/>
 <g fill="#5e4aa6">
  <g stroke-width=".26458">
   <circle cx="-305.77" cy="-331.46" r="0"/>
   <circle cx="-301.96" cy="-329.38" r="0"/>
   <circle cx="-298.88" cy="-325.72" r="0"/>
   <circle cx="-301.82" cy="-331.53" r="0"/>
   <g transform="translate(55.39 6.5931)">
    <circle cx="-330.35" cy="-328.38" r="0"/>
    <circle cx="-299.17" cy="-337.27" r="0"/>
    <circle cx="-299.81" cy="-339.42" r="0"/>
    <circle cx="-302.25" cy="-338.13" r="0"/>
    <circle cx="-301.89" cy="-335.91" r="0"/>
    <circle cx="-304.76" cy="-351.05" r="0"/>
    <circle cx="-304.83" cy="-349.54" r="0"/>
    <circle cx="-359.94" cy="-336.91" r="0"/>
   </g>
   <g transform="translate(30.323 -4.155)">
    <circle cx="-330.35" cy="-328.38" r="0"/>
    <g transform="translate(23.999,2.5837)">
     <circle cx="-330.35" cy="-328.38" r="0"/>
     <circle cx="-299.17" cy="-337.27" r="0"/>
     <circle cx="-299.81" cy="-339.42" r="0"/>
     <circle cx="-302.25" cy="-338.13" r="0"/>
     <circle cx="-301.89" cy="-335.91" r="0"/>
     <circle cx="-304.76" cy="-351.05" r="0"/>
     <circle cx="-304.83" cy="-349.54" r="0"/>
     <circle cx="-359.94" cy="-336.91" r="0"/>
    </g>
    <g transform="translate(24.518,-1.8976)">
     <circle cx="-330.35" cy="-328.38" r="0"/>
     <circle cx="-299.17" cy="-337.27" r="0"/>
     <circle cx="-299.81" cy="-339.42" r="0"/>
     <circle cx="-302.25" cy="-338.13" r="0"/>
     <circle cx="-301.89" cy="-335.91" r="0"/>
     <circle cx="-304.76" cy="-351.05" r="0"/>
     <circle cx="-304.83" cy="-349.54" r="0"/>
     <circle cx="-359.94" cy="-336.91" r="0"/>
    </g>
   </g>
   <g transform="translate(28.745 -10.326)">
    <circle cx="-330.35" cy="-328.38" r="0"/>
    <g transform="translate(23.999,2.5837)">
     <circle cx="-330.35" cy="-328.38" r="0"/>
     <circle cx="-299.17" cy="-337.27" r="0"/>
     <circle cx="-299.81" cy="-339.42" r="0"/>
     <circle cx="-302.25" cy="-338.13" r="0"/>
     <circle cx="-301.89" cy="-335.91" r="0"/>
     <circle cx="-304.76" cy="-351.05" r="0"/>
     <circle cx="-304.83" cy="-349.54" r="0"/>
     <circle cx="-359.94" cy="-336.91" r="0"/>
    </g>
    <g transform="translate(24.518,-1.8976)">
     <circle cx="-330.35" cy="-328.38" r="0"/>
     <circle cx="-299.17" cy="-337.27" r="0"/>
     <circle cx="-299.81" cy="-339.42" r="0"/>
     <circle cx="-302.25" cy="-338.13" r="0"/>
     <circle cx="-301.89" cy="-335.91" r="0"/>
     <circle cx="-304.76" cy="-351.05" r="0"/>
     <circle cx="-304.83" cy="-349.54" r="0"/>
     <circle cx="-359.94" cy="-336.91" r="0"/>
    </g>
    <circle cx="-311.92" cy="-331.32" r="0"/>
   </g>
  </g>
  <g stroke-width=".26458">
   <g transform="translate(27.094 -3.4375)">
    <circle cx="-330.35" cy="-328.38" r="0"/>
    <g transform="translate(23.999,2.5837)">
     <circle cx="-330.35" cy="-328.38" r="0"/>
     <circle cx="-299.17" cy="-337.27" r="0"/>
     <circle cx="-299.81" cy="-339.42" r="0"/>
     <circle cx="-302.25" cy="-338.13" r="0"/>
     <circle cx="-301.89" cy="-335.91" r="0"/>
     <circle cx="-304.76" cy="-351.05" r="0"/>
     <circle cx="-304.83" cy="-349.54" r="0"/>
     <circle cx="-359.94" cy="-336.91" r="0"/>
    </g>
    <g transform="translate(24.518,-1.8976)">
     <circle cx="-330.35" cy="-328.38" r="0"/>
     <circle cx="-299.17" cy="-337.27" r="0"/>
     <circle cx="-299.81" cy="-339.42" r="0"/>
     <circle cx="-302.25" cy="-338.13" r="0"/>
     <circle cx="-301.89" cy="-335.91" r="0"/>
     <circle cx="-304.76" cy="-351.05" r="0"/>
     <circle cx="-304.83" cy="-349.54" r="0"/>
     <circle cx="-359.94" cy="-336.91" r="0"/>
    </g>
    <circle cx="-311.92" cy="-331.32" r="0"/>
   </g>
   <g transform="translate(29.247 -7.4555)">
    <circle cx="-330.35" cy="-328.38" r="0"/>
    <g transform="translate(23.999,2.5837)">
     <circle cx="-330.35" cy="-328.38" r="0"/>
     <circle cx="-299.17" cy="-337.27" r="0"/>
     <circle cx="-299.81" cy="-339.42" r="0"/>
     <circle cx="-302.25" cy="-338.13" r="0"/>
     <circle cx="-301.89" cy="-335.91" r="0"/>
     <circle cx="-304.76" cy="-351.05" r="0"/>
     <circle cx="-304.83" cy="-349.54" r="0"/>
     <circle cx="-359.94" cy="-336.91" r="0"/>
    </g>
    <g transform="translate(24.518,-1.8976)">
     <circle cx="-330.35" cy="-328.38" r="0"/>
     <circle cx="-299.17" cy="-337.27" r="0"/>
     <circle cx="-299.81" cy="-339.42" r="0"/>
     <circle cx="-302.25" cy="-338.13" r="0"/>
     <circle cx="-301.89" cy="-335.91" r="0"/>
     <circle cx="-304.76" cy="-351.05" r="0"/>
     <circle cx="-304.83" cy="-349.54" r="0"/>
     <circle cx="-359.94" cy="-336.91" r="0"/>
    </g>
    <circle cx="-311.92" cy="-331.32" r="0"/>
    <circle cx="-300.02" cy="-345.82" r="0"/>
    <g transform="translate(19.697 .87184)">
     <circle cx="-330.35" cy="-328.38" r="0"/>
     <circle cx="-299.17" cy="-337.27" r="0"/>
     <circle cx="-299.81" cy="-339.42" r="0"/>
     <circle cx="-302.25" cy="-338.13" r="0"/>
     <circle cx="-301.89" cy="-335.91" r="0"/>
     <circle cx="-304.76" cy="-351.05" r="0"/>
     <circle cx="-304.83" cy="-349.54" r="0"/>
     <circle cx="-359.94" cy="-336.91" r="0"/>
    </g>
    <circle cx="-299.82" cy="-321.23" r="0"/>
   </g>
   <g transform="translate(22.502 -7.025)">
    <circle cx="-330.35" cy="-328.38" r="0"/>
    <g transform="translate(23.999,2.5837)">
     <circle cx="-330.35" cy="-328.38" r="0"/>
     <circle cx="-299.17" cy="-337.27" r="0"/>
     <circle cx="-299.81" cy="-339.42" r="0"/>
     <circle cx="-302.25" cy="-338.13" r="0"/>
     <circle cx="-301.89" cy="-335.91" r="0"/>
     <circle cx="-304.76" cy="-351.05" r="0"/>
     <circle cx="-304.83" cy="-349.54" r="0"/>
     <circle cx="-359.94" cy="-336.91" r="0"/>
    </g>
    <g transform="translate(24.518,-1.8976)">
     <circle cx="-330.35" cy="-328.38" r="0"/>
     <circle cx="-299.17" cy="-337.27" r="0"/>
     <circle cx="-299.81" cy="-339.42" r="0"/>
     <circle cx="-302.25" cy="-338.13" r="0"/>
     <circle cx="-301.89" cy="-335.91" r="0"/>
     <circle cx="-304.76" cy="-351.05" r="0"/>
     <circle cx="-304.83" cy="-349.54" r="0"/>
     <circle cx="-359.94" cy="-336.91" r="0"/>
    </g>
    <circle cx="-311.92" cy="-331.32" r="0"/>
    <circle cx="-300.02" cy="-345.82" r="0"/>
    <g transform="translate(19.697 .87184)">
     <circle cx="-330.35" cy="-328.38" r="0"/>
     <circle cx="-299.17" cy="-337.27" r="0"/>
     <circle cx="-299.81" cy="-339.42" r="0"/>
     <circle cx="-302.25" cy="-338.13" r="0"/>
     <circle cx="-301.89" cy="-335.91" r="0"/>
     <circle cx="-304.76" cy="-351.05" r="0"/>
     <circle cx="-304.83" cy="-349.54" r="0"/>
     <circle cx="-359.94" cy="-336.91" r="0"/>
    </g>
    <circle cx="-299.82" cy="-321.23" r="0"/>
   </g>
  </g>
 </g>
 <g transform="translate(-.03415 -.13375)" stroke-width=".18567">
  <rect transform="matrix(0,-1,-1,0,0,0)" x="-13.287" y="-12.401" width="9.6548" height="7.7981" rx=".51728" ry=".51988" fill="#f0f0f0"/>
  <rect transform="matrix(0,-1,-1,0,0,0)" x="-12.73" y="-11.844" width="8.5408" height="6.6841" rx="0" ry="0" fill="#fff"/>
  <path d="m10.593 3.6326a9.2835 9.2835 0 0 1 0.32269 2.4137 9.2835 9.2835 0 0 1-3.4776 7.2411h4.4431c0.28779 0 0.51988-0.2306 0.51988-0.51709v-8.6207a0.51746 0.51746 0 0 0-0.51988-0.51709z" fill="url(#c)" opacity=".15"/>
  <rect transform="rotate(90)" x="6.6034" y="-11.844" width="6.1271" height="6.6841" rx="0" ry="0" fill="url(#d)"/>
  <rect x="3.21" y="6.4177" width="10.583" height=".55701" rx=".18567" ry=".18678" fill="#3282f0" fill-rule="evenodd"/>
 </g>
</svg>
