<?xml version="1.0" encoding="UTF-8" standalone="no"?>
<svg
   xmlns:dc="http://purl.org/dc/elements/1.1/"
   xmlns:cc="http://creativecommons.org/ns#"
   xmlns:rdf="http://www.w3.org/1999/02/22-rdf-syntax-ns#"
   xmlns:svg="http://www.w3.org/2000/svg"
   xmlns="http://www.w3.org/2000/svg"
   xmlns:xlink="http://www.w3.org/1999/xlink"
   xmlns:sodipodi="http://sodipodi.sourceforge.net/DTD/sodipodi-0.dtd"
   xmlns:inkscape="http://www.inkscape.org/namespaces/inkscape"
   inkscape:version="1.0 (4035a4fb49, 2020-05-01)"
   sodipodi:docname="system-software-update.svg"
   id="svg336"
   viewBox="0 0 16.933 16.933"
   version="1.1"
   height="64"
   width="64">
  <sodipodi:namedview
     inkscape:current-layer="svg336"
     inkscape:window-maximized="1"
     inkscape:window-y="0"
     inkscape:window-x="0"
     inkscape:cy="42.514473"
     inkscape:cx="57.541544"
     inkscape:zoom="9.0156115"
     showgrid="false"
     id="namedview338"
     inkscape:window-height="985"
     inkscape:window-width="1920"
     inkscape:pageshadow="2"
     inkscape:pageopacity="0"
     guidetolerance="10"
     gridtolerance="10"
     objecttolerance="10"
     borderopacity="1"
     bordercolor="#666666"
     pagecolor="#ffffff" />
  <defs
     id="defs20">
    <filter
       color-interpolation-filters="sRGB"
       height="1.048"
       width="1.048"
       y="-.024"
       x="-.024"
       id="filter2761">
      <feGaussianBlur
         id="feGaussianBlur2"
         stdDeviation="0.14552168" />
    </filter>
    <linearGradient
       gradientUnits="userSpaceOnUse"
       y2="522.8"
       y1="522.8"
       x2="417.57"
       x1="399.57"
       id="linearGradient2196">
      <stop
         id="stop5"
         offset="0"
         stop-color="#1b91f4" />
      <stop
         id="stop7"
         offset="1"
         stop-opacity="0"
         stop-color="#1b91f4" />
    </linearGradient>
    <linearGradient
       gradientTransform="matrix(0.22048177,0,0,0.22048177,-81.615737,-105.20472)"
       gradientUnits="userSpaceOnUse"
       y2="535.02"
       y1="511.15"
       x2="408.52"
       x1="408.52"
       id="linearGradient2198">
      <stop
         id="stop10"
         offset="0"
         stop-color="#0a82f0" />
      <stop
         id="stop12"
         offset="1"
         stop-color="#3250e6" />
    </linearGradient>
    <linearGradient
       gradientTransform="matrix(0.22048177,0,0,0.22048177,-81.615737,-105.20472)"
       gradientUnits="userSpaceOnUse"
       y2="534.87"
       y1="526.07"
       x2="408.09"
       x1="408.09"
       id="linearGradient2206">
      <stop
         id="stop15"
         offset="0"
         stop-color="#0a82f0" />
      <stop
         id="stop17"
         offset="1"
         stop-color="#3250e6" />
    </linearGradient>
    <filter
       color-interpolation-filters="sRGB"
       height="1.048"
       width="1.048"
       y="-.024"
       x="-.024"
       id="filter2761-367">
      <feGaussianBlur
         id="feGaussianBlur2-5"
         stdDeviation="0.14552168" />
    </filter>
    <linearGradient
       gradientUnits="userSpaceOnUse"
       gradientTransform="matrix(0.26458,0,0,0.26458,66.805,-21.4)"
       y2="128.35"
       y1="103.72"
       x2="-205.74"
       x1="-235.3"
       id="linearGradient963">
      <stop
         id="stop5-3"
         offset="0"
         stop-color="#d43e73" />
      <stop
         id="stop7-5"
         offset="1"
         stop-color="#e5514f" />
    </linearGradient>
    <filter
       color-interpolation-filters="sRGB"
       height="1.1171"
       width="1.123"
       y="-.058554"
       x="-.061519"
       id="filter990">
      <feGaussianBlur
         id="feGaussianBlur10"
         stdDeviation="0.20345708" />
    </filter>
    <linearGradient
       gradientUnits="userSpaceOnUse"
       gradientTransform="matrix(0.32303,0,0,0.3389,79.691432,-29.58539)"
       y2="128.35"
       y1="103.72"
       x2="-205.74"
       x1="-235.3"
       id="linearGradient994">
      <stop
         id="stop13"
         offset="0"
         stop-color="#c83278" />
      <stop
         id="stop15-6"
         offset="1"
         stop-color="#fa5050" />
    </linearGradient>
    <filter
       color-interpolation-filters="sRGB"
       height="1.048"
       width="1.048"
       y="-.024"
       x="-.024"
       id="filter2761-36">
      <feGaussianBlur
         id="feGaussianBlur2-7"
         stdDeviation="0.14552168" />
    </filter>
    <linearGradient
       gradientUnits="userSpaceOnUse"
       gradientTransform="translate(58.81987,-4.9486)"
       y2="16.321"
       y1="16.321"
       x2="-16.238"
       x1="-22.655"
       id="linearGradient1174">
      <stop
         id="stop5-5"
         offset="0"
         stop-color="#0a82f0" />
      <stop
         id="stop7-3"
         offset="1"
         stop-color="#3250e6" />
    </linearGradient>
    <filter
       inkscape:collect="always"
       style="color-interpolation-filters:sRGB"
       id="filter1052"
       x="-0.048"
       width="1.096"
       y="-0.048"
       height="1.096">
      <feGaussianBlur
         inkscape:collect="always"
         stdDeviation="0.29103594"
         id="feGaussianBlur1054" />
    </filter>
    <linearGradient
       inkscape:collect="always"
       xlink:href="#linearGradient1038"
       id="linearGradient1040"
       x1="37.040939"
       y1="15.874687"
       x2="51.592735"
       y2="1.3228906"
       gradientUnits="userSpaceOnUse"
       gradientTransform="translate(-35.850338,-0.13228906)" />
    <linearGradient
       inkscape:collect="always"
       id="linearGradient1038">
      <stop
         style="stop-color:#f5f5f5;stop-opacity:1"
         offset="0"
         id="stop1034" />
      <stop
         style="stop-color:#fafafa;stop-opacity:1"
         offset="1"
         id="stop1036" />
    </linearGradient>
    <filter
       id="filter2761-3"
       x="-.024"
       y="-.024"
       width="1.048"
       height="1.048"
       color-interpolation-filters="sRGB">
      <feGaussianBlur
         stdDeviation="0.14552168"
         id="feGaussianBlur895" />
    </filter>
    <linearGradient
       id="linearGradient1195"
       x1="-9.2997"
       x2="-.93244"
       y1="32.176"
       y2="32.176"
       gradientTransform="translate(1.8475,-2.1749)"
       gradientUnits="userSpaceOnUse">
      <stop
         stop-color="#1478e6"
         offset="0"
         id="stop898" />
      <stop
         stop-color="#3c50e6"
         offset="1"
         id="stop900" />
    </linearGradient>
  </defs>
  <metadata
     id="metadata22">
    <rdf:RDF>
      <cc:Work
         rdf:about="">
        <dc:format>image/svg+xml</dc:format>
        <dc:type
           rdf:resource="http://purl.org/dc/dcmitype/StillImage" />
        <dc:title></dc:title>
      </cc:Work>
    </rdf:RDF>
  </metadata>
  <g
     id="g328"
     fill="#5e4aa6">
    <circle
       id="circle28"
       stroke-width=".26458"
       r="0"
       cy="-331.46"
       cx="-305.77" />
    <g
       id="g94"
       stroke-width=".26458">
      <circle
         id="circle30"
         r="0"
         cy="-329.38"
         cx="-301.96" />
      <circle
         id="circle32"
         r="0"
         cy="-325.72"
         cx="-298.88" />
      <circle
         id="circle34"
         r="0"
         cy="-331.53"
         cx="-301.82" />
      <g
         id="g52"
         transform="translate(55.39 6.5931)">
        <circle
           id="circle36"
           r="0"
           cy="-328.38"
           cx="-330.35" />
        <circle
           id="circle38"
           r="0"
           cy="-337.27"
           cx="-299.17" />
        <circle
           id="circle40"
           r="0"
           cy="-339.42"
           cx="-299.81" />
        <circle
           id="circle42"
           r="0"
           cy="-338.13"
           cx="-302.25" />
        <circle
           id="circle44"
           r="0"
           cy="-335.91"
           cx="-301.89" />
        <circle
           id="circle46"
           r="0"
           cy="-351.05"
           cx="-304.76" />
        <circle
           id="circle48"
           r="0"
           cy="-349.54"
           cx="-304.83" />
        <circle
           id="circle50"
           r="0"
           cy="-336.91"
           cx="-359.94" />
      </g>
      <g
         id="g92"
         transform="translate(30.323 -4.155)">
        <circle
           id="circle54"
           r="0"
           cy="-328.38"
           cx="-330.35" />
        <g
           id="g72"
           transform="translate(23.999,2.5837)">
          <circle
             id="circle56"
             r="0"
             cy="-328.38"
             cx="-330.35" />
          <circle
             id="circle58"
             r="0"
             cy="-337.27"
             cx="-299.17" />
          <circle
             id="circle60"
             r="0"
             cy="-339.42"
             cx="-299.81" />
          <circle
             id="circle62"
             r="0"
             cy="-338.13"
             cx="-302.25" />
          <circle
             id="circle64"
             r="0"
             cy="-335.91"
             cx="-301.89" />
          <circle
             id="circle66"
             r="0"
             cy="-351.05"
             cx="-304.76" />
          <circle
             id="circle68"
             r="0"
             cy="-349.54"
             cx="-304.83" />
          <circle
             id="circle70"
             r="0"
             cy="-336.91"
             cx="-359.94" />
        </g>
        <g
           id="g90"
           transform="translate(24.518,-1.8976)">
          <circle
             id="circle74"
             r="0"
             cy="-328.38"
             cx="-330.35" />
          <circle
             id="circle76"
             r="0"
             cy="-337.27"
             cx="-299.17" />
          <circle
             id="circle78"
             r="0"
             cy="-339.42"
             cx="-299.81" />
          <circle
             id="circle80"
             r="0"
             cy="-338.13"
             cx="-302.25" />
          <circle
             id="circle82"
             r="0"
             cy="-335.91"
             cx="-301.89" />
          <circle
             id="circle84"
             r="0"
             cy="-351.05"
             cx="-304.76" />
          <circle
             id="circle86"
             r="0"
             cy="-349.54"
             cx="-304.83" />
          <circle
             id="circle88"
             r="0"
             cy="-336.91"
             cx="-359.94" />
        </g>
      </g>
    </g>
    <g
       id="g136"
       stroke-width=".26458"
       transform="translate(28.745 -10.326)">
      <circle
         id="circle96"
         r="0"
         cy="-328.38"
         cx="-330.35" />
      <g
         id="g114"
         transform="translate(23.999,2.5837)">
        <circle
           id="circle98"
           r="0"
           cy="-328.38"
           cx="-330.35" />
        <circle
           id="circle100"
           r="0"
           cy="-337.27"
           cx="-299.17" />
        <circle
           id="circle102"
           r="0"
           cy="-339.42"
           cx="-299.81" />
        <circle
           id="circle104"
           r="0"
           cy="-338.13"
           cx="-302.25" />
        <circle
           id="circle106"
           r="0"
           cy="-335.91"
           cx="-301.89" />
        <circle
           id="circle108"
           r="0"
           cy="-351.05"
           cx="-304.76" />
        <circle
           id="circle110"
           r="0"
           cy="-349.54"
           cx="-304.83" />
        <circle
           id="circle112"
           r="0"
           cy="-336.91"
           cx="-359.94" />
      </g>
      <g
         id="g132"
         transform="translate(24.518,-1.8976)">
        <circle
           id="circle116"
           r="0"
           cy="-328.38"
           cx="-330.35" />
        <circle
           id="circle118"
           r="0"
           cy="-337.27"
           cx="-299.17" />
        <circle
           id="circle120"
           r="0"
           cy="-339.42"
           cx="-299.81" />
        <circle
           id="circle122"
           r="0"
           cy="-338.13"
           cx="-302.25" />
        <circle
           id="circle124"
           r="0"
           cy="-335.91"
           cx="-301.89" />
        <circle
           id="circle126"
           r="0"
           cy="-351.05"
           cx="-304.76" />
        <circle
           id="circle128"
           r="0"
           cy="-349.54"
           cx="-304.83" />
        <circle
           id="circle130"
           r="0"
           cy="-336.91"
           cx="-359.94" />
      </g>
      <circle
         id="circle134"
         r="0"
         cy="-331.32"
         cx="-311.92" />
    </g>
    <g
       id="g180"
       stroke-width=".26458"
       transform="translate(31.112 -10.038)">
      <circle
         id="circle138"
         r="0"
         cy="-328.38"
         cx="-330.35" />
      <g
         id="g156"
         transform="translate(23.999,2.5837)">
        <circle
           id="circle140"
           r="0"
           cy="-328.38"
           cx="-330.35" />
        <circle
           id="circle142"
           r="0"
           cy="-337.27"
           cx="-299.17" />
        <circle
           id="circle144"
           r="0"
           cy="-339.42"
           cx="-299.81" />
        <circle
           id="circle146"
           r="0"
           cy="-338.13"
           cx="-302.25" />
        <circle
           id="circle148"
           r="0"
           cy="-335.91"
           cx="-301.89" />
        <circle
           id="circle150"
           r="0"
           cy="-351.05"
           cx="-304.76" />
        <circle
           id="circle152"
           r="0"
           cy="-349.54"
           cx="-304.83" />
        <circle
           id="circle154"
           r="0"
           cy="-336.91"
           cx="-359.94" />
      </g>
      <g
         id="g174"
         transform="translate(24.518,-1.8976)">
        <circle
           id="circle158"
           r="0"
           cy="-328.38"
           cx="-330.35" />
        <circle
           id="circle160"
           r="0"
           cy="-337.27"
           cx="-299.17" />
        <circle
           id="circle162"
           r="0"
           cy="-339.42"
           cx="-299.81" />
        <circle
           id="circle164"
           r="0"
           cy="-338.13"
           cx="-302.25" />
        <circle
           id="circle166"
           r="0"
           cy="-335.91"
           cx="-301.89" />
        <circle
           id="circle168"
           r="0"
           cy="-351.05"
           cx="-304.76" />
        <circle
           id="circle170"
           r="0"
           cy="-349.54"
           cx="-304.83" />
        <circle
           id="circle172"
           r="0"
           cy="-336.91"
           cx="-359.94" />
      </g>
      <circle
         id="circle176"
         r="0"
         cy="-331.32"
         cx="-311.92" />
      <circle
         id="circle178"
         r="0"
         cy="-345.82"
         cx="-300.02" />
    </g>
    <g
       id="g198"
       stroke-width=".26458"
       transform="translate(50.809 -9.1667)">
      <circle
         id="circle182"
         r="0"
         cy="-328.38"
         cx="-330.35" />
      <circle
         id="circle184"
         r="0"
         cy="-337.27"
         cx="-299.17" />
      <circle
         id="circle186"
         r="0"
         cy="-339.42"
         cx="-299.81" />
      <circle
         id="circle188"
         r="0"
         cy="-338.13"
         cx="-302.25" />
      <circle
         id="circle190"
         r="0"
         cy="-335.91"
         cx="-301.89" />
      <circle
         id="circle192"
         r="0"
         cy="-351.05"
         cx="-304.76" />
      <circle
         id="circle194"
         r="0"
         cy="-349.54"
         cx="-304.83" />
      <circle
         id="circle196"
         r="0"
         cy="-336.91"
         cx="-359.94" />
    </g>
    <g
       id="g262"
       stroke-width=".26458"
       transform="translate(28.601 -12.119)">
      <circle
         id="circle200"
         r="0"
         cy="-328.38"
         cx="-330.35" />
      <g
         id="g218"
         transform="translate(23.999,2.5837)">
        <circle
           id="circle202"
           r="0"
           cy="-328.38"
           cx="-330.35" />
        <circle
           id="circle204"
           r="0"
           cy="-337.27"
           cx="-299.17" />
        <circle
           id="circle206"
           r="0"
           cy="-339.42"
           cx="-299.81" />
        <circle
           id="circle208"
           r="0"
           cy="-338.13"
           cx="-302.25" />
        <circle
           id="circle210"
           r="0"
           cy="-335.91"
           cx="-301.89" />
        <circle
           id="circle212"
           r="0"
           cy="-351.05"
           cx="-304.76" />
        <circle
           id="circle214"
           r="0"
           cy="-349.54"
           cx="-304.83" />
        <circle
           id="circle216"
           r="0"
           cy="-336.91"
           cx="-359.94" />
      </g>
      <g
         id="g236"
         transform="translate(24.518,-1.8976)">
        <circle
           id="circle220"
           r="0"
           cy="-328.38"
           cx="-330.35" />
        <circle
           id="circle222"
           r="0"
           cy="-337.27"
           cx="-299.17" />
        <circle
           id="circle224"
           r="0"
           cy="-339.42"
           cx="-299.81" />
        <circle
           id="circle226"
           r="0"
           cy="-338.13"
           cx="-302.25" />
        <circle
           id="circle228"
           r="0"
           cy="-335.91"
           cx="-301.89" />
        <circle
           id="circle230"
           r="0"
           cy="-351.05"
           cx="-304.76" />
        <circle
           id="circle232"
           r="0"
           cy="-349.54"
           cx="-304.83" />
        <circle
           id="circle234"
           r="0"
           cy="-336.91"
           cx="-359.94" />
      </g>
      <circle
         id="circle238"
         r="0"
         cy="-331.32"
         cx="-311.92" />
      <circle
         id="circle240"
         r="0"
         cy="-345.82"
         cx="-300.02" />
      <g
         id="g258"
         transform="translate(19.697 .87184)">
        <circle
           id="circle242"
           r="0"
           cy="-328.38"
           cx="-330.35" />
        <circle
           id="circle244"
           r="0"
           cy="-337.27"
           cx="-299.17" />
        <circle
           id="circle246"
           r="0"
           cy="-339.42"
           cx="-299.81" />
        <circle
           id="circle248"
           r="0"
           cy="-338.13"
           cx="-302.25" />
        <circle
           id="circle250"
           r="0"
           cy="-335.91"
           cx="-301.89" />
        <circle
           id="circle252"
           r="0"
           cy="-351.05"
           cx="-304.76" />
        <circle
           id="circle254"
           r="0"
           cy="-349.54"
           cx="-304.83" />
        <circle
           id="circle256"
           r="0"
           cy="-336.91"
           cx="-359.94" />
      </g>
      <circle
         id="circle260"
         r="0"
         cy="-321.23"
         cx="-299.82" />
    </g>
    <g
       id="g326"
       stroke-width=".26458"
       transform="translate(31.112 -7.886)">
      <circle
         id="circle264"
         r="0"
         cy="-328.38"
         cx="-330.35" />
      <g
         id="g282"
         transform="translate(23.999,2.5837)">
        <circle
           id="circle266"
           r="0"
           cy="-328.38"
           cx="-330.35" />
        <circle
           id="circle268"
           r="0"
           cy="-337.27"
           cx="-299.17" />
        <circle
           id="circle270"
           r="0"
           cy="-339.42"
           cx="-299.81" />
        <circle
           id="circle272"
           r="0"
           cy="-338.13"
           cx="-302.25" />
        <circle
           id="circle274"
           r="0"
           cy="-335.91"
           cx="-301.89" />
        <circle
           id="circle276"
           r="0"
           cy="-351.05"
           cx="-304.76" />
        <circle
           id="circle278"
           r="0"
           cy="-349.54"
           cx="-304.83" />
        <circle
           id="circle280"
           r="0"
           cy="-336.91"
           cx="-359.94" />
      </g>
      <g
         id="g300"
         transform="translate(24.518,-1.8976)">
        <circle
           id="circle284"
           r="0"
           cy="-328.38"
           cx="-330.35" />
        <circle
           id="circle286"
           r="0"
           cy="-337.27"
           cx="-299.17" />
        <circle
           id="circle288"
           r="0"
           cy="-339.42"
           cx="-299.81" />
        <circle
           id="circle290"
           r="0"
           cy="-338.13"
           cx="-302.25" />
        <circle
           id="circle292"
           r="0"
           cy="-335.91"
           cx="-301.89" />
        <circle
           id="circle294"
           r="0"
           cy="-351.05"
           cx="-304.76" />
        <circle
           id="circle296"
           r="0"
           cy="-349.54"
           cx="-304.83" />
        <circle
           id="circle298"
           r="0"
           cy="-336.91"
           cx="-359.94" />
      </g>
      <circle
         id="circle302"
         r="0"
         cy="-331.32"
         cx="-311.92" />
      <circle
         id="circle304"
         r="0"
         cy="-345.82"
         cx="-300.02" />
      <g
         id="g322"
         transform="translate(19.697 .87184)">
        <circle
           id="circle306"
           r="0"
           cy="-328.38"
           cx="-330.35" />
        <circle
           id="circle308"
           r="0"
           cy="-337.27"
           cx="-299.17" />
        <circle
           id="circle310"
           r="0"
           cy="-339.42"
           cx="-299.81" />
        <circle
           id="circle312"
           r="0"
           cy="-338.13"
           cx="-302.25" />
        <circle
           id="circle314"
           r="0"
           cy="-335.91"
           cx="-301.89" />
        <circle
           id="circle316"
           r="0"
           cy="-351.05"
           cx="-304.76" />
        <circle
           id="circle318"
           r="0"
           cy="-349.54"
           cx="-304.83" />
        <circle
           id="circle320"
           r="0"
           cy="-336.91"
           cx="-359.94" />
      </g>
      <circle
         id="circle324"
         r="0"
         cy="-321.23"
         cx="-299.82" />
    </g>
  </g>
  <rect
     style="opacity:0.3;fill:#000000;fill-opacity:1;stroke-width:0.529156;stroke-linecap:round;filter:url(#filter1052)"
     id="rect1042"
     width="14.551797"
     height="14.551797"
     x="1.1906018"
     y="1.1906018"
     ry="3.4395156" />
  <rect
     ry="3.4395156"
     y="1.1906016"
     x="1.1906016"
     height="14.551797"
     width="14.551797"
     id="rect1032"
     style="fill:url(#linearGradient1040);fill-opacity:1;stroke-width:0.529156;stroke-linecap:round" />
  <g
     transform="matrix(1.2209,0,0,1.2209,-1.8710677,-1.8163901)"
     filter="url(#filter990)"
     id="g34">
    <path
       style="fill:url(#linearGradient963)"
       d="m 4.7633,5.9776 c -0.00619,-4.5e-5 -0.012409,1.27e-4 -0.0186,5.291e-4 -0.00884,5.292e-4 -0.017621,0.00159 -0.026352,0.0031 -0.0087,0.00159 -0.01733,0.0037 -0.025849,0.00619 -0.00857,0.00238 -0.017012,0.00508 -0.02532,0.00825 -0.0081,0.00323 -0.016033,0.00685 -0.023759,0.010848 -0.00796,0.00392 -0.015716,0.00823 -0.023256,0.012911 -0.0073,0.00482 -0.014393,0.00997 -0.021193,0.015504 -0.00701,0.0055 -0.013732,0.011377 -0.020161,0.017568 -0.00635,0.00606 -0.012382,0.012462 -0.018097,0.019129 -0.00569,0.0068 -0.011033,0.013864 -0.016033,0.021193 -0.00484,0.00736 -0.00934,0.014949 -0.013441,0.022727 -0.00437,0.00773 -0.00833,0.015663 -0.01188,0.023759 -0.00333,0.00812 -0.00627,0.016404 -0.00878,0.024791 -0.00265,0.00833 -0.00489,0.016774 -0.00672,0.02532 -0.00159,0.0087 -0.00286,0.017515 -0.00362,0.026352 -0.00106,0.00876 -0.00159,0.017542 -0.00159,0.026352 v 6.0852999 c -4.5e-5,0.0062 1.27e-4,0.01241 5.292e-4,0.0186 5.291e-4,0.0088 0.00159,0.01762 0.0031,0.02635 0.00159,0.0087 0.0037,0.01733 0.00619,0.02585 0.00238,0.0086 0.00508,0.01701 0.00825,0.02532 0.00323,0.0081 0.00685,0.01603 0.010848,0.02376 0.00392,0.008 0.00823,0.01572 0.012911,0.02326 0.00482,0.0073 0.00997,0.01439 0.015504,0.02119 0.0055,0.007 0.011377,0.01373 0.017568,0.02016 0.00606,0.0063 0.012435,0.01238 0.019129,0.0181 0.0068,0.0057 0.013864,0.01103 0.021193,0.01603 0.00736,0.0048 0.014949,0.0093 0.022727,0.01344 0.00773,0.0044 0.015663,0.0083 0.023759,0.01188 0.00812,0.0033 0.016404,0.0063 0.024791,0.0088 0.00833,0.0026 0.016774,0.0049 0.02532,0.0067 0.0087,0.0016 0.017515,0.0029 0.026352,0.0036 0.00876,0.0011 0.017542,0.0016 0.026352,0.0016 h 7.4081998 c 0.0062,4.5e-5 0.01241,-1.27e-4 0.0186,-5.29e-4 0.0088,-5.29e-4 0.01762,-0.0016 0.02635,-0.0031 0.0087,-0.0016 0.01733,-0.0037 0.02585,-0.0062 0.0086,-0.0024 0.01701,-0.0051 0.02532,-0.0083 0.0081,-0.0032 0.01603,-0.0069 0.02376,-0.01085 0.008,-0.0039 0.01572,-0.0082 0.02326,-0.01291 0.0073,-0.0048 0.01439,-0.01 0.02119,-0.0155 0.007,-0.0055 0.01373,-0.01138 0.02016,-0.01757 0.0063,-0.0061 0.01238,-0.01246 0.0181,-0.01913 0.0057,-0.0068 0.01103,-0.01386 0.01601,-0.02119 0.0048,-0.0074 0.0093,-0.01495 0.01344,-0.02273 0.0044,-0.0077 0.0083,-0.01566 0.01188,-0.02376 0.0033,-0.0081 0.0063,-0.0164 0.0088,-0.02479 0.0026,-0.0083 0.0049,-0.01677 0.0067,-0.02532 0.0016,-0.0087 0.0029,-0.01752 0.0036,-0.02635 0.0011,-0.0088 0.0016,-0.01754 0.0016,-0.02635 V 6.2422841 c 4.5e-5,-0.00619 -1.27e-4,-0.012409 -5.29e-4,-0.0186 -5.29e-4,-0.00884 -0.0016,-0.017621 -0.0031,-0.026352 -0.0016,-0.0087 -0.0037,-0.01733 -0.0062,-0.025849 -0.0024,-0.00857 -0.0051,-0.017012 -0.0083,-0.02532 -0.0032,-0.0081 -0.0069,-0.016033 -0.01085,-0.023759 -0.0039,-0.00796 -0.0082,-0.015716 -0.01291,-0.023256 -0.0048,-0.0073 -0.01,-0.014393 -0.01551,-0.021193 -0.0055,-0.00701 -0.01138,-0.013732 -0.01757,-0.020161 -0.0061,-0.00635 -0.01246,-0.012382 -0.01913,-0.018097 -0.0068,-0.00569 -0.01386,-0.011033 -0.02119,-0.016007 -0.0074,-0.00484 -0.01495,-0.00934 -0.02273,-0.01344 -0.0077,-0.00437 -0.01566,-0.00833 -0.02378,-0.01188 -0.0081,-0.00333 -0.0164,-0.00627 -0.02479,-0.00878 -0.0083,-0.00265 -0.01678,-0.00489 -0.02532,-0.00672 -0.0087,-0.00159 -0.01751,-0.00286 -0.02635,-0.00362 -0.0088,-0.00106 -0.01754,-0.00159 -0.02635,-0.00159 h -1.8517 v 0.50693 H 9.6786332 v -0.50693 h -2.5804 v 0.50693 h -0.64157 v -0.50693 z"
       fill="url(#linearGradient963)"
       id="path26-2" />
    <path
       d="M 8.2401,4.2529 A 1.6178,1.6178 0 0 0 8.1259,4.2565 1.6178,1.6178 0 0 0 7.96519,4.27614 1.6178,1.6178 0 0 0 7.80758,4.3118 1.6178,1.6178 0 0 0 7.6541,4.36244 1.6178,1.6178 0 0 0 7.50631,4.42858 1.6178,1.6178 0 0 0 7.36627,4.50919 1.6178,1.6178 0 0 0 7.2345,4.60324 1.6178,1.6178 0 0 0 7.11306,4.70969 1.6178,1.6178 0 0 0 7.00299,4.82803 1.6178,1.6178 0 0 0 6.9048,4.95722 1.6178,1.6178 0 0 0 6.82057,5.09468 1.6178,1.6178 0 0 0 6.75029,5.2404 1.6178,1.6178 0 0 0 6.69448,5.39233 1.6178,1.6178 0 0 0 6.65469,5.54891 1.6178,1.6178 0 0 0 6.6304,5.7091 1.6178,1.6178 0 0 0 6.6227,5.85999 v 2.3729 H 9.8576 V 5.85579 A 1.6178,1.6178 0 0 0 9.854,5.75606 1.6178,1.6178 0 0 0 9.83436,5.59535 1.6178,1.6178 0 0 0 9.79922,5.43774 1.6178,1.6178 0 0 0 9.74806,5.28426 1.6178,1.6178 0 0 0 9.68192,5.13647 1.6178,1.6178 0 0 0 9.60131,4.99643 1.6178,1.6178 0 0 0 9.50726,4.86466 1.6178,1.6178 0 0 0 9.40081,4.74322 1.6178,1.6178 0 0 0 9.28247,4.63315 1.6178,1.6178 0 0 0 9.1538,4.53497 1.6178,1.6178 0 0 0 9.01583,4.45074 1.6178,1.6178 0 0 0 8.87011,4.38046 1.6178,1.6178 0 0 0 8.71818,4.32465 1.6178,1.6178 0 0 0 8.5616,4.28486 1.6178,1.6178 0 0 0 8.40192,4.26057 1.6178,1.6178 0 0 0 8.24018,4.25277 Z"
       fill="none"
       stroke="#da4465"
       stroke-dashoffset="1.0224"
       stroke-width="0.38546"
       id="path28" />
    <text
       x="5.3288102"
       y="10.127344"
       fill="#ffffff"
       font-family="sans-serif"
       font-size="2.235px"
       letter-spacing="0px"
       stroke-width="0.055874"
       word-spacing="0px"
       style="line-height:1.25"
       xml:space="preserve"
       id="text32"><tspan
         x="5.3288102"
         y="10.127344"
         fill="#ffffff"
         stroke-width="0.055874"
         id="tspan30">SHOP</tspan></text>
  </g>
  <path
     d="m 8.2828323,3.3760099 a 1.9751,1.9751 0 0 0 -0.13943,0.0044 1.9751,1.9751 0 0 0 -0.19622,0.023979 1.9751,1.9751 0 0 0 -0.19243,0.043538 1.9751,1.9751 0 0 0 -0.18738,0.061827 1.9751,1.9751 0 0 0 -0.18044,0.080745 1.9751,1.9751 0 0 0 -0.17098,0.098417 1.9751,1.9751 0 0 0 -0.16088,0.11483 1.9751,1.9751 0 0 0 -0.14826,0.12997 1.9751,1.9751 0 0 0 -0.13438,0.14448 1.9751,1.9751 0 0 0 -0.11988,0.15773 1.9751,1.9751 0 0 0 -0.10284,0.16782 1.9751,1.9751 0 0 0 -0.085805,0.17792 1.9751,1.9751 0 0 0 -0.068139,0.18549 1.9751,1.9751 0 0 0 -0.04858,0.19116 1.9751,1.9751 0 0 0 -0.029656,0.19558 1.9751,1.9751 0 0 0 -0.0094,0.18423 v 2.8971 h 3.9494997 v -2.9022 a 1.9751,1.9751 0 0 0 -0.0044,-0.12176 1.9751,1.9751 0 0 0 -0.02398,-0.19621 1.9751,1.9751 0 0 0 -0.0429,-0.19243 1.9751,1.9751 0 0 0 -0.06246,-0.18738 1.9751,1.9751 0 0 0 -0.08075,-0.18044 1.9751,1.9751 0 0 0 -0.098418,-0.17098 1.9751,1.9751 0 0 0 -0.11483,-0.16088 1.9751,1.9751 0 0 0 -0.12997,-0.14826 1.9751,1.9751 0 0 0 -0.14448,-0.13438 1.9751,1.9751 0 0 0 -0.1571,-0.11987 1.9751,1.9751 0 0 0 -0.16845,-0.10284 1.9751,1.9751 0 0 0 -0.17792,-0.085805 1.9751,1.9751 0 0 0 -0.18549,-0.068139 1.9751,1.9751 0 0 0 -0.19117,-0.04858 1.9751,1.9751 0 0 0 -0.19495,-0.029656 1.9751,1.9751 0 0 0 -0.19747,-0.00952 z"
     fill="none"
     stroke="#da4465"
     stroke-dashoffset="1.0224"
     stroke-width="0.47061"
     id="path36" />
  <path
     style="fill:url(#linearGradient994)"
     d="m 3.9445323,5.4817099 c -0.00756,-5.76e-5 -0.01515,1.627e-4 -0.022709,6.778e-4 -0.010793,6.778e-4 -0.021514,0.00204 -0.032173,0.00397 -0.010622,0.00204 -0.021158,0.00474 -0.031559,0.00793 -0.010463,0.00305 -0.02077,0.0065 -0.030913,0.010567 -0.00989,0.00413 -0.019575,0.00877 -0.029008,0.013895 -0.00972,0.00503 -0.019188,0.010542 -0.028393,0.016538 -0.00891,0.00617 -0.017573,0.012771 -0.025875,0.019859 -0.00856,0.00704 -0.016765,0.014573 -0.024615,0.022503 -0.00775,0.00776 -0.015117,0.015963 -0.022095,0.024503 -0.00695,0.00871 -0.01347,0.017759 -0.019575,0.027146 -0.00591,0.00943 -0.011403,0.019148 -0.01641,0.029112 -0.00534,0.0099 -0.01017,0.020063 -0.014504,0.030434 -0.00407,0.010397 -0.00766,0.021012 -0.01072,0.031756 -0.00324,0.01067 -0.00597,0.021485 -0.0082,0.032432 -0.00194,0.011144 -0.00349,0.022435 -0.00442,0.033754 -0.00129,0.011221 -0.00194,0.022469 -0.00194,0.033754 v 7.7947003 c -5.5e-5,0.008 1.55e-4,0.01589 6.461e-4,0.02383 6.46e-4,0.01127 0.00194,0.02257 0.00378,0.03375 0.00194,0.01114 0.00452,0.0222 0.00756,0.03311 0.00291,0.01102 0.0062,0.02179 0.010073,0.03243 0.00394,0.01039 0.00836,0.02053 0.013244,0.03044 0.00479,0.01028 0.010048,0.02013 0.015763,0.0298 0.00588,0.0093 0.012172,0.01843 0.018929,0.02714 0.00671,0.0089 0.01389,0.01758 0.021449,0.02582 0.0074,0.0081 0.015182,0.01585 0.023355,0.02319 0.0083,0.0073 0.016927,0.01413 0.025875,0.02053 0.00899,0.0062 0.018251,0.01191 0.027748,0.01722 0.00944,0.0057 0.019123,0.01063 0.029007,0.01521 0.00991,0.0042 0.020028,0.0081 0.030268,0.01127 0.01017,0.0034 0.020479,0.0063 0.030913,0.0086 0.010622,0.0021 0.021384,0.0037 0.032173,0.0046 0.010695,0.0014 0.021417,0.0021 0.032173,0.0021 h 9.0446996 c 0.0076,5.7e-5 0.01515,-1.63e-4 0.02271,-6.78e-4 0.01074,-6.78e-4 0.02151,-0.0021 0.03217,-0.004 0.01062,-0.0021 0.02116,-0.0047 0.03156,-0.008 0.0105,-0.003 0.02077,-0.0065 0.03091,-0.01063 0.0099,-0.0041 0.01957,-0.0088 0.02901,-0.0139 0.0098,-0.005 0.01919,-0.0105 0.0284,-0.01653 0.0089,-0.0062 0.01757,-0.01281 0.02587,-0.01985 0.0085,-0.007 0.01676,-0.01457 0.02461,-0.0225 0.0077,-0.0078 0.01511,-0.01596 0.0221,-0.02451 0.007,-0.0087 0.01347,-0.01775 0.01955,-0.02714 0.0059,-0.0094 0.01136,-0.01915 0.01641,-0.02911 0.0054,-0.0099 0.01013,-0.02006 0.0145,-0.03043 0.004,-0.01039 0.0077,-0.021 0.01074,-0.03176 0.0032,-0.01063 0.006,-0.02148 0.0082,-0.03243 0.002,-0.01114 0.0035,-0.02244 0.0044,-0.03375 0.0013,-0.01127 0.002,-0.02247 0.002,-0.03375 V 5.8207127 c 5.5e-5,-0.00793 -1.55e-4,-0.015895 -6.46e-4,-0.023825 -6.45e-4,-0.011323 -0.002,-0.022571 -0.0038,-0.033754 -0.002,-0.011144 -0.0045,-0.022198 -0.0076,-0.03311 -0.0029,-0.010977 -0.0062,-0.021791 -0.01013,-0.032432 -0.0039,-0.010376 -0.0084,-0.020537 -0.01325,-0.030434 -0.0048,-0.010198 -0.01001,-0.020131 -0.01576,-0.029788 -0.0059,-0.00935 -0.01221,-0.018436 -0.01894,-0.027147 -0.0067,-0.00898 -0.01389,-0.017589 -0.02145,-0.025825 -0.0074,-0.00813 -0.01521,-0.01586 -0.02336,-0.023181 -0.0083,-0.00729 -0.01692,-0.014132 -0.02587,-0.020503 -0.009,-0.0062 -0.01825,-0.011963 -0.02775,-0.017215 -0.0094,-0.0056 -0.01912,-0.01067 -0.02903,-0.015217 -0.0099,-0.00427 -0.02002,-0.00804 -0.03027,-0.011247 -0.01013,-0.0034 -0.02049,-0.00626 -0.03091,-0.0086 -0.01062,-0.00204 -0.02138,-0.00366 -0.03217,-0.00464 -0.01074,-0.00135 -0.02141,-0.00204 -0.03217,-0.00204 h -2.2608 v 0.64932 H 9.9456534 v -0.64933 h -3.1504 v 0.64934 h -0.78329 v -0.64934 z"
     fill="url(#linearGradient994)"
     id="path38" />
  <path
     d="M 7.5844008,7.4174889 V 9.6219622 H 6.4821641 L 8.4665,11.606298 10.450836,9.6219622 H 9.3485995 V 7.4174889 Z M 6.4821641,10.724715 8.0257089,12.267743 H 6.4821641 v 0.441308 H 10.450836 V 12.267743 H 8.9072914 L 10.450836,10.724715 H 9.7893906 L 8.4665,12.047606 7.1436094,10.724715 Z"
     style="opacity:1;fill:#ffffff;fill-opacity:1;stroke-width:0.529156;stroke-linecap:round"
     id="rect1285" />
</svg>
