<?xml version="1.0" encoding="UTF-8" standalone="no"?>
<svg
   xmlns:dc="http://purl.org/dc/elements/1.1/"
   xmlns:cc="http://creativecommons.org/ns#"
   xmlns:rdf="http://www.w3.org/1999/02/22-rdf-syntax-ns#"
   xmlns:svg="http://www.w3.org/2000/svg"
   xmlns="http://www.w3.org/2000/svg"
   xmlns:xlink="http://www.w3.org/1999/xlink"
   xmlns:sodipodi="http://sodipodi.sourceforge.net/DTD/sodipodi-0.dtd"
   xmlns:inkscape="http://www.inkscape.org/namespaces/inkscape"
   inkscape:version="1.0 (4035a4fb49, 2020-05-01)"
   sodipodi:docname="system-search.svg"
   id="svg49"
   viewBox="0 0 16.933 16.933"
   version="1.1"
   height="64"
   width="64">
  <metadata
     id="metadata53">
    <rdf:RDF>
      <cc:Work
         rdf:about="">
        <dc:format>image/svg+xml</dc:format>
        <dc:type
           rdf:resource="http://purl.org/dc/dcmitype/StillImage" />
        <dc:title></dc:title>
      </cc:Work>
    </rdf:RDF>
  </metadata>
  <sodipodi:namedview
     inkscape:current-layer="svg49"
     inkscape:window-maximized="1"
     inkscape:window-y="0"
     inkscape:window-x="0"
     inkscape:cy="25.34659"
     inkscape:cx="28.636938"
     inkscape:zoom="4.5078057"
     showgrid="false"
     id="namedview51"
     inkscape:window-height="985"
     inkscape:window-width="1920"
     inkscape:pageshadow="2"
     inkscape:pageopacity="0"
     guidetolerance="10"
     gridtolerance="10"
     objecttolerance="10"
     borderopacity="1"
     bordercolor="#666666"
     pagecolor="#ffffff" />
  <defs
     id="defs5">
    <clipPath
       id="a">
      <circle
         id="circle2"
         style="paint-order:stroke markers fill"
         stroke-width=".491"
         stroke-opacity=".039"
         fill="#d86eb0"
         r="6.879"
         cy="288.53"
         cx="8.467" />
    </clipPath>
    <filter
       inkscape:collect="always"
       style="color-interpolation-filters:sRGB"
       id="filter1052"
       x="-0.048"
       width="1.096"
       y="-0.048"
       height="1.096">
      <feGaussianBlur
         inkscape:collect="always"
         stdDeviation="0.29103594"
         id="feGaussianBlur1054" />
    </filter>
    <linearGradient
       inkscape:collect="always"
       xlink:href="#linearGradient1038"
       id="linearGradient1040"
       x1="37.040939"
       y1="15.874687"
       x2="51.592735"
       y2="1.3228906"
       gradientUnits="userSpaceOnUse"
       gradientTransform="translate(-35.850338,0.3598268)" />
    <linearGradient
       inkscape:collect="always"
       id="linearGradient1038">
      <stop
         style="stop-color:#04a2ff;stop-opacity:1"
         offset="0"
         id="stop1034" />
      <stop
         style="stop-color:#37beff;stop-opacity:1"
         offset="1"
         id="stop1036" />
    </linearGradient>
    <style
       type="text/css"
       id="style904" />
    <style
       type="text/css"
       id="style906" />
    <style
       type="text/css"
       id="style908" />
    <linearGradient
       id="linearGradient1448"
       x1="3.9687"
       x2="3.9687"
       y1="16.404"
       y2="2.6458"
       gradientTransform="matrix(0.91666,0,0,0.91666,23.056117,0.70545)"
       gradientUnits="userSpaceOnUse">
      <stop
         stop-color="#00a0ff"
         offset="0"
         id="stop910" />
      <stop
         stop-color="#37beff"
         offset="1"
         id="stop912" />
    </linearGradient>
    <filter
       id="filter861"
       x="-.027"
       y="-.027"
       width="1.054"
       height="1.054"
       color-interpolation-filters="sRGB">
      <feGaussianBlur
         stdDeviation="0.16371"
         id="feGaussianBlur915" />
    </filter>
  </defs>
  <circle
     id="circle19"
     stroke-width=".26458"
     fill="#5e4aa6"
     r="0"
     cy="-328.38"
     cx="-330.35" />
  <rect
     ry="3.4395156"
     y="1.6827174"
     x="1.1906016"
     height="14.551797"
     width="14.551797"
     id="rect1042"
     style="opacity:0.3;fill:#000000;fill-opacity:1;stroke-width:0.529156;stroke-linecap:round;filter:url(#filter1052)" />
  <rect
     style="fill:url(#linearGradient1040);fill-opacity:1;stroke-width:0.529156;stroke-linecap:round"
     id="rect1032"
     width="14.551797"
     height="14.551797"
     x="1.1906016"
     y="1.6827174"
     ry="3.4395156" />
  <g
     transform="translate(22.350667)"
     id="g930"
     stroke-width="0.26458"
     fill="#5e4aa6">
    <circle
       id="circle922"
       r="0"
       cy="-328.38"
       cx="-330.35001" />
    <circle
       id="circle924"
       r="0"
       cy="-328.37"
       cx="-330.35001" />
    <circle
       id="circle926"
       r="0"
       cy="-328.37"
       cx="-330.35001" />
    <circle
       id="circle928"
       r="0"
       cy="-336.82999"
       cx="-352.63" />
  </g>
  <g
     transform="translate(22.350667)"
     id="g972"
     fill="#5e4aa6">
    <g
       id="g940"
       stroke-width="0.26458">
      <circle
         id="circle932"
         r="0"
         cy="-328.38"
         cx="-330.35001" />
      <circle
         id="circle934"
         r="0"
         cy="-328.37"
         cx="-330.35001" />
      <circle
         id="circle936"
         r="0"
         cy="-328.37"
         cx="-330.35001" />
      <circle
         id="circle938"
         r="0"
         cy="-336.82999"
         cx="-352.63" />
    </g>
    <g
       id="g950"
       stroke-width="0.26458"
       transform="translate(32.665,-10.979)">
      <circle
         id="circle942"
         r="0"
         cy="-328.38"
         cx="-330.35001" />
      <circle
         id="circle944"
         r="0"
         cy="-326.25"
         cx="-312.10999" />
      <circle
         id="circle946"
         r="0"
         cy="-333.07001"
         cx="-306.01999" />
      <circle
         id="circle948"
         r="0"
         cy="-326.01001"
         cx="-308.84" />
    </g>
    <g
       id="g960"
       transform="matrix(0.26458,0,0,0.26458,4.6401e-6,4.6401e-6)">
      <circle
         id="circle952"
         r="0"
         cy="-1237.8"
         cx="-1331.1" />
      <circle
         id="circle954"
         r="0"
         cy="-1229.7"
         cx="-1262.2" />
      <circle
         id="circle956"
         r="0"
         cy="-1255.5"
         cx="-1239.2" />
      <circle
         id="circle958"
         r="0"
         cy="-1228.8"
         cx="-1249.8" />
    </g>
    <g
       id="g970"
       stroke-width="0.26458"
       transform="translate(-21.833,0.89722)">
      <circle
         id="circle962"
         r="0"
         cy="-328.38"
         cx="-330.35001" />
      <circle
         id="circle964"
         r="0"
         cy="-326.25"
         cx="-312.10999" />
      <circle
         id="circle966"
         r="0"
         cy="-333.07001"
         cx="-306.01999" />
      <circle
         id="circle968"
         r="0"
         cy="-326.01001"
         cx="-308.84" />
    </g>
  </g>
  <path
     id="path978"
     stroke-width="0.058547"
     fill-opacity="0.84722"
     fill="#ffffff"
     d="m 12.258725,11.39532 -1.6361,-1.6361 c 0.39432,-0.56919 0.59156,-1.2037 0.59156,-1.9032 0,-0.45473 -0.08829,-0.88962 -0.26481,-1.3046 -0.17646,-0.41504 -0.41498,-0.77276 -0.7155,-1.0733 -0.30052,-0.30052 -0.65819,-0.53904 -1.0732,-0.7155 -0.4151,-0.17652 -0.84999,-0.26475 -1.3047,-0.26475 -0.45474,0 -0.88962,0.08823 -1.3046,0.26475 -0.41504,0.17646 -0.77276,0.41498 -1.0733,0.7155 -0.30052,0.30052 -0.53904,0.6583 -0.7155,1.0733 -0.17652,0.41504 -0.26475,0.84987 -0.26475,1.3046 0,0.45473 0.08823,0.88951 0.26475,1.3046 0.17646,0.41498 0.41498,0.77265 0.7155,1.0732 0.30052,0.30058 0.6583,0.53904 1.0733,0.71556 0.41504,0.17652 0.84987,0.26475 1.3046,0.26475 0.6997,0 1.3341,-0.19724 1.9033,-0.59156 l 1.6361,1.6313 c 0.11446,0.12084 0.25743,0.18126 0.42927,0.18126 0.16534,0 0.30854,-0.06043 0.42927,-0.18126 0.12084,-0.12078 0.18126,-0.26393 0.18126,-0.42927 6e-5,-0.16844 -0.05872,-0.31159 -0.17646,-0.42921 z m -2.893,-2.0297 c -0.4182,0.4182 -0.92141,0.62727 -1.5098,0.62727 -0.58828,0 -1.0915,-0.20913 -1.5097,-0.62727 -0.4182,-0.4182 -0.62727,-0.92136 -0.62727,-1.5097 0,-0.58828 0.20913,-1.0916 0.62727,-1.5097 0.41814,-0.4182 0.92141,-0.62727 1.5097,-0.62727 0.58828,0 1.0915,0.20913 1.5098,0.62727 0.4182,0.41814 0.62733,0.92141 0.62733,1.5097 0,0.58834 -0.20919,1.0915 -0.62733,1.5097 z" />
</svg>
