<?xml version="1.0" encoding="UTF-8"?>
<!-- Created with Inkscape (http://www.inkscape.org/) -->
<svg width="64" height="64" version="1.1" viewBox="0 0 16.933 16.933" xmlns="http://www.w3.org/2000/svg" xmlns:cc="http://creativecommons.org/ns#" xmlns:dc="http://purl.org/dc/elements/1.1/" xmlns:rdf="http://www.w3.org/1999/02/22-rdf-syntax-ns#" xmlns:xlink="http://www.w3.org/1999/xlink">
 <defs>
  <filter id="filter2761" x="-.024" y="-.024" width="1.048" height="1.048" color-interpolation-filters="sRGB">
   <feGaussianBlur stdDeviation="0.14552168"/>
  </filter>
  <linearGradient id="linearGradient2196" x1="399.57" x2="417.57" y1="522.8" y2="522.8" gradientUnits="userSpaceOnUse">
   <stop stop-color="#1b91f4" offset="0"/>
   <stop stop-color="#1b91f4" stop-opacity="0" offset="1"/>
  </linearGradient>
  <linearGradient id="linearGradient2198" x1="408.52" x2="408.52" y1="511.15" y2="535.02" gradientUnits="userSpaceOnUse">
   <stop stop-color="#0a82f0" offset="0"/>
   <stop stop-color="#3250e6" offset="1"/>
  </linearGradient>
  <linearGradient id="linearGradient2206" x1="408.09" x2="408.09" y1="526.07" y2="534.87" gradientUnits="userSpaceOnUse">
   <stop stop-color="#0a82f0" offset="0"/>
   <stop stop-color="#3250e6" offset="1"/>
  </linearGradient>
 </defs>
 <metadata>
  <rdf:RDF>
   <cc:Work rdf:about="">
    <dc:format>image/svg+xml</dc:format>
    <dc:type rdf:resource="http://purl.org/dc/dcmitype/StillImage"/>
    <dc:title/>
   </cc:Work>
  </rdf:RDF>
 </metadata>
 <path d="m10.709 1.05c4.405 0 5.0345 0.67282 5.0345 5.388v3.7761c0 4.7152-0.62954 5.388-5.0345 5.388h-4.4832c-4.405 0-5.0346-0.6728-5.0346-5.388v-3.7761c0-4.7152 0.62954-5.388 5.0346-5.388z" enable-background="new" fill="#141414" filter="url(#filter2761)" opacity=".3"/>
 <path d="m10.709 1.05c4.405 0 5.0345 0.67282 5.0345 5.388v3.7761c0 4.7152-0.62954 5.388-5.0345 5.388h-4.4832c-4.405 0-5.0346-0.6728-5.0346-5.388v-3.7761c0-4.7152 0.62954-5.388 5.0346-5.388z" enable-background="new" fill="#fafafa"/>
 <g fill="#5e4aa6">
  <circle cx="-305.77" cy="-331.46" r="0" stroke-width=".26458"/>
  <g stroke-width=".26458">
   <circle cx="-301.96" cy="-329.38" r="0"/>
   <circle cx="-298.88" cy="-325.72" r="0"/>
   <circle cx="-301.82" cy="-331.53" r="0"/>
   <g transform="translate(55.39 6.5931)">
    <circle cx="-330.35" cy="-328.38" r="0"/>
    <circle cx="-299.17" cy="-337.27" r="0"/>
    <circle cx="-299.81" cy="-339.42" r="0"/>
    <circle cx="-302.25" cy="-338.13" r="0"/>
    <circle cx="-301.89" cy="-335.91" r="0"/>
    <circle cx="-304.76" cy="-351.05" r="0"/>
    <circle cx="-304.83" cy="-349.54" r="0"/>
    <circle cx="-359.94" cy="-336.91" r="0"/>
   </g>
   <g transform="translate(30.323 -4.155)">
    <circle cx="-330.35" cy="-328.38" r="0"/>
    <g transform="translate(23.999,2.5837)">
     <circle cx="-330.35" cy="-328.38" r="0"/>
     <circle cx="-299.17" cy="-337.27" r="0"/>
     <circle cx="-299.81" cy="-339.42" r="0"/>
     <circle cx="-302.25" cy="-338.13" r="0"/>
     <circle cx="-301.89" cy="-335.91" r="0"/>
     <circle cx="-304.76" cy="-351.05" r="0"/>
     <circle cx="-304.83" cy="-349.54" r="0"/>
     <circle cx="-359.94" cy="-336.91" r="0"/>
    </g>
    <g transform="translate(24.518,-1.8976)">
     <circle cx="-330.35" cy="-328.38" r="0"/>
     <circle cx="-299.17" cy="-337.27" r="0"/>
     <circle cx="-299.81" cy="-339.42" r="0"/>
     <circle cx="-302.25" cy="-338.13" r="0"/>
     <circle cx="-301.89" cy="-335.91" r="0"/>
     <circle cx="-304.76" cy="-351.05" r="0"/>
     <circle cx="-304.83" cy="-349.54" r="0"/>
     <circle cx="-359.94" cy="-336.91" r="0"/>
    </g>
   </g>
  </g>
  <g transform="translate(28.745 -10.326)" stroke-width=".26458">
   <circle cx="-330.35" cy="-328.38" r="0"/>
   <g transform="translate(23.999,2.5837)">
    <circle cx="-330.35" cy="-328.38" r="0"/>
    <circle cx="-299.17" cy="-337.27" r="0"/>
    <circle cx="-299.81" cy="-339.42" r="0"/>
    <circle cx="-302.25" cy="-338.13" r="0"/>
    <circle cx="-301.89" cy="-335.91" r="0"/>
    <circle cx="-304.76" cy="-351.05" r="0"/>
    <circle cx="-304.83" cy="-349.54" r="0"/>
    <circle cx="-359.94" cy="-336.91" r="0"/>
   </g>
   <g transform="translate(24.518,-1.8976)">
    <circle cx="-330.35" cy="-328.38" r="0"/>
    <circle cx="-299.17" cy="-337.27" r="0"/>
    <circle cx="-299.81" cy="-339.42" r="0"/>
    <circle cx="-302.25" cy="-338.13" r="0"/>
    <circle cx="-301.89" cy="-335.91" r="0"/>
    <circle cx="-304.76" cy="-351.05" r="0"/>
    <circle cx="-304.83" cy="-349.54" r="0"/>
    <circle cx="-359.94" cy="-336.91" r="0"/>
   </g>
   <circle cx="-311.92" cy="-331.32" r="0"/>
  </g>
  <g transform="translate(31.112 -10.038)" stroke-width=".26458">
   <circle cx="-330.35" cy="-328.38" r="0"/>
   <g transform="translate(23.999,2.5837)">
    <circle cx="-330.35" cy="-328.38" r="0"/>
    <circle cx="-299.17" cy="-337.27" r="0"/>
    <circle cx="-299.81" cy="-339.42" r="0"/>
    <circle cx="-302.25" cy="-338.13" r="0"/>
    <circle cx="-301.89" cy="-335.91" r="0"/>
    <circle cx="-304.76" cy="-351.05" r="0"/>
    <circle cx="-304.83" cy="-349.54" r="0"/>
    <circle cx="-359.94" cy="-336.91" r="0"/>
   </g>
   <g transform="translate(24.518,-1.8976)">
    <circle cx="-330.35" cy="-328.38" r="0"/>
    <circle cx="-299.17" cy="-337.27" r="0"/>
    <circle cx="-299.81" cy="-339.42" r="0"/>
    <circle cx="-302.25" cy="-338.13" r="0"/>
    <circle cx="-301.89" cy="-335.91" r="0"/>
    <circle cx="-304.76" cy="-351.05" r="0"/>
    <circle cx="-304.83" cy="-349.54" r="0"/>
    <circle cx="-359.94" cy="-336.91" r="0"/>
   </g>
   <circle cx="-311.92" cy="-331.32" r="0"/>
   <circle cx="-300.02" cy="-345.82" r="0"/>
  </g>
  <g transform="translate(50.809 -9.1667)" stroke-width=".26458">
   <circle cx="-330.35" cy="-328.38" r="0"/>
   <circle cx="-299.17" cy="-337.27" r="0"/>
   <circle cx="-299.81" cy="-339.42" r="0"/>
   <circle cx="-302.25" cy="-338.13" r="0"/>
   <circle cx="-301.89" cy="-335.91" r="0"/>
   <circle cx="-304.76" cy="-351.05" r="0"/>
   <circle cx="-304.83" cy="-349.54" r="0"/>
   <circle cx="-359.94" cy="-336.91" r="0"/>
  </g>
  <g transform="translate(28.601 -12.119)" stroke-width=".26458">
   <circle cx="-330.35" cy="-328.38" r="0"/>
   <g transform="translate(23.999,2.5837)">
    <circle cx="-330.35" cy="-328.38" r="0"/>
    <circle cx="-299.17" cy="-337.27" r="0"/>
    <circle cx="-299.81" cy="-339.42" r="0"/>
    <circle cx="-302.25" cy="-338.13" r="0"/>
    <circle cx="-301.89" cy="-335.91" r="0"/>
    <circle cx="-304.76" cy="-351.05" r="0"/>
    <circle cx="-304.83" cy="-349.54" r="0"/>
    <circle cx="-359.94" cy="-336.91" r="0"/>
   </g>
   <g transform="translate(24.518,-1.8976)">
    <circle cx="-330.35" cy="-328.38" r="0"/>
    <circle cx="-299.17" cy="-337.27" r="0"/>
    <circle cx="-299.81" cy="-339.42" r="0"/>
    <circle cx="-302.25" cy="-338.13" r="0"/>
    <circle cx="-301.89" cy="-335.91" r="0"/>
    <circle cx="-304.76" cy="-351.05" r="0"/>
    <circle cx="-304.83" cy="-349.54" r="0"/>
    <circle cx="-359.94" cy="-336.91" r="0"/>
   </g>
   <circle cx="-311.92" cy="-331.32" r="0"/>
   <circle cx="-300.02" cy="-345.82" r="0"/>
   <g transform="translate(19.697 .87184)">
    <circle cx="-330.35" cy="-328.38" r="0"/>
    <circle cx="-299.17" cy="-337.27" r="0"/>
    <circle cx="-299.81" cy="-339.42" r="0"/>
    <circle cx="-302.25" cy="-338.13" r="0"/>
    <circle cx="-301.89" cy="-335.91" r="0"/>
    <circle cx="-304.76" cy="-351.05" r="0"/>
    <circle cx="-304.83" cy="-349.54" r="0"/>
    <circle cx="-359.94" cy="-336.91" r="0"/>
   </g>
   <circle cx="-299.82" cy="-321.23" r="0"/>
  </g>
  <g transform="translate(31.112 -7.886)" stroke-width=".26458">
   <circle cx="-330.35" cy="-328.38" r="0"/>
   <g transform="translate(23.999,2.5837)">
    <circle cx="-330.35" cy="-328.38" r="0"/>
    <circle cx="-299.17" cy="-337.27" r="0"/>
    <circle cx="-299.81" cy="-339.42" r="0"/>
    <circle cx="-302.25" cy="-338.13" r="0"/>
    <circle cx="-301.89" cy="-335.91" r="0"/>
    <circle cx="-304.76" cy="-351.05" r="0"/>
    <circle cx="-304.83" cy="-349.54" r="0"/>
    <circle cx="-359.94" cy="-336.91" r="0"/>
   </g>
   <g transform="translate(24.518,-1.8976)">
    <circle cx="-330.35" cy="-328.38" r="0"/>
    <circle cx="-299.17" cy="-337.27" r="0"/>
    <circle cx="-299.81" cy="-339.42" r="0"/>
    <circle cx="-302.25" cy="-338.13" r="0"/>
    <circle cx="-301.89" cy="-335.91" r="0"/>
    <circle cx="-304.76" cy="-351.05" r="0"/>
    <circle cx="-304.83" cy="-349.54" r="0"/>
    <circle cx="-359.94" cy="-336.91" r="0"/>
   </g>
   <circle cx="-311.92" cy="-331.32" r="0"/>
   <circle cx="-300.02" cy="-345.82" r="0"/>
   <g transform="translate(19.697 .87184)">
    <circle cx="-330.35" cy="-328.38" r="0"/>
    <circle cx="-299.17" cy="-337.27" r="0"/>
    <circle cx="-299.81" cy="-339.42" r="0"/>
    <circle cx="-302.25" cy="-338.13" r="0"/>
    <circle cx="-301.89" cy="-335.91" r="0"/>
    <circle cx="-304.76" cy="-351.05" r="0"/>
    <circle cx="-304.83" cy="-349.54" r="0"/>
    <circle cx="-359.94" cy="-336.91" r="0"/>
   </g>
   <circle cx="-299.82" cy="-321.23" r="0"/>
  </g>
 </g>
 <g transform="matrix(.35718 0 0 .35718 -137.47 -178.41)" stroke-opacity=".55" stroke-width="2.0741">
  <path d="m399.57 525.8 7 7h-7v2h18v-2h-7l7-7h-3l-6 6-6-6z" fill="url(#linearGradient2206)"/>
  <path d="m404.57 510.8v10h-5l9 9 9-9h-5v-10z" fill="url(#linearGradient2198)"/>
 </g>
</svg>
