<?xml version="1.0" encoding="UTF-8" standalone="no"?>
<svg
   xmlns:dc="http://purl.org/dc/elements/1.1/"
   xmlns:cc="http://creativecommons.org/ns#"
   xmlns:rdf="http://www.w3.org/1999/02/22-rdf-syntax-ns#"
   xmlns:svg="http://www.w3.org/2000/svg"
   xmlns="http://www.w3.org/2000/svg"
   xmlns:xlink="http://www.w3.org/1999/xlink"
   xmlns:sodipodi="http://sodipodi.sourceforge.net/DTD/sodipodi-0.dtd"
   xmlns:inkscape="http://www.inkscape.org/namespaces/inkscape"
   inkscape:version="1.0 (4035a4fb49, 2020-05-01)"
   sodipodi:docname="terminix.svg"
   viewBox="0 0 64 64"
   version="1.1"
   image-rendering="optimizeSpeed"
   enable-background="new 0 0 1024 1024"
   height="64"
   width="64"
   id="Iterm">
  <metadata
     id="metadata31">
    <rdf:RDF>
      <cc:Work
         rdf:about="">
        <dc:format>image/svg+xml</dc:format>
        <dc:type
           rdf:resource="http://purl.org/dc/dcmitype/StillImage" />
        <dc:title></dc:title>
      </cc:Work>
    </rdf:RDF>
  </metadata>
  <sodipodi:namedview
     inkscape:current-layer="Iterm"
     inkscape:window-maximized="1"
     inkscape:window-y="0"
     inkscape:window-x="0"
     inkscape:cy="14.860955"
     inkscape:cx="-19.749587"
     inkscape:zoom="4.5078057"
     showgrid="false"
     id="namedview29"
     inkscape:window-height="985"
     inkscape:window-width="1920"
     inkscape:pageshadow="2"
     inkscape:pageopacity="0"
     guidetolerance="10"
     gridtolerance="10"
     objecttolerance="10"
     borderopacity="1"
     bordercolor="#666666"
     pagecolor="#ffffff" />
  <defs
     id="defs7">
    <linearGradient
       gradientUnits="userSpaceOnUse"
       gradientTransform="matrix(2.0044 0 0 2.0044 43.601 272.09)"
       y2="-102.47"
       y1="-139.06"
       x2="-6.1472"
       x1="-6.8469"
       id="a">
      <stop
         id="stop2"
         offset="0"
         stop-color="#6a6a6a" />
      <stop
         id="stop4"
         offset="1"
         stop-color="#505050" />
    </linearGradient>
    <filter
       color-interpolation-filters="sRGB"
       height="1.048"
       width="1.048"
       y="-.024"
       x="-.024"
       id="filter2761">
      <feGaussianBlur
         id="feGaussianBlur2"
         stdDeviation="0.14552168" />
    </filter>
    <filter
       color-interpolation-filters="sRGB"
       height="1.1199"
       width="1.1201"
       y="-.059946"
       x="-.060054"
       id="filter924">
      <feGaussianBlur
         id="feGaussianBlur5"
         stdDeviation="0.2078715" />
    </filter>
    <filter
       inkscape:collect="always"
       style="color-interpolation-filters:sRGB"
       id="filter1052"
       x="-0.048"
       width="1.096"
       y="-0.048"
       height="1.096">
      <feGaussianBlur
         inkscape:collect="always"
         stdDeviation="0.29103594"
         id="feGaussianBlur1054" />
    </filter>
    <linearGradient
       inkscape:collect="always"
       xlink:href="#linearGradient1038"
       id="linearGradient1040"
       x1="37.040939"
       y1="15.874687"
       x2="51.592735"
       y2="1.3228906"
       gradientUnits="userSpaceOnUse"
       gradientTransform="matrix(3.779602,0,0,3.779602,-135.50001,-0.4999992)" />
    <linearGradient
       inkscape:collect="always"
       id="linearGradient1038">
      <stop
         style="stop-color:#323232;stop-opacity:1"
         offset="0"
         id="stop1034" />
      <stop
         style="stop-color:#191919;stop-opacity:1"
         offset="1"
         id="stop1036" />
    </linearGradient>
    <linearGradient
       gradientTransform="matrix(3.779602,0,0,3.779602,70.579766,-0.62446485)"
       id="linearGradient862"
       x1="7.9373"
       x2="7.9373"
       y1="15.081"
       y2="1.852"
       gradientUnits="userSpaceOnUse">
      <stop
         stop-color="#767574"
         offset="0"
         id="stop893" />
      <stop
         stop-color="#d1e7ee"
         offset="1"
         id="stop895" />
    </linearGradient>
    <linearGradient
       id="linearGradient862-6"
       x1="7.9373"
       x2="7.9373"
       y1="15.081"
       y2="1.852"
       gradientTransform="scale(3.7796)"
       gradientUnits="userSpaceOnUse">
      <stop
         stop-color="#767574"
         offset="0"
         id="stop960" />
      <stop
         stop-color="#d1e7ee"
         offset="1"
         id="stop962" />
    </linearGradient>
  </defs>
  <mask
     id="mask12">
    <g
       id="g">
      <path
         id="path9"
         fill="#fff"
         d="m969.75 392.05c-1.1-4.35-2.35-9-3.65-13.6-1-3.4-2-6.85-3.15-10.5-1.6-5.15-3.4-10.5-5.3-15.85-6.45-18.25-14.15-36.05-23.15-53.65-3.8-7.4-7.95-14.95-12.3-22.4-20.3-34.5-45.8-67.2-76.35-97.75-72.6-72.6-157.15-116.65-253.65-132.05-16.25-2.6-32.8-4.4-50.05-5.35-9.7-0.55-19.85-0.85-30.1-0.85-9.35 0-18.6 0.25-27.9 0.75-118.35 6.1-220.3 51.95-305.85 137.5q-138.25 138.25-138.25 333.75c0 130.35 46.1 241.65 138.25 333.8 56.7 56.65 120.55 95.9 191.1 117.55 36.75 11.25 74.8 17.85 114.75 19.95h0.4c8.5 0.45 16.6 0.7 24.5 0.7h3c10.3 0 20.5-0.3 30.1-0.8 2.5-0.15 4.75-0.3 6.95-0.45 20.2-1.45 39.9-4.05 58.7-7.7 7.95-1.55 15.8-3.3 23.4-5.15 80.8-20.3 152.15-61.6 214.65-124.1 48.6-48.6 84.4-102.5 107.35-161.8 18.45-47.65 28.65-98.8 30.55-153.5 0.2-6.05 0.3-12.25 0.3-18.5v-3c-0.2-40.65-4.95-79.5-14.3-117z" />
    </g>
  </mask>
  <rect
     transform="scale(3.779602)"
     style="opacity:0.3;fill:#000000;fill-opacity:1;stroke-width:0.529156;stroke-linecap:round;filter:url(#filter1052)"
     id="rect1042"
     width="14.551797"
     height="14.551797"
     x="1.1906017"
     y="1.1906018"
     ry="3.4395156" />
  <rect
     ry="13"
     y="4.500001"
     x="4.5000005"
     height="55"
     width="55"
     id="rect1032"
     style="fill:url(#linearGradient1040);fill-opacity:1;stroke-width:2;stroke-linecap:round" />
  <g
     transform="translate(-73.021689)"
     id="g956">
    <g
       transform="matrix(1.0566255,0,0,1.6653682,78.405432,15.544295)"
       fill="#ffffff"
       aria-label="&gt;"
       id="g949">
      <path
         d="m 6.7896,-0.0010337 v -1.2919 l 6.6248,2.3926 v 1.2195 l -6.6248,2.3926 v -1.2919 l 4.9867,-1.7053 z"
         fill="#ffffff"
         stroke-width="0.26458"
         id="path947" />
    </g>
    <rect
       style="stroke-width:3.7796"
       x="95.579941"
       y="24.375713"
       width="7.9999056"
       height="2.0000143"
       rx="0"
       ry="0"
       fill="#ffffff"
       id="rect951" />
  </g>
  <g
     id="g1028"
     transform="translate(-51.042733)">
    <g
       id="g1024"
       aria-label="&gt;"
       fill="#ffffff"
       transform="matrix(1.0566255,0,0,1.6653682,78.405432,15.544295)">
      <path
         id="path1022"
         stroke-width="0.26458"
         fill="#ffffff"
         d="m 6.7896,-0.0010337 v -1.2919 l 6.6248,2.3926 v 1.2195 l -6.6248,2.3926 v -1.2919 l 4.9867,-1.7053 z" />
    </g>
    <rect
       id="rect1026"
       fill="#ffffff"
       ry="0"
       rx="0"
       height="2.0000143"
       width="7.9999056"
       y="24.375713"
       x="95.579941"
       style="stroke-width:3.7796" />
  </g>
</svg>
