<?xml version="1.0" encoding="UTF-8" standalone="no"?>
<svg
   xmlns:dc="http://purl.org/dc/elements/1.1/"
   xmlns:cc="http://creativecommons.org/ns#"
   xmlns:rdf="http://www.w3.org/1999/02/22-rdf-syntax-ns#"
   xmlns:svg="http://www.w3.org/2000/svg"
   xmlns="http://www.w3.org/2000/svg"
   xmlns:xlink="http://www.w3.org/1999/xlink"
   xmlns:sodipodi="http://sodipodi.sourceforge.net/DTD/sodipodi-0.dtd"
   xmlns:inkscape="http://www.inkscape.org/namespaces/inkscape"
   id="Iterm"
   width="64"
   height="64"
   enable-background="new 0 0 1024 1024"
   image-rendering="optimizeSpeed"
   version="1.1"
   viewBox="0 0 64 64"
   sodipodi:docname="terminix.svg"
   inkscape:version="1.0 (4035a4fb49, 2020-05-01)">
  <metadata
     id="metadata31">
    <rdf:RDF>
      <cc:Work
         rdf:about="">
        <dc:format>image/svg+xml</dc:format>
        <dc:type
           rdf:resource="http://purl.org/dc/dcmitype/StillImage" />
        <dc:title></dc:title>
      </cc:Work>
    </rdf:RDF>
  </metadata>
  <sodipodi:namedview
     inkscape:document-rotation="0"
     pagecolor="#ffffff"
     bordercolor="#666666"
     borderopacity="1"
     objecttolerance="10"
     gridtolerance="10"
     guidetolerance="10"
     inkscape:pageopacity="0"
     inkscape:pageshadow="2"
     inkscape:window-width="1920"
     inkscape:window-height="985"
     id="namedview29"
     showgrid="false"
     inkscape:zoom="6.375"
     inkscape:cx="2.7983997"
     inkscape:cy="18.760066"
     inkscape:window-x="0"
     inkscape:window-y="0"
     inkscape:window-maximized="1"
     inkscape:current-layer="Iterm" />
  <defs
     id="defs7">
    <linearGradient
       id="a"
       x1="-6.8469"
       x2="-6.1472"
       y1="-139.06"
       y2="-102.47"
       gradientTransform="matrix(2.0044 0 0 2.0044 43.601 272.09)"
       gradientUnits="userSpaceOnUse">
      <stop
         stop-color="#6a6a6a"
         offset="0"
         id="stop2" />
      <stop
         stop-color="#505050"
         offset="1"
         id="stop4" />
    </linearGradient>
    <filter
       id="filter2761"
       x="-.024"
       y="-.024"
       width="1.048"
       height="1.048"
       color-interpolation-filters="sRGB">
      <feGaussianBlur
         stdDeviation="0.14552168"
         id="feGaussianBlur2" />
    </filter>
    <filter
       id="filter924"
       x="-.060054"
       y="-.059946"
       width="1.1201"
       height="1.1199"
       color-interpolation-filters="sRGB">
      <feGaussianBlur
         stdDeviation="0.2078715"
         id="feGaussianBlur5" />
    </filter>
    <linearGradient
       gradientUnits="userSpaceOnUse"
       y2="1.852"
       y1="15.081"
       x2="7.9373"
       x1="7.9373"
       id="linearGradient862"
       gradientTransform="matrix(3.779602,0,0,3.779602,70.579766,-0.62446485)">
      <stop
         id="stop893"
         offset="0"
         stop-color="#767574" />
      <stop
         id="stop895"
         offset="1"
         stop-color="#d1e7ee" />
    </linearGradient>
    <linearGradient
       gradientUnits="userSpaceOnUse"
       gradientTransform="scale(3.7796)"
       y2="1.852"
       y1="15.081"
       x2="7.9373"
       x1="7.9373"
       id="linearGradient862-6">
      <stop
         id="stop960"
         offset="0"
         stop-color="#767574" />
      <stop
         id="stop962"
         offset="1"
         stop-color="#d1e7ee" />
    </linearGradient>
    <filter
       id="filter2761-367"
       x="-.024"
       y="-.024"
       width="1.048"
       height="1.048"
       color-interpolation-filters="sRGB">
      <feGaussianBlur
         stdDeviation="0.14552168"
         id="feGaussianBlur2-5" />
    </filter>
    <filter
       id="filter924-3"
       x="-.060054"
       y="-.059946"
       width="1.1201"
       height="1.1199"
       color-interpolation-filters="sRGB">
      <feGaussianBlur
         stdDeviation="0.2078715"
         id="feGaussianBlur5-5" />
    </filter>
    <filter
       color-interpolation-filters="sRGB"
       height="1.048"
       width="1.048"
       y="-.024"
       x="-.024"
       id="filter2761-36">
      <feGaussianBlur
         id="feGaussianBlur2-7"
         stdDeviation="0.14552168" />
    </filter>
    <linearGradient
       gradientUnits="userSpaceOnUse"
       gradientTransform="translate(58.81987,-4.9486)"
       y2="16.321"
       y1="16.321"
       x2="-16.238"
       x1="-22.655"
       id="linearGradient1174">
      <stop
         id="stop5"
         offset="0"
         stop-color="#0a82f0" />
      <stop
         id="stop7"
         offset="1"
         stop-color="#3250e6" />
    </linearGradient>
    <filter
       inkscape:collect="always"
       style="color-interpolation-filters:sRGB"
       id="filter1052-5"
       x="-0.048"
       width="1.096"
       y="-0.048"
       height="1.096">
      <feGaussianBlur
         inkscape:collect="always"
         stdDeviation="0.29103594"
         id="feGaussianBlur1054-3" />
    </filter>
    <linearGradient
       inkscape:collect="always"
       xlink:href="#linearGradient1038-6"
       id="linearGradient1040-5"
       x1="37.040939"
       y1="15.874687"
       x2="51.592735"
       y2="1.3228906"
       gradientUnits="userSpaceOnUse"
       gradientTransform="matrix(3.779602,0,0,3.779602,-135.50001,-0.49999866)" />
    <linearGradient
       inkscape:collect="always"
       id="linearGradient1038-6">
      <stop
         style="stop-color:#2d2d2d;stop-opacity:1"
         offset="0"
         id="stop1034-2" />
      <stop
         style="stop-color:#191919;stop-opacity:1"
         offset="1"
         id="stop1036-9" />
    </linearGradient>
    <filter
       id="filter2761-3"
       x="-.024"
       y="-.024"
       width="1.048"
       height="1.048"
       color-interpolation-filters="sRGB">
      <feGaussianBlur
         stdDeviation="0.14552168"
         id="feGaussianBlur895" />
    </filter>
    <linearGradient
       id="linearGradient1195"
       x1="-9.2997"
       x2="-.93244"
       y1="32.176"
       y2="32.176"
       gradientTransform="translate(1.8475,-2.1749)"
       gradientUnits="userSpaceOnUse">
      <stop
         stop-color="#1478e6"
         offset="0"
         id="stop898" />
      <stop
         stop-color="#3c50e6"
         offset="1"
         id="stop900" />
    </linearGradient>
  </defs>
  <mask
     id="mask12">
    <g
       id="g">
      <path
         d="m969.75 392.05c-1.1-4.35-2.35-9-3.65-13.6-1-3.4-2-6.85-3.15-10.5-1.6-5.15-3.4-10.5-5.3-15.85-6.45-18.25-14.15-36.05-23.15-53.65-3.8-7.4-7.95-14.95-12.3-22.4-20.3-34.5-45.8-67.2-76.35-97.75-72.6-72.6-157.15-116.65-253.65-132.05-16.25-2.6-32.8-4.4-50.05-5.35-9.7-0.55-19.85-0.85-30.1-0.85-9.35 0-18.6 0.25-27.9 0.75-118.35 6.1-220.3 51.95-305.85 137.5q-138.25 138.25-138.25 333.75c0 130.35 46.1 241.65 138.25 333.8 56.7 56.65 120.55 95.9 191.1 117.55 36.75 11.25 74.8 17.85 114.75 19.95h0.4c8.5 0.45 16.6 0.7 24.5 0.7h3c10.3 0 20.5-0.3 30.1-0.8 2.5-0.15 4.75-0.3 6.95-0.45 20.2-1.45 39.9-4.05 58.7-7.7 7.95-1.55 15.8-3.3 23.4-5.15 80.8-20.3 152.15-61.6 214.65-124.1 48.6-48.6 84.4-102.5 107.35-161.8 18.45-47.65 28.65-98.8 30.55-153.5 0.2-6.05 0.3-12.25 0.3-18.5v-3c-0.2-40.65-4.95-79.5-14.3-117z"
         fill="#fff"
         id="path9" />
    </g>
  </mask>
  <rect
     transform="scale(3.779602)"
     style="opacity:0.3;fill:#000000;fill-opacity:1;stroke-width:0.529156;stroke-linecap:round;filter:url(#filter1052-5)"
     id="rect1042-1"
     width="14.551797"
     height="14.551797"
     x="1.1906018"
     y="1.1906016"
     ry="3.4395156" />
  <rect
     ry="13"
     y="4.5000014"
     x="4.5"
     height="55"
     width="55"
     id="rect1032-2"
     style="fill:url(#linearGradient1040-5);fill-opacity:1;stroke-width:2;stroke-linecap:round" />
  <g
     id="g956"
     transform="translate(-73.021689)">
    <g
       id="g949"
       aria-label="&gt;"
       fill="#ffffff"
       transform="matrix(1.0566255,0,0,1.6653682,78.405432,15.544295)">
      <path
         id="path947"
         stroke-width="0.26458"
         fill="#ffffff"
         d="m 6.7896,-0.0010337 v -1.2919 l 6.6248,2.3926 v 1.2195 l -6.6248,2.3926 v -1.2919 l 4.9867,-1.7053 z" />
    </g>
    <rect
       id="rect951"
       fill="#ffffff"
       ry="0"
       rx="0"
       height="2.0000143"
       width="7.9999056"
       y="24.375713"
       x="95.579941"
       style="stroke-width:3.7796" />
  </g>
  <g
     transform="translate(-51.042733)"
     id="g1028">
    <g
       transform="matrix(1.0566255,0,0,1.6653682,78.405432,15.544295)"
       fill="#ffffff"
       aria-label="&gt;"
       id="g1024">
      <path
         d="m 6.7896,-0.0010337 v -1.2919 l 6.6248,2.3926 v 1.2195 l -6.6248,2.3926 v -1.2919 l 4.9867,-1.7053 z"
         fill="#ffffff"
         stroke-width="0.26458"
         id="path1022" />
    </g>
    <rect
       style="stroke-width:3.7796"
       x="95.579941"
       y="24.375713"
       width="7.9999056"
       height="2.0000143"
       rx="0"
       ry="0"
       fill="#ffffff"
       id="rect1026" />
  </g>
</svg>
