<?xml version="1.0" encoding="UTF-8" standalone="no"?>
<svg
   xmlns:dc="http://purl.org/dc/elements/1.1/"
   xmlns:cc="http://creativecommons.org/ns#"
   xmlns:rdf="http://www.w3.org/1999/02/22-rdf-syntax-ns#"
   xmlns:svg="http://www.w3.org/2000/svg"
   xmlns="http://www.w3.org/2000/svg"
   xmlns:xlink="http://www.w3.org/1999/xlink"
   xmlns:sodipodi="http://sodipodi.sourceforge.net/DTD/sodipodi-0.dtd"
   xmlns:inkscape="http://www.inkscape.org/namespaces/inkscape"
   inkscape:version="1.0 (4035a4fb49, 2020-05-01)"
   sodipodi:docname="users.svg"
   id="svg25"
   viewBox="0 0 16.933 16.933"
   version="1.1"
   height="64"
   width="64">
  <metadata
     id="metadata29">
    <rdf:RDF>
      <cc:Work
         rdf:about="">
        <dc:format>image/svg+xml</dc:format>
        <dc:type
           rdf:resource="http://purl.org/dc/dcmitype/StillImage" />
        <dc:title></dc:title>
      </cc:Work>
    </rdf:RDF>
  </metadata>
  <sodipodi:namedview
     inkscape:current-layer="svg25"
     inkscape:window-maximized="1"
     inkscape:window-y="0"
     inkscape:window-x="0"
     inkscape:cy="59.458097"
     inkscape:cx="-17.488884"
     inkscape:zoom="3.1875"
     showgrid="false"
     id="namedview27"
     inkscape:window-height="985"
     inkscape:window-width="1920"
     inkscape:pageshadow="2"
     inkscape:pageopacity="0"
     guidetolerance="10"
     gridtolerance="10"
     objecttolerance="10"
     borderopacity="1"
     bordercolor="#666666"
     pagecolor="#ffffff" />
  <defs
     id="defs7">
    <linearGradient
       gradientUnits="userSpaceOnUse"
       gradientTransform="matrix(0.53033,0,0,0.53033,-17.900084,71.99)"
       y2="-100.78"
       y1="-137.82"
       x2="-6.1472"
       x1="-6.1472"
       id="a">
      <stop
         id="stop2"
         offset="0"
         stop-color="#32b4ff" />
      <stop
         id="stop4"
         offset="1"
         stop-color="#3287ff" />
    </linearGradient>
    <filter
       inkscape:collect="always"
       style="color-interpolation-filters:sRGB"
       id="filter1052"
       x="-0.048"
       width="1.096"
       y="-0.048"
       height="1.096">
      <feGaussianBlur
         inkscape:collect="always"
         stdDeviation="0.29103594"
         id="feGaussianBlur1054" />
    </filter>
    <linearGradient
       inkscape:collect="always"
       xlink:href="#linearGradient1038"
       id="linearGradient1040"
       x1="37.040939"
       y1="15.874687"
       x2="51.592735"
       y2="1.3228906"
       gradientUnits="userSpaceOnUse"
       gradientTransform="translate(-35.850338,-0.1322887)" />
    <linearGradient
       inkscape:collect="always"
       id="linearGradient1038">
      <stop
         style="stop-color:#2e54e7;stop-opacity:1"
         offset="0"
         id="stop1034" />
      <stop
         style="stop-color:#0d7eef;stop-opacity:1"
         offset="1"
         id="stop1036" />
    </linearGradient>
    <style
       type="text/css"
       id="style880" />
    <filter
       id="filter911"
       x="-.057615"
       y="-.062591"
       width="1.1152"
       height="1.1252"
       color-interpolation-filters="sRGB">
      <feGaussianBlur
         stdDeviation="0.25750987"
         id="feGaussianBlur882" />
    </filter>
    <filter
       id="filter2761-3"
       x="-.024"
       y="-.024"
       width="1.048"
       height="1.048"
       color-interpolation-filters="sRGB">
      <feGaussianBlur
         stdDeviation="0.14552168"
         id="feGaussianBlur885" />
    </filter>
    <linearGradient
       id="linearGradient2645-3-6"
       x1="15.752"
       x2="1.3927"
       y1="281.24"
       y2="295.6"
       gradientTransform="translate(-0.087013,-279.72)"
       gradientUnits="userSpaceOnUse">
      <stop
         stop-color="#0a82f0"
         offset="0"
         id="stop888" />
      <stop
         stop-color="#3250e6"
         offset="1"
         id="stop890" />
    </linearGradient>
    <filter
       id="filter2761"
       x="-.024"
       y="-.024"
       width="1.048"
       height="1.048"
       color-interpolation-filters="sRGB">
      <feGaussianBlur
         stdDeviation="0.14552168"
         id="feGaussianBlur924" />
    </filter>
    <filter
       id="filter871-3"
       x="-.07393"
       y="-.050487"
       width="1.1479"
       height="1.101"
       color-interpolation-filters="sRGB">
      <feGaussianBlur
         stdDeviation="0.12698534"
         id="feGaussianBlur927" />
    </filter>
    <filter
       id="filter2761-36"
       x="-.024"
       y="-.024"
       width="1.048"
       height="1.048"
       color-interpolation-filters="sRGB">
      <feGaussianBlur
         stdDeviation="0.14552168"
         id="feGaussianBlur1540" />
    </filter>
    <filter
       id="filter847"
       x="-.036"
       y="-.036"
       width="1.072"
       height="1.072"
       color-interpolation-filters="sRGB">
      <feGaussianBlur
         stdDeviation="0.16525134"
         id="feGaussianBlur1543" />
    </filter>
    <filter
       id="filter871"
       x="-.07393"
       y="-.050487"
       width="1.1479"
       height="1.101"
       color-interpolation-filters="sRGB">
      <feGaussianBlur
         stdDeviation="0.12698534"
         id="feGaussianBlur1546" />
    </filter>
    <filter
       id="filter956"
       x="-.061735"
       y="-.05836"
       width="1.1235"
       height="1.1167"
       color-interpolation-filters="sRGB">
      <feGaussianBlur
         stdDeviation="0.23674121"
         id="feGaussianBlur1549" />
    </filter>
    <style
       type="text/css"
       id="style1552" />
    <linearGradient
       id="linearGradient2645-3-6-7"
       x1="15.752"
       x2="1.3927"
       y1="281.24"
       y2="295.6"
       gradientTransform="translate(23.108323,-279.92955)"
       gradientUnits="userSpaceOnUse">
      <stop
         stop-color="#0a82f0"
         offset="0"
         id="stop1554" />
      <stop
         stop-color="#3250e6"
         offset="1"
         id="stop1556" />
    </linearGradient>
  </defs>
  <circle
     id="circle9"
     stroke-width=".26458"
     fill="#5e4aa6"
     r="0"
     cy="-328.38"
     cx="-330.35" />
  <circle
     id="circle23"
     stroke-width=".26458"
     fill-rule="evenodd"
     fill="#5e4aa6"
     r="0"
     cy="6.44"
     cx="-39.434" />
  <rect
     ry="3.4395156"
     y="1.1906018"
     x="1.1906017"
     height="14.551797"
     width="14.551797"
     id="rect1042"
     style="opacity:0.3;fill:#000000;fill-opacity:1;stroke-width:0.529156;stroke-linecap:round;filter:url(#filter1052)" />
  <rect
     style="fill:url(#linearGradient1040);fill-opacity:1;stroke-width:0.529156;stroke-linecap:round"
     id="rect1032"
     width="14.551797"
     height="14.551797"
     x="1.1906017"
     y="1.1906018"
     ry="3.4395156" />
  <g
     transform="translate(19.872851,0.14045016)"
     id="g1216"
     stroke-width="0.26458"
     fill="#5e4aa6">
    <circle
       id="circle938"
       r="0"
       cy="-331.45999"
       cx="-305.76999" />
    <circle
       id="circle940"
       r="0"
       cy="-329.38"
       cx="-301.95999" />
    <circle
       id="circle942"
       r="0"
       cy="-325.72"
       cx="-298.88" />
    <circle
       id="circle944"
       r="0"
       cy="-331.53"
       cx="-301.82001" />
    <g
       id="g962"
       transform="translate(55.39,6.5931)">
      <circle
         id="circle946"
         r="0"
         cy="-328.38"
         cx="-330.35001" />
      <circle
         id="circle948"
         r="0"
         cy="-337.26999"
         cx="-299.17001" />
      <circle
         id="circle950"
         r="0"
         cy="-339.42001"
         cx="-299.81" />
      <circle
         id="circle952"
         r="0"
         cy="-338.13"
         cx="-302.25" />
      <circle
         id="circle954"
         r="0"
         cy="-335.91"
         cx="-301.89001" />
      <circle
         id="circle956"
         r="0"
         cy="-351.04999"
         cx="-304.76001" />
      <circle
         id="circle958"
         r="0"
         cy="-349.54001"
         cx="-304.82999" />
      <circle
         id="circle960"
         r="0"
         cy="-336.91"
         cx="-359.94" />
    </g>
    <g
       id="g1002"
       transform="translate(30.323,-4.155)">
      <circle
         id="circle964"
         r="0"
         cy="-328.38"
         cx="-330.35001" />
      <g
         id="g982"
         transform="translate(23.999,2.5837)">
        <circle
           id="circle966"
           r="0"
           cy="-328.38"
           cx="-330.35001" />
        <circle
           id="circle968"
           r="0"
           cy="-337.26999"
           cx="-299.17001" />
        <circle
           id="circle970"
           r="0"
           cy="-339.42001"
           cx="-299.81" />
        <circle
           id="circle972"
           r="0"
           cy="-338.13"
           cx="-302.25" />
        <circle
           id="circle974"
           r="0"
           cy="-335.91"
           cx="-301.89001" />
        <circle
           id="circle976"
           r="0"
           cy="-351.04999"
           cx="-304.76001" />
        <circle
           id="circle978"
           r="0"
           cy="-349.54001"
           cx="-304.82999" />
        <circle
           id="circle980"
           r="0"
           cy="-336.91"
           cx="-359.94" />
      </g>
      <g
         id="g1000"
         transform="translate(24.518,-1.8976)">
        <circle
           id="circle984"
           r="0"
           cy="-328.38"
           cx="-330.35001" />
        <circle
           id="circle986"
           r="0"
           cy="-337.26999"
           cx="-299.17001" />
        <circle
           id="circle988"
           r="0"
           cy="-339.42001"
           cx="-299.81" />
        <circle
           id="circle990"
           r="0"
           cy="-338.13"
           cx="-302.25" />
        <circle
           id="circle992"
           r="0"
           cy="-335.91"
           cx="-301.89001" />
        <circle
           id="circle994"
           r="0"
           cy="-351.04999"
           cx="-304.76001" />
        <circle
           id="circle996"
           r="0"
           cy="-349.54001"
           cx="-304.82999" />
        <circle
           id="circle998"
           r="0"
           cy="-336.91"
           cx="-359.94" />
      </g>
    </g>
    <g
       id="g1044"
       transform="translate(28.745,-10.326)">
      <circle
         id="circle1004"
         r="0"
         cy="-328.38"
         cx="-330.35001" />
      <g
         id="g1022"
         transform="translate(23.999,2.5837)">
        <circle
           id="circle1006"
           r="0"
           cy="-328.38"
           cx="-330.35001" />
        <circle
           id="circle1008"
           r="0"
           cy="-337.26999"
           cx="-299.17001" />
        <circle
           id="circle1010"
           r="0"
           cy="-339.42001"
           cx="-299.81" />
        <circle
           id="circle1012"
           r="0"
           cy="-338.13"
           cx="-302.25" />
        <circle
           id="circle1014"
           r="0"
           cy="-335.91"
           cx="-301.89001" />
        <circle
           id="circle1016"
           r="0"
           cy="-351.04999"
           cx="-304.76001" />
        <circle
           id="circle1018"
           r="0"
           cy="-349.54001"
           cx="-304.82999" />
        <circle
           id="circle1020"
           r="0"
           cy="-336.91"
           cx="-359.94" />
      </g>
      <g
         id="g1040"
         transform="translate(24.518,-1.8976)">
        <circle
           id="circle1024"
           r="0"
           cy="-328.38"
           cx="-330.35001" />
        <circle
           id="circle1026"
           r="0"
           cy="-337.26999"
           cx="-299.17001" />
        <circle
           id="circle1028"
           r="0"
           cy="-339.42001"
           cx="-299.81" />
        <circle
           id="circle1030"
           r="0"
           cy="-338.13"
           cx="-302.25" />
        <circle
           id="circle1032"
           r="0"
           cy="-335.91"
           cx="-301.89001" />
        <circle
           id="circle1034"
           r="0"
           cy="-351.04999"
           cx="-304.76001" />
        <circle
           id="circle1036"
           r="0"
           cy="-349.54001"
           cx="-304.82999" />
        <circle
           id="circle1038"
           r="0"
           cy="-336.91"
           cx="-359.94" />
      </g>
      <circle
         id="circle1042"
         r="0"
         cy="-331.32001"
         cx="-311.92001" />
    </g>
    <g
       id="g1086"
       transform="translate(27.094,-3.4375)">
      <circle
         id="circle1046"
         r="0"
         cy="-328.38"
         cx="-330.35001" />
      <g
         id="g1064"
         transform="translate(23.999,2.5837)">
        <circle
           id="circle1048"
           r="0"
           cy="-328.38"
           cx="-330.35001" />
        <circle
           id="circle1050"
           r="0"
           cy="-337.26999"
           cx="-299.17001" />
        <circle
           id="circle1052"
           r="0"
           cy="-339.42001"
           cx="-299.81" />
        <circle
           id="circle1054"
           r="0"
           cy="-338.13"
           cx="-302.25" />
        <circle
           id="circle1056"
           r="0"
           cy="-335.91"
           cx="-301.89001" />
        <circle
           id="circle1058"
           r="0"
           cy="-351.04999"
           cx="-304.76001" />
        <circle
           id="circle1060"
           r="0"
           cy="-349.54001"
           cx="-304.82999" />
        <circle
           id="circle1062"
           r="0"
           cy="-336.91"
           cx="-359.94" />
      </g>
      <g
         id="g1082"
         transform="translate(24.518,-1.8976)">
        <circle
           id="circle1066"
           r="0"
           cy="-328.38"
           cx="-330.35001" />
        <circle
           id="circle1068"
           r="0"
           cy="-337.26999"
           cx="-299.17001" />
        <circle
           id="circle1070"
           r="0"
           cy="-339.42001"
           cx="-299.81" />
        <circle
           id="circle1072"
           r="0"
           cy="-338.13"
           cx="-302.25" />
        <circle
           id="circle1074"
           r="0"
           cy="-335.91"
           cx="-301.89001" />
        <circle
           id="circle1076"
           r="0"
           cy="-351.04999"
           cx="-304.76001" />
        <circle
           id="circle1078"
           r="0"
           cy="-349.54001"
           cx="-304.82999" />
        <circle
           id="circle1080"
           r="0"
           cy="-336.91"
           cx="-359.94" />
      </g>
      <circle
         id="circle1084"
         r="0"
         cy="-331.32001"
         cx="-311.92001" />
    </g>
    <g
       id="g1150"
       transform="translate(29.247,-7.4555)">
      <circle
         id="circle1088"
         r="0"
         cy="-328.38"
         cx="-330.35001" />
      <g
         id="g1106"
         transform="translate(23.999,2.5837)">
        <circle
           id="circle1090"
           r="0"
           cy="-328.38"
           cx="-330.35001" />
        <circle
           id="circle1092"
           r="0"
           cy="-337.26999"
           cx="-299.17001" />
        <circle
           id="circle1094"
           r="0"
           cy="-339.42001"
           cx="-299.81" />
        <circle
           id="circle1096"
           r="0"
           cy="-338.13"
           cx="-302.25" />
        <circle
           id="circle1098"
           r="0"
           cy="-335.91"
           cx="-301.89001" />
        <circle
           id="circle1100"
           r="0"
           cy="-351.04999"
           cx="-304.76001" />
        <circle
           id="circle1102"
           r="0"
           cy="-349.54001"
           cx="-304.82999" />
        <circle
           id="circle1104"
           r="0"
           cy="-336.91"
           cx="-359.94" />
      </g>
      <g
         id="g1124"
         transform="translate(24.518,-1.8976)">
        <circle
           id="circle1108"
           r="0"
           cy="-328.38"
           cx="-330.35001" />
        <circle
           id="circle1110"
           r="0"
           cy="-337.26999"
           cx="-299.17001" />
        <circle
           id="circle1112"
           r="0"
           cy="-339.42001"
           cx="-299.81" />
        <circle
           id="circle1114"
           r="0"
           cy="-338.13"
           cx="-302.25" />
        <circle
           id="circle1116"
           r="0"
           cy="-335.91"
           cx="-301.89001" />
        <circle
           id="circle1118"
           r="0"
           cy="-351.04999"
           cx="-304.76001" />
        <circle
           id="circle1120"
           r="0"
           cy="-349.54001"
           cx="-304.82999" />
        <circle
           id="circle1122"
           r="0"
           cy="-336.91"
           cx="-359.94" />
      </g>
      <circle
         id="circle1126"
         r="0"
         cy="-331.32001"
         cx="-311.92001" />
      <circle
         id="circle1128"
         r="0"
         cy="-345.82001"
         cx="-300.01999" />
      <g
         id="g1146"
         transform="translate(19.697,0.87184)">
        <circle
           id="circle1130"
           r="0"
           cy="-328.38"
           cx="-330.35001" />
        <circle
           id="circle1132"
           r="0"
           cy="-337.26999"
           cx="-299.17001" />
        <circle
           id="circle1134"
           r="0"
           cy="-339.42001"
           cx="-299.81" />
        <circle
           id="circle1136"
           r="0"
           cy="-338.13"
           cx="-302.25" />
        <circle
           id="circle1138"
           r="0"
           cy="-335.91"
           cx="-301.89001" />
        <circle
           id="circle1140"
           r="0"
           cy="-351.04999"
           cx="-304.76001" />
        <circle
           id="circle1142"
           r="0"
           cy="-349.54001"
           cx="-304.82999" />
        <circle
           id="circle1144"
           r="0"
           cy="-336.91"
           cx="-359.94" />
      </g>
      <circle
         id="circle1148"
         r="0"
         cy="-321.23001"
         cx="-299.82001" />
    </g>
    <g
       id="g1214"
       transform="translate(22.502,-7.025)">
      <circle
         id="circle1152"
         r="0"
         cy="-328.38"
         cx="-330.35001" />
      <g
         id="g1170"
         transform="translate(23.999,2.5837)">
        <circle
           id="circle1154"
           r="0"
           cy="-328.38"
           cx="-330.35001" />
        <circle
           id="circle1156"
           r="0"
           cy="-337.26999"
           cx="-299.17001" />
        <circle
           id="circle1158"
           r="0"
           cy="-339.42001"
           cx="-299.81" />
        <circle
           id="circle1160"
           r="0"
           cy="-338.13"
           cx="-302.25" />
        <circle
           id="circle1162"
           r="0"
           cy="-335.91"
           cx="-301.89001" />
        <circle
           id="circle1164"
           r="0"
           cy="-351.04999"
           cx="-304.76001" />
        <circle
           id="circle1166"
           r="0"
           cy="-349.54001"
           cx="-304.82999" />
        <circle
           id="circle1168"
           r="0"
           cy="-336.91"
           cx="-359.94" />
      </g>
      <g
         id="g1188"
         transform="translate(24.518,-1.8976)">
        <circle
           id="circle1172"
           r="0"
           cy="-328.38"
           cx="-330.35001" />
        <circle
           id="circle1174"
           r="0"
           cy="-337.26999"
           cx="-299.17001" />
        <circle
           id="circle1176"
           r="0"
           cy="-339.42001"
           cx="-299.81" />
        <circle
           id="circle1178"
           r="0"
           cy="-338.13"
           cx="-302.25" />
        <circle
           id="circle1180"
           r="0"
           cy="-335.91"
           cx="-301.89001" />
        <circle
           id="circle1182"
           r="0"
           cy="-351.04999"
           cx="-304.76001" />
        <circle
           id="circle1184"
           r="0"
           cy="-349.54001"
           cx="-304.82999" />
        <circle
           id="circle1186"
           r="0"
           cy="-336.91"
           cx="-359.94" />
      </g>
      <circle
         id="circle1190"
         r="0"
         cy="-331.32001"
         cx="-311.92001" />
      <circle
         id="circle1192"
         r="0"
         cy="-345.82001"
         cx="-300.01999" />
      <g
         id="g1210"
         transform="translate(19.697,0.87184)">
        <circle
           id="circle1194"
           r="0"
           cy="-328.38"
           cx="-330.35001" />
        <circle
           id="circle1196"
           r="0"
           cy="-337.26999"
           cx="-299.17001" />
        <circle
           id="circle1198"
           r="0"
           cy="-339.42001"
           cx="-299.81" />
        <circle
           id="circle1200"
           r="0"
           cy="-338.13"
           cx="-302.25" />
        <circle
           id="circle1202"
           r="0"
           cy="-335.91"
           cx="-301.89001" />
        <circle
           id="circle1204"
           r="0"
           cy="-351.04999"
           cx="-304.76001" />
        <circle
           id="circle1206"
           r="0"
           cy="-349.54001"
           cx="-304.82999" />
        <circle
           id="circle1208"
           r="0"
           cy="-336.91"
           cx="-359.94" />
      </g>
      <circle
         id="circle1212"
         r="0"
         cy="-321.23001"
         cx="-299.82001" />
    </g>
  </g>
  <g
     transform="translate(-0.43894011)"
     id="g1725">
    <g
       transform="matrix(0.59509792,0,0,0.59509792,55.832484,4.6897749)"
       id="g1679">
      <path
         d="m -76.691,7.6728 c 0,0 0.918,1.1876 0.12426,1.5875 -0.79374,0.39984 -2.8512,1.1717 -2.9331,1.3704 -0.0819,0.1987 -0.83052,1.7188 0.1049,1.7539 0.93346,0.03501 4.1191,0.04646 4.1325,0.04651 h 0.0072 c 0.01344,-5e-5 3.1985,-0.0115 4.132,-0.04651 0.93542,-0.03508 0.18727,-1.5551 0.10542,-1.7539 -0.08185,-0.1988 -2.1399,-0.9706 -2.9336,-1.3704 -0.79374,-0.39984 0.1418,-1.5875 0.1418,-1.5875 h -1.4647 z"
         fill="#fafafa"
         id="path1667" />
      <path
         d="m -73.274,5.839 c -0.26458,1.8862 -0.88842,2.8929 -1.9843,2.8929 -1.0959,1e-7 -1.7198,-1.0067 -1.9843,-2.8929 -0.2414,-1.7209 0,-3.1436 1.9843,-3.1436 1.9843,0 2.2257,1.4227 1.9843,3.1436 z"
         fill="#f0f0f0"
         id="path1669" />
      <path
         d="m -73.234,5.4073 c 0,0 0.6201,-0.024804 0.45474,0.5953 -0.16536,0.6201 -0.47955,1.2816 -0.82681,1.356 -0.34726,0.074413 0.27285,-1.9265 0.37206,-1.9513 z"
         fill="#fafafa"
         id="path1671" />
      <path
         d="m -77.298,5.3489 c 0,0 -0.6201,-0.024804 -0.45474,0.5953 0.16536,0.6201 0.47955,1.2816 0.82681,1.356 0.34726,0.074413 -0.27285,-1.9265 -0.37206,-1.9513 z"
         fill="#fafafa"
         id="path1673" />
      <path
         transform="matrix(0.93263,0,0,1.0034,-5.07,0.31107)"
         d="m -73.274,5.839 c -0.26458,1.8862 -0.88842,2.8929 -1.9843,2.8929 -1.0959,1e-7 -1.7198,-1.0067 -1.9843,-2.8929 -0.2414,-1.7209 0,-3.1436 1.9843,-3.1436 1.9843,0 2.2257,1.4227 1.9843,3.1436 z"
         fill="#3232c8"
         filter="url(#filter871)"
         opacity="0.3"
         id="path1675" />
      <path
         d="m -73.274,5.839 c -0.26458,1.8862 -0.88842,2.8929 -1.9843,2.8929 -1.0959,1e-7 -1.7198,-1.0067 -1.9843,-2.8929 -0.2414,-1.7209 0,-3.1436 1.9843,-3.1436 1.9843,0 2.2257,1.4227 1.9843,3.1436 z"
         fill="#fafafa"
         id="path1677" />
    </g>
    <g
       id="g1665"
       transform="matrix(0.74386,0,0,0.74386,63.431621,2.8404971)">
      <path
         id="path1653"
         fill="#fafafa"
         d="m -76.691,7.6728 c 0,0 0.918,1.1876 0.12426,1.5875 -0.79374,0.39984 -2.8512,1.1717 -2.9331,1.3704 -0.0819,0.1987 -0.83052,1.7188 0.1049,1.7539 0.93346,0.03501 4.1191,0.04646 4.1325,0.04651 h 0.0072 c 0.01344,-5e-5 3.1985,-0.0115 4.132,-0.04651 0.93542,-0.03508 0.18727,-1.5551 0.10542,-1.7539 -0.08185,-0.1988 -2.1399,-0.9706 -2.9336,-1.3704 -0.79374,-0.39984 0.1418,-1.5875 0.1418,-1.5875 h -1.4647 z" />
      <path
         id="path1655"
         fill="#f0f0f0"
         d="m -73.274,5.839 c -0.26458,1.8862 -0.88842,2.8929 -1.9843,2.8929 -1.0959,1e-7 -1.7198,-1.0067 -1.9843,-2.8929 -0.2414,-1.7209 0,-3.1436 1.9843,-3.1436 1.9843,0 2.2257,1.4227 1.9843,3.1436 z" />
      <path
         id="path1657"
         fill="#fafafa"
         d="m -73.234,5.4073 c 0,0 0.6201,-0.024804 0.45474,0.5953 -0.16536,0.6201 -0.47955,1.2816 -0.82681,1.356 -0.34726,0.074413 0.27285,-1.9265 0.37206,-1.9513 z" />
      <path
         id="path1659"
         fill="#fafafa"
         d="m -77.298,5.3489 c 0,0 -0.6201,-0.024804 -0.45474,0.5953 0.16536,0.6201 0.47955,1.2816 0.82681,1.356 0.34726,0.074413 -0.27285,-1.9265 -0.37206,-1.9513 z" />
      <path
         id="path1661"
         opacity="0.3"
         filter="url(#filter871)"
         fill="#3232c8"
         d="m -73.274,5.839 c -0.26458,1.8862 -0.88842,2.8929 -1.9843,2.8929 -1.0959,1e-7 -1.7198,-1.0067 -1.9843,-2.8929 -0.2414,-1.7209 0,-3.1436 1.9843,-3.1436 1.9843,0 2.2257,1.4227 1.9843,3.1436 z"
         transform="matrix(0.93263,0,0,1.0034,-5.07,0.31107)" />
      <path
         id="path1663"
         fill="#fafafa"
         d="m -73.274,5.839 c -0.26458,1.8862 -0.88842,2.8929 -1.9843,2.8929 -1.0959,1e-7 -1.7198,-1.0067 -1.9843,-2.8929 -0.2414,-1.7209 0,-3.1436 1.9843,-3.1436 1.9843,0 2.2257,1.4227 1.9843,3.1436 z" />
    </g>
  </g>
</svg>
