<?xml version="1.0" encoding="UTF-8" standalone="no"?>
<svg
   xmlns:dc="http://purl.org/dc/elements/1.1/"
   xmlns:cc="http://creativecommons.org/ns#"
   xmlns:rdf="http://www.w3.org/1999/02/22-rdf-syntax-ns#"
   xmlns:svg="http://www.w3.org/2000/svg"
   xmlns="http://www.w3.org/2000/svg"
   xmlns:xlink="http://www.w3.org/1999/xlink"
   xmlns:sodipodi="http://sodipodi.sourceforge.net/DTD/sodipodi-0.dtd"
   xmlns:inkscape="http://www.inkscape.org/namespaces/inkscape"
   inkscape:version="1.0 (4035a4fb49, 2020-05-01)"
   sodipodi:docname="utilities-system-monitor.svg"
   id="svg672"
   viewBox="0 0 16.933 16.933"
   version="1.1"
   height="64"
   width="64">
  <metadata
     id="metadata676">
    <rdf:RDF>
      <cc:Work
         rdf:about="">
        <dc:format>image/svg+xml</dc:format>
        <dc:type
           rdf:resource="http://purl.org/dc/dcmitype/StillImage" />
        <dc:title></dc:title>
      </cc:Work>
    </rdf:RDF>
  </metadata>
  <sodipodi:namedview
     inkscape:current-layer="svg672"
     inkscape:window-maximized="1"
     inkscape:window-y="0"
     inkscape:window-x="0"
     inkscape:cy="26.688663"
     inkscape:cx="41.172783"
     inkscape:zoom="12.75"
     showgrid="false"
     id="namedview674"
     inkscape:window-height="985"
     inkscape:window-width="1920"
     inkscape:pageshadow="2"
     inkscape:pageopacity="0"
     guidetolerance="10"
     gridtolerance="10"
     objecttolerance="10"
     borderopacity="1"
     bordercolor="#666666"
     pagecolor="#ffffff" />
  <defs
     id="defs190">
    <linearGradient
       id="a">
      <stop
         id="stop2"
         offset="0"
         stop-color="#14d16d" />
      <stop
         id="stop4"
         offset="1"
         stop-color="#148c4b" />
    </linearGradient>
    <clipPath
       id="bl">
      <path
         id="path7"
         d="m641.57 1047.1h77.223v80.595h-77.223z" />
    </clipPath>
    <clipPath
       id="bk">
      <path
         id="path10"
         d="m796.19 1032.6h108v108h-108z" />
    </clipPath>
    <clipPath
       id="bj">
      <path
         id="path13"
         d="m797.19 1036.6h106v33.142h-106z" />
    </clipPath>
    <clipPath
       id="bi">
      <path
         id="path16"
         d="m799.19 1066.7v-21.138c0-4.419 3.582-8.005 8.003-8.005h85.993c4.419 0 8.003 3.583 8.003 8.005v21.138z" />
    </clipPath>
    <clipPath
       id="bh">
      <path
         id="path19"
         d="m590.19 1067.7h104v-31.14h-104z" />
    </clipPath>
    <clipPath
       id="bg">
      <path
         id="path22"
         d="m813.88 1115.7h14.8v14.8h-14.8z" />
    </clipPath>
    <clipPath
       id="bf">
      <path
         id="path25"
         d="m871.68 1115.7h14.8v14.8h-14.8z" />
    </clipPath>
    <clipPath
       id="be">
      <path
         id="path28"
         d="m815.62 1089.4h69.177v37.75h-69.177z" />
    </clipPath>
    <clipPath
       id="bd">
      <path
         id="path31"
         d="m291.18 844.46h108v108.12h-108z" />
    </clipPath>
    <clipPath
       id="bc">
      <path
         id="path34"
         d="m658.79 884.04h17.705v17.706h-17.705z" />
    </clipPath>
    <clipPath
       id="bb">
      <path
         id="path37"
         d="m678.86 884.04h17.705v17.706h-17.705z" />
    </clipPath>
    <clipPath
       id="ba">
      <path
         id="path40"
         d="m698.92 884.04h17.705v17.706h-17.705z" />
    </clipPath>
    <clipPath
       id="az">
      <path
         id="path43"
         d="m796.19 844.58h108v108h-108zm3 55.999c0 28.167 22.826 51.001 51 51.001 28.165 0 50.999-22.828 50.999-51.001 0-28.166-22.826-51-50.999-51-28.167 0-51 22.828-51 51" />
    </clipPath>
    <clipPath
       id="ay">
      <path
         id="path46"
         d="m802.14 850.53h96.099v96.1h-96.099zm2.999 50.05c0 24.881 20.165 45.05 45.051 45.05 24.88 0 45.049-20.164 45.049-45.05 0-24.88-20.164-45.049-45.049-45.049-24.881 0-45.051 20.163-45.051 45.049" />
    </clipPath>
    <clipPath
       id="ax">
      <path
         id="path49"
         d="m808.09 856.48h84.2v84.2h-84.2z" />
    </clipPath>
    <clipPath
       id="aw">
      <path
         id="path52"
         d="m836.28 848.58h66.9v45.65h-66.9z" />
    </clipPath>
    <clipPath
       id="av">
      <path
         id="path55"
         d="m123.19 653.58h108v108h-108z" />
    </clipPath>
    <clipPath
       id="au">
      <path
         id="path58"
         d="m626.19 654.58h108v108h-108z" />
    </clipPath>
    <clipPath
       id="at">
      <path
         id="path61"
         d="m629.59 657.98h101.2v101.2h-101.2z" />
    </clipPath>
    <clipPath
       id="as">
      <path
         id="path64"
         d="m626.19 467.58h108v108h-108z" />
    </clipPath>
    <clipPath
       id="ar">
      <path
         id="path67"
         d="m122.19 275.58h108v108h-108z" />
    </clipPath>
    <clipPath
       id="aq">
      <path
         id="path70"
         d="m210.34 363.74h16.929v16.929h-16.929z" />
    </clipPath>
    <clipPath
       id="ap">
      <path
         id="path73"
         d="m124.37 278.5h30.772v30.772h-30.772z" />
    </clipPath>
    <clipPath
       id="ao">
      <path
         id="path76"
         d="m493.74 324.58h36.9v36.9h-36.9z" />
    </clipPath>
    <clipPath
       id="an">
      <path
         id="path79"
         d="m127.98 91.381h96.4v96.401h-96.4z" />
    </clipPath>
    <clipPath
       id="am">
      <path
         id="path82"
         d="m461.18 141.58c0-28.166 22.834-51 51-51 28.167 0 51.001 22.834 51.001 51s-22.834 51-51.001 51c-28.166 0-51-22.834-51-51" />
    </clipPath>
    <clipPath
       id="al">
      <path
         id="path85"
         d="m242.19 195.58h108v-108h-108z" />
    </clipPath>
    <clipPath
       id="ak">
      <path
         id="path88"
         d="m485.87 109.62h52.06v59.185h-52.06z" />
    </clipPath>
    <clipPath
       id="aj">
      <path
         id="path91"
         d="m821.69 123.68h60.701v53.051h-60.701z" />
    </clipPath>
    <clipPath
       id="ai">
      <path
         id="path94"
         d="m816.59 104.98h71.75v36.049h-71.75z" />
    </clipPath>
    <clipPath
       id="ah">
      <path
         id="path97"
         d="m641.57 1047.1h77.223v80.595h-77.223z" />
    </clipPath>
    <clipPath
       id="ag">
      <path
         id="path100"
         d="m796.19 1032.6h108v108h-108z" />
    </clipPath>
    <clipPath
       id="af">
      <path
         id="path103"
         d="m797.19 1036.6h106v33.142h-106z" />
    </clipPath>
    <clipPath
       id="ae">
      <path
         id="path106"
         d="m799.19 1066.7v-21.138c0-4.419 3.582-8.005 8.003-8.005h85.993c4.419 0 8.003 3.583 8.003 8.005v21.138z" />
    </clipPath>
    <clipPath
       id="ad">
      <path
         id="path109"
         d="m590.19 1067.7h104v-31.14h-104z" />
    </clipPath>
    <clipPath
       id="ac">
      <path
         id="path112"
         d="m813.88 1115.7h14.8v14.8h-14.8z" />
    </clipPath>
    <clipPath
       id="ab">
      <path
         id="path115"
         d="m871.68 1115.7h14.8v14.8h-14.8z" />
    </clipPath>
    <clipPath
       id="aa">
      <path
         id="path118"
         d="m815.62 1089.4h69.177v37.75h-69.177z" />
    </clipPath>
    <clipPath
       id="z">
      <path
         id="path121"
         d="m291.18 844.46h108v108.12h-108z" />
    </clipPath>
    <clipPath
       id="y">
      <path
         id="path124"
         d="m658.79 884.04h17.705v17.706h-17.705z" />
    </clipPath>
    <clipPath
       id="x">
      <path
         id="path127"
         d="m678.86 884.04h17.705v17.706h-17.705z" />
    </clipPath>
    <clipPath
       id="w">
      <path
         id="path130"
         d="m698.92 884.04h17.705v17.706h-17.705z" />
    </clipPath>
    <clipPath
       id="v">
      <path
         id="path133"
         d="m796.19 844.58h108v108h-108zm3 55.999c0 28.167 22.826 51.001 51 51.001 28.165 0 50.999-22.828 50.999-51.001 0-28.166-22.826-51-50.999-51-28.167 0-51 22.828-51 51" />
    </clipPath>
    <clipPath
       id="u">
      <path
         id="path136"
         d="m802.14 850.53h96.099v96.1h-96.099zm2.999 50.05c0 24.881 20.165 45.05 45.051 45.05 24.88 0 45.049-20.164 45.049-45.05 0-24.88-20.164-45.049-45.049-45.049-24.881 0-45.051 20.163-45.051 45.049" />
    </clipPath>
    <clipPath
       id="t">
      <path
         id="path139"
         d="m808.09 856.48h84.2v84.2h-84.2z" />
    </clipPath>
    <clipPath
       id="s">
      <path
         id="path142"
         d="m836.28 848.58h66.9v45.65h-66.9z" />
    </clipPath>
    <clipPath
       id="r">
      <path
         id="path145"
         d="m123.19 653.58h108v108h-108z" />
    </clipPath>
    <clipPath
       id="q">
      <path
         id="path148"
         d="m626.19 654.58h108v108h-108z" />
    </clipPath>
    <clipPath
       id="p">
      <path
         id="path151"
         d="m629.59 657.98h101.2v101.2h-101.2z" />
    </clipPath>
    <clipPath
       id="o">
      <path
         id="path154"
         d="m626.19 467.58h108v108h-108z" />
    </clipPath>
    <clipPath
       id="n">
      <path
         id="path157"
         d="m122.19 275.58h108v108h-108z" />
    </clipPath>
    <clipPath
       id="m">
      <path
         id="path160"
         d="m210.34 363.74h16.929v16.929h-16.929z" />
    </clipPath>
    <clipPath
       id="l">
      <path
         id="path163"
         d="m124.37 278.5h30.772v30.772h-30.772z" />
    </clipPath>
    <clipPath
       id="k">
      <path
         id="path166"
         d="m493.74 324.58h36.9v36.9h-36.9z" />
    </clipPath>
    <clipPath
       id="j">
      <path
         id="path169"
         d="m127.98 91.381h96.4v96.401h-96.4z" />
    </clipPath>
    <clipPath
       id="i">
      <path
         id="path172"
         d="m461.18 141.58c0-28.166 22.834-51 51-51 28.167 0 51.001 22.834 51.001 51s-22.834 51-51.001 51c-28.166 0-51-22.834-51-51" />
    </clipPath>
    <clipPath
       id="h">
      <path
         id="path175"
         d="m242.19 195.58h108v-108h-108z" />
    </clipPath>
    <clipPath
       id="g">
      <path
         id="path178"
         d="m485.87 109.62h52.06v59.185h-52.06z" />
    </clipPath>
    <clipPath
       id="f">
      <path
         id="path181"
         d="m821.69 123.68h60.701v53.051h-60.701z" />
    </clipPath>
    <clipPath
       id="e">
      <path
         id="path184"
         d="m816.59 104.98h71.75v36.049h-71.75z" />
    </clipPath>
    <linearGradient
       xlink:href="#a"
       gradientUnits="userSpaceOnUse"
       gradientTransform="translate(-0.027406,-0.0014556)"
       y2="297.9"
       y1="279.52"
       x2="8.4207"
       x1="8.4207"
       id="d" />
    <linearGradient
       xlink:href="#a"
       gradientUnits="userSpaceOnUse"
       gradientTransform="matrix(0.93348,0,0,0.939,0.5406,17.573)"
       y2="295.88"
       y1="285.52"
       x2="12.402"
       x1="12.402"
       id="c" />
    <linearGradient
       xlink:href="#a"
       gradientUnits="userSpaceOnUse"
       gradientTransform="matrix(0.93348,0,0,0.939,0.5406,17.573)"
       y2="286.02"
       y1="300.69"
       x2="8.5328"
       x1="8.5328"
       id="b" />
    <filter
       inkscape:collect="always"
       style="color-interpolation-filters:sRGB"
       id="filter1052"
       x="-0.048"
       width="1.096"
       y="-0.048"
       height="1.096">
      <feGaussianBlur
         inkscape:collect="always"
         stdDeviation="0.29103594"
         id="feGaussianBlur1054" />
    </filter>
    <linearGradient
       inkscape:collect="always"
       xlink:href="#linearGradient1038"
       id="linearGradient1040"
       x1="37.040939"
       y1="15.874687"
       x2="51.592735"
       y2="1.3228906"
       gradientUnits="userSpaceOnUse"
       gradientTransform="translate(-35.850337,-0.1322893)" />
    <linearGradient
       inkscape:collect="always"
       id="linearGradient1038">
      <stop
         style="stop-color:#2e55e7;stop-opacity:1"
         offset="0"
         id="stop1034" />
      <stop
         style="stop-color:#0d7eef;stop-opacity:1"
         offset="1"
         id="stop1036" />
    </linearGradient>
    <linearGradient
       gradientTransform="translate(19.537194,-0.16521965)"
       id="linearGradient862"
       x1="7.9373"
       x2="7.9373"
       y1="15.081"
       y2="1.852"
       gradientUnits="userSpaceOnUse">
      <stop
         stop-color="#767574"
         offset="0"
         id="stop1525" />
      <stop
         stop-color="#d1e7ee"
         offset="1"
         id="stop1527" />
    </linearGradient>
    <radialGradient
       gradientTransform="translate(19.537194,-0.16521965)"
       id="radialGradient907"
       cx="13.074"
       cy="10.074"
       r="2.5521"
       gradientUnits="userSpaceOnUse">
      <stop
         stop-color="#52ffe9"
         offset="0"
         id="stop1530" />
      <stop
         stop-color="#2fedd4"
         stop-opacity="0"
         offset="1"
         id="stop1532" />
    </radialGradient>
    <filter
       id="filter1035"
       x="-.087087"
       y="-.14213"
       width="1.1742"
       height="1.2843"
       color-interpolation-filters="sRGB">
      <feGaussianBlur
         stdDeviation="0.40101254"
         id="feGaussianBlur1535" />
    </filter>
    <linearGradient
       id="f-3"
       x1="32"
       x2="53.891"
       y1="43.543"
       y2="43.543"
       gradientTransform="scale(0.26458)"
       gradientUnits="userSpaceOnUse">
      <stop
         stop-color="#b9c0ff"
         offset="0"
         id="stop2298" />
      <stop
         stop-color="#7380ff"
         offset="1"
         id="stop2300" />
    </linearGradient>
    <linearGradient
       id="e-6"
       x1="10"
       x2="53.891"
       y1="32"
       y2="32"
       gradientTransform="scale(0.26458)"
       gradientUnits="userSpaceOnUse">
      <stop
         stop-color="#fff"
         offset="0"
         id="stop2303" />
      <stop
         stop-color="#fff"
         stop-opacity="0"
         offset="1"
         id="stop2305" />
    </linearGradient>
    <linearGradient
       id="g-7"
       x1="32"
       x2="32"
       y1="32"
       y2="6"
       gradientTransform="scale(0.26458)"
       gradientUnits="userSpaceOnUse">
      <stop
         stop-color="#fff"
         offset="0"
         id="stop2308" />
      <stop
         stop-color="#fff"
         offset="1"
         id="stop2310" />
    </linearGradient>
    <filter
       id="filter2761"
       x="-.024"
       y="-.024"
       width="1.048"
       height="1.048"
       color-interpolation-filters="sRGB">
      <feGaussianBlur
         stdDeviation="0.14552168"
         id="feGaussianBlur2366" />
    </filter>
    <linearGradient
       id="linearGradient2645-7"
       x1="15.752"
       x2="1.3927"
       y1="281.24"
       y2="295.6"
       gradientTransform="translate(-0.13126,-280.07)"
       gradientUnits="userSpaceOnUse">
      <stop
         stop-color="#0a82f0"
         offset="0"
         id="stop2369" />
      <stop
         stop-color="#3250e6"
         offset="1"
         id="stop2371" />
    </linearGradient>
    <filter
       id="filter924"
       x="-.060054"
       y="-.059946"
       width="1.1201"
       height="1.1199"
       color-interpolation-filters="sRGB">
      <feGaussianBlur
         stdDeviation="0.2078715"
         id="feGaussianBlur2374" />
    </filter>
  </defs>
  <rect
     ry="3.4395156"
     y="1.1906018"
     x="1.1906016"
     height="14.551797"
     width="14.551797"
     id="rect1042"
     style="opacity:0.3;fill:#000000;fill-opacity:1;stroke-width:0.529156;stroke-linecap:round;filter:url(#filter1052)" />
  <rect
     style="fill:url(#linearGradient1040);fill-opacity:1;stroke-width:0.529156;stroke-linecap:round"
     id="rect1032"
     width="14.551797"
     height="14.551797"
     x="1.1906016"
     y="1.1906018"
     ry="3.4395156" />
  <rect
     style="opacity:0.2;fill:#ffffff;fill-opacity:1;stroke-width:0.481051;stroke-linecap:round"
     id="rect2427"
     width="13.228907"
     height="13.228907"
     x="1.8520467"
     y="1.8520467"
     ry="3.1268325" />
  <rect
     ry="2.6200385"
     y="2.9241107"
     x="2.9241107"
     height="11.084779"
     width="11.084779"
     id="rect2362"
     style="opacity:1;fill:#ffffff;fill-opacity:1;stroke-width:0.403083;stroke-linecap:round" />
  <path
     d="m 7.7259919,4.9158821 c -0.026802,0.00412 -0.048061,0.043429 -0.076482,0.1271216 C 7.5945601,5.2048535 7.5816116,5.4379286 7.5094717,7.6117884 7.4714016,8.7591886 7.3886495,9.7872423 7.3172372,9.9976423 7.2247883,10.269922 7.0704308,10.184889 6.683181,9.6477999 6.4838902,9.3713898 6.2584194,9.0899173 6.1819298,9.0225272 6.0502599,8.9065573 6.0355097,8.9058673 5.9018474,9.0039241 5.8241885,9.0609092 5.7230508,9.2095969 5.6770619,9.3346468 5.5583007,9.6575668 5.3954105,9.8323024 5.1690904,9.8798224 5.0612801,9.9025325 4.5048353,9.8850259 3.9330158,9.8410657 L 2.9408479,9.765103 c 1.64e-4,0.062102 5.529e-4,0.1244382 5.159e-4,0.1865482 l 0.5198563,0.050125 c 0.3116995,0.03043 0.8666045,0.05581 1.2329737,0.05581 0.7768305,0 0.909535,-0.061352 1.0820849,-0.4981511 0.05884,-0.1489498 0.1314053,-0.287862 0.1612259,-0.308502 0.11452,-0.079258 0.2732987,0.052328 0.5989176,0.4966007 0.1856598,0.2532984 0.3989335,0.5056984 0.4738647,0.5606784 0.182379,0.13382 0.3546908,0.06447 0.4454411,-0.179314 0.092362,-0.2481189 0.1843316,-1.2855093 0.2227218,-2.5171094 0.033181,-1.0643999 0.061612,-1.312666 0.1364218,-1.177166 0.04324,0.078361 0.085972,0.5170613 0.1384908,1.4246913 0.010829,0.1872901 0.059729,0.8422196 0.1085193,1.4551797 0.1637898,2.0576984 0.2226875,2.4249334 0.3792966,2.3667334 0.082472,-0.03063 0.1914752,-0.540504 0.1984336,-0.929124 0.0029,-0.16285 0.041195,-0.392989 0.085266,-0.51107 0.090999,-0.2438782 0.1352735,-0.2530156 0.6728142,-0.142107 0.4880381,0.10071 0.5913982,0.03737 0.8009679,-0.4903994 0.28146,-0.7087299 0.29275,-0.7261063 0.455259,-0.7472263 0.126662,-0.016422 0.202209,0.041937 0.439758,0.3405409 0.87224,1.0962988 0.970653,1.1398868 1.443811,0.638708 0.160771,-0.1702698 0.316419,-0.3095355 0.345708,-0.3095355 0.02929,0 0.184366,0.1253002 0.344677,0.2785304 0.21784,0.1982789 0.393761,0.2794649 0.636641,0.3079849 0.07066,-8.9e-5 0.127839,-0.0575 0.127638,-0.1281546 -9e-5,-0.07046 -0.05718,-0.1275481 -0.127638,-0.127638 C 13.632833,9.9521761 13.4138,9.7365791 13.295049,9.6240291 12.902759,9.249069 12.772933,9.2533795 12.442922,9.6545175 12.069944,10.107896 12.052262,10.101385 11.355673,9.231296 10.640143,8.3374659 10.47444,8.3488464 10.139749,9.3144934 10.068929,9.5188133 9.9527898,9.7538385 9.8818882,9.8374487 9.7572401,9.9844086 9.7425931,9.9870917 9.430764,9.9149616 c -0.4719307,-0.1091599 -0.65418,-0.094881 -0.7834,0.06046 -0.06166,0.0741 -0.1265636,0.1854154 -0.1441739,0.2475254 -0.04056,0.14309 -0.1184278,0.145968 -0.1565773,0.0052 C 8.3024124,10.064975 8.2088761,9.1355123 8.1771161,8.5409124 8.1368261,7.7865425 7.9334635,5.3830607 7.8929036,5.1835608 7.8740524,5.0909659 7.8245737,4.9831037 7.7828338,4.9443036 7.7602838,4.9233517 7.7420703,4.9134112 7.7259919,4.9158821 Z"
     style="fill:#107aee;fill-opacity:1;stroke-width:0.529156;stroke-linecap:round"
     id="rect2292" />
</svg>
