<?xml version="1.0" encoding="UTF-8" standalone="no"?>
<svg
   xmlns:dc="http://purl.org/dc/elements/1.1/"
   xmlns:cc="http://creativecommons.org/ns#"
   xmlns:rdf="http://www.w3.org/1999/02/22-rdf-syntax-ns#"
   xmlns:svg="http://www.w3.org/2000/svg"
   xmlns="http://www.w3.org/2000/svg"
   xmlns:xlink="http://www.w3.org/1999/xlink"
   xmlns:sodipodi="http://sodipodi.sourceforge.net/DTD/sodipodi-0.dtd"
   xmlns:inkscape="http://www.inkscape.org/namespaces/inkscape"
   width="64"
   height="64"
   version="1.1"
   viewBox="0 0 16.933 16.933"
   id="svg45"
   sodipodi:docname="virtualbox.svg"
   inkscape:version="1.0 (4035a4fb49, 2020-05-01)">
  <sodipodi:namedview
     inkscape:document-rotation="0"
     pagecolor="#ffffff"
     bordercolor="#666666"
     borderopacity="1"
     objecttolerance="10"
     gridtolerance="10"
     guidetolerance="10"
     inkscape:pageopacity="0"
     inkscape:pageshadow="2"
     inkscape:window-width="1920"
     inkscape:window-height="932"
     id="namedview47"
     showgrid="false"
     inkscape:zoom="4.2150193"
     inkscape:cx="5.1845788"
     inkscape:cy="38.602242"
     inkscape:window-x="0"
     inkscape:window-y="36"
     inkscape:window-maximized="1"
     inkscape:current-layer="svg45" />
  <metadata
     id="metadata2">
    <rdf:RDF>
      <cc:Work
         rdf:about="">
        <dc:format>image/svg+xml</dc:format>
        <dc:type
           rdf:resource="http://purl.org/dc/dcmitype/StillImage" />
        <dc:title></dc:title>
      </cc:Work>
    </rdf:RDF>
  </metadata>
  <defs
     id="defs15">
    <filter
       id="filter2761"
       x="-.024"
       y="-.024"
       width="1.048"
       height="1.048"
       color-interpolation-filters="sRGB">
      <feGaussianBlur
         stdDeviation="0.14552168"
         id="feGaussianBlur4" />
    </filter>
    <linearGradient
       id="linearGradient1024"
       x1="1.3315"
       x2="15.65"
       y1="15.576"
       y2="1.17"
       gradientTransform="translate(18.248093,0.14045)"
       gradientUnits="userSpaceOnUse">
      <stop
         stop-color="#00c8ff"
         offset="0"
         id="stop7" />
      <stop
         stop-color="#14a0ff"
         offset="1"
         id="stop9" />
    </linearGradient>
    <filter
       id="filter1208"
       x="-.07843"
       y="-.071857"
       width="1.1569"
       height="1.1437"
       color-interpolation-filters="sRGB">
      <feGaussianBlur
         stdDeviation="0.4323125"
         id="feGaussianBlur12" />
    </filter>
    <linearGradient
       id="b"
       x1="399.57"
       x2="399.57"
       y1="545.8"
       y2="517.8"
       gradientTransform="matrix(0.56696,0,0,0.56696,-237.75571,-293.02)"
       gradientUnits="userSpaceOnUse">
      <stop
         stop-color="#3889e9"
         offset="0"
         id="stop4" />
      <stop
         stop-color="#5ea5fb"
         offset="1"
         id="stop6" />
    </linearGradient>
    <filter
       id="filter2761-675"
       x="-.024"
       y="-.024"
       width="1.048"
       height="1.048"
       color-interpolation-filters="sRGB">
      <feGaussianBlur
         stdDeviation="0.14552168"
         id="feGaussianBlur9" />
    </filter>
    <linearGradient
       id="linearGradient2645-3"
       x1="15.752"
       x2="1.3927"
       y1="281.24"
       y2="295.6"
       gradientTransform="translate(-.13195 -279.92)"
       gradientUnits="userSpaceOnUse">
      <stop
         stop-color="#2ecc85"
         offset="0"
         id="stop12" />
      <stop
         stop-color="#16a085"
         offset="1"
         id="stop14" />
    </linearGradient>
    <linearGradient
       id="linearGradient865"
       x1="4.3858"
       x2="15.11"
       y1="292.57"
       y2="282.02"
       gradientTransform="matrix(4.8356,0,0,4.8356,-8.9393,-1363.8)"
       gradientUnits="userSpaceOnUse">
      <stop
         stop-color="#fff"
         offset="0"
         id="stop4-6" />
      <stop
         stop-color="#b4f0e6"
         offset="1"
         id="stop6-7" />
    </linearGradient>
    <filter
       id="filter2761-5"
       x="-.024"
       y="-.024"
       width="1.048"
       height="1.048"
       color-interpolation-filters="sRGB">
      <feGaussianBlur
         stdDeviation="0.14552168"
         id="feGaussianBlur14" />
    </filter>
    <linearGradient
       id="linearGradient2645-3-3"
       x1="15.752"
       x2="1.3927"
       y1="281.24"
       y2="295.6"
       gradientTransform="translate(-.1321 -279.92)"
       gradientUnits="userSpaceOnUse">
      <stop
         stop-color="#2ecc85"
         offset="0"
         id="stop17" />
      <stop
         stop-color="#16a085"
         offset="1"
         id="stop19" />
    </linearGradient>
    <filter
       id="filter2761-67"
       x="-.024"
       y="-.024"
       width="1.048"
       height="1.048"
       color-interpolation-filters="sRGB">
      <feGaussianBlur
         stdDeviation="0.14552168"
         id="feGaussianBlur4-3" />
    </filter>
    <linearGradient
       id="linearGradient872"
       x1="1.3941"
       x2="15.49"
       y1="15.429"
       y2="1.1724"
       gradientTransform="translate(-0.59046978,-1.1664834)"
       gradientUnits="userSpaceOnUse">
      <stop
         stop-color="#ff3c69"
         offset="0"
         id="stop7-56" />
      <stop
         stop-color="#ff462b"
         offset="1"
         id="stop9-5" />
    </linearGradient>
    <filter
       id="filter1010"
       x="-.037091"
       y="-.034971"
       width="1.0742"
       height="1.0699"
       color-interpolation-filters="sRGB">
      <feGaussianBlur
         stdDeviation="0.05378021"
         id="feGaussianBlur12-2" />
    </filter>
    <filter
       id="filter1030"
       x="-.037049"
       y="-.035009"
       width="1.0741"
       height="1.07"
       color-interpolation-filters="sRGB">
      <feGaussianBlur
         stdDeviation="0.024028153"
         id="feGaussianBlur15" />
    </filter>
    <filter
       id="filter1034"
       x="-.036002"
       y="-.035998"
       width="1.072"
       height="1.072"
       color-interpolation-filters="sRGB">
      <feGaussianBlur
         stdDeviation="0.10759511"
         id="feGaussianBlur18" />
    </filter>
    <filter
       id="filter2761-6"
       x="-.024"
       y="-.024"
       width="1.048"
       height="1.048"
       color-interpolation-filters="sRGB">
      <feGaussianBlur
         stdDeviation="0.14552168"
         id="feGaussianBlur4-7" />
    </filter>
    <filter
       id="filter2761-3675"
       x="-.024"
       y="-.024"
       width="1.048"
       height="1.048"
       color-interpolation-filters="sRGB">
      <feGaussianBlur
         stdDeviation="0.14552168"
         id="feGaussianBlur2" />
    </filter>
    <linearGradient
       id="linearGradient1195"
       x1="-9.2997"
       x2="-.93244"
       y1="32.176"
       y2="32.176"
       gradientTransform="translate(1.8475,-2.1749)"
       gradientUnits="userSpaceOnUse">
      <stop
         stop-color="#1478e6"
         offset="0"
         id="stop5" />
      <stop
         stop-color="#3c50e6"
         offset="1"
         id="stop7-53" />
    </linearGradient>
    <filter
       id="filter2761-367"
       x="-.024"
       y="-.024"
       width="1.048"
       height="1.048"
       color-interpolation-filters="sRGB">
      <feGaussianBlur
         stdDeviation="0.14552168"
         id="feGaussianBlur2-5" />
    </filter>
    <filter
       id="filter924"
       x="-.060054"
       y="-.059946"
       width="1.1201"
       height="1.1199"
       color-interpolation-filters="sRGB">
      <feGaussianBlur
         stdDeviation="0.2078715"
         id="feGaussianBlur5" />
    </filter>
    <filter
       id="filter852"
       x="-.059605"
       y="-.0604"
       width="1.1192"
       height="1.1208"
       color-interpolation-filters="sRGB">
      <feGaussianBlur
         stdDeviation="0.23538182"
         id="feGaussianBlur8" />
    </filter>
    <filter
       id="filter2761-36"
       x="-.024"
       y="-.024"
       width="1.048"
       height="1.048"
       color-interpolation-filters="sRGB">
      <feGaussianBlur
         stdDeviation="0.14552168"
         id="feGaussianBlur2-7" />
    </filter>
    <linearGradient
       id="linearGradient1174"
       x1="-22.655"
       x2="-16.238"
       y1="16.321"
       y2="16.321"
       gradientTransform="translate(58.81987,-4.9486)"
       gradientUnits="userSpaceOnUse">
      <stop
         stop-color="#0a82f0"
         offset="0"
         id="stop5-3" />
      <stop
         stop-color="#3250e6"
         offset="1"
         id="stop7-5" />
    </linearGradient>
    <filter
       color-interpolation-filters="sRGB"
       height="1.048"
       width="1.048"
       y="-.024"
       x="-.024"
       id="filter2761-3">
      <feGaussianBlur
         id="feGaussianBlur895"
         stdDeviation="0.14552168" />
    </filter>
    <linearGradient
       inkscape:collect="always"
       id="linearGradient927">
      <stop
         style="stop-color:#00c8ff;stop-opacity:1"
         offset="0"
         id="stop923" />
      <stop
         style="stop-color:#14a0ff;stop-opacity:1"
         offset="1"
         id="stop925" />
    </linearGradient>
    <filter
       id="filter2761-2"
       x="-.024"
       y="-.024"
       width="1.048"
       height="1.048"
       color-interpolation-filters="sRGB">
      <feGaussianBlur
         stdDeviation="0.14552168"
         id="feGaussianBlur4-9" />
    </filter>
    <filter
       id="filter1010-2"
       x="-.037091"
       y="-.034971"
       width="1.0742"
       height="1.0699"
       color-interpolation-filters="sRGB">
      <feGaussianBlur
         stdDeviation="0.05378021"
         id="feGaussianBlur12-7" />
    </filter>
    <filter
       id="filter1030-0"
       x="-.037049"
       y="-.035009"
       width="1.0741"
       height="1.07"
       color-interpolation-filters="sRGB">
      <feGaussianBlur
         stdDeviation="0.024028153"
         id="feGaussianBlur15-9" />
    </filter>
    <filter
       id="filter1034-3"
       x="-.036002"
       y="-.035998"
       width="1.072"
       height="1.072"
       color-interpolation-filters="sRGB">
      <feGaussianBlur
         stdDeviation="0.10759511"
         id="feGaussianBlur18-6" />
    </filter>
    <filter
       id="filter2761-6-0"
       x="-.024"
       y="-.024"
       width="1.048"
       height="1.048"
       color-interpolation-filters="sRGB">
      <feGaussianBlur
         stdDeviation="0.14552168"
         id="feGaussianBlur4-7-6" />
    </filter>
    <filter
       id="filter2761-3675-2"
       x="-.024"
       y="-.024"
       width="1.048"
       height="1.048"
       color-interpolation-filters="sRGB">
      <feGaussianBlur
         stdDeviation="0.14552168"
         id="feGaussianBlur2-6" />
    </filter>
    <filter
       id="filter2761-367-7"
       x="-.024"
       y="-.024"
       width="1.048"
       height="1.048"
       color-interpolation-filters="sRGB">
      <feGaussianBlur
         stdDeviation="0.14552168"
         id="feGaussianBlur2-5-9" />
    </filter>
    <filter
       id="filter924-2"
       x="-.060054"
       y="-.059946"
       width="1.1201"
       height="1.1199"
       color-interpolation-filters="sRGB">
      <feGaussianBlur
         stdDeviation="0.2078715"
         id="feGaussianBlur5-0" />
    </filter>
    <filter
       id="filter852-2"
       x="-.059605"
       y="-.0604"
       width="1.1192"
       height="1.1208"
       color-interpolation-filters="sRGB">
      <feGaussianBlur
         stdDeviation="0.23538182"
         id="feGaussianBlur8-3" />
    </filter>
    <filter
       id="filter2761-36-7"
       x="-.024"
       y="-.024"
       width="1.048"
       height="1.048"
       color-interpolation-filters="sRGB">
      <feGaussianBlur
         stdDeviation="0.14552168"
         id="feGaussianBlur2-7-5" />
    </filter>
    <filter
       height="1.096"
       y="-0.048"
       width="1.096"
       x="-0.048"
       id="filter1052"
       style="color-interpolation-filters:sRGB"
       inkscape:collect="always">
      <feGaussianBlur
         id="feGaussianBlur1054"
         stdDeviation="0.29103594"
         inkscape:collect="always" />
    </filter>
    <filter
       color-interpolation-filters="sRGB"
       height="1.048"
       width="1.048"
       y="-.024"
       x="-.024"
       id="filter2761-3-2">
      <feGaussianBlur
         id="feGaussianBlur895-8"
         stdDeviation="0.14552168" />
    </filter>
    <linearGradient
       inkscape:collect="always"
       xlink:href="#linearGradient927"
       id="linearGradient929"
       x1="-11.664729"
       y1="1.1906016"
       x2="-26.216526"
       y2="15.742399"
       gradientUnits="userSpaceOnUse"
       gradientTransform="translate(27.407127)" />
    <style
       id="style4"
       type="text/css" />
    <style
       id="style6"
       type="text/css" />
    <style
       id="style8"
       type="text/css" />
    <style
       id="style10"
       type="text/css" />
    <filter
       color-interpolation-filters="sRGB"
       height="1.048"
       width="1.048"
       y="-.024"
       x="-.024"
       id="filter2761-3-6">
      <feGaussianBlur
         id="feGaussianBlur12-75"
         stdDeviation="0.14552168" />
    </filter>
    <linearGradient
       gradientUnits="userSpaceOnUse"
       gradientTransform="translate(-.13206 -279.93)"
       y2="295.6"
       y1="281.24"
       x2="1.3927"
       x1="15.752"
       id="linearGradient2645-3-6">
      <stop
         id="stop15"
         offset="0"
         stop-color="#0a82f0" />
      <stop
         id="stop17-35"
         offset="1"
         stop-color="#3250e6" />
    </linearGradient>
    <style
       id="style20"
       type="text/css" />
    <linearGradient
       gradientUnits="userSpaceOnUse"
       gradientTransform="matrix(0.56696445,0,0,0.56696445,-238.21362,-293.02027)"
       y2="517.8"
       y1="545.8"
       x2="399.57"
       x1="399.57"
       id="b-6">
      <stop
         id="stop4-2"
         offset="0"
         stop-color="#3889e9" />
      <stop
         id="stop6-9"
         offset="1"
         stop-color="#5ea5fb" />
    </linearGradient>
    <filter
       color-interpolation-filters="sRGB"
       height="1.0682"
       width="1.0762"
       y="-.034105"
       x="-.038118"
       id="d">
      <feGaussianBlur
         id="feGaussianBlur9-1"
         stdDeviation="0.22736867" />
    </filter>
    <filter
       color-interpolation-filters="sRGB"
       height="1.048"
       width="1.048"
       y="-.024"
       x="-.024"
       id="filter2761-27">
      <feGaussianBlur
         id="feGaussianBlur12-6"
         stdDeviation="0.14552168" />
    </filter>
    <linearGradient
       gradientUnits="userSpaceOnUse"
       gradientTransform="matrix(3.7796,0,0,3.7796,-0.73656684,-1066.8942)"
       y2="295.6"
       y1="281.24"
       x2="1.3927"
       x1="15.752"
       id="linearGradient2645-3-0">
      <stop
         id="stop15-7"
         offset="0"
         stop-color="#0a82f0" />
      <stop
         id="stop17-5"
         offset="1"
         stop-color="#3250e6" />
    </linearGradient>
    <filter
       color-interpolation-filters="sRGB"
       height="1.048"
       width="1.048"
       y="-.024"
       x="-.024"
       id="filter2761-6-9">
      <feGaussianBlur
         id="feGaussianBlur2-3"
         stdDeviation="0.14552168" />
    </filter>
    <linearGradient
       gradientUnits="userSpaceOnUse"
       gradientTransform="matrix(0.90672652,0,0,0.96837183,-384.52955,-478.6488)"
       y2="546.21"
       y1="507.72"
       x2="394.95"
       x1="352.61"
       id="c">
      <stop
         id="stop5-6"
         offset="0"
         stop-color="#fafdfc" />
      <stop
         id="stop7-0"
         offset="1"
         stop-color="#c6efff" />
    </linearGradient>
    <linearGradient
       gradientUnits="userSpaceOnUse"
       gradientTransform="translate(-.13126 -280.07)"
       y2="295.6"
       y1="281.24"
       x2="1.3927"
       x1="15.752"
       id="linearGradient2645-3-7">
      <stop
         id="stop10"
         offset="0"
         stop-color="#0a82f0" />
      <stop
         id="stop12-6"
         offset="1"
         stop-color="#3250e6" />
    </linearGradient>
    <linearGradient
       gradientUnits="userSpaceOnUse"
       gradientTransform="matrix(3.5390681,0,0,3.779602,-76.023959,-9.2650935e-7)"
       y2="8.326"
       y1="8.326"
       x2="14.354"
       x1="2.5804"
       id="linearGradient981">
      <stop
         id="stop15-5"
         offset="0"
         stop-color="#1478f0" />
      <stop
         id="stop17-3"
         offset="1"
         stop-color="#145af0" />
    </linearGradient>
    <clipPath
       id="a">
      <circle
         id="circle2"
         style="paint-order:stroke markers fill"
         stroke-width=".491"
         stroke-opacity=".039"
         fill="#d86eb0"
         r="6.879"
         cy="288.53"
         cx="8.467" />
    </clipPath>
    <style
       type="text/css"
       id="style904" />
    <style
       type="text/css"
       id="style906" />
    <style
       type="text/css"
       id="style908" />
    <linearGradient
       id="linearGradient1448"
       x1="3.9687"
       x2="3.9687"
       y1="16.404"
       y2="2.6458"
       gradientTransform="matrix(0.91666,0,0,0.91666,23.056117,0.70545)"
       gradientUnits="userSpaceOnUse">
      <stop
         stop-color="#00a0ff"
         offset="0"
         id="stop910" />
      <stop
         stop-color="#37beff"
         offset="1"
         id="stop912" />
    </linearGradient>
    <filter
       id="filter861"
       x="-.027"
       y="-.027"
       width="1.054"
       height="1.054"
       color-interpolation-filters="sRGB">
      <feGaussianBlur
         stdDeviation="0.16371"
         id="feGaussianBlur915" />
    </filter>
  </defs>
  <rect
     ry="3.4395156"
     y="1.1906018"
     x="1.1906018"
     height="14.551797"
     width="14.551797"
     id="rect1042"
     style="opacity:0.3;fill:#000000;fill-opacity:1;stroke-width:0.529156;stroke-linecap:round;filter:url(#filter1052)" />
  <rect
     style="fill:url(#linearGradient929);fill-opacity:1;stroke-width:0.559152;stroke-linecap:round"
     id="rect921"
     width="14.551797"
     height="14.551797"
     x="1.1906016"
     y="1.1906016"
     ry="3.4395156" />
  <g
     transform="matrix(.7 0 0 .7 2.54 2.54)"
     fill="#0087ff"
     filter="url(#filter1208)"
     id="g31">
    <g
       fill-rule="evenodd"
       stroke-width=".015243"
       id="g27">
      <path
         d="m8.4658 15.671 6.6152-3.7386-0.04503-7.0332-6.5701 3.6002z"
         opacity=".6"
         id="path21" />
      <path
         d="m8.4672 15.686-6.6152-3.7386 0.045025-7.0332 6.5701 3.6002z"
         opacity=".3"
         id="path23" />
      <path
         d="m1.878 4.9333 6.6205-3.6863 6.5618 3.6878-6.5973 3.6146z"
         id="path25" />
    </g>
    <path
       d="m9.4829 5.2897c-0.051527 0.044681-0.14489 0.050032-0.20844 0.011627l-0.70395-0.4256c-0.057483-0.034751-0.071673-0.093824-0.032627-0.13855l0.60212-0.70525-2.1207 1.4692c-0.050056 0.034525-0.12916 0.038571-0.18765 0.00807-0.00344-0.00178-0.00641-0.0032-0.00985-0.00534-0.051323-0.031038-0.069143-0.082186-0.041974-0.12573l0.70895-1.1658-0.93877 0.2713c-0.056427 0.016385-0.12357 0.00653-0.16478-0.02698-0.042914-0.032769-0.053627-0.080369-0.027858-0.12004l0.40426-0.6147-0.86581-0.52345c-0.063261-0.038197-0.07299-0.10597-0.021522-0.15059 0.051705-0.044829 0.1453-0.049788 0.20853-0.011556l0.95538 0.57763c0.052678 0.031851 0.069763 0.085154 0.040742 0.12891l-0.28859 0.43888 0.92318-0.26653c0.05581-0.016515 0.12159-7e-3 0.16307 0.025497 0.042617 0.031702 0.054837 0.07859 0.031405 0.11841l-0.55304 0.9093 2.427-1.6807c0.052868-0.03685 0.13647-0.038571 0.19555-0.00394 0.060188 0.042972 0.073132 0.09461 0.034442 0.13999l-1.1542 1.3504 0.60392 0.36512c0.06332 0.038334 0.072669 0.10582 0.021202 0.15045zm0.70171 0.28666-0.36361-0.21983c-0.06319-0.038203-0.15702-0.033042-0.20849 0.011627-0.051527 0.044681-0.041739 0.1124 0.021451 0.1506l0.36361 0.21983c0.063059 0.038132 0.15695 0.033102 0.20849-0.011627 0.0515-0.044657 0.04162-0.11247-0.02145-0.1506zm0.78297 0.47337-0.38695-0.23394c-0.06306-0.038132-0.15702-0.033042-0.20848 0.011627-0.05154 0.044681-0.04162 0.11247 0.02145 0.1506l0.38695 0.23394c0.06302 0.038096 0.15695 0.033102 0.20848-0.011627 0.0515-0.044657 0.04157-0.1125-0.02145-0.1506z"
       stroke-width=".044893"
       id="path29" />
  </g>
  <g
     transform="matrix(.7 0 0 .7 2.54 2.54)"
     id="g43">
    <g
       fill-rule="evenodd"
       stroke-width=".015243"
       id="g39">
      <path
         d="m8.4658 15.671 6.6152-3.7386-0.04503-7.0332-6.5701 3.6002z"
         fill="#fff"
         opacity=".6"
         id="path33" />
      <path
         d="m8.4672 15.686-6.6152-3.7386 0.045025-7.0332 6.5701 3.6002z"
         fill="#fffeff"
         opacity=".3"
         id="path35" />
      <path
         d="m1.878 4.9333 6.6205-3.6863 6.5618 3.6878-6.5973 3.6146z"
         fill="#fafafa"
         id="path37" />
    </g>
    <path
       d="m9.4829 5.2897c-0.051527 0.044681-0.14489 0.050032-0.20844 0.011627l-0.70395-0.4256c-0.057483-0.034751-0.071673-0.093824-0.032627-0.13855l0.60212-0.70525-2.1207 1.4692c-0.050056 0.034525-0.12916 0.038571-0.18765 0.00807-0.00344-0.00178-0.00641-0.0032-0.00985-0.00534-0.051323-0.031038-0.069143-0.082186-0.041974-0.12573l0.70895-1.1658-0.93877 0.2713c-0.056427 0.016385-0.12357 0.00653-0.16478-0.02698-0.042914-0.032769-0.053627-0.080369-0.027858-0.12004l0.40426-0.6147-0.86581-0.52345c-0.063261-0.038197-0.07299-0.10597-0.021522-0.15059 0.051705-0.044829 0.1453-0.049788 0.20853-0.011556l0.95538 0.57763c0.052678 0.031851 0.069763 0.085154 0.040742 0.12891l-0.28859 0.43888 0.92318-0.26653c0.05581-0.016515 0.12159-7e-3 0.16307 0.025497 0.042617 0.031702 0.054837 0.07859 0.031405 0.11841l-0.55304 0.9093 2.427-1.6807c0.052868-0.03685 0.13647-0.038571 0.19555-0.00394 0.060188 0.042972 0.073132 0.09461 0.034442 0.13999l-1.1542 1.3504 0.60392 0.36512c0.06332 0.038334 0.072669 0.10582 0.021202 0.15045zm0.70171 0.28666-0.36361-0.21983c-0.06319-0.038203-0.15702-0.033042-0.20849 0.011627-0.051527 0.044681-0.041739 0.1124 0.021451 0.1506l0.36361 0.21983c0.063059 0.038132 0.15695 0.033102 0.20849-0.011627 0.0515-0.044657 0.04162-0.11247-0.02145-0.1506zm0.78297 0.47337-0.38695-0.23394c-0.06306-0.038132-0.15702-0.033042-0.20848 0.011627-0.05154 0.044681-0.04162 0.11247 0.02145 0.1506l0.38695 0.23394c0.06302 0.038096 0.15695 0.033102 0.20848-0.011627 0.0515-0.044657 0.04157-0.1125-0.02145-0.1506z"
       fill="#11a7ff"
       stroke-width=".044893"
       id="path41" />
  </g>
  <circle
     id="circle19"
     stroke-width="0.26458"
     fill="#5e4aa6"
     r="0"
     cy="-377.16"
     cx="-210.3757" />
  <circle
     id="circle21"
     stroke-width="0.26458"
     fill="#5e4aa6"
     r="0"
     cy="-358.51001"
     cx="-249.5457" />
  <circle
     style="fill:url(#b)"
     id="circle23"
     stroke-width="0.41578"
     fill="url(#b)"
     r="0"
     cy="8.4780998"
     cx="-10.643811" />
  <circle
     cx="-369.79581"
     cy="-328.38"
     r="0"
     fill="#5e4aa6"
     stroke-width="0.26458"
     id="circle23-9" />
</svg>
