<?xml version="1.0" encoding="UTF-8"?>
<!-- Created with Inkscape (http://www.inkscape.org/) -->
<svg width="64" height="64" version="1.1" viewBox="0 0 16.933 16.933" xmlns="http://www.w3.org/2000/svg" xmlns:cc="http://creativecommons.org/ns#" xmlns:dc="http://purl.org/dc/elements/1.1/" xmlns:rdf="http://www.w3.org/1999/02/22-rdf-syntax-ns#">
 <defs>
  <filter id="filter2761" x="-.024" y="-.024" width="1.048" height="1.048" color-interpolation-filters="sRGB">
   <feGaussianBlur stdDeviation="0.14552168"/>
  </filter>
  <filter id="filter847" x="-.036" y="-.036" width="1.072" height="1.072" color-interpolation-filters="sRGB">
   <feGaussianBlur stdDeviation="0.16525134"/>
  </filter>
  <filter id="filter871" x="-.07393" y="-.050487" width="1.1479" height="1.101" color-interpolation-filters="sRGB">
   <feGaussianBlur stdDeviation="0.12698534"/>
  </filter>
  <filter id="filter956" x="-.061735" y="-.05836" width="1.1235" height="1.1167" color-interpolation-filters="sRGB">
   <feGaussianBlur stdDeviation="0.23674121"/>
  </filter>
  <style type="text/css"/>
  <linearGradient id="linearGradient2645-3-6" x1="15.752" x2="1.3927" y1="281.24" y2="295.6" gradientTransform="translate(-.13101 -280.07)" gradientUnits="userSpaceOnUse">
   <stop stop-color="#0a82f0" offset="0"/>
   <stop stop-color="#3250e6" offset="1"/>
  </linearGradient>
 </defs>
 <metadata>
  <rdf:RDF>
   <cc:Work rdf:about="">
    <dc:format>image/svg+xml</dc:format>
    <dc:type rdf:resource="http://purl.org/dc/dcmitype/StillImage"/>
    <dc:title/>
   </cc:Work>
  </rdf:RDF>
 </metadata>
 <path d="m10.709 1.05c4.405 0 5.0345 0.67282 5.0345 5.388v3.7761c0 4.7152-0.62954 5.388-5.0345 5.388h-4.4832c-4.405 0-5.0346-0.6728-5.0346-5.388v-3.7761c0-4.7152 0.62954-5.388 5.0346-5.388z" enable-background="new" fill="#141414" filter="url(#filter2761)" opacity=".3"/>
 <path d="m10.709 1.05c4.405 0 5.0345 0.67282 5.0345 5.388v3.7761c0 4.7152-0.62954 5.388-5.0345 5.388h-4.4832c-4.405 0-5.0346-0.6728-5.0346-5.388v-3.7761c0-4.7152 0.62954-5.388 5.0346-5.388z" enable-background="new" fill="url(#linearGradient2645-3-6)"/>
 <path transform="matrix(.83596 0 0 .83596 .92765 .39715)" d="m8.4677 2.8177a5.5082 5.5082 0 0 0-3.6943 1.4305c0.012064 0.24583 0.036044 0.46769 0.10745 0.88356l0.057098 0.32533 0.13299-0.016531c0.61561-0.073599 1.1457-0.12614 1.4711-0.145l0.38768-0.021038 0.063875-0.07588c0.62853-0.80637 1.5235-1.7347 2.2329-2.3216a5.5082 5.5082 0 0 0-0.75884-0.05935zm1.5695 0.23141c-0.43195 0.31701-0.88398 0.71243-1.3524 1.1886-0.19222 0.19468-0.47267 0.49911-0.62961 0.68221l-0.29151 0.32833 0.24944 0.00684c2.1085 0.050277 4.0137 0.36453 5.5005 0.8783a5.5082 5.5082 0 0 0-3.4764-3.0842zm-5.8371 1.8002a5.5082 5.5082 0 0 0-0.59655 0.89934c0.13048-0.034981 0.26334-0.069033 0.40196-0.10069 0.26156-0.059597 0.32021-0.081493 0.31105-0.11495-0.0072344-0.023729-0.037948-0.17028-0.068365-0.33209-0.021299-0.11444-0.031874-0.23413-0.048076-0.35162zm3.0564 1.0428-0.18032 0.24268c-0.26824 0.36373-0.85137 1.2496-1.0819 1.6462l-0.20361 0.34937 0.13975 0.32232c0.94154 2.1595 2.2299 4.0925 3.4629 5.3029a5.5082 5.5082 0 0 0 3.1233-1.7055c-0.18807-1.2118-0.63915-2.626-1.3201-4.0774-0.09975-0.2117-0.15928-0.3724-0.15928-0.43201 0-0.17093 0.14276-0.30661 0.31856-0.30429 0.15694 0 0.22531 0.06204 0.34636 0.31631 0.62801 1.314 1.0825 2.6303 1.3381 3.8393a5.5082 5.5082 0 0 0 0.9354-3.0662 5.5082 5.5082 0 0 0-0.18107-1.3862c-1.5931-0.64759-3.815-1.0473-6.0632-1.0473zm-1.0466 0.061603c-0.35187 0.022638-1.0592 0.10157-1.0857 0.12848-0.021288 0.023757 0.050321 0.29971 0.21638 0.81068 0.11618 0.37047 0.15416 0.44646 0.18032 0.41849 0.018852-0.021286 0.11454-0.16596 0.21187-0.32532v-7.532e-4c0.099738-0.16426 0.29185-0.45356 0.4275-0.65065 0.13564-0.19952 0.24493-0.36886 0.24493-0.38092 0-0.00901-0.078078-0.00755-0.19534 0zm-1.8145 0.26973c-0.072546 0.0088728-0.19538 0.036232-0.3952 0.084895-0.26475 0.064787-0.50407 0.13674-0.73029 0.21262a5.5082 5.5082 0 0 0-0.31105 1.8047 5.5082 5.5082 0 0 0 0.8242 2.8896c0.24697-0.85728 0.62309-1.7937 1.1037-2.7221l0.20661-0.39895-0.15703-0.4245c-0.15209-0.40633-0.44629-1.3481-0.44629-1.4193 0-0.026156-0.022118-0.035839-0.094664-0.027043zm4.5388 1.5628c0.50367 0 0.91211 0.41069 0.91211 0.91437 0 0.50367-0.40845 0.91286-0.91211 0.91286s-0.91211-0.40919-0.91211-0.91286c0-0.50368 0.40846-0.91437 0.91211-0.91437zm-3.5185 1.115c-0.00745-0.0032-0.014394-5.264e-4 -0.020288 0.00596-0.04747 0.049888-0.39618 0.80562-0.57927 1.257-0.24078 0.59248-0.42341 1.1612-0.55147 1.713a5.5082 5.5082 0 0 0 4.2029 1.9572 5.5082 5.5082 0 0 0 0.12171-0.0046c-0.4875-0.525-0.97804-1.1396-1.4538-1.8459-0.5961-0.88626-1.2067-1.9813-1.6063-2.8791-0.058855-0.13549-0.09103-0.19409-0.11345-0.20361z" fill="#1454c8" fill-opacity=".99608" filter="url(#filter847)"/>
 <path d="m8.0063 2.7526a4.6047 4.6047 0 0 0-3.0883 1.1958c0.010085 0.2055 0.030132 0.39097 0.089824 0.73862l0.047732 0.27196 0.11117-0.013819c0.51463-0.061526 0.95776-0.10545 1.2298-0.12122l0.32409-0.017587 0.053397-0.063433c0.52543-0.6741 1.2736-1.4501 1.8666-1.9408a4.6047 4.6047 0 0 0-0.63436-0.049614zm1.312 0.19345c-0.36109 0.26501-0.73898 0.59557-1.1306 0.99363-0.16069 0.16275-0.39514 0.41724-0.52633 0.5703l-0.24369 0.27447 0.20852 0.00572c1.7626 0.04203 3.3553 0.30473 4.5982 0.73423a4.6047 4.6047 0 0 0-2.9061-2.5783zm-4.8796 1.5049a4.6047 4.6047 0 0 0-0.49869 0.75182c0.10908-0.029243 0.22014-0.057709 0.33602-0.084173 0.21865-0.049821 0.26768-0.068125 0.26003-0.096094-0.0060477-0.019837-0.031723-0.14235-0.057151-0.27762-0.017805-0.095668-0.026646-0.19572-0.04019-0.29394zm2.555 0.87174-0.15074 0.20287c-0.22424 0.30407-0.71171 1.0446-0.90443 1.3762l-0.17021 0.29206 0.11683 0.26945c0.78709 1.8053 1.8641 3.4212 2.8949 4.433a4.6047 4.6047 0 0 0 2.611-1.4257c-0.15722-1.013-0.53431-2.1952-1.1036-3.4086-0.083391-0.17697-0.13315-0.31131-0.13315-0.36114 0-0.14289 0.11934-0.25631 0.2663-0.25438 0.1312 0 0.18835 0.051863 0.28954 0.26442 0.52499 1.0985 0.90493 2.1988 1.1186 3.2095a4.6047 4.6047 0 0 0 0.78196-2.5632 4.6047 4.6047 0 0 0-0.15137-1.1588c-1.3318-0.54136-3.1892-0.87551-5.0686-0.87551zm-0.87492 0.051498c-0.29415 0.018925-0.88545 0.084909-0.90761 0.1074-0.017796 0.01986 0.042067 0.25055 0.18089 0.6777 0.097122 0.3097 0.12887 0.37322 0.15074 0.34984 0.01576-0.017794 0.095751-0.13874 0.17712-0.27196v-6.298e-4c0.083377-0.13732 0.24398-0.37916 0.35737-0.54392 0.11339-0.16679 0.20475-0.30835 0.20475-0.31844 0-0.00753-0.06527-0.00631-0.1633 0zm-1.5169 0.22548c-0.060646 0.00742-0.16333 0.030289-0.33037 0.070969-0.22132 0.05416-0.42138 0.11431-0.6105 0.17774a4.6047 4.6047 0 0 0-0.26003 1.5087 4.6047 4.6047 0 0 0 0.689 2.4156c0.20646-0.71666 0.52088-1.4995 0.92265-2.2756l0.17272-0.33351-0.13127-0.35487c-0.12714-0.33968-0.37308-1.127-0.37308-1.1865 0-0.021865-0.01849-0.02996-0.079136-0.022607zm3.7943 1.3064c0.42105 0 0.76249 0.34332 0.76249 0.76438 0 0.42105-0.34145 0.76312-0.76249 0.76312s-0.76249-0.34207-0.76249-0.76312c0-0.42106 0.34146-0.76438 0.76249-0.76438zm-2.9413 0.9321c-0.00623-0.00267-0.012033-4.4e-4 -0.01696 0.00498-0.039683 0.041707-0.33119 0.67347-0.48425 1.0508-0.20128 0.49529-0.35396 0.97072-0.46101 1.432a4.6047 4.6047 0 0 0 3.5135 1.6361 4.6047 4.6047 0 0 0 0.10175-0.0038c-0.40753-0.43893-0.81761-0.95271-1.2153-1.5432-0.49832-0.74088-1.0088-1.6563-1.3428-2.4068-0.049201-0.11326-0.076098-0.16225-0.09484-0.17021z" fill="#fff" stroke-width=".83596"/>
 <g transform="matrix(.74386 0 0 .74386 66.412 4.773)" fill="#1455c8" filter="url(#filter956)">
  <path d="m-76.691 7.6728s0.918 1.1876 0.12426 1.5875c-0.79374 0.39984-2.8512 1.1717-2.9331 1.3704s-0.83052 1.7188 0.1049 1.7539c0.93346 0.03501 4.1191 0.04646 4.1325 0.04651h0.0072c0.01344-5e-5 3.1985-0.0115 4.132-0.04651 0.93542-0.03508 0.18727-1.5551 0.10542-1.7539s-2.1399-0.9706-2.9336-1.3704c-0.79374-0.39984 0.1418-1.5875 0.1418-1.5875h-1.4647z"/>
  <path d="m-73.274 5.839c-0.26458 1.8862-0.88842 2.8929-1.9843 2.8929-1.0959 1e-7 -1.7198-1.0067-1.9843-2.8929-0.2414-1.7209 0-3.1436 1.9843-3.1436s2.2257 1.4227 1.9843 3.1436z"/>
  <path d="m-73.234 5.4073s0.6201-0.024804 0.45474 0.5953c-0.16536 0.6201-0.47955 1.2816-0.82681 1.356-0.34726 0.074413 0.27285-1.9265 0.37206-1.9513z"/>
  <path d="m-77.298 5.3489s-0.6201-0.024804-0.45474 0.5953c0.16536 0.6201 0.47955 1.2816 0.82681 1.356 0.34726 0.074413-0.27285-1.9265-0.37206-1.9513z"/>
  <path transform="matrix(.93263 0 0 1.0034 -5.07 .31107)" d="m-73.274 5.839c-0.26458 1.8862-0.88842 2.8929-1.9843 2.8929-1.0959 1e-7 -1.7198-1.0067-1.9843-2.8929-0.2414-1.7209 0-3.1436 1.9843-3.1436s2.2257 1.4227 1.9843 3.1436z" filter="url(#filter871)" opacity=".3"/>
  <path d="m-73.274 5.839c-0.26458 1.8862-0.88842 2.8929-1.9843 2.8929-1.0959 1e-7 -1.7198-1.0067-1.9843-2.8929-0.2414-1.7209 0-3.1436 1.9843-3.1436s2.2257 1.4227 1.9843 3.1436z"/>
 </g>
 <g transform="matrix(.74386 0 0 .74386 66.412 4.773)">
  <path d="m-76.691 7.6728s0.918 1.1876 0.12426 1.5875c-0.79374 0.39984-2.8512 1.1717-2.9331 1.3704s-0.83052 1.7188 0.1049 1.7539c0.93346 0.03501 4.1191 0.04646 4.1325 0.04651h0.0072c0.01344-5e-5 3.1985-0.0115 4.132-0.04651 0.93542-0.03508 0.18727-1.5551 0.10542-1.7539s-2.1399-0.9706-2.9336-1.3704c-0.79374-0.39984 0.1418-1.5875 0.1418-1.5875h-1.4647z" fill="#fafafa"/>
  <path d="m-73.274 5.839c-0.26458 1.8862-0.88842 2.8929-1.9843 2.8929-1.0959 1e-7 -1.7198-1.0067-1.9843-2.8929-0.2414-1.7209 0-3.1436 1.9843-3.1436s2.2257 1.4227 1.9843 3.1436z" fill="#f0f0f0"/>
  <path d="m-73.234 5.4073s0.6201-0.024804 0.45474 0.5953c-0.16536 0.6201-0.47955 1.2816-0.82681 1.356-0.34726 0.074413 0.27285-1.9265 0.37206-1.9513z" fill="#fafafa"/>
  <path d="m-77.298 5.3489s-0.6201-0.024804-0.45474 0.5953c0.16536 0.6201 0.47955 1.2816 0.82681 1.356 0.34726 0.074413-0.27285-1.9265-0.37206-1.9513z" fill="#fafafa"/>
  <path transform="matrix(.93263 0 0 1.0034 -5.07 .31107)" d="m-73.274 5.839c-0.26458 1.8862-0.88842 2.8929-1.9843 2.8929-1.0959 1e-7 -1.7198-1.0067-1.9843-2.8929-0.2414-1.7209 0-3.1436 1.9843-3.1436s2.2257 1.4227 1.9843 3.1436z" fill="#3232c8" filter="url(#filter871)" opacity=".3"/>
  <path d="m-73.274 5.839c-0.26458 1.8862-0.88842 2.8929-1.9843 2.8929-1.0959 1e-7 -1.7198-1.0067-1.9843-2.8929-0.2414-1.7209 0-3.1436 1.9843-3.1436s2.2257 1.4227 1.9843 3.1436z" fill="#fafafa"/>
 </g>
</svg>
