<?xml version="1.0" encoding="UTF-8"?>
<!-- Created with Inkscape (http://www.inkscape.org/) -->
<svg width="64" height="64" version="1.1" viewBox="0 0 16.933 16.933" xmlns="http://www.w3.org/2000/svg" xmlns:cc="http://creativecommons.org/ns#" xmlns:dc="http://purl.org/dc/elements/1.1/" xmlns:rdf="http://www.w3.org/1999/02/22-rdf-syntax-ns#">
 <defs>
  <filter id="filter2761" x="-.024" y="-.024" width="1.048" height="1.048" color-interpolation-filters="sRGB">
   <feGaussianBlur stdDeviation="0.14552168"/>
  </filter>
  <linearGradient id="linearGradient1739" x1="29.596" x2="33.83" y1="6.3857" y2="6.3857" gradientUnits="userSpaceOnUse">
   <stop stop-color="#ff4628" offset="0"/>
   <stop stop-color="#ff3c64" offset="1"/>
  </linearGradient>
 </defs>
 <metadata>
  <rdf:RDF>
   <cc:Work rdf:about="">
    <dc:format>image/svg+xml</dc:format>
    <dc:type rdf:resource="http://purl.org/dc/dcmitype/StillImage"/>
    <dc:title/>
   </cc:Work>
  </rdf:RDF>
 </metadata>
 <path d="m10.709 1.05c4.405 0 5.0345 0.67282 5.0345 5.388v3.7761c0 4.7152-0.62954 5.388-5.0345 5.388h-4.4832c-4.405 0-5.0346-0.6728-5.0346-5.388v-3.7761c0-4.7152 0.62954-5.388 5.0346-5.388z" enable-background="new" fill="#141414" filter="url(#filter2761)" opacity=".3"/>
 <path d="m10.709 1.05c4.405 0 5.0345 0.67282 5.0345 5.388v3.7761c0 4.7152-0.62954 5.388-5.0345 5.388h-4.4832c-4.405 0-5.0346-0.6728-5.0346-5.388v-3.7761c0-4.7152 0.62954-5.388 5.0346-5.388z" enable-background="new" fill="#fafafa"/>
 <g fill="#5e4aa6">
  <circle cx="-305.77" cy="-331.46" r="0" stroke-width=".26458"/>
  <circle cx="-301.96" cy="-329.38" r="0" stroke-width=".26458"/>
  <circle cx="-298.88" cy="-325.72" r="0" stroke-width=".26458"/>
 </g>
 <g transform="matrix(1.1111 0 0 1.1111 -26.77 1.2309)" stroke-width=".26458">
  <path d="m31.714 1.6233a4.7624 4.7624 0 0 0-4.7624 4.7624 4.7624 4.7624 0 0 0 4.7624 4.7624 4.7624 4.7624 0 0 0 4.7624-4.7624 4.7624 4.7624 0 0 0-4.7624-4.7624zm0 2.8574a1.905 1.905 0 0 1 1.905 1.905 1.905 1.905 0 0 1-1.905 1.905 1.905 1.905 0 0 1-1.905-1.905 1.905 1.905 0 0 1 1.905-1.905z" fill="#f0f0f0"/>
  <circle cx="31.713" cy="6.3857" r="3.4395" fill="#fff" style="paint-order:markers stroke fill"/>
  <circle cx="31.713" cy="6.3857" r="2.1166" fill="url(#linearGradient1739)" style="paint-order:markers stroke fill"/>
 </g>
</svg>
