<?xml version="1.0" encoding="UTF-8"?>
<!-- Created with Inkscape (http://www.inkscape.org/) -->
<svg width="64" height="64" version="1.1" viewBox="0 0 16.933 16.933" xmlns="http://www.w3.org/2000/svg" xmlns:cc="http://creativecommons.org/ns#" xmlns:dc="http://purl.org/dc/elements/1.1/" xmlns:rdf="http://www.w3.org/1999/02/22-rdf-syntax-ns#">
 <defs>
  <filter id="filter2761" x="-.024" y="-.024" width="1.048" height="1.048" color-interpolation-filters="sRGB">
   <feGaussianBlur stdDeviation="0.14552168"/>
  </filter>
  <linearGradient id="linearGradient978" x1="5.1929" x2="12.601" y1="9.7804" y2="9.7804" gradientUnits="userSpaceOnUse">
   <stop stop-color="#14dc78" offset="0"/>
   <stop stop-color="#14a03c" offset="1"/>
  </linearGradient>
 </defs>
 <metadata>
  <rdf:RDF>
   <cc:Work rdf:about="">
    <dc:format>image/svg+xml</dc:format>
    <dc:type rdf:resource="http://purl.org/dc/dcmitype/StillImage"/>
    <dc:title/>
   </cc:Work>
  </rdf:RDF>
 </metadata>
 <path d="m10.709 1.05c4.405 0 5.0345 0.67282 5.0345 5.388v3.7761c0 4.7152-0.62954 5.388-5.0345 5.388h-4.4832c-4.405 0-5.0346-0.6728-5.0346-5.388v-3.7761c0-4.7152 0.62954-5.388 5.0346-5.388z" enable-background="new" fill="#141414" filter="url(#filter2761)" opacity=".3"/>
 <path d="m10.709 1.05c4.405 0 5.0345 0.67282 5.0345 5.388v3.7761c0 4.7152-0.62954 5.388-5.0345 5.388h-4.4832c-4.405 0-5.0346-0.6728-5.0346-5.388v-3.7761c0-4.7152 0.62954-5.388 5.0346-5.388z" enable-background="new" fill="#fafafa"/>
 <circle cx="-305.77" cy="-331.46" r="0" fill="#5e4aa6" stroke-width=".26458"/>
 <circle cx="-301.96" cy="-329.38" r="0" fill="#5e4aa6" stroke-width=".26458"/>
 <g transform="matrix(1.25 0 0 1.25 -2.6539 -3.8995)" stroke-width=".26458">
  <circle cx="8.897" cy="9.7804" r="4.2333" fill="#f0f0f0" style="paint-order:markers stroke fill"/>
  <circle cx="8.897" cy="9.7804" r="3.7041" fill="url(#linearGradient978)" style="paint-order:markers stroke fill"/>
  <path d="m8.897 7.5127a2.1166 2.1166 0 0 0-2.1166 2.1166v2.1166h2.1166a2.1166 2.1166 0 1 0 0-4.2333zm0 1.2094a0.90724 0.90724 0 0 1 0.90724 0.90724 0.90724 0.90724 0 0 1-0.90724 0.90697 0.90724 0.90724 0 0 1-0.90724-0.90697 0.90724 0.90724 0 0 1 0.90724-0.90724z" fill="#fff"/>
 </g>
</svg>
