<?xml version="1.0" encoding="UTF-8"?>
<!-- Created with Inkscape (http://www.inkscape.org/) -->
<svg width="64" height="64" version="1.1" viewBox="0 0 16.933 16.933" xmlns="http://www.w3.org/2000/svg" xmlns:cc="http://creativecommons.org/ns#" xmlns:dc="http://purl.org/dc/elements/1.1/" xmlns:rdf="http://www.w3.org/1999/02/22-rdf-syntax-ns#">
 <defs>
  <filter id="filter2761" x="-.024" y="-.024" width="1.048" height="1.048" color-interpolation-filters="sRGB">
   <feGaussianBlur stdDeviation="0.14552168"/>
  </filter>
  <linearGradient id="linearGradient893" x1="5.2111" x2="12.619" y1="8.3597" y2="8.3597" gradientUnits="userSpaceOnUse">
   <stop stop-color="#1478e6" offset="0"/>
   <stop stop-color="#3c50e6" offset="1"/>
  </linearGradient>
 </defs>
 <metadata>
  <rdf:RDF>
   <cc:Work rdf:about="">
    <dc:format>image/svg+xml</dc:format>
    <dc:type rdf:resource="http://purl.org/dc/dcmitype/StillImage"/>
    <dc:title/>
   </cc:Work>
  </rdf:RDF>
 </metadata>
 <path d="m10.709 1.05c4.405 0 5.0345 0.67282 5.0345 5.388v3.7761c0 4.7152-0.62954 5.388-5.0345 5.388h-4.4832c-4.405 0-5.0346-0.6728-5.0346-5.388v-3.7761c0-4.7152 0.62954-5.388 5.0346-5.388z" enable-background="new" fill="#141414" filter="url(#filter2761)" opacity=".3"/>
 <path d="m10.709 1.05c4.405 0 5.0345 0.67282 5.0345 5.388v3.7761c0 4.7152-0.62954 5.388-5.0345 5.388h-4.4832c-4.405 0-5.0346-0.6728-5.0346-5.388v-3.7761c0-4.7152 0.62954-5.388 5.0346-5.388z" enable-background="new" fill="#fafafa"/>
 <circle cx="-305.77" cy="-331.46" r="0" fill="#5e4aa6" stroke-width=".26458"/>
 <g transform="matrix(1.25 0 0 1.25 -2.6767 -2.1236)">
  <circle cx="8.9152" cy="8.3597" r="4.2333" fill="#f0f0f0" stroke-width=".26458" style="paint-order:markers stroke fill"/>
  <circle cx="8.9152" cy="8.3597" r="3.7041" fill="url(#linearGradient893)" stroke-width=".26458" style="paint-order:markers stroke fill"/>
  <g transform="matrix(.26458 0 0 .26458 .44874 .15782)" fill="#fff">
   <path d="m29.309 37.485h5.387v2.02h-5.387zm0 3.367h5.387v2.02h-5.387zm2.693-14.142a4.714 4.714 0 0 0-4.714 4.714 4.714 4.714 0 0 0 4.714 4.714 4.714 4.714 0 0 0 4.714-4.714 4.714 4.714 0 0 0-4.714-4.714zm0 2.02a2.694 2.694 0 0 1 2.694 2.694 2.694 2.694 0 0 1-2.694 2.694 2.694 2.694 0 0 1-2.693-2.694 2.694 2.694 0 0 1 2.693-2.694zm6.188 0.27-3.809-3.81 3.81-3.809 3.809 3.81zm-8.571-3.81-3.81 3.81-1.428-1.429 3.81-3.81zm-2.381-2.38-3.81 3.809-1.428-1.429 3.81-3.809z"/>
  </g>
 </g>
</svg>
