<?xml version="1.0" encoding="UTF-8"?>
<!-- Created with Inkscape (http://www.inkscape.org/) -->
<svg width="64" height="64" version="1.1" viewBox="0 0 16.933 16.933" xmlns="http://www.w3.org/2000/svg" xmlns:cc="http://creativecommons.org/ns#" xmlns:dc="http://purl.org/dc/elements/1.1/" xmlns:rdf="http://www.w3.org/1999/02/22-rdf-syntax-ns#" xmlns:xlink="http://www.w3.org/1999/xlink">
 <defs>
  <filter id="filter2761" x="-.024" y="-.024" width="1.048" height="1.048" color-interpolation-filters="sRGB">
   <feGaussianBlur stdDeviation="0.14552168"/>
  </filter>
  <linearGradient id="linearGradient1055">
   <stop stop-color="#0a82f0" offset="0"/>
   <stop stop-color="#3250e6" offset="1"/>
  </linearGradient>
  <linearGradient id="linearGradient1057" x1="51" x2="55" y1="26" y2="26" gradientUnits="userSpaceOnUse" xlink:href="#linearGradient1055"/>
  <linearGradient id="linearGradient1065" x1="12" x2="15" y1="27.5" y2="27.5" gradientUnits="userSpaceOnUse" xlink:href="#linearGradient1055"/>
 </defs>
 <metadata>
  <rdf:RDF>
   <cc:Work rdf:about="">
    <dc:format>image/svg+xml</dc:format>
    <dc:type rdf:resource="http://purl.org/dc/dcmitype/StillImage"/>
    <dc:title/>
   </cc:Work>
  </rdf:RDF>
 </metadata>
 <path d="m10.709 1.05c4.405 0 5.0345 0.67282 5.0345 5.388v3.7761c0 4.7152-0.62954 5.388-5.0345 5.388h-4.4832c-4.405 0-5.0346-0.6728-5.0346-5.388v-3.7761c0-4.7152 0.62954-5.388 5.0346-5.388z" enable-background="new" fill="#141414" filter="url(#filter2761)" opacity=".3"/>
 <path d="m10.709 1.05c4.405 0 5.0345 0.67282 5.0345 5.388v3.7761c0 4.7152-0.62954 5.388-5.0345 5.388h-4.4832c-4.405 0-5.0346-0.6728-5.0346-5.388v-3.7761c0-4.7152 0.62954-5.388 5.0346-5.388z" enable-background="new" fill="#fafafa"/>
 <g fill="#5e4aa6">
  <circle cx="-305.77" cy="-331.46" r="0" stroke-width=".26458"/>
  <g stroke-width=".26458">
   <circle cx="-301.96" cy="-329.38" r="0"/>
   <circle cx="-298.88" cy="-325.72" r="0"/>
   <circle cx="-301.82" cy="-331.53" r="0"/>
   <g transform="translate(55.39 6.5931)">
    <circle cx="-330.35" cy="-328.38" r="0"/>
    <circle cx="-299.17" cy="-337.27" r="0"/>
    <circle cx="-299.81" cy="-339.42" r="0"/>
    <circle cx="-302.25" cy="-338.13" r="0"/>
    <circle cx="-301.89" cy="-335.91" r="0"/>
    <circle cx="-304.76" cy="-351.05" r="0"/>
    <circle cx="-304.83" cy="-349.54" r="0"/>
    <circle cx="-359.94" cy="-336.91" r="0"/>
   </g>
   <g transform="translate(30.323 -4.155)">
    <circle cx="-330.35" cy="-328.38" r="0"/>
    <g transform="translate(23.999,2.5837)">
     <circle cx="-330.35" cy="-328.38" r="0"/>
     <circle cx="-299.17" cy="-337.27" r="0"/>
     <circle cx="-299.81" cy="-339.42" r="0"/>
     <circle cx="-302.25" cy="-338.13" r="0"/>
     <circle cx="-301.89" cy="-335.91" r="0"/>
     <circle cx="-304.76" cy="-351.05" r="0"/>
     <circle cx="-304.83" cy="-349.54" r="0"/>
     <circle cx="-359.94" cy="-336.91" r="0"/>
    </g>
    <g transform="translate(24.518,-1.8976)">
     <circle cx="-330.35" cy="-328.38" r="0"/>
     <circle cx="-299.17" cy="-337.27" r="0"/>
     <circle cx="-299.81" cy="-339.42" r="0"/>
     <circle cx="-302.25" cy="-338.13" r="0"/>
     <circle cx="-301.89" cy="-335.91" r="0"/>
     <circle cx="-304.76" cy="-351.05" r="0"/>
     <circle cx="-304.83" cy="-349.54" r="0"/>
     <circle cx="-359.94" cy="-336.91" r="0"/>
    </g>
   </g>
  </g>
  <g transform="translate(28.745 -10.326)" stroke-width=".26458">
   <circle cx="-330.35" cy="-328.38" r="0"/>
   <g transform="translate(23.999,2.5837)">
    <circle cx="-330.35" cy="-328.38" r="0"/>
    <circle cx="-299.17" cy="-337.27" r="0"/>
    <circle cx="-299.81" cy="-339.42" r="0"/>
    <circle cx="-302.25" cy="-338.13" r="0"/>
    <circle cx="-301.89" cy="-335.91" r="0"/>
    <circle cx="-304.76" cy="-351.05" r="0"/>
    <circle cx="-304.83" cy="-349.54" r="0"/>
    <circle cx="-359.94" cy="-336.91" r="0"/>
   </g>
   <g transform="translate(24.518,-1.8976)">
    <circle cx="-330.35" cy="-328.38" r="0"/>
    <circle cx="-299.17" cy="-337.27" r="0"/>
    <circle cx="-299.81" cy="-339.42" r="0"/>
    <circle cx="-302.25" cy="-338.13" r="0"/>
    <circle cx="-301.89" cy="-335.91" r="0"/>
    <circle cx="-304.76" cy="-351.05" r="0"/>
    <circle cx="-304.83" cy="-349.54" r="0"/>
    <circle cx="-359.94" cy="-336.91" r="0"/>
   </g>
   <circle cx="-311.92" cy="-331.32" r="0"/>
  </g>
  <g transform="translate(31.112 -10.038)" stroke-width=".26458">
   <circle cx="-330.35" cy="-328.38" r="0"/>
   <g transform="translate(23.999,2.5837)">
    <circle cx="-330.35" cy="-328.38" r="0"/>
    <circle cx="-299.17" cy="-337.27" r="0"/>
    <circle cx="-299.81" cy="-339.42" r="0"/>
    <circle cx="-302.25" cy="-338.13" r="0"/>
    <circle cx="-301.89" cy="-335.91" r="0"/>
    <circle cx="-304.76" cy="-351.05" r="0"/>
    <circle cx="-304.83" cy="-349.54" r="0"/>
    <circle cx="-359.94" cy="-336.91" r="0"/>
   </g>
   <g transform="translate(24.518,-1.8976)">
    <circle cx="-330.35" cy="-328.38" r="0"/>
    <circle cx="-299.17" cy="-337.27" r="0"/>
    <circle cx="-299.81" cy="-339.42" r="0"/>
    <circle cx="-302.25" cy="-338.13" r="0"/>
    <circle cx="-301.89" cy="-335.91" r="0"/>
    <circle cx="-304.76" cy="-351.05" r="0"/>
    <circle cx="-304.83" cy="-349.54" r="0"/>
    <circle cx="-359.94" cy="-336.91" r="0"/>
   </g>
   <circle cx="-311.92" cy="-331.32" r="0"/>
   <circle cx="-300.02" cy="-345.82" r="0"/>
  </g>
  <g transform="translate(50.809 -9.1667)" stroke-width=".26458">
   <circle cx="-330.35" cy="-328.38" r="0"/>
   <circle cx="-299.17" cy="-337.27" r="0"/>
   <circle cx="-299.81" cy="-339.42" r="0"/>
   <circle cx="-302.25" cy="-338.13" r="0"/>
   <circle cx="-301.89" cy="-335.91" r="0"/>
   <circle cx="-304.76" cy="-351.05" r="0"/>
   <circle cx="-304.83" cy="-349.54" r="0"/>
   <circle cx="-359.94" cy="-336.91" r="0"/>
  </g>
  <g transform="translate(28.601 -12.119)" stroke-width=".26458">
   <circle cx="-330.35" cy="-328.38" r="0"/>
   <g transform="translate(23.999,2.5837)">
    <circle cx="-330.35" cy="-328.38" r="0"/>
    <circle cx="-299.17" cy="-337.27" r="0"/>
    <circle cx="-299.81" cy="-339.42" r="0"/>
    <circle cx="-302.25" cy="-338.13" r="0"/>
    <circle cx="-301.89" cy="-335.91" r="0"/>
    <circle cx="-304.76" cy="-351.05" r="0"/>
    <circle cx="-304.83" cy="-349.54" r="0"/>
    <circle cx="-359.94" cy="-336.91" r="0"/>
   </g>
   <g transform="translate(24.518,-1.8976)">
    <circle cx="-330.35" cy="-328.38" r="0"/>
    <circle cx="-299.17" cy="-337.27" r="0"/>
    <circle cx="-299.81" cy="-339.42" r="0"/>
    <circle cx="-302.25" cy="-338.13" r="0"/>
    <circle cx="-301.89" cy="-335.91" r="0"/>
    <circle cx="-304.76" cy="-351.05" r="0"/>
    <circle cx="-304.83" cy="-349.54" r="0"/>
    <circle cx="-359.94" cy="-336.91" r="0"/>
   </g>
   <circle cx="-311.92" cy="-331.32" r="0"/>
   <circle cx="-300.02" cy="-345.82" r="0"/>
   <g transform="translate(19.697 .87184)">
    <circle cx="-330.35" cy="-328.38" r="0"/>
    <circle cx="-299.17" cy="-337.27" r="0"/>
    <circle cx="-299.81" cy="-339.42" r="0"/>
    <circle cx="-302.25" cy="-338.13" r="0"/>
    <circle cx="-301.89" cy="-335.91" r="0"/>
    <circle cx="-304.76" cy="-351.05" r="0"/>
    <circle cx="-304.83" cy="-349.54" r="0"/>
    <circle cx="-359.94" cy="-336.91" r="0"/>
   </g>
   <circle cx="-299.82" cy="-321.23" r="0"/>
  </g>
 </g>
 <g transform="matrix(.20352 0 0 .20352 1.9547 1.8134)">
  <path d="m20.183 10.514v6.335l-2.364 4e-3v3.573h28.363v-3.573h-2.364v-6.399z" color="#000000" fill="#969696" overflow="visible" style="isolation:auto;mix-blend-mode:normal"/>
  <path d="m21.364 9.863h21.273v10.563h-21.272z" color="#000000" fill="#f0f0f0" overflow="visible" stroke="#000" stroke-linecap="round" stroke-linejoin="round" stroke-opacity=".059" stroke-width=".882" style="isolation:auto;mix-blend-mode:normal;paint-order:markers stroke fill"/>
  <path d="m16.637 39.898h31.387l4.658 6.5h-40.772z" color="#000000" fill="#969696" overflow="visible" style="isolation:auto;mix-blend-mode:normal"/>
  <path d="m18.41 40.489h27.18l7.464 13.648h-41.516z" color="#000000" fill="#f0f0f0" overflow="visible" stroke="#828282" stroke-linecap="round" stroke-linejoin="round" stroke-opacity=".059" stroke-width=".882" style="isolation:auto;mix-blend-mode:normal;paint-order:markers stroke fill"/>
  <path d="m6 21.016 0.592-0.59h50.817l0.591 0.59v22.427l-0.59 0.59h-4.137l-4.727-5.317h-33.091l-4.732 5.318h-4.132l-0.591-0.591z" color="#000000" display="block" fill="#c8c8c8" overflow="visible" style="isolation:auto;mix-blend-mode:normal;paint-order:fill markers stroke"/>
  <path d="m15 27.5a1.5 1.5 0 1 1-3 0 1.5 1.5 0 0 1 3 0z" color="#000000" display="block" fill="url(#linearGradient1065)" overflow="visible" style="isolation:auto;mix-blend-mode:normal;paint-order:fill markers stroke"/>
  <circle cx="55.5" cy="22.5" r=".5" color="#000000" display="block" fill="#fff" overflow="visible" style="isolation:auto;mix-blend-mode:normal;paint-order:fill markers stroke"/>
  <path d="m16.637 37.534h30.726c0.69 0 1.182 0.492 1.182 1.182h-33.09c0-0.69 0.493-1.182 1.182-1.182z" color="#000000" display="block" fill-opacity=".417" overflow="visible" style="isolation:auto;mix-blend-mode:normal;paint-order:fill markers stroke"/>
  <rect x="48.273" y="25" width="6" height="2" ry="1" fill="#0e7def" opacity=".5" style="paint-order:markers stroke fill"/>
  <circle cx="53" cy="26" r="2" fill="url(#linearGradient1057)" style="paint-order:markers stroke fill"/>
  <g fill="#fff">
   <path d="m14 27.5a0.5 0.5 0 1 1-1 0 0.5 0.5 0 0 1 1 0z" color="#000000" display="block" fill-opacity=".924" overflow="visible" style="isolation:auto;mix-blend-mode:normal;paint-order:fill markers stroke"/>
   <circle cx="55.5" cy="42.5" r=".5" color="#000000" display="block" overflow="visible" style="isolation:auto;mix-blend-mode:normal;paint-order:fill markers stroke"/>
   <circle cx="8.5" cy="22.5" r=".5" color="#000000" display="block" overflow="visible" style="isolation:auto;mix-blend-mode:normal;paint-order:fill markers stroke"/>
   <circle cx="8.5" cy="42.5" r=".5" color="#000000" display="block" overflow="visible" style="isolation:auto;mix-blend-mode:normal;paint-order:fill markers stroke"/>
   <rect x="49" y="31" width="6" height="2" ry="1" opacity=".5" style="paint-order:markers stroke fill"/>
   <circle cx="50.273" cy="32" r="2" style="paint-order:markers stroke fill"/>
  </g>
 </g>
</svg>
