<?xml version="1.0" encoding="UTF-8"?>
<!-- Created with Inkscape (http://www.inkscape.org/) -->
<svg width="64" height="64" version="1.1" viewBox="0 0 16.933 16.933" xmlns="http://www.w3.org/2000/svg" xmlns:cc="http://creativecommons.org/ns#" xmlns:dc="http://purl.org/dc/elements/1.1/" xmlns:rdf="http://www.w3.org/1999/02/22-rdf-syntax-ns#" xmlns:xlink="http://www.w3.org/1999/xlink">
 <defs>
  <filter id="filter2761" x="-.024" y="-.024" width="1.048" height="1.048" color-interpolation-filters="sRGB">
   <feGaussianBlur stdDeviation="0.14552168"/>
  </filter>
  <linearGradient id="linearGradient991">
   <stop stop-color="#969696" offset="0"/>
   <stop stop-color="#e6e6e6" stop-opacity=".90196" offset="1"/>
  </linearGradient>
  <linearGradient id="linearGradient13510-3" x1="8.7643" x2="8.7643" y1="287.18" y2="287.64" gradientTransform="matrix(.81179 0 0 .47636 1.5779 -131.36)" gradientUnits="userSpaceOnUse" xlink:href="#linearGradient991"/>
  <linearGradient id="linearGradient13512" x1="8.3178" x2="8.3178" y1="289.36" y2="289.81" gradientTransform="matrix(.78232 0 0 .47636 1.8128 -134.31)" gradientUnits="userSpaceOnUse" xlink:href="#linearGradient991"/>
  <linearGradient id="linearGradient677348-3" x1="-6.1738" x2="-6.1738" y1="-126.08" y2="-126.7" gradientTransform="matrix(.52936 0 0 .54035 11.512 75.408)" gradientUnits="userSpaceOnUse">
   <stop stop-color="#198cff" offset="0"/>
   <stop stop-color="#195aff" offset="1"/>
  </linearGradient>
  <linearGradient id="linearGradient2771-5" x1="8.4084" x2="8.4084" y1="281.15" y2="295.88" gradientTransform="translate(-.14773 -280.07)" gradientUnits="userSpaceOnUse">
   <stop stop-color="#198cff" offset="0"/>
   <stop stop-color="#1964ff" offset="1"/>
  </linearGradient>
  <linearGradient id="linearGradient2725-2" x1="8.4084" x2="8.4084" y1="281.15" y2="295.88" gradientTransform="translate(-.1478 -280.07)" gradientUnits="userSpaceOnUse">
   <stop stop-color="#198cff" offset="0"/>
   <stop stop-color="#1964ff" offset="1"/>
  </linearGradient>
 </defs>
 <metadata>
  <rdf:RDF>
   <cc:Work rdf:about="">
    <dc:format>image/svg+xml</dc:format>
    <dc:type rdf:resource="http://purl.org/dc/dcmitype/StillImage"/>
    <dc:title/>
   </cc:Work>
  </rdf:RDF>
 </metadata>
 <path d="m10.709 1.05c4.405 0 5.0345 0.67282 5.0345 5.388v3.7761c0 4.7152-0.62954 5.388-5.0345 5.388h-4.4832c-4.405 0-5.0346-0.6728-5.0346-5.388v-3.7761c0-4.7152 0.62954-5.388 5.0346-5.388z" enable-background="new" fill="#141414" filter="url(#filter2761)" opacity=".3"/>
 <path d="m10.692 1.05c4.405 0 5.0345 0.67282 5.0345 5.388v3.7761c0 4.7152-0.62954 5.388-5.0345 5.388h-4.4832c-4.405 0-5.0346-0.6728-5.0346-5.388v-3.7761c0-4.7152 0.62954-5.388 5.0346-5.388z" enable-background="new" fill="url(#linearGradient2725-2)"/>
 <path d="m10.489 1.7114c4.0046 0 4.5768 0.61166 4.5768 4.8982v3.4328c0 4.2866-0.57231 4.8982-4.5768 4.8982h-4.0757c-4.0046 0-4.5769-0.61164-4.5769-4.8982v-3.4328c0-4.2866 0.57231-4.8982 4.5769-4.8982z" enable-background="new" fill="#fafafa" stroke-width=".90909"/>
 <path d="m2.0941 5.4766c-0.0083 0.04197-0.01343 0.08574-0.02139 0.12875h12.756c-0.0076-0.043002-0.01301-0.08681-0.02223-0.12875z" fill="url(#linearGradient13510-3)" opacity=".6" stroke-width=".85831" style="paint-order:normal"/>
 <path d="m2.3034 3.5593c0.00742 0.043002 0.014427 0.085926 0.022638 0.12875h12.251c0.0077-0.046263 0.01416-0.083085 0.02102-0.12875z" fill="url(#linearGradient13512)" opacity=".6" stroke-width=".8426" style="paint-order:normal"/>
 <path d="m8.234 5.0195c-0.293 0-0.38167 0.27567-0.52967 0.52967l-0.30798 0.52812h-6.2181c-9.73e-4 0.12127-0.0036 0.23413-0.0036 0.36121v3.7759c0 4.7152 0.62974 5.3877 5.0347 5.3877h4.4834c4.405 0 5.0342-0.67248 5.0342-5.3877v-3.7759c0-0.52382-0.0096-0.99035-0.02945-1.419z" enable-background="new" fill="url(#linearGradient2771-5)"/>
 <path d="m15.727 11.554-4.0312 4.0312c3.1176-0.10511 3.8959-0.84418 4.0312-4.0312z" enable-background="new" fill="#fff" opacity=".2"/>
 <path d="m1.4314 6.9805c-0.04516 0.091-0.08974 0.18276-0.13152 0.27537h14.353c-0.03997-0.0926-0.08778-0.18438-0.13102-0.27537z" fill="url(#linearGradient677348-3)" stroke-width=".1415"/>
 <circle cx="-373" cy="-331.1" r="0" fill="#5e4aa6" stroke-width=".26458"/>
 <g transform="translate(21.43 1.494)" stroke-width=".010411">
  <path d="m-12.98 6.739a2.5863 2.5863 0 0 0-0.09043 0.0031c0.05843-0.00201 0.11739-8.996e-4 0.17673 0.00103a2.5863 2.5863 0 0 0-0.0863-0.00413zm-0.15348 0.00568a2.5863 2.5863 0 0 0-0.12816 0.012919c0.04265-0.00464 0.08492-0.010387 0.12816-0.012919zm0.28371 0.00103c-1.3515 0.0852-2.4215 1.2067-2.4215 2.5797 0 1.3768 1.076 2.5022 2.4329 2.5817a2.5863 2.5863 0 0 0 2.4448-2.5817 2.5863 2.5863 0 0 0-2.4561-2.5797zm-0.55345 0.02894a2.5863 2.5863 0 0 0-0.09663 0.020153c0.03227-0.00661 0.06395-0.014764 0.09663-0.020153zm-0.26096 0.057361a2.5863 2.5863 0 0 0-0.05994 0.019119c0.0201-0.00605 0.03964-0.013554 0.05994-0.019119zm-0.24546 0.080096a2.5863 2.5863 0 0 0-0.06459 0.028421c0.02172-0.00908 0.04258-0.019928 0.06459-0.028421zm-0.23667 0.10542a2.5863 2.5863 0 0 0-0.05891 0.033072c0.01986-0.010726 0.03875-0.022857 0.05891-0.033072zm-0.22324 0.12712a2.5863 2.5863 0 0 0-0.07958 0.055811c0.02663-0.018457 0.05224-0.038343 0.07958-0.055811zm-0.20567 0.14624a2.5863 2.5863 0 0 0-0.11265 0.096633c0.03709-0.032723 0.07372-0.066052 0.11265-0.096633zm-0.1912 0.16588a2.5863 2.5863 0 0 0-0.1142 0.11937c0.03733-0.04055 0.07438-0.081282 0.1142-0.11937zm-0.17673 0.18655a2.5863 2.5863 0 0 0-0.0894 0.1142c0.02937-0.038385 0.05798-0.077556 0.0894-0.1142zm-0.16123 0.20877a2.5863 2.5863 0 0 0-0.05788 0.090949c0.01929-0.030384 0.03737-0.061443 0.05788-0.090949zm-0.13797 0.2222a2.5863 2.5863 0 0 0-0.04548 0.090949c0.01525-0.030289 0.02908-0.061359 0.04548-0.090949zm-0.11369 0.23151a2.5863 2.5863 0 0 0-0.03669 0.097667c0.01243-0.03249 0.02301-0.065822 0.03669-0.097667zm-0.09043 0.2434a2.5863 2.5863 0 0 0-0.03152 0.11834c0.01038-0.039491 0.01935-0.079612 0.03152-0.11834zm-0.06511 0.25063a2.5863 2.5863 0 0 0-0.03256 0.20567c0.0086-0.069256 0.01863-0.13823 0.03256-0.20567zm-0.03979 0.25528a2.5863 2.5863 0 0 0-0.01499 0.27027 2.5863 2.5863 0 0 0 0.01292 0.23409c-0.0069-0.077183-0.0124-0.15509-0.0124-0.23409 0-0.091399 0.0052-0.18133 0.01447-0.27027zm0.01137 0.617a2.5863 2.5863 0 0 0 0.02274 0.14418c-0.0092-0.04758-0.01623-0.095704-0.02274-0.14418zm0.05167 0.27077a2.5863 2.5863 0 0 0 0.03204 0.12092c-0.01185-0.03981-0.02208-0.080335-0.03204-0.12092zm0.07751 0.25838a2.5863 2.5863 0 0 0 0.03876 0.10232c-0.0138-0.03371-0.02636-0.06791-0.03876-0.10232zm0.10128 0.24133a2.5863 2.5863 0 0 0 0.04857 0.09715c-0.01701-0.03188-0.03288-0.06449-0.04857-0.09715zm0.1204 0.2222a2.5863 2.5863 0 0 0 0.06408 0.10128c-0.02231-0.03316-0.04329-0.06706-0.06408-0.10128zm0.13952 0.2067a2.5863 2.5863 0 0 0 0.08268 0.10594c-0.02862-0.03439-0.05585-0.07007-0.08268-0.10594zm0.15916 0.19275a2.5863 2.5863 0 0 0 0.09973 0.10438c-0.03435-0.03375-0.06731-0.06877-0.09973-0.10438zm0.18241 0.1819a2.5863 2.5863 0 0 0 0.10749 0.09198c-0.03672-0.02962-0.07246-0.06044-0.10749-0.09198zm0.2036 0.16536a2.5863 2.5863 0 0 0 0.10697 0.07493c-0.0364-0.02394-0.07188-0.04923-0.10697-0.07493zm0.22841 0.14934a2.5863 2.5863 0 0 0 0.09509 0.05271c-0.03216-0.01693-0.06374-0.03448-0.09509-0.05271zm0.22944 0.11782a2.5863 2.5863 0 0 0 0.1018 0.04444c-0.0344-0.01387-0.06815-0.02915-0.1018-0.04444zm0.23823 0.09457a2.5863 2.5863 0 0 0 0.11162 0.03514c-0.03764-0.01086-0.0747-0.02264-0.11162-0.03514zm0.25218 0.0708a2.5863 2.5863 0 0 0 0.11214 0.02377c-0.03776-0.0069-0.07496-0.01529-0.11214-0.02377zm0.25218 0.04496a2.5863 2.5863 0 0 0 0.13022 0.01292c-0.04367-0.0032-0.08718-0.0075-0.13022-0.01292zm0.44285 0.0186c-0.06247 0.0028-0.12403 0.0026-0.18552 1e-3a2.5863 2.5863 0 0 0 0.06666 0.0031 2.5863 2.5863 0 0 0 0.11886-0.0041z" fill="#fff" opacity=".2"/>
  <path d="m-11.095 11.219c1.0415-1.0414 1.0415-2.727 0-3.7686-1.0415-1.0415-2.7289-1.0397-3.7686 1.06e-5 -0.50332 0.50332-0.7805 1.1725-0.7805 1.8843 0 0.71178 0.27718 1.381 0.7805 1.8843 0.51571 0.51571 1.1912 0.78051 1.8843 0.78051 0.69316 0 1.3686-0.26483 1.8843-0.78051zm-4.3909-1.8059h1.0207c0.0053 0.33295 0.04423 0.65559 0.11381 0.95485-0.27336 0.09082-0.51777 0.20883-0.71871 0.34993-0.25256-0.38058-0.4011-0.82845-0.41574-1.3048zm1.891-2.509c-0.36148 0.29185-0.59351 0.79221-0.71807 1.2451-0.2538-0.085297-0.48042-0.19501-0.66648-0.32568 0.34568-0.45639 0.83137-0.77877 1.3845-0.9194zm2.6156 0.9194c-0.18605 0.13067-0.41268 0.2404-0.66648 0.32568-0.12442-0.4523-0.3563-0.95298-0.71809-1.2451 0.55267 0.14049 1.0386 0.46256 1.3845 0.9194zm0.44856 2.0533c-0.06436 0.29098-0.18145 0.57531-0.35788 0.84107-0.20093-0.1411-0.44535-0.25913-0.71871-0.34993 0.06956-0.2993 0.10851-0.62193 0.11381-0.95485h1.0207c-0.0048 0.15581-0.02359 0.30887-0.05786 0.46375zm-4.4487 0.96892c0.18605-0.13066 0.41265-0.24038 0.66644-0.32566 0.06831 0.24837 0.15861 0.47806 0.26904 0.6809 0.13077 0.24019 0.2828 0.42998 0.44904 0.56418-0.54422-0.13834-1.0323-0.45474-1.3845-0.9194zm0.81622-0.37237c0.33717-0.09672 0.71476-0.1522 1.1054-0.15876v1.5233c-0.58095-0.06487-0.94995-0.79634-1.1054-1.3646zm1.1054-3.6421v1.5233c-0.39061-0.0066-0.76821-0.06205-1.1054-0.15876 0.15497-0.56651 0.51964-1.2991 1.1054-1.3646zm0.15694 2.5818h1.2504c-0.0052 0.31714-0.04178 0.62399-0.10704 0.90845-0.35035-0.10004-0.74071-0.15737-1.1434-0.16397zm0-0.15694v-0.74452c0.40267-0.0066 0.79305-0.06392 1.1434-0.16397 0.06524 0.28448 0.10183 0.59135 0.10704 0.90845zm0-0.9015v-1.5233c0.58141 0.065001 0.94977 0.79567 1.1054 1.3646-0.33716 0.09671-0.71475 0.1522-1.1054 0.15876zm-0.15694 0.157v0.74452h-1.2504c0.0052-0.31715 0.04178-0.624 0.10704-0.90845 0.35035 0.10004 0.74072 0.15736 1.1434 0.16397zm0 0.90142v0.7445c-0.40268 0.0066-0.79306 0.06392-1.1434 0.16397-0.06524-0.28448-0.10183-0.59134-0.10704-0.90845zm0.15694 0.9015c0.39061 0.0066 0.76821 0.06205 1.1054 0.15876-0.06524 0.23852-0.15154 0.45866-0.2571 0.65253-0.23248 0.42702-0.5312 0.67657-0.84827 0.71202v-1.5233zm0.98611 0.88636c0.11043-0.20284 0.20073-0.43252 0.26904-0.6809 0.25379 0.08529 0.48039 0.195 0.66644 0.32567-0.34624 0.45677-0.83073 0.77865-1.3845 0.9194 0.16623-0.13421 0.31827-0.32401 0.44904-0.56419zm0.42127-1.9448c-0.0053-0.33295-0.04423-0.65559-0.11381-0.95494 0.27336-0.09082 0.51777-0.20883 0.71871-0.34993 0.24985 0.37638 0.40088 0.82373 0.41574 1.3048h-1.0207zm-3.5766-1.3048c0.20093 0.1411 0.44535 0.25912 0.71871 0.34993-0.06956 0.2993-0.1085 0.62194-0.11381 0.95494h-1.0207c0.01486-0.4811 0.16589-0.92849 0.41574-1.3048z" fill="#fafafa"/>
 </g>
</svg>
