<?xml version="1.0" encoding="UTF-8"?>
<!-- Created with Inkscape (http://www.inkscape.org/) -->
<svg width="64" height="64" version="1.1" viewBox="0 0 16.933 16.933" xmlns="http://www.w3.org/2000/svg" xmlns:cc="http://creativecommons.org/ns#" xmlns:dc="http://purl.org/dc/elements/1.1/" xmlns:rdf="http://www.w3.org/1999/02/22-rdf-syntax-ns#" xmlns:xlink="http://www.w3.org/1999/xlink">
 <defs>
  <filter id="filter2761" x="-.024" y="-.024" width="1.048" height="1.048" color-interpolation-filters="sRGB">
   <feGaussianBlur stdDeviation="0.14552168"/>
  </filter>
  <linearGradient id="linearGradient991">
   <stop stop-color="#969696" offset="0"/>
   <stop stop-color="#e6e6e6" stop-opacity=".90196" offset="1"/>
  </linearGradient>
  <linearGradient id="linearGradient13510-3" x1="8.7643" x2="8.7643" y1="287.18" y2="287.64" gradientTransform="matrix(.81179 0 0 .47636 1.5779 -131.36)" gradientUnits="userSpaceOnUse" xlink:href="#linearGradient991"/>
  <linearGradient id="linearGradient13512" x1="8.3178" x2="8.3178" y1="289.36" y2="289.81" gradientTransform="matrix(.78232 0 0 .47636 1.8128 -134.31)" gradientUnits="userSpaceOnUse" xlink:href="#linearGradient991"/>
  <linearGradient id="linearGradient677348-3" x1="-6.1738" x2="-6.1738" y1="-126.08" y2="-126.7" gradientTransform="matrix(.52936 0 0 .54035 11.512 75.408)" gradientUnits="userSpaceOnUse">
   <stop stop-color="#b9b9b9" offset="0"/>
   <stop stop-color="#7d7d7d" offset="1"/>
  </linearGradient>
  <linearGradient id="linearGradient2771-5" x1="8.4084" x2="8.4084" y1="281.15" y2="295.88" gradientTransform="translate(-.14773 -280.07)" gradientUnits="userSpaceOnUse">
   <stop stop-color="#b9b9b9" offset="0"/>
   <stop stop-color="#a5a5a5" offset="1"/>
  </linearGradient>
  <linearGradient id="linearGradient2725-9" x1="8.4084" x2="8.4084" y1="281.15" y2="295.88" gradientTransform="translate(-.1478 -280.07)" gradientUnits="userSpaceOnUse">
   <stop stop-color="#b9b9b9" offset="0"/>
   <stop stop-color="#a5a5a5" offset="1"/>
  </linearGradient>
 </defs>
 <metadata>
  <rdf:RDF>
   <cc:Work rdf:about="">
    <dc:format>image/svg+xml</dc:format>
    <dc:type rdf:resource="http://purl.org/dc/dcmitype/StillImage"/>
    <dc:title/>
   </cc:Work>
  </rdf:RDF>
 </metadata>
 <path d="m10.709 1.05c4.405 0 5.0345 0.67282 5.0345 5.388v3.7761c0 4.7152-0.62954 5.388-5.0345 5.388h-4.4832c-4.405 0-5.0346-0.6728-5.0346-5.388v-3.7761c0-4.7152 0.62954-5.388 5.0346-5.388z" enable-background="new" fill="#141414" filter="url(#filter2761)" opacity=".3"/>
 <path d="m10.692 1.05c4.405 0 5.0345 0.67282 5.0345 5.388v3.7761c0 4.7152-0.62954 5.388-5.0345 5.388h-4.4832c-4.405 0-5.0346-0.6728-5.0346-5.388v-3.7761c0-4.7152 0.62954-5.388 5.0346-5.388z" enable-background="new" fill="url(#linearGradient2725-9)"/>
 <path d="m10.489 1.7114c4.0046 0 4.5768 0.61166 4.5768 4.8982v3.4328c0 4.2866-0.57231 4.8982-4.5768 4.8982h-4.0757c-4.0046 0-4.5769-0.61164-4.5769-4.8982v-3.4328c0-4.2866 0.57231-4.8982 4.5769-4.8982z" enable-background="new" fill="#fafafa" stroke-width=".90909"/>
 <path d="m2.0941 5.4766c-0.0083 0.04197-0.01343 0.08574-0.02139 0.12875h12.756c-0.0076-0.043002-0.01301-0.08681-0.02223-0.12875z" fill="url(#linearGradient13510-3)" opacity=".6" stroke-width=".85831" style="paint-order:normal"/>
 <path d="m2.3034 3.5593c0.00742 0.043002 0.014427 0.085926 0.022638 0.12875h12.251c0.0077-0.046263 0.01416-0.083085 0.02102-0.12875z" fill="url(#linearGradient13512)" opacity=".6" stroke-width=".8426" style="paint-order:normal"/>
 <path d="m8.234 5.0195c-0.293 0-0.38167 0.27567-0.52967 0.52967l-0.30798 0.52812h-6.2181c-9.73e-4 0.12127-0.0036 0.23413-0.0036 0.36121v3.7759c0 4.7152 0.62974 5.3877 5.0347 5.3877h4.4834c4.405 0 5.0342-0.67248 5.0342-5.3877v-3.7759c0-0.52382-0.0096-0.99035-0.02945-1.419z" enable-background="new" fill="url(#linearGradient2771-5)"/>
 <path d="m15.727 11.554-4.0312 4.0312c3.1176-0.10511 3.8959-0.84418 4.0312-4.0312z" enable-background="new" fill="#fff" opacity=".2"/>
 <path d="m1.4314 6.9805c-0.04516 0.091-0.08974 0.18276-0.13152 0.27537h14.353c-0.03997-0.0926-0.08778-0.18438-0.13102-0.27537z" fill="url(#linearGradient677348-3)" stroke-width=".1415"/>
 <g id="Artboard" transform="matrix(.083278 0 0 .083278 -36.983 -3.428)" display="none">
  <rect x="-315" y="-207" width="1412" height="743" display="inline" fill="#8c8c8c"/>
 </g>
 <g id="R-Multicolor" transform="matrix(.083278 0 0 .083278 -36.983 -3.428)" display="none">
  <circle cx="55" cy="55" r="55" display="inline" fill="#32bea6"/>
  <g display="inline">
   <path d="m23 26.84c0-2.121 1.719-3.84 3.84-3.84h28.16l16 13.44v46.72c0 2.121-1.719 3.84-3.84 3.84h-40.32c-2.121 0-3.84-1.719-3.84-3.84z" fill="#fff"/>
   <path d="m55 23v9.6c0 2.121 1.719 3.84 3.84 3.84h12.16z" fill="#f0f1f1"/>
   <path d="m52 70h10c0.551 0 1-0.448 1-1v-5c0-0.552-0.449-1-1-1h-10c-0.551 0-1 0.448-1 1v5c0 0.552 0.449 1 1 1z" fill="#e2e4e5"/>
   <path d="m62 72h-10c-1.654 0-3-1.346-3-3v-5c0-1.654 1.346-3 3-3h10c1.654 0 3 1.346 3 3v5c0 1.654-1.346 3-3 3zm-10-9c-0.551 0-1 0.448-1 1v5c0 0.552 0.449 1 1 1h10c0.551 0 1-0.448 1-1v-5c0-0.552-0.449-1-1-1z" fill="#b6bcbd"/>
   <path d="m30 70h10c0.551 0 1-0.448 1-1v-5c0-0.552-0.449-1-1-1h-10c-0.551 0-1 0.448-1 1v5c0 0.552 0.449 1 1 1z" fill="#e2e4e5"/>
   <path d="m40 72h-10c-1.654 0-3-1.346-3-3v-5c0-1.654 1.346-3 3-3h10c1.654 0 3 1.346 3 3v5c0 1.654-1.346 3-3 3zm-10-9c-0.551 0-1 0.448-1 1v5c0 0.552 0.449 1 1 1h10c0.551 0 1-0.448 1-1v-5c0-0.552-0.449-1-1-1z" fill="#b6bcbd"/>
   <path d="m41 50h10c0.551 0 1-0.448 1-1v-5c0-0.552-0.449-1-1-1h-10c-0.551 0-1 0.448-1 1v5c0 0.552 0.449 1 1 1z" fill="#9ce5f4"/>
   <polygon points="50.272 52 48.014 52 52.728 61 54.986 61" fill="#cfd3d4"/>
   <polygon points="41.728 52 37.014 61 39.272 61 43.986 52" fill="#cfd3d4"/>
   <path d="m51 52h-10c-1.654 0-3-1.346-3-3v-5c0-1.654 1.346-3 3-3h10c1.654 0 3 1.346 3 3v5c0 1.654-1.346 3-3 3zm-10-9c-0.551 0-1 0.448-1 1v5c0 0.552 0.449 1 1 1h10c0.551 0 1-0.448 1-1v-5c0-0.552-0.449-1-1-1z" fill="#40c9e7"/>
   <path d="m84.144 57.498-21.203 23.968-5.877 1.21c-0.17-0.818-0.593-1.593-1.267-2.189s-1.495-0.922-2.328-0.991l0.484-5.981 21.203-23.967z" fill="#f4d0a1"/>
   <path d="m84.115 57.473c0.016 0.014 0.017 0.038 3e-3 0.054l-20.721 23.423c-0.033 0.038-0.086-2e-3 -0.062-0.047 0.651-1.2 0.414-2.728-0.653-3.672-1.126-0.996-2.785-0.995-3.905-0.062-0.032 0.027-0.075-0.011-0.052-0.046 0.79-1.225 0.589-2.871-0.537-3.868-1.079-0.955-2.648-0.993-3.762-0.173-0.036 0.027-0.077-0.015-0.047-0.049l20.752-23.458c0.014-0.016 0.038-0.017 0.054-3e-3z" fill="#059bbf"/>
   <rect transform="matrix(.749 .6626 -.6626 .749 55.127 -39.967)" x="74.313" y="51.774" width="12" height="2" fill="#facb1b"/>
   <path d="m84.996 47.571-0.09-0.08c-2.457-2.174-6.211-1.944-8.385 0.513l-0.04 0.045 8.988 7.951 0.04-0.045c2.174-2.457 1.944-6.211-0.513-8.384z" fill="#f79392"/>
   <path d="m84.119 57.527-20.748 23.452c-0.03 0.034-0.077-2e-3 -0.055-0.042 0.674-1.205 0.444-2.753-0.634-3.707-1.124-0.994-2.777-0.995-3.897-0.068-0.019 0.015-0.041-8e-3 -0.025-0.026l20.865-23.586c0.014-0.016 0.038-0.017 0.053-3e-3l4.437 3.925c0.016 0.015 0.018 0.039 4e-3 0.055z" fill="#0484ab"/>
   <path d="m57.064 82.675-3.918 0.807 0.323-3.987c0.833 0.069 1.654 0.395 2.328 0.991s1.097 1.371 1.267 2.189z" fill="#3e3e3f"/>
  </g>
 </g>
 <g id="Blue" transform="matrix(.083278 0 0 .083278 -36.983 -3.428)" display="none">
  <g display="inline">
   <path d="m23 26.84c0-2.121 1.719-3.84 3.84-3.84h28.16l16 13.44v46.72c0 2.121-1.719 3.84-3.84 3.84h-40.32c-2.121 0-3.84-1.719-3.84-3.84z" fill="#fff"/>
   <g fill="#bbe7f2">
    <path d="m55 23v9.6c0 2.121 1.719 3.84 3.84 3.84h12.16z"/>
    <path d="m62 72h-10c-1.654 0-3-1.346-3-3v-5c0-1.654 1.346-3 3-3h10c1.654 0 3 1.346 3 3v5c0 1.654-1.346 3-3 3zm-10-9c-0.551 0-1 0.449-1 1v5c0 0.552 0.449 1 1 1h10c0.551 0 1-0.448 1-1v-5c0-0.551-0.449-1-1-1z"/>
    <path d="m40 72h-10c-1.654 0-3-1.346-3-3v-5c0-1.654 1.346-3 3-3h10c1.654 0 3 1.346 3 3v5c0 1.654-1.346 3-3 3zm-10-9c-0.551 0-1 0.449-1 1v5c0 0.552 0.449 1 1 1h10c0.551 0 1-0.448 1-1v-5c0-0.551-0.449-1-1-1z"/>
    <polygon points="50.271 52 48.014 52 52.728 61 54.986 61"/>
    <polygon points="41.728 52 37.014 61 39.271 61 43.986 52"/>
    <path d="m51 52h-10c-1.654 0-3-1.346-3-3v-5c0-1.654 1.346-3 3-3h10c1.654 0 3 1.346 3 3v5c0 1.654-1.346 3-3 3zm-10-9c-0.551 0-1 0.449-1 1v5c0 0.552 0.449 1 1 1h10c0.551 0 1-0.448 1-1v-5c0-0.551-0.449-1-1-1z"/>
   </g>
   <path d="m84.144 57.499-21.203 23.967-5.877 1.209c-0.17-0.818-0.593-1.593-1.267-2.189s-1.495-0.921-2.328-0.991l0.484-5.98 21.203-23.967z" fill="#e1f5fa"/>
   <path d="m84.115 57.473c0.016 0.014 0.018 0.038 4e-3 0.054l-20.722 23.423c-0.034 0.038-0.087-2e-3 -0.063-0.047 0.651-1.2 0.415-2.728-0.652-3.672-1.126-0.996-2.785-0.995-3.905-0.062-0.032 0.026-0.075-0.011-0.052-0.046 0.79-1.225 0.589-2.872-0.538-3.868-1.079-0.955-2.647-0.993-3.761-0.174-0.036 0.027-0.077-0.015-0.047-0.048l20.752-23.458c0.014-0.016 0.038-0.018 0.054-3e-3z" fill="#009fc7"/>
   <rect transform="matrix(.749 .6626 -.6626 .749 55.127 -39.967)" x="74.313" y="51.774" width="12" height="2" fill="#53bad4"/>
   <path d="m84.996 47.571-0.09-0.08c-2.457-2.174-6.211-1.944-8.385 0.513l-0.04 0.045 8.988 7.951 0.04-0.045c2.174-2.456 1.944-6.21-0.513-8.384z" fill="#fff"/>
   <path d="m84.119 57.527-20.748 23.452c-0.03 0.034-0.077-2e-3 -0.055-0.042 0.674-1.205 0.444-2.753-0.634-3.706-1.124-0.994-2.778-0.995-3.897-0.068-0.019 0.016-0.041-8e-3 -0.025-0.025l20.865-23.586c0.014-0.016 0.038-0.018 0.054-3e-3l4.438 3.925c0.014 0.013 0.016 0.037 2e-3 0.053z" fill="#0081a1"/>
   <path d="m57.064 82.675-3.917 0.807 0.323-3.987c0.833 0.069 1.653 0.395 2.328 0.991 0.673 0.597 1.096 1.371 1.266 2.189z" fill="#0c333d"/>
  </g>
 </g>
 <g id="R-Blue" transform="matrix(.083278 0 0 .083278 -36.983 -3.428)" display="none">
  <g display="inline">
   <circle cx="55" cy="55" r="55" fill="#81d2eb"/>
  </g>
  <g display="inline">
   <path d="m23 26.84c0-2.121 1.719-3.84 3.84-3.84h28.16l16 13.44v46.72c0 2.121-1.719 3.84-3.84 3.84h-40.32c-2.121 0-3.84-1.719-3.84-3.84z" fill="#fff"/>
   <g fill="#bbe7f2">
    <path d="m55 23v9.6c0 2.121 1.719 3.84 3.84 3.84h12.16z"/>
    <path d="m62 72h-10c-1.654 0-3-1.346-3-3v-5c0-1.654 1.346-3 3-3h10c1.654 0 3 1.346 3 3v5c0 1.654-1.346 3-3 3zm-10-9c-0.551 0-1 0.449-1 1v5c0 0.552 0.449 1 1 1h10c0.551 0 1-0.448 1-1v-5c0-0.551-0.449-1-1-1z"/>
    <path d="m40 72h-10c-1.654 0-3-1.346-3-3v-5c0-1.654 1.346-3 3-3h10c1.654 0 3 1.346 3 3v5c0 1.654-1.346 3-3 3zm-10-9c-0.551 0-1 0.449-1 1v5c0 0.552 0.449 1 1 1h10c0.551 0 1-0.448 1-1v-5c0-0.551-0.449-1-1-1z"/>
    <polygon points="50.271 52 48.014 52 52.728 61 54.986 61"/>
    <polygon points="41.728 52 37.014 61 39.271 61 43.986 52"/>
    <path d="m51 52h-10c-1.654 0-3-1.346-3-3v-5c0-1.654 1.346-3 3-3h10c1.654 0 3 1.346 3 3v5c0 1.654-1.346 3-3 3zm-10-9c-0.551 0-1 0.449-1 1v5c0 0.552 0.449 1 1 1h10c0.551 0 1-0.448 1-1v-5c0-0.551-0.449-1-1-1z"/>
   </g>
   <path d="m84.144 57.499-21.203 23.967-5.877 1.209c-0.17-0.818-0.593-1.593-1.267-2.189s-1.495-0.921-2.328-0.991l0.484-5.98 21.203-23.967z" fill="#e1f5fa"/>
   <path d="m84.115 57.473c0.016 0.014 0.018 0.038 4e-3 0.054l-20.722 23.423c-0.034 0.038-0.087-2e-3 -0.063-0.047 0.651-1.2 0.415-2.728-0.652-3.672-1.126-0.996-2.785-0.995-3.905-0.062-0.032 0.026-0.075-0.011-0.052-0.046 0.79-1.225 0.589-2.872-0.538-3.868-1.079-0.955-2.647-0.993-3.761-0.174-0.036 0.027-0.077-0.015-0.047-0.048l20.752-23.458c0.014-0.016 0.038-0.018 0.054-3e-3z" fill="#009fc7"/>
   <rect transform="matrix(.749 .6626 -.6626 .749 55.127 -39.967)" x="74.313" y="51.774" width="12" height="2" fill="#53bad4"/>
   <path d="m84.996 47.571-0.09-0.08c-2.457-2.174-6.211-1.944-8.385 0.513l-0.04 0.045 8.988 7.951 0.04-0.045c2.174-2.456 1.944-6.21-0.513-8.384z" fill="#fff"/>
   <path d="m84.119 57.527-20.748 23.452c-0.03 0.034-0.077-2e-3 -0.055-0.042 0.674-1.205 0.444-2.753-0.634-3.706-1.124-0.994-2.778-0.995-3.897-0.068-0.019 0.016-0.041-8e-3 -0.025-0.025l20.865-23.586c0.014-0.016 0.038-0.018 0.054-3e-3l4.438 3.925c0.014 0.013 0.016 0.037 2e-3 0.053z" fill="#0081a1"/>
   <path d="m57.064 82.675-3.917 0.807 0.323-3.987c0.833 0.069 1.653 0.395 2.328 0.991 0.673 0.597 1.096 1.371 1.266 2.189z" fill="#0c333d"/>
  </g>
 </g>
 <g id="Green" transform="matrix(.083278 0 0 .083278 -36.983 -3.428)" display="none">
  <g display="inline">
   <path d="m23 26.84c0-2.121 1.719-3.84 3.84-3.84h28.16l16 13.44v46.72c0 2.121-1.719 3.84-3.84 3.84h-40.32c-2.121 0-3.84-1.719-3.84-3.84z" fill="#fff"/>
   <g fill="#aaf0e9">
    <path d="m55 23v9.6c0 2.121 1.719 3.84 3.84 3.84h12.16z"/>
    <path d="m62 72h-10c-1.654 0-3-1.346-3-3v-5c0-1.654 1.346-3 3-3h10c1.654 0 3 1.346 3 3v5c0 1.654-1.346 3-3 3zm-10-9c-0.551 0-1 0.449-1 1v5c0 0.552 0.449 1 1 1h10c0.551 0 1-0.448 1-1v-5c0-0.551-0.449-1-1-1z"/>
    <path d="m40 72h-10c-1.654 0-3-1.346-3-3v-5c0-1.654 1.346-3 3-3h10c1.654 0 3 1.346 3 3v5c0 1.654-1.346 3-3 3zm-10-9c-0.551 0-1 0.449-1 1v5c0 0.552 0.449 1 1 1h10c0.551 0 1-0.448 1-1v-5c0-0.551-0.449-1-1-1z"/>
    <polygon points="50.271 52 48.014 52 52.727 61 54.986 61"/>
    <polygon points="41.727 52 37.014 61 39.271 61 43.986 52"/>
    <path d="m51 52h-10c-1.654 0-3-1.346-3-3v-5c0-1.654 1.346-3 3-3h10c1.654 0 3 1.346 3 3v5c0 1.654-1.346 3-3 3zm-10-9c-0.551 0-1 0.449-1 1v5c0 0.552 0.449 1 1 1h10c0.551 0 1-0.448 1-1v-5c0-0.551-0.449-1-1-1z"/>
   </g>
   <path d="m84.144 57.499-21.203 23.967-5.877 1.209c-0.17-0.818-0.593-1.593-1.267-2.189s-1.495-0.921-2.328-0.991l0.484-5.98 21.203-23.967z" fill="#d7fcf9"/>
   <path d="m84.115 57.473c0.016 0.014 0.018 0.038 4e-3 0.054l-20.722 23.423c-0.034 0.038-0.087-2e-3 -0.063-0.047 0.651-1.2 0.415-2.728-0.652-3.672-1.126-0.996-2.785-0.995-3.905-0.062-0.032 0.026-0.075-0.011-0.052-0.046 0.79-1.225 0.589-2.872-0.538-3.868-1.079-0.955-2.647-0.993-3.761-0.174-0.036 0.027-0.077-0.015-0.047-0.048l20.752-23.458c0.014-0.016 0.038-0.018 0.054-3e-3z" fill="#00b8a5"/>
   <rect transform="matrix(.749 .6626 -.6626 .749 55.127 -39.967)" x="74.313" y="51.774" width="12" height="2" fill="#5dcfc3"/>
   <path d="m84.996 47.571-0.09-0.08c-2.457-2.174-6.211-1.944-8.385 0.513l-0.04 0.045 8.988 7.951 0.04-0.045c2.174-2.456 1.944-6.21-0.513-8.384z" fill="#fff"/>
   <path d="m84.119 57.527-20.748 23.452c-0.03 0.034-0.077-2e-3 -0.055-0.042 0.674-1.205 0.444-2.753-0.634-3.706-1.124-0.994-2.778-0.995-3.897-0.068-0.019 0.016-0.041-8e-3 -0.025-0.025l20.865-23.586c0.014-0.016 0.038-0.018 0.054-3e-3l4.438 3.925c0.014 0.013 0.016 0.037 2e-3 0.053z" fill="#009687"/>
   <path d="m57.064 82.675-3.917 0.807 0.323-3.987c0.833 0.069 1.653 0.395 2.328 0.991 0.673 0.597 1.096 1.371 1.266 2.189z" fill="#0a3631"/>
  </g>
 </g>
 <g id="R-Green" transform="matrix(.083278 0 0 .083278 -36.983 -3.428)" display="none">
  <g display="inline">
   <circle cx="55" cy="55" r="55" fill="#87e0c8"/>
  </g>
  <g display="inline">
   <path d="m23 26.84c0-2.121 1.719-3.84 3.84-3.84h28.16l16 13.44v46.72c0 2.121-1.72 3.84-3.84 3.84h-40.32c-2.121 0-3.84-1.719-3.84-3.84z" fill="#fff"/>
   <g fill="#aaf0e9">
    <path d="m55 23v9.6c0 2.121 1.719 3.84 3.84 3.84h12.16z"/>
    <path d="m62 72h-10c-1.654 0-3-1.346-3-3v-5c0-1.654 1.346-3 3-3h10c1.654 0 3 1.346 3 3v5c0 1.654-1.346 3-3 3zm-10-9c-0.551 0-1 0.449-1 1v5c0 0.552 0.449 1 1 1h10c0.551 0 1-0.448 1-1v-5c0-0.551-0.449-1-1-1z"/>
    <path d="m40 72h-10c-1.654 0-3-1.346-3-3v-5c0-1.654 1.346-3 3-3h10c1.654 0 3 1.346 3 3v5c0 1.654-1.346 3-3 3zm-10-9c-0.551 0-1 0.449-1 1v5c0 0.552 0.449 1 1 1h10c0.551 0 1-0.448 1-1v-5c0-0.551-0.449-1-1-1z"/>
    <polygon points="50.271 52 48.014 52 52.727 61 54.986 61"/>
    <polygon points="41.727 52 37.013 61 39.271 61 43.985 52"/>
    <path d="m51 52h-10c-1.654 0-3-1.346-3-3v-5c0-1.654 1.346-3 3-3h10c1.654 0 3 1.346 3 3v5c0 1.654-1.346 3-3 3zm-10-9c-0.551 0-1 0.449-1 1v5c0 0.552 0.449 1 1 1h10c0.551 0 1-0.448 1-1v-5c0-0.551-0.449-1-1-1z"/>
   </g>
   <path d="m84.144 57.499-21.203 23.967-5.877 1.209c-0.17-0.818-0.593-1.593-1.267-2.189s-1.495-0.921-2.328-0.991l0.484-5.98 21.203-23.967z" fill="#d7fcf9"/>
   <path d="m84.115 57.473c0.016 0.014 0.018 0.038 4e-3 0.054l-20.722 23.423c-0.034 0.038-0.087-2e-3 -0.063-0.047 0.651-1.2 0.415-2.728-0.652-3.672-1.126-0.996-2.785-0.995-3.905-0.062-0.032 0.026-0.075-0.011-0.052-0.046 0.79-1.225 0.589-2.872-0.538-3.868-1.079-0.955-2.647-0.993-3.761-0.174-0.036 0.027-0.077-0.015-0.047-0.048l20.752-23.458c0.014-0.016 0.038-0.018 0.054-3e-3z" fill="#00b8a5"/>
   <rect transform="matrix(.749 .6626 -.6626 .749 55.127 -39.967)" x="74.312" y="51.774" width="12" height="2" fill="#5dcfc3"/>
   <path d="m84.995 47.571-0.09-0.08c-2.457-2.174-6.211-1.944-8.385 0.513l-0.04 0.045 8.988 7.951 0.04-0.045c2.174-2.456 1.944-6.21-0.513-8.384z" fill="#fff"/>
   <path d="m84.118 57.527-20.747 23.452c-0.03 0.034-0.077-2e-3 -0.055-0.042 0.674-1.205 0.444-2.753-0.634-3.706-1.124-0.994-2.778-0.995-3.897-0.068-0.019 0.016-0.041-8e-3 -0.025-0.025l20.865-23.586c0.014-0.016 0.038-0.018 0.054-3e-3l4.438 3.925c0.014 0.013 0.015 0.037 1e-3 0.053z" fill="#009687"/>
   <path d="m57.064 82.675-3.917 0.807 0.323-3.987c0.833 0.069 1.653 0.395 2.328 0.991 0.672 0.597 1.095 1.371 1.266 2.189z" fill="#0a3631"/>
  </g>
 </g>
 <g id="Red" transform="matrix(.083278 0 0 .083278 -36.983 -3.428)" display="none">
  <g display="inline">
   <path d="m22.896 26.84c0-2.121 1.719-3.84 3.84-3.84h28.16l16 13.44v46.72c0 2.121-1.719 3.84-3.84 3.84h-40.32c-2.121 0-3.84-1.719-3.84-3.84z" fill="#fff"/>
   <g fill="#ffd7d4">
    <path d="m54.896 23v9.6c0 2.121 1.719 3.84 3.84 3.84h12.16z"/>
    <path d="m61.896 72h-10c-1.654 0-3-1.346-3-3v-5c0-1.654 1.346-3 3-3h10c1.654 0 3 1.346 3 3v5c0 1.654-1.346 3-3 3zm-10-9c-0.551 0-1 0.449-1 1v5c0 0.552 0.449 1 1 1h10c0.551 0 1-0.448 1-1v-5c0-0.551-0.449-1-1-1z"/>
    <path d="m39.896 72h-10c-1.654 0-3-1.346-3-3v-5c0-1.654 1.346-3 3-3h10c1.654 0 3 1.346 3 3v5c0 1.654-1.346 3-3 3zm-10-9c-0.551 0-1 0.449-1 1v5c0 0.552 0.449 1 1 1h10c0.551 0 1-0.448 1-1v-5c0-0.551-0.449-1-1-1z"/>
    <polygon points="50.167 52 47.91 52 52.624 61 54.882 61"/>
    <polygon points="41.624 52 36.91 61 39.167 61 43.882 52"/>
    <path d="m50.896 52h-10c-1.654 0-3-1.346-3-3v-5c0-1.654 1.346-3 3-3h10c1.654 0 3 1.346 3 3v5c0 1.654-1.346 3-3 3zm-10-9c-0.551 0-1 0.449-1 1v5c0 0.552 0.449 1 1 1h10c0.551 0 1-0.448 1-1v-5c0-0.551-0.449-1-1-1z"/>
   </g>
   <path d="m84.04 57.499-21.203 23.967-5.877 1.209c-0.17-0.818-0.593-1.593-1.267-2.189s-1.495-0.921-2.328-0.991l0.484-5.98 21.203-23.967z" fill="#ffefed"/>
   <path d="m84.011 57.473c0.016 0.014 0.018 0.038 4e-3 0.054l-20.722 23.423c-0.034 0.038-0.087-2e-3 -0.063-0.047 0.651-1.2 0.415-2.728-0.652-3.672-1.126-0.996-2.785-0.995-3.905-0.062-0.032 0.026-0.075-0.011-0.052-0.046 0.79-1.225 0.589-2.872-0.538-3.868-1.079-0.955-2.647-0.993-3.761-0.174-0.036 0.027-0.077-0.015-0.047-0.048l20.752-23.458c0.014-0.016 0.038-0.018 0.054-3e-3z" fill="#e54b44"/>
   <rect transform="matrix(.749 .6626 -.6626 .749 55.101 -39.898)" x="74.209" y="51.774" width="12" height="2" fill="#e8a099"/>
   <path d="m84.892 47.571-0.09-0.08c-2.457-2.174-6.211-1.944-8.385 0.513l-0.04 0.045 8.988 7.951 0.04-0.045c2.174-2.456 1.944-6.21-0.513-8.384z" fill="#fff"/>
   <path d="m84.015 57.527-20.748 23.452c-0.03 0.034-0.077-2e-3 -0.055-0.042 0.674-1.205 0.444-2.753-0.634-3.706-1.124-0.994-2.778-0.995-3.897-0.068-0.019 0.016-0.041-8e-3 -0.025-0.025l20.865-23.586c0.014-0.016 0.038-0.018 0.054-3e-3l4.438 3.925c0.014 0.013 0.016 0.037 2e-3 0.053z" fill="#c23023"/>
   <path d="m56.96 82.675-3.917 0.807 0.323-3.987c0.833 0.069 1.653 0.395 2.328 0.991 0.673 0.597 1.096 1.371 1.266 2.189z" fill="#4a1410"/>
  </g>
 </g>
 <g id="R-Red" transform="matrix(.083278 0 0 .083278 -36.983 -3.428)" display="none">
  <g display="inline">
   <circle cx="55" cy="55" r="55" fill="#fabbaf"/>
  </g>
  <g display="inline">
   <path d="m23 26.84c0-2.121 1.719-3.84 3.84-3.84h28.16l16 13.44v46.72c0 2.121-1.719 3.84-3.84 3.84h-40.32c-2.121 0-3.84-1.719-3.84-3.84z" fill="#fff"/>
   <g fill="#ffd7d4">
    <path d="m55 23v9.6c0 2.121 1.719 3.84 3.84 3.84h12.16z"/>
    <path d="m62 72h-10c-1.654 0-3-1.346-3-3v-5c0-1.654 1.346-3 3-3h10c1.654 0 3 1.346 3 3v5c0 1.654-1.346 3-3 3zm-10-9c-0.551 0-1 0.449-1 1v5c0 0.552 0.449 1 1 1h10c0.551 0 1-0.448 1-1v-5c0-0.551-0.449-1-1-1z"/>
    <path d="m40 72h-10c-1.654 0-3-1.346-3-3v-5c0-1.654 1.346-3 3-3h10c1.654 0 3 1.346 3 3v5c0 1.654-1.346 3-3 3zm-10-9c-0.551 0-1 0.449-1 1v5c0 0.552 0.449 1 1 1h10c0.551 0 1-0.448 1-1v-5c0-0.551-0.449-1-1-1z"/>
    <polygon points="50.271 52 48.014 52 52.728 61 54.986 61"/>
    <polygon points="41.728 52 37.014 61 39.271 61 43.986 52"/>
    <path d="m51 52h-10c-1.654 0-3-1.346-3-3v-5c0-1.654 1.346-3 3-3h10c1.654 0 3 1.346 3 3v5c0 1.654-1.346 3-3 3zm-10-9c-0.551 0-1 0.449-1 1v5c0 0.552 0.449 1 1 1h10c0.551 0 1-0.448 1-1v-5c0-0.551-0.449-1-1-1z"/>
   </g>
   <path d="m84.144 57.499-21.203 23.967-5.877 1.209c-0.17-0.818-0.593-1.593-1.267-2.189s-1.495-0.921-2.328-0.991l0.484-5.98 21.203-23.967z" fill="#ffefed"/>
   <path d="m84.115 57.473c0.016 0.014 0.018 0.038 4e-3 0.054l-20.722 23.423c-0.034 0.038-0.087-2e-3 -0.063-0.047 0.651-1.2 0.415-2.728-0.652-3.672-1.126-0.996-2.785-0.995-3.905-0.062-0.032 0.026-0.075-0.011-0.052-0.046 0.79-1.225 0.589-2.872-0.538-3.868-1.079-0.955-2.647-0.993-3.761-0.174-0.036 0.027-0.077-0.015-0.047-0.048l20.752-23.458c0.014-0.016 0.038-0.018 0.054-3e-3z" fill="#e54b44"/>
   <rect transform="matrix(.749 .6626 -.6626 .749 55.127 -39.967)" x="74.313" y="51.774" width="12" height="2" fill="#e8a099"/>
   <path d="m84.996 47.571-0.09-0.08c-2.457-2.174-6.211-1.944-8.385 0.513l-0.04 0.045 8.988 7.951 0.04-0.045c2.174-2.456 1.944-6.21-0.513-8.384z" fill="#fff"/>
   <path d="m84.119 57.527-20.748 23.452c-0.03 0.034-0.077-2e-3 -0.055-0.042 0.674-1.205 0.444-2.753-0.634-3.706-1.124-0.994-2.778-0.995-3.897-0.068-0.019 0.016-0.041-8e-3 -0.025-0.025l20.865-23.586c0.014-0.016 0.038-0.018 0.054-3e-3l4.438 3.925c0.014 0.013 0.016 0.037 2e-3 0.053z" fill="#c23023"/>
   <path d="m57.064 82.675-3.917 0.807 0.323-3.987c0.833 0.069 1.653 0.395 2.328 0.991 0.673 0.597 1.096 1.371 1.266 2.189z" fill="#4a1410"/>
  </g>
 </g>
 <g id="Yellow" transform="matrix(.083278 0 0 .083278 -36.983 -3.428)" display="none">
  <g display="inline">
   <path d="m22.896 26.84c0-2.121 1.719-3.84 3.84-3.84h28.16l16 13.44v46.72c0 2.121-1.719 3.84-3.84 3.84h-40.32c-2.121 0-3.84-1.719-3.84-3.84z" fill="#fff"/>
   <g fill="#ffe9a1">
    <path d="m54.896 23v9.6c0 2.121 1.719 3.84 3.84 3.84h12.16z"/>
    <path d="m61.896 72h-10c-1.654 0-3-1.346-3-3v-5c0-1.654 1.346-3 3-3h10c1.654 0 3 1.346 3 3v5c0 1.654-1.346 3-3 3zm-10-9c-0.551 0-1 0.449-1 1v5c0 0.552 0.449 1 1 1h10c0.551 0 1-0.448 1-1v-5c0-0.551-0.449-1-1-1z"/>
    <path d="m39.896 72h-10c-1.654 0-3-1.346-3-3v-5c0-1.654 1.346-3 3-3h10c1.654 0 3 1.346 3 3v5c0 1.654-1.346 3-3 3zm-10-9c-0.551 0-1 0.449-1 1v5c0 0.552 0.449 1 1 1h10c0.551 0 1-0.448 1-1v-5c0-0.551-0.449-1-1-1z"/>
    <polygon points="50.167 52 47.91 52 52.624 61 54.882 61"/>
    <polygon points="41.624 52 36.91 61 39.167 61 43.882 52"/>
    <path d="m50.896 52h-10c-1.654 0-3-1.346-3-3v-5c0-1.654 1.346-3 3-3h10c1.654 0 3 1.346 3 3v5c0 1.654-1.346 3-3 3zm-10-9c-0.551 0-1 0.449-1 1v5c0 0.552 0.449 1 1 1h10c0.551 0 1-0.448 1-1v-5c0-0.551-0.449-1-1-1z"/>
   </g>
   <path d="m84.04 57.499-21.203 23.967-5.877 1.209c-0.17-0.818-0.593-1.593-1.267-2.189s-1.495-0.921-2.328-0.991l0.484-5.98 21.203-23.967z" fill="#fff5d9"/>
   <path d="m84.011 57.473c0.016 0.014 0.018 0.038 4e-3 0.054l-20.722 23.423c-0.034 0.038-0.087-2e-3 -0.063-0.047 0.651-1.2 0.415-2.728-0.652-3.672-1.126-0.996-2.785-0.995-3.905-0.062-0.032 0.026-0.075-0.011-0.052-0.046 0.79-1.225 0.589-2.872-0.538-3.868-1.079-0.955-2.647-0.993-3.761-0.174-0.036 0.027-0.077-0.015-0.047-0.048l20.752-23.458c0.014-0.016 0.038-0.018 0.054-3e-3z" fill="#fa9200"/>
   <rect transform="matrix(.749 .6626 -.6626 .749 55.101 -39.898)" x="74.209" y="51.774" width="12" height="2" fill="#f5c43d"/>
   <path d="m84.892 47.571-0.09-0.08c-2.457-2.174-6.211-1.944-8.385 0.513l-0.04 0.045 8.988 7.951 0.04-0.045c2.174-2.456 1.944-6.21-0.513-8.384z" fill="#fff"/>
   <path d="m84.015 57.527-20.748 23.452c-0.03 0.034-0.077-2e-3 -0.055-0.042 0.674-1.205 0.444-2.753-0.634-3.706-1.124-0.994-2.778-0.995-3.897-0.068-0.019 0.016-0.041-8e-3 -0.025-0.025l20.865-23.586c0.014-0.016 0.038-0.018 0.054-3e-3l4.438 3.925c0.014 0.013 0.016 0.037 2e-3 0.053z" fill="#e07000"/>
   <path d="m56.96 82.675-3.917 0.807 0.323-3.987c0.833 0.069 1.653 0.395 2.328 0.991 0.673 0.597 1.096 1.371 1.266 2.189z" fill="#3d320c"/>
  </g>
 </g>
 <g id="R-Yellow" transform="matrix(.083278 0 0 .083278 -36.983 -3.428)" display="none">
  <g display="inline">
   <circle cx="55" cy="55" r="55" fill="#ffd75e"/>
  </g>
  <g display="inline">
   <path d="m23 26.84c0-2.121 1.719-3.84 3.84-3.84h28.16l16 13.44v46.72c0 2.121-1.719 3.84-3.84 3.84h-40.32c-2.121 0-3.84-1.719-3.84-3.84z" fill="#fff"/>
   <g fill="#ffe9a1">
    <path d="m55 23v9.6c0 2.121 1.719 3.84 3.84 3.84h12.16z"/>
    <path d="m62 72h-10c-1.654 0-3-1.346-3-3v-5c0-1.654 1.346-3 3-3h10c1.654 0 3 1.346 3 3v5c0 1.654-1.346 3-3 3zm-10-9c-0.551 0-1 0.449-1 1v5c0 0.552 0.449 1 1 1h10c0.551 0 1-0.448 1-1v-5c0-0.551-0.449-1-1-1z"/>
    <path d="m40 72h-10c-1.654 0-3-1.346-3-3v-5c0-1.654 1.346-3 3-3h10c1.654 0 3 1.346 3 3v5c0 1.654-1.346 3-3 3zm-10-9c-0.551 0-1 0.449-1 1v5c0 0.552 0.449 1 1 1h10c0.551 0 1-0.448 1-1v-5c0-0.551-0.449-1-1-1z"/>
    <polygon points="50.271 52 48.014 52 52.728 61 54.986 61"/>
    <polygon points="41.728 52 37.014 61 39.271 61 43.986 52"/>
    <path d="m51 52h-10c-1.654 0-3-1.346-3-3v-5c0-1.654 1.346-3 3-3h10c1.654 0 3 1.346 3 3v5c0 1.654-1.346 3-3 3zm-10-9c-0.551 0-1 0.449-1 1v5c0 0.552 0.449 1 1 1h10c0.551 0 1-0.448 1-1v-5c0-0.551-0.449-1-1-1z"/>
   </g>
   <path d="m84.144 57.499-21.203 23.967-5.877 1.209c-0.17-0.818-0.593-1.593-1.267-2.189s-1.495-0.921-2.328-0.991l0.484-5.98 21.203-23.967z" fill="#fff5d9"/>
   <path d="m84.115 57.473c0.016 0.014 0.018 0.038 4e-3 0.054l-20.722 23.423c-0.034 0.038-0.087-2e-3 -0.063-0.047 0.651-1.2 0.415-2.728-0.652-3.672-1.126-0.996-2.785-0.995-3.905-0.062-0.032 0.026-0.075-0.011-0.052-0.046 0.79-1.225 0.589-2.872-0.538-3.868-1.079-0.955-2.647-0.993-3.761-0.174-0.036 0.027-0.077-0.015-0.047-0.048l20.752-23.458c0.014-0.016 0.038-0.018 0.054-3e-3z" fill="#fa9200"/>
   <rect transform="matrix(.749 .6626 -.6626 .749 55.127 -39.967)" x="74.313" y="51.774" width="12" height="2" fill="#f5c43d"/>
   <path d="m84.996 47.571-0.09-0.08c-2.457-2.174-6.211-1.944-8.385 0.513l-0.04 0.045 8.988 7.951 0.04-0.045c2.174-2.456 1.944-6.21-0.513-8.384z" fill="#fff"/>
   <path d="m84.119 57.527-20.748 23.452c-0.03 0.034-0.077-2e-3 -0.055-0.042 0.674-1.205 0.444-2.753-0.634-3.706-1.124-0.994-2.778-0.995-3.897-0.068-0.019 0.016-0.041-8e-3 -0.025-0.025l20.865-23.586c0.014-0.016 0.038-0.018 0.054-3e-3l4.438 3.925c0.014 0.013 0.016 0.037 2e-3 0.053z" fill="#e07000"/>
   <path d="m57.064 82.675-3.917 0.807 0.323-3.987c0.833 0.069 1.653 0.395 2.328 0.991 0.673 0.597 1.096 1.371 1.266 2.189z" fill="#3d320c"/>
  </g>
 </g>
 <circle cx="-371.92" cy="-338.93" r="0" fill="#5e4aa6" stroke-width=".26458"/>
 <g transform="translate(25.056 -.73088)">
  <path d="m-18.532 8.8944c-0.17663 0-0.31988 0.14324-0.31988 0.31988v4.6902c0 0.17663 0.14324 0.31988 0.31988 0.31988h3.3578c0.17663 0 0.31988-0.14324 0.31988-0.31988v-3.8906h-1.0128c-0.17663 0-0.31988-0.14324-0.31988-0.31988v-0.79943h-2.3451zm0.59168 1.6567h2.1745v0.2222h-2.1745zm0 0.89708h2.1745v0.2222h-2.1745zm0 0.89708h2.1745v0.2222h-2.1745z" fill="#fff" stroke-width=".083279"/>
  <path d="m-16.187 8.8942v0.79947c0 0.17663 0.14315 0.31979 0.31979 0.31979h1.0127z" fill="#fff" opacity=".2" stroke-width=".083278"/>
  <g transform="translate(-25.355 -.137)" stroke-width=".009826">
   <path d="m10.093 13.321-0.20152 0.24908-0.57619 0.48984c-0.046791 0.03979-0.11544 0.04051-0.16335 0.0017-0.047923-0.03878-0.061522-0.10604-0.032396-0.16012l0.35873-0.66574 0.20152-0.24908z" fill="#fafafa"/>
   <path d="m10.093 13.321-0.20152 0.24908-0.57619 0.48984c-0.046791 0.03979-0.11544 0.04051-0.16335 0.0017l0.73447-0.90783z" fill="#f0f0f0"/>
   <path d="m9.8913 13.571-0.41389-0.33488c-0.045451-0.03677-0.052486-0.10344-0.015714-0.14888l2.2318-2.7587c0.12871-0.1591 0.36204-0.18372 0.52114-0.055l0.0024 2e-3c0.15908 0.12872 0.1837 0.36202 0.055 0.52111l-2.2318 2.7587c-0.03678 0.04547-0.10344 0.05251-0.14891 0.01572z" fill="#fff"/>
   <path d="m12.216 10.274-2.5315 3.129-0.2066-0.16716c-0.045638-0.03694-0.052807-0.10373-0.016026-0.14922l2.2317-2.7585c0.12877-0.15917 0.36266-0.18343 0.52241-0.05418z" fill="#e6e6e6"/>
   <path d="m11.415 11.942-0.0021-0.0017c-0.13636-0.11032-0.15746-0.3103-0.04714-0.44666l0.59973-0.74129c0.07355-0.09091 0.20688-0.10498 0.29778-0.03143l0.16665 0.13483c0.09091 0.07356 0.10498 0.20687 0.03143 0.29778l-0.59971 0.74128c-0.11033 0.13637-0.31033 0.15748-0.44669 0.04715z" fill="#fafafa"/>
   <path d="m12.272 10.797c0.01129-0.01399 0.02137-0.02857 0.03032-0.04358l0.12695 0.10271c0.09129 0.07386 0.10563 0.20746 0.03205 0.29841l-0.59956 0.74109c-0.11038 0.13643-0.31085 0.15722-0.44778 0.04643-0.01408-0.01141-0.02688-0.02379-0.03851-0.03692z" fill="#fff"/>
  </g>
 </g>
</svg>
