<?xml version="1.0" encoding="UTF-8"?>
<!-- Created with Inkscape (http://www.inkscape.org/) -->
<svg width="64" height="64" version="1.1" viewBox="0 0 16.933 16.933" xmlns="http://www.w3.org/2000/svg" xmlns:cc="http://creativecommons.org/ns#" xmlns:dc="http://purl.org/dc/elements/1.1/" xmlns:rdf="http://www.w3.org/1999/02/22-rdf-syntax-ns#">
 <defs>
  <filter id="filter2761" x="-.024" y="-.024" width="1.048" height="1.048" color-interpolation-filters="sRGB">
   <feGaussianBlur stdDeviation="0.14552168"/>
  </filter>
  <linearGradient id="linearGradient2645-3" x1="15.752" x2="1.3927" y1="281.24" y2="295.6" gradientTransform="translate(-.13126 -280.07)" gradientUnits="userSpaceOnUse">
   <stop stop-color="#dc28e6" offset="0"/>
   <stop stop-color="#8c14e6" offset="1"/>
  </linearGradient>
  <linearGradient id="linearGradient1055" x1="-27.799" x2="-19.522" y1="27.988" y2="36.263" gradientTransform="matrix(1.4539 0 0 1.4539 42.333 -38.836)" gradientUnits="userSpaceOnUse">
   <stop stop-color="#e6f0f5" offset="0"/>
   <stop stop-color="#f0c8f0" offset="1"/>
  </linearGradient>
  <filter id="filter847" x="-.036" y="-.036" width="1.072" height="1.072" color-interpolation-filters="sRGB">
   <feGaussianBlur stdDeviation="0.16525134"/>
  </filter>
 </defs>
 <metadata>
  <rdf:RDF>
   <cc:Work rdf:about="">
    <dc:format>image/svg+xml</dc:format>
    <dc:type rdf:resource="http://purl.org/dc/dcmitype/StillImage"/>
    <dc:title/>
   </cc:Work>
  </rdf:RDF>
 </metadata>
 <path d="m10.709 1.05c4.405 0 5.0345 0.67282 5.0345 5.388v3.7761c0 4.7152-0.62954 5.388-5.0345 5.388h-4.4832c-4.405 0-5.0346-0.6728-5.0346-5.388v-3.7761c0-4.7152 0.62954-5.388 5.0346-5.388z" enable-background="new" fill="#141414" filter="url(#filter2761)" opacity=".3"/>
 <path d="m10.709 1.05c4.405 0 5.0345 0.67282 5.0345 5.388v3.7761c0 4.7152-0.62954 5.388-5.0345 5.388h-4.4832c-4.405 0-5.0346-0.6728-5.0346-5.388v-3.7761c0-4.7152 0.62954-5.388 5.0346-5.388z" enable-background="new" fill="url(#linearGradient2645-3)"/>
 <path d="m8.4677 2.8177a5.5082 5.5082 0 0 0-3.6943 1.4305c0.012064 0.24583 0.036044 0.46769 0.10745 0.88356l0.057098 0.32533 0.13299-0.016531c0.61561-0.073599 1.1457-0.12614 1.4711-0.145l0.38768-0.021038 0.063875-0.07588c0.62853-0.80637 1.5235-1.7347 2.2329-2.3216a5.5082 5.5082 0 0 0-0.75884-0.05935zm1.5695 0.23141c-0.43195 0.31701-0.88398 0.71243-1.3524 1.1886-0.19222 0.19468-0.47267 0.49911-0.62961 0.68221l-0.29151 0.32833 0.24944 0.00684c2.1085 0.050277 4.0137 0.36453 5.5005 0.8783a5.5082 5.5082 0 0 0-3.4764-3.0842zm-5.8371 1.8002a5.5082 5.5082 0 0 0-0.59655 0.89934c0.13048-0.034981 0.26334-0.069033 0.40196-0.10069 0.26156-0.059597 0.32021-0.081493 0.31105-0.11495-0.0072344-0.023729-0.037948-0.17028-0.068365-0.33209-0.021299-0.11444-0.031874-0.23413-0.048076-0.35162zm3.0564 1.0428-0.18032 0.24268c-0.26824 0.36373-0.85137 1.2496-1.0819 1.6462l-0.20361 0.34937 0.13975 0.32232c0.94154 2.1595 2.2299 4.0925 3.4629 5.3029a5.5082 5.5082 0 0 0 3.1233-1.7055c-0.18807-1.2118-0.63915-2.626-1.3201-4.0774-0.099754-0.2117-0.15928-0.3724-0.15928-0.43201 0-0.17093 0.14276-0.30661 0.31856-0.30429 0.15694 0 0.22531 0.06204 0.34636 0.31631 0.62801 1.314 1.0825 2.6303 1.3381 3.8393a5.5082 5.5082 0 0 0 0.9354-3.0662 5.5082 5.5082 0 0 0-0.18107-1.3862c-1.5931-0.64759-3.815-1.0473-6.0632-1.0473zm-1.0466 0.061603c-0.35187 0.022638-1.0592 0.10157-1.0857 0.12848-0.021288 0.023757 0.050321 0.29971 0.21638 0.81068 0.11618 0.37047 0.15416 0.44646 0.18032 0.41849 0.018852-0.021286 0.11454-0.16596 0.21187-0.32532v-7.532e-4c0.099738-0.16426 0.29185-0.45356 0.4275-0.65065 0.13564-0.19952 0.24493-0.36886 0.24493-0.38092 0-0.00901-0.078078-0.00755-0.19534 0zm-1.8145 0.26973c-0.072546 0.0088728-0.19538 0.036232-0.3952 0.084895-0.26475 0.064787-0.50407 0.13674-0.73029 0.21262a5.5082 5.5082 0 0 0-0.31105 1.8047 5.5082 5.5082 0 0 0 0.8242 2.8896c0.24697-0.85728 0.62309-1.7937 1.1037-2.7221l0.20661-0.39895-0.15703-0.4245c-0.15209-0.40633-0.44629-1.3481-0.44629-1.4193 0-0.026156-0.022118-0.035839-0.094664-0.027043zm4.5388 1.5628c0.50367 0 0.91211 0.41069 0.91211 0.91437 0 0.50367-0.40845 0.91286-0.91211 0.91286s-0.91211-0.40919-0.91211-0.91286c0-0.50368 0.40846-0.91437 0.91211-0.91437zm-3.5185 1.115c-0.00745-0.0032-0.014394-5.264e-4 -0.020288 0.00596-0.04747 0.049888-0.39618 0.80562-0.57927 1.257-0.24078 0.59248-0.42341 1.1612-0.55147 1.713a5.5082 5.5082 0 0 0 4.2029 1.9572 5.5082 5.5082 0 0 0 0.12171-0.0046c-0.4875-0.525-0.97804-1.1396-1.4538-1.8459-0.5961-0.88626-1.2067-1.9813-1.6063-2.8791-0.058855-0.13549-0.09103-0.19409-0.11345-0.20361z" fill="url(#linearGradient1055)" filter="url(#filter847)"/>
 <path d="m8.4677 2.8177a5.5082 5.5082 0 0 0-3.6943 1.4305c0.012064 0.24583 0.036044 0.46769 0.10745 0.88356l0.057098 0.32533 0.13299-0.016531c0.61561-0.073599 1.1457-0.12614 1.4711-0.145l0.38768-0.021038 0.063875-0.07588c0.62853-0.80637 1.5235-1.7347 2.2329-2.3216a5.5082 5.5082 0 0 0-0.75884-0.05935zm1.5695 0.23141c-0.43195 0.31701-0.88398 0.71243-1.3524 1.1886-0.19222 0.19468-0.47267 0.49911-0.62961 0.68221l-0.29151 0.32833 0.24944 0.00684c2.1085 0.050277 4.0137 0.36453 5.5005 0.8783a5.5082 5.5082 0 0 0-3.4764-3.0842zm-5.8371 1.8002a5.5082 5.5082 0 0 0-0.59655 0.89934c0.13048-0.034981 0.26334-0.069033 0.40196-0.10069 0.26156-0.059597 0.32021-0.081493 0.31105-0.11495-0.0072344-0.023729-0.037948-0.17028-0.068365-0.33209-0.021299-0.11444-0.031874-0.23413-0.048076-0.35162zm3.0564 1.0428-0.18032 0.24268c-0.26824 0.36373-0.85137 1.2496-1.0819 1.6462l-0.20361 0.34937 0.13975 0.32232c0.94154 2.1595 2.2299 4.0925 3.4629 5.3029a5.5082 5.5082 0 0 0 3.1233-1.7055c-0.18807-1.2118-0.63915-2.626-1.3201-4.0774-0.099754-0.2117-0.15928-0.3724-0.15928-0.43201 0-0.17093 0.14276-0.30661 0.31856-0.30429 0.15694 0 0.22531 0.06204 0.34636 0.31631 0.62801 1.314 1.0825 2.6303 1.3381 3.8393a5.5082 5.5082 0 0 0 0.9354-3.0662 5.5082 5.5082 0 0 0-0.18107-1.3862c-1.5931-0.64759-3.815-1.0473-6.0632-1.0473zm-1.0466 0.061603c-0.35187 0.022638-1.0592 0.10157-1.0857 0.12848-0.021288 0.023757 0.050321 0.29971 0.21638 0.81068 0.11618 0.37047 0.15416 0.44646 0.18032 0.41849 0.018852-0.021286 0.11454-0.16596 0.21187-0.32532v-7.532e-4c0.099738-0.16426 0.29185-0.45356 0.4275-0.65065 0.13564-0.19952 0.24493-0.36886 0.24493-0.38092 0-0.00901-0.078078-0.00755-0.19534 0zm-1.8145 0.26973c-0.072546 0.0088728-0.19538 0.036232-0.3952 0.084895-0.26475 0.064787-0.50407 0.13674-0.73029 0.21262a5.5082 5.5082 0 0 0-0.31105 1.8047 5.5082 5.5082 0 0 0 0.8242 2.8896c0.24697-0.85728 0.62309-1.7937 1.1037-2.7221l0.20661-0.39895-0.15703-0.4245c-0.15209-0.40633-0.44629-1.3481-0.44629-1.4193 0-0.026156-0.022118-0.035839-0.094664-0.027043zm4.5388 1.5628c0.50367 0 0.91211 0.41069 0.91211 0.91437 0 0.50367-0.40845 0.91286-0.91211 0.91286s-0.91211-0.40919-0.91211-0.91286c0-0.50368 0.40846-0.91437 0.91211-0.91437zm-3.5185 1.115c-0.00745-0.0032-0.014394-5.264e-4 -0.020288 0.00596-0.04747 0.049888-0.39618 0.80562-0.57927 1.257-0.24078 0.59248-0.42341 1.1612-0.55147 1.713a5.5082 5.5082 0 0 0 4.2029 1.9572 5.5082 5.5082 0 0 0 0.12171-0.0046c-0.4875-0.525-0.97804-1.1396-1.4538-1.8459-0.5961-0.88626-1.2067-1.9813-1.6063-2.8791-0.058855-0.13549-0.09103-0.19409-0.11345-0.20361z" fill="url(#linearGradient1055)"/>
</svg>
