<?xml version="1.0" encoding="UTF-8" standalone="no"?>
<!-- Created with Inkscape (http://www.inkscape.org/) -->

<svg
   xmlns:dc="http://purl.org/dc/elements/1.1/"
   xmlns:cc="http://creativecommons.org/ns#"
   xmlns:rdf="http://www.w3.org/1999/02/22-rdf-syntax-ns#"
   xmlns:svg="http://www.w3.org/2000/svg"
   xmlns="http://www.w3.org/2000/svg"
   xmlns:xlink="http://www.w3.org/1999/xlink"
   xmlns:sodipodi="http://sodipodi.sourceforge.net/DTD/sodipodi-0.dtd"
   xmlns:inkscape="http://www.inkscape.org/namespaces/inkscape"
   width="64"
   height="64"
   version="1.1"
   viewBox="0 0 16.933 16.933"
   id="svg63"
   sodipodi:docname="black-default-folder-music.svg"
   inkscape:version="0.92.4 5da689c313, 2019-01-14">
  <sodipodi:namedview
     pagecolor="#ffffff"
     bordercolor="#666666"
     borderopacity="1"
     objecttolerance="10"
     gridtolerance="10"
     guidetolerance="10"
     inkscape:pageopacity="0"
     inkscape:pageshadow="2"
     inkscape:window-width="1920"
     inkscape:window-height="1018"
     id="namedview65"
     showgrid="false"
     inkscape:zoom="3.6875"
     inkscape:cx="32"
     inkscape:cy="32"
     inkscape:window-x="0"
     inkscape:window-y="36"
     inkscape:window-maximized="1"
     inkscape:current-layer="svg63" />
  <defs
     id="defs27">
    <filter
       id="filter2761"
       x="-.024"
       y="-.024"
       width="1.048"
       height="1.048"
       color-interpolation-filters="sRGB">
      <feGaussianBlur
         stdDeviation="0.14552168"
         id="feGaussianBlur2" />
    </filter>
    <linearGradient
       id="linearGradient991">
      <stop
         stop-color="#969696"
         offset="0"
         id="stop5" />
      <stop
         stop-color="#e6e6e6"
         stop-opacity=".90196"
         offset="1"
         id="stop7" />
    </linearGradient>
    <linearGradient
       id="linearGradient13510-3"
       x1="8.7643"
       x2="8.7643"
       y1="287.18"
       y2="287.64"
       gradientTransform="matrix(.81179 0 0 .47636 1.5779 -131.36)"
       gradientUnits="userSpaceOnUse"
       xlink:href="#linearGradient991" />
    <linearGradient
       id="linearGradient13512"
       x1="8.3178"
       x2="8.3178"
       y1="289.36"
       y2="289.81"
       gradientTransform="matrix(.78232 0 0 .47636 1.8128 -134.31)"
       gradientUnits="userSpaceOnUse"
       xlink:href="#linearGradient991" />
    <linearGradient
       id="linearGradient677348"
       x1="-6.1738"
       x2="-6.1738"
       y1="-126.08"
       y2="-126.7"
       gradientTransform="matrix(.52936 0 0 .54035 11.512 75.408)"
       gradientUnits="userSpaceOnUse">
      <stop
         stop-color="#6e4b41"
         offset="0"
         id="stop12" />
      <stop
         stop-color="#4b322d"
         offset="1"
         id="stop14" />
    </linearGradient>
    <linearGradient
       id="linearGradient2771"
       x1="8.4084"
       x2="8.4084"
       y1="281.15"
       y2="295.88"
       gradientTransform="translate(-.14773 -280.07)"
       gradientUnits="userSpaceOnUse">
      <stop
         stop-color="#785546"
         offset="0"
         id="stop17" />
      <stop
         stop-color="#64463c"
         offset="1"
         id="stop19" />
    </linearGradient>
    <linearGradient
       id="linearGradient2725"
       x1="8.4084"
       x2="8.4084"
       y1="281.15"
       y2="295.88"
       gradientTransform="translate(-.1478 -280.07)"
       gradientUnits="userSpaceOnUse">
      <stop
         stop-color="#785546"
         offset="0"
         id="stop22" />
      <stop
         stop-color="#64463c"
         offset="1"
         id="stop24" />
    </linearGradient>
    <linearGradient
       id="linearGradient677348-3"
       x1="-6.1738"
       x2="-6.1738"
       y1="-126.08"
       y2="-126.7"
       gradientTransform="matrix(0.52935999,0,0,0.54034998,11.512,75.407998)"
       gradientUnits="userSpaceOnUse">
      <stop
         stop-color="#3c3c3c"
         offset="0"
         id="stop22-6" />
      <stop
         stop-color="#141414"
         offset="1"
         id="stop24-7" />
    </linearGradient>
    <linearGradient
       id="linearGradient2771-5"
       x1="8.4083996"
       x2="8.4083996"
       y1="281.14999"
       y2="295.88"
       gradientTransform="translate(-0.14773,-280.07)"
       gradientUnits="userSpaceOnUse">
      <stop
         stop-color="#464646"
         offset="0"
         id="stop10" />
      <stop
         stop-color="#212121"
         offset="1"
         id="stop12-3" />
    </linearGradient>
    <linearGradient
       id="linearGradient13512-5"
       x1="8.3177996"
       x2="8.3177996"
       y1="289.35999"
       y2="289.81"
       gradientTransform="matrix(0.78231998,0,0,0.47635999,23.76745,-122.6178)"
       gradientUnits="userSpaceOnUse"
       xlink:href="#linearGradient991" />
    <linearGradient
       id="linearGradient13510-3-2"
       x1="8.7643003"
       x2="8.7643003"
       y1="287.17999"
       y2="287.64001"
       gradientTransform="matrix(0.81178999,0,0,0.47635999,23.53255,-119.6678)"
       gradientUnits="userSpaceOnUse"
       xlink:href="#linearGradient991" />
    <linearGradient
       id="linearGradient2725-9"
       x1="8.4083996"
       x2="8.4083996"
       y1="281.14999"
       y2="295.88"
       gradientTransform="translate(-0.1478,-280.07)"
       gradientUnits="userSpaceOnUse">
      <stop
         stop-color="#464646"
         offset="0"
         id="stop5-1" />
      <stop
         stop-color="#212121"
         offset="1"
         id="stop7-2" />
    </linearGradient>
    <filter
       style="color-interpolation-filters:sRGB"
       id="filter2761-7"
       x="-0.024"
       y="-0.024"
       width="1.048"
       height="1.048">
      <feGaussianBlur
         stdDeviation="0.14552168"
         id="feGaussianBlur2-0" />
    </filter>
  </defs>
  <metadata
     id="metadata29">
    <rdf:RDF>
      <cc:Work
         rdf:about="">
        <dc:format>image/svg+xml</dc:format>
        <dc:type
           rdf:resource="http://purl.org/dc/dcmitype/StillImage" />
        <dc:title></dc:title>
      </cc:Work>
    </rdf:RDF>
  </metadata>
  <path
     d="m10.709 1.05c4.405 0 5.0345 0.67282 5.0345 5.388v3.7761c0 4.7152-0.62954 5.388-5.0345 5.388h-4.4832c-4.405 0-5.0346-0.6728-5.0346-5.388v-3.7761c0-4.7152 0.62954-5.388 5.0346-5.388z"
     enable-background="new"
     fill="#141414"
     filter="url(#filter2761)"
     opacity=".3"
     id="path31" />
  <path
     inkscape:connector-curvature="0"
     style="fill:url(#linearGradient2725-9);stroke-width:1;enable-background:new"
     d="m 10.692,1.05 c 4.405,0 5.0345,0.67282 5.0345,5.388 v 3.7761 c 0,4.7152 -0.62954,5.388 -5.0345,5.388 H 6.2088 c -4.405,0 -5.0346,-0.6728 -5.0346,-5.388 V 6.438 c 0,-4.7152 0.62954,-5.388 5.0346,-5.388 z"
     id="path33-3" />
  <path
     d="m10.489 1.7114c4.0046 0 4.5768 0.61166 4.5768 4.8982v3.4328c0 4.2866-0.57231 4.8982-4.5768 4.8982h-4.0757c-4.0046 0-4.5769-0.61164-4.5769-4.8982v-3.4328c0-4.2866 0.57231-4.8982 4.5769-4.8982z"
     enable-background="new"
     fill="#fafafa"
     stroke-width=".90909"
     id="path35" />
  <path
     d="m2.0941 5.4766c-0.0083 0.04197-0.01343 0.08574-0.02139 0.12875h12.756c-0.0076-0.043002-0.01301-0.08681-0.02223-0.12875z"
     fill="url(#linearGradient13510-3)"
     opacity=".6"
     stroke-width=".85831"
     style="paint-order:normal"
     id="path37" />
  <path
     d="m2.3034 3.5593c0.00742 0.043002 0.014427 0.085926 0.022638 0.12875h12.251c0.0077-0.046263 0.01416-0.083085 0.02102-0.12875z"
     fill="url(#linearGradient13512)"
     opacity=".6"
     stroke-width=".8426"
     style="paint-order:normal"
     id="path39" />
  <path
     inkscape:connector-curvature="0"
     style="fill:url(#linearGradient2771-5);stroke-width:1;enable-background:new"
     d="m 8.234,5.0195 c -0.293,0 -0.38167,0.27567 -0.52967,0.52967 L 7.39635,6.07729 H 1.17825 C 1.177277,6.19856 1.17465,6.31142 1.17465,6.4385 v 3.7759 c 0,4.715199 0.62974,5.3877 5.0347,5.3877 h 4.4834 c 4.405,0 5.0342,-0.67248 5.0342,-5.3877 V 6.4385 c 0,-0.52382 -0.0096,-0.99035 -0.02945,-1.419 z"
     id="path41-2" />
  <path
     d="m15.727 11.554-4.0312 4.0312c3.1176-0.10511 3.8959-0.84418 4.0312-4.0312z"
     enable-background="new"
     fill="#fff"
     opacity=".2"
     id="path43" />
  <path
     inkscape:connector-curvature="0"
     style="fill:url(#linearGradient677348-3);stroke-width:0.1415"
     d="M 1.4314,6.9805 C 1.38624,7.0715 1.34166,7.16326 1.29988,7.25587 h 14.353 C 15.61291,7.16327 15.5651,7.07149 15.52186,6.9805 Z"
     id="path45-1" />
  <circle
     cx="-365.25"
     cy="-336.98"
     r="0"
     fill="#5e4aa6"
     stroke-width=".26458"
     id="circle47" />
  <g
     transform="matrix(.01053 0 0 .01053 5.7551 8.2541)"
     id="g61">
    <path
       d="m217.5 140.39v219.02c-10.227-5.0586-21.801-7.8047-34.051-7.5078-38.789 0.93359-70.352 32.699-71.043 71.496-0.73437 41.188 32.727 74.742 73.879 74.164 39.984-0.5625 71.801-33.828 71.801-73.816v-243.46l213.33-37.691v164.78c-10.227-5.0586-21.801-7.8008-34.047-7.5078-38.789 0.93359-70.355 32.699-71.047 71.492-0.73437 41.191 32.723 74.746 73.879 74.172 39.984-0.5625 71.801-33.832 71.801-73.816v-276c0-12.941-11.688-22.746-24.434-20.496l-252.88 44.68c-9.9453 1.7578-17.191 10.398-17.191 20.496z"
       fill="#fafafa"
       id="path49" />
    <path
       d="m248.98 183c-8.8047 2.6367-14.84 10.742-14.84 19.938v220.8c0 36.258-26.16 66.992-60.848 72.828 4.2188 0.69531 8.5547 1.0508 12.984 0.98828 39.984-0.5625 71.797-33.828 71.797-73.816v-243.46z"
       fill="#e6e6e6"
       id="path51" />
    <path
       d="m487.57 75.246-10.914 1.9258c6.6992 3.4062 11.414 10.352 11.414 18.566v276c0 36.258-26.164 66.992-60.852 72.824 4.2188 0.69531 8.5547 1.0547 12.984 0.99219 39.984-0.5625 71.801-33.832 71.801-73.816v-276c0-12.945-11.688-22.75-24.434-20.496z"
       fill="#e6e6e6"
       id="path53" />
    <path
       d="m105.11 21.059v134.37c-10.223-5.0586-21.797-7.8047-34.047-7.5078-38.789 0.93359-70.355 32.695-71.047 71.492-0.73437 41.191 32.727 74.746 73.879 74.168 39.984-0.5586 71.801-33.828 71.801-73.812v-208.86c0-7.7812-8.2305-12.809-15.156-9.2578l-19.77 10.141c-3.4766 1.7812-5.6602 5.3555-5.6602 9.2578z"
       fill="#ffd664"
       id="path55" />
    <path
       d="m105.11 21.059v134.37c-10.223-5.0586-21.797-7.8047-34.047-7.5078-38.789 0.93359-70.355 32.695-71.047 71.492-0.73437 41.191 32.727 74.746 73.879 74.168 39.984-0.5586 71.801-33.828 71.801-73.812v-208.86c0-7.7812-8.2305-12.809-15.156-9.2578l-19.77 10.141c-3.4766 1.7812-5.6602 5.3555-5.6602 9.2578z"
       fill="#fafafa"
       id="path57" />
    <path
       d="m62.438 292.84c3.4023 0.48437 6.875 0.75 10.41 0.75 40.23 0 72.844-32.613 72.844-72.844v-209.83c0-7.7812-8.2305-12.809-15.156-9.2578l-5.6562 2.9023v216.19c0 36.695-27.141 67.043-62.441 72.094z"
       fill="#e6e6e6"
       id="path59" />
  </g>
</svg>
