<?xml version="1.0" encoding="UTF-8"?>
<!-- Created with Inkscape (http://www.inkscape.org/) -->
<svg width="64" height="64" version="1.1" viewBox="0 0 16.933 16.933" xmlns="http://www.w3.org/2000/svg" xmlns:cc="http://creativecommons.org/ns#" xmlns:dc="http://purl.org/dc/elements/1.1/" xmlns:rdf="http://www.w3.org/1999/02/22-rdf-syntax-ns#" xmlns:xlink="http://www.w3.org/1999/xlink">
 <defs>
  <filter id="filter2761" x="-.024" y="-.024" width="1.048" height="1.048" color-interpolation-filters="sRGB">
   <feGaussianBlur stdDeviation="0.14552168"/>
  </filter>
  <linearGradient id="linearGradient991">
   <stop stop-color="#969696" offset="0"/>
   <stop stop-color="#e6e6e6" stop-opacity=".90196" offset="1"/>
  </linearGradient>
  <linearGradient id="linearGradient13510-3" x1="8.7643" x2="8.7643" y1="287.18" y2="287.64" gradientTransform="matrix(.81179 0 0 .47636 1.5779 -131.36)" gradientUnits="userSpaceOnUse" xlink:href="#linearGradient991"/>
  <linearGradient id="linearGradient13512" x1="8.3178" x2="8.3178" y1="289.36" y2="289.81" gradientTransform="matrix(.78232 0 0 .47636 1.8128 -134.31)" gradientUnits="userSpaceOnUse" xlink:href="#linearGradient991"/>
  <linearGradient id="linearGradient677348-3" x1="-6.1738" x2="-6.1738" y1="-126.08" y2="-126.7" gradientTransform="matrix(.52936 0 0 .54035 11.512 75.408)" gradientUnits="userSpaceOnUse">
   <stop stop-color="#3c3c3c" offset="0"/>
   <stop stop-color="#141414" offset="1"/>
  </linearGradient>
  <linearGradient id="linearGradient2771-5" x1="8.4084" x2="8.4084" y1="281.15" y2="295.88" gradientTransform="translate(-.14773 -280.07)" gradientUnits="userSpaceOnUse">
   <stop stop-color="#464646" offset="0"/>
   <stop stop-color="#212121" offset="1"/>
  </linearGradient>
  <linearGradient id="linearGradient2725-9" x1="8.4084" x2="8.4084" y1="281.15" y2="295.88" gradientTransform="translate(-.1478 -280.07)" gradientUnits="userSpaceOnUse">
   <stop stop-color="#464646" offset="0"/>
   <stop stop-color="#212121" offset="1"/>
  </linearGradient>
 </defs>
 <metadata>
  <rdf:RDF>
   <cc:Work rdf:about="">
    <dc:format>image/svg+xml</dc:format>
    <dc:type rdf:resource="http://purl.org/dc/dcmitype/StillImage"/>
    <dc:title/>
   </cc:Work>
  </rdf:RDF>
 </metadata>
 <path d="m10.709 1.05c4.405 0 5.0345 0.67282 5.0345 5.388v3.7761c0 4.7152-0.62954 5.388-5.0345 5.388h-4.4832c-4.405 0-5.0346-0.6728-5.0346-5.388v-3.7761c0-4.7152 0.62954-5.388 5.0346-5.388z" enable-background="new" fill="#141414" filter="url(#filter2761)" opacity=".3"/>
 <path d="m10.692 1.05c4.405 0 5.0345 0.67282 5.0345 5.388v3.7761c0 4.7152-0.62954 5.388-5.0345 5.388h-4.4832c-4.405 0-5.0346-0.6728-5.0346-5.388v-3.7761c0-4.7152 0.62954-5.388 5.0346-5.388z" enable-background="new" fill="url(#linearGradient2725-9)"/>
 <path d="m10.489 1.7114c4.0046 0 4.5768 0.61166 4.5768 4.8982v3.4328c0 4.2866-0.57231 4.8982-4.5768 4.8982h-4.0757c-4.0046 0-4.5769-0.61164-4.5769-4.8982v-3.4328c0-4.2866 0.57231-4.8982 4.5769-4.8982z" enable-background="new" fill="#fafafa" stroke-width=".90909"/>
 <path d="m2.0941 5.4766c-0.0083 0.04197-0.01343 0.08574-0.02139 0.12875h12.756c-0.0076-0.043002-0.01301-0.08681-0.02223-0.12875z" fill="url(#linearGradient13510-3)" opacity=".6" stroke-width=".85831" style="paint-order:normal"/>
 <path d="m2.3034 3.5593c0.00742 0.043002 0.014427 0.085926 0.022638 0.12875h12.251c0.0077-0.046263 0.01416-0.083085 0.02102-0.12875z" fill="url(#linearGradient13512)" opacity=".6" stroke-width=".8426" style="paint-order:normal"/>
 <path d="m8.234 5.0195c-0.293 0-0.38167 0.27567-0.52967 0.52967l-0.30798 0.52812h-6.2181c-9.73e-4 0.12127-0.0036 0.23413-0.0036 0.36121v3.7759c0 4.7152 0.62974 5.3877 5.0347 5.3877h4.4834c4.405 0 5.0342-0.67248 5.0342-5.3877v-3.7759c0-0.52382-0.0096-0.99035-0.02945-1.419z" enable-background="new" fill="url(#linearGradient2771-5)"/>
 <path d="m15.727 11.554-4.0312 4.0312c3.1176-0.10511 3.8959-0.84418 4.0312-4.0312z" enable-background="new" fill="#fff" opacity=".2"/>
 <path d="m1.4314 6.9805c-0.04516 0.091-0.08974 0.18276-0.13152 0.27537h14.353c-0.03997-0.0926-0.08778-0.18438-0.13102-0.27537z" fill="url(#linearGradient677348-3)" stroke-width=".1415"/>
 <g fill="#5e4aa6" stroke-width=".26458">
  <circle cx="-373" cy="-331.1" r="0"/>
  <circle cx="-372.14" cy="-329.74" r="0"/>
  <circle cx="-319.62" cy="-330.03" r="0"/>
 </g>
 <g transform="matrix(.10058 0 0 .10058 5.4171 7.9113)">
  <path d="m20.505 45.22 5.946-3.243c-0.034-0.033-5e-3 -0.043 0.065-0.036l2.91-1.587c1.171-0.639 1.899-1.865 1.899-3.199v-3.655s-1.062-1.275-2.092-3.323c0-1e-3 -1e-3 -2e-3 -1e-3 -3e-3 -0.135-0.268-0.268-0.551-0.399-0.844-0.018-0.041-0.036-0.08-0.054-0.121-0.133-0.303-0.263-0.616-0.386-0.944-8e-3 -0.021-0.015-0.044-0.023-0.065-0.108-0.29-0.209-0.589-0.306-0.896-0.026-0.084-0.052-0.167-0.077-0.251-0.101-0.338-0.196-0.682-0.278-1.038-0.83-0.534-1.384-1.461-1.384-2.515v-4c0-0.88 0.391-1.667 1-2.217v-5.648c-1.413-1.096-3.603-2.135-7-2.135-9.563 0-10 8-10 8v4.995c-0.526 0.475-1 1.154-1 1.914v3.455c0 0.911 0.479 1.711 1.194 2.174 0.863 3.758 3.76 6.463 3.76 6.463v3.157c0 1.151-0.629 2.211-1.64 2.762l-6.704 4.202c-2.225 1.214-3.61 3.546-3.61 6.081v2.797h14v-3.239c0-2.935 1.603-5.636 4.18-7.041z" fill="#e6e6e6"/>
  <path d="m53.566 45.283-9.552-4.776c-1.234-0.617-2.014-1.879-2.014-3.259v-3.748c0.268-0.305 0.576-0.698 0.904-1.162 1.302-1.838 2.286-3.861 2.969-5.984 1.225-0.377 2.127-1.509 2.127-2.854v-4c0-0.88-0.391-1.667-1-2.217v-5.783s1.187-9-11-9c-12.188 0-11 9-11 9v5.783c-0.609 0.55-1 1.337-1 2.217v4c0 1.054 0.554 1.981 1.383 2.517 0.999 4.352 3.617 7.483 3.617 7.483v3.655c0 1.333-0.728 2.56-1.899 3.198l-8.921 4.867c-2.577 1.405-4.18 4.106-4.18 7.041v3.239h44v-3.043c0-3.038-1.717-5.815-4.434-7.174z" fill="#fff"/>
 </g>
</svg>
